G04 #@! TF.GenerationSoftware,KiCad,Pcbnew,5.0.2-bee76a0~70~ubuntu18.04.1*
G04 #@! TF.CreationDate,2020-04-05T13:34:11+02:00*
G04 #@! TF.ProjectId,APC_Solenoid_exp,4150435f-536f-46c6-956e-6f69645f6578,rev?*
G04 #@! TF.SameCoordinates,Original*
G04 #@! TF.FileFunction,Soldermask,Bot*
G04 #@! TF.FilePolarity,Negative*
%FSLAX46Y46*%
G04 Gerber Fmt 4.6, Leading zero omitted, Abs format (unit mm)*
G04 Created by KiCad (PCBNEW 5.0.2-bee76a0~70~ubuntu18.04.1) date So 05 Apr 2020 13:34:11 CEST*
%MOMM*%
%LPD*%
G01*
G04 APERTURE LIST*
%ADD10C,0.100000*%
G04 APERTURE END LIST*
D10*
G36*
X97118252Y-60257818D02*
X97118254Y-60257819D01*
X97118255Y-60257819D01*
X97491513Y-60412427D01*
X97491514Y-60412428D01*
X97827439Y-60636886D01*
X98113114Y-60922561D01*
X98113116Y-60922564D01*
X98337573Y-61258487D01*
X98492181Y-61631745D01*
X98571000Y-62027994D01*
X98571000Y-62432006D01*
X98492181Y-62828255D01*
X98337573Y-63201513D01*
X98337572Y-63201514D01*
X98113114Y-63537439D01*
X97827439Y-63823114D01*
X97827436Y-63823116D01*
X97491513Y-64047573D01*
X97118255Y-64202181D01*
X97118254Y-64202181D01*
X97118252Y-64202182D01*
X96722007Y-64281000D01*
X96317993Y-64281000D01*
X95921748Y-64202182D01*
X95921746Y-64202181D01*
X95921745Y-64202181D01*
X95548487Y-64047573D01*
X95212564Y-63823116D01*
X95212561Y-63823114D01*
X94926886Y-63537439D01*
X94702428Y-63201514D01*
X94702427Y-63201513D01*
X94547819Y-62828255D01*
X94469000Y-62432006D01*
X94469000Y-62027994D01*
X94547819Y-61631745D01*
X94702427Y-61258487D01*
X94926884Y-60922564D01*
X94926886Y-60922561D01*
X95212561Y-60636886D01*
X95548486Y-60412428D01*
X95548487Y-60412427D01*
X95921745Y-60257819D01*
X95921746Y-60257819D01*
X95921748Y-60257818D01*
X96317993Y-60179000D01*
X96722007Y-60179000D01*
X97118252Y-60257818D01*
X97118252Y-60257818D01*
G37*
G36*
X22188252Y-60257818D02*
X22188254Y-60257819D01*
X22188255Y-60257819D01*
X22561513Y-60412427D01*
X22561514Y-60412428D01*
X22897439Y-60636886D01*
X23183114Y-60922561D01*
X23183116Y-60922564D01*
X23407573Y-61258487D01*
X23562181Y-61631745D01*
X23641000Y-62027994D01*
X23641000Y-62432006D01*
X23562181Y-62828255D01*
X23407573Y-63201513D01*
X23407572Y-63201514D01*
X23183114Y-63537439D01*
X22897439Y-63823114D01*
X22897436Y-63823116D01*
X22561513Y-64047573D01*
X22188255Y-64202181D01*
X22188254Y-64202181D01*
X22188252Y-64202182D01*
X21792007Y-64281000D01*
X21387993Y-64281000D01*
X20991748Y-64202182D01*
X20991746Y-64202181D01*
X20991745Y-64202181D01*
X20618487Y-64047573D01*
X20282564Y-63823116D01*
X20282561Y-63823114D01*
X19996886Y-63537439D01*
X19772428Y-63201514D01*
X19772427Y-63201513D01*
X19617819Y-62828255D01*
X19539000Y-62432006D01*
X19539000Y-62027994D01*
X19617819Y-61631745D01*
X19772427Y-61258487D01*
X19996884Y-60922564D01*
X19996886Y-60922561D01*
X20282561Y-60636886D01*
X20618486Y-60412428D01*
X20618487Y-60412427D01*
X20991745Y-60257819D01*
X20991746Y-60257819D01*
X20991748Y-60257818D01*
X21387993Y-60179000D01*
X21792007Y-60179000D01*
X22188252Y-60257818D01*
X22188252Y-60257818D01*
G37*
G36*
X70007632Y-55603145D02*
X70108682Y-55633798D01*
X70159208Y-55649125D01*
X70233876Y-55689037D01*
X70298900Y-55723793D01*
X70298902Y-55723794D01*
X70298901Y-55723794D01*
X70421342Y-55824278D01*
X70521827Y-55946718D01*
X70596495Y-56086411D01*
X70611822Y-56136937D01*
X70642475Y-56237987D01*
X70654110Y-56356123D01*
X70654110Y-57943877D01*
X70642475Y-58062013D01*
X70611822Y-58163063D01*
X70596495Y-58213589D01*
X70521827Y-58353282D01*
X70421342Y-58475722D01*
X70298902Y-58576207D01*
X70159209Y-58650875D01*
X70108683Y-58666202D01*
X70007633Y-58696855D01*
X69850000Y-58712380D01*
X69692368Y-58696855D01*
X69591318Y-58666202D01*
X69540792Y-58650875D01*
X69401099Y-58576207D01*
X69278659Y-58475722D01*
X69178174Y-58353282D01*
X69103506Y-58213589D01*
X69088179Y-58163063D01*
X69057526Y-58062013D01*
X69045891Y-57943877D01*
X69045890Y-56356124D01*
X69057525Y-56237988D01*
X69103505Y-56086413D01*
X69103505Y-56086412D01*
X69178174Y-55946719D01*
X69278658Y-55824278D01*
X69401098Y-55723793D01*
X69540791Y-55649125D01*
X69591317Y-55633798D01*
X69692367Y-55603145D01*
X69850000Y-55587620D01*
X70007632Y-55603145D01*
X70007632Y-55603145D01*
G37*
G36*
X67467632Y-55603145D02*
X67568682Y-55633798D01*
X67619208Y-55649125D01*
X67693876Y-55689037D01*
X67758900Y-55723793D01*
X67758902Y-55723794D01*
X67758901Y-55723794D01*
X67881342Y-55824278D01*
X67981827Y-55946718D01*
X68056495Y-56086411D01*
X68071822Y-56136937D01*
X68102475Y-56237987D01*
X68114110Y-56356123D01*
X68114110Y-57943877D01*
X68102475Y-58062013D01*
X68071822Y-58163063D01*
X68056495Y-58213589D01*
X67981827Y-58353282D01*
X67881342Y-58475722D01*
X67758902Y-58576207D01*
X67619209Y-58650875D01*
X67568683Y-58666202D01*
X67467633Y-58696855D01*
X67310000Y-58712380D01*
X67152368Y-58696855D01*
X67051318Y-58666202D01*
X67000792Y-58650875D01*
X66861099Y-58576207D01*
X66738659Y-58475722D01*
X66638174Y-58353282D01*
X66563506Y-58213589D01*
X66548179Y-58163063D01*
X66517526Y-58062013D01*
X66505891Y-57943877D01*
X66505890Y-56356124D01*
X66517525Y-56237988D01*
X66563505Y-56086413D01*
X66563505Y-56086412D01*
X66638174Y-55946719D01*
X66738658Y-55824278D01*
X66861098Y-55723793D01*
X67000791Y-55649125D01*
X67051317Y-55633798D01*
X67152367Y-55603145D01*
X67310000Y-55587620D01*
X67467632Y-55603145D01*
X67467632Y-55603145D01*
G37*
G36*
X72547632Y-55603145D02*
X72648682Y-55633798D01*
X72699208Y-55649125D01*
X72773876Y-55689037D01*
X72838900Y-55723793D01*
X72838902Y-55723794D01*
X72838901Y-55723794D01*
X72961342Y-55824278D01*
X73061827Y-55946718D01*
X73136495Y-56086411D01*
X73151822Y-56136937D01*
X73182475Y-56237987D01*
X73194110Y-56356123D01*
X73194110Y-57943877D01*
X73182475Y-58062013D01*
X73151822Y-58163063D01*
X73136495Y-58213589D01*
X73061827Y-58353282D01*
X72961342Y-58475722D01*
X72838902Y-58576207D01*
X72699209Y-58650875D01*
X72648683Y-58666202D01*
X72547633Y-58696855D01*
X72390000Y-58712380D01*
X72232368Y-58696855D01*
X72131318Y-58666202D01*
X72080792Y-58650875D01*
X71941099Y-58576207D01*
X71818659Y-58475722D01*
X71718174Y-58353282D01*
X71643506Y-58213589D01*
X71628179Y-58163063D01*
X71597526Y-58062013D01*
X71585891Y-57943877D01*
X71585890Y-56356124D01*
X71597525Y-56237988D01*
X71643505Y-56086413D01*
X71643505Y-56086412D01*
X71718174Y-55946719D01*
X71818658Y-55824278D01*
X71941098Y-55723793D01*
X72080791Y-55649125D01*
X72131317Y-55633798D01*
X72232367Y-55603145D01*
X72390000Y-55587620D01*
X72547632Y-55603145D01*
X72547632Y-55603145D01*
G37*
G36*
X95988704Y-54994623D02*
X96143961Y-55009914D01*
X96392971Y-55085451D01*
X96392974Y-55085453D01*
X96392975Y-55085453D01*
X96622459Y-55208114D01*
X96823607Y-55373193D01*
X96988686Y-55574341D01*
X97111347Y-55803825D01*
X97111349Y-55803829D01*
X97186886Y-56052839D01*
X97212391Y-56311800D01*
X97186886Y-56570761D01*
X97111349Y-56819771D01*
X97111347Y-56819774D01*
X97111347Y-56819775D01*
X96988686Y-57049259D01*
X96823607Y-57250407D01*
X96622459Y-57415486D01*
X96392975Y-57538147D01*
X96392971Y-57538149D01*
X96143961Y-57613686D01*
X95988704Y-57628977D01*
X95949891Y-57632800D01*
X93280109Y-57632800D01*
X93241296Y-57628977D01*
X93086039Y-57613686D01*
X92837029Y-57538149D01*
X92837025Y-57538147D01*
X92607541Y-57415486D01*
X92406393Y-57250407D01*
X92241314Y-57049259D01*
X92118653Y-56819775D01*
X92118653Y-56819774D01*
X92118651Y-56819771D01*
X92043114Y-56570761D01*
X92017609Y-56311800D01*
X92043114Y-56052839D01*
X92118651Y-55803829D01*
X92118653Y-55803825D01*
X92241314Y-55574341D01*
X92406393Y-55373193D01*
X92607541Y-55208114D01*
X92837025Y-55085453D01*
X92837026Y-55085453D01*
X92837029Y-55085451D01*
X93086039Y-55009914D01*
X93241296Y-54994623D01*
X93280109Y-54990800D01*
X95949891Y-54990800D01*
X95988704Y-54994623D01*
X95988704Y-54994623D01*
G37*
G36*
X44596000Y-56556000D02*
X42994000Y-56556000D01*
X42994000Y-55204000D01*
X44596000Y-55204000D01*
X44596000Y-56556000D01*
X44596000Y-56556000D01*
G37*
G36*
X42096000Y-56556000D02*
X40494000Y-56556000D01*
X40494000Y-55204000D01*
X42096000Y-55204000D01*
X42096000Y-56556000D01*
X42096000Y-56556000D01*
G37*
G36*
X36276821Y-53771313D02*
X36276824Y-53771314D01*
X36276825Y-53771314D01*
X36437239Y-53819975D01*
X36437241Y-53819976D01*
X36437244Y-53819977D01*
X36585078Y-53898995D01*
X36714659Y-54005341D01*
X36821005Y-54134922D01*
X36900023Y-54282756D01*
X36900024Y-54282759D01*
X36900025Y-54282761D01*
X36948686Y-54443175D01*
X36948687Y-54443179D01*
X36965117Y-54610000D01*
X36948687Y-54776821D01*
X36948686Y-54776824D01*
X36948686Y-54776825D01*
X36915309Y-54886855D01*
X36900023Y-54937244D01*
X36821005Y-55085078D01*
X36714659Y-55214659D01*
X36585078Y-55321005D01*
X36437244Y-55400023D01*
X36437241Y-55400024D01*
X36437239Y-55400025D01*
X36276825Y-55448686D01*
X36276824Y-55448686D01*
X36276821Y-55448687D01*
X36151804Y-55461000D01*
X34968196Y-55461000D01*
X34843179Y-55448687D01*
X34843176Y-55448686D01*
X34843175Y-55448686D01*
X34682761Y-55400025D01*
X34682759Y-55400024D01*
X34682756Y-55400023D01*
X34534922Y-55321005D01*
X34405341Y-55214659D01*
X34298995Y-55085078D01*
X34219977Y-54937244D01*
X34204692Y-54886855D01*
X34171314Y-54776825D01*
X34171314Y-54776824D01*
X34171313Y-54776821D01*
X34154883Y-54610000D01*
X34171313Y-54443179D01*
X34171314Y-54443175D01*
X34219975Y-54282761D01*
X34219976Y-54282759D01*
X34219977Y-54282756D01*
X34298995Y-54134922D01*
X34405341Y-54005341D01*
X34534922Y-53898995D01*
X34682756Y-53819977D01*
X34682759Y-53819976D01*
X34682761Y-53819975D01*
X34843175Y-53771314D01*
X34843176Y-53771314D01*
X34843179Y-53771313D01*
X34968196Y-53759000D01*
X36151804Y-53759000D01*
X36276821Y-53771313D01*
X36276821Y-53771313D01*
G37*
G36*
X85247632Y-51793145D02*
X85348682Y-51823798D01*
X85399208Y-51839125D01*
X85473876Y-51879037D01*
X85538900Y-51913793D01*
X85538902Y-51913794D01*
X85538901Y-51913794D01*
X85661342Y-52014278D01*
X85761827Y-52136718D01*
X85836495Y-52276411D01*
X85851822Y-52326937D01*
X85882475Y-52427987D01*
X85894110Y-52546123D01*
X85894110Y-54133877D01*
X85882475Y-54252013D01*
X85851822Y-54353063D01*
X85836495Y-54403589D01*
X85761827Y-54543282D01*
X85661342Y-54665722D01*
X85538902Y-54766207D01*
X85399209Y-54840875D01*
X85348683Y-54856202D01*
X85247633Y-54886855D01*
X85090000Y-54902380D01*
X84932368Y-54886855D01*
X84831318Y-54856202D01*
X84780792Y-54840875D01*
X84641099Y-54766207D01*
X84518659Y-54665722D01*
X84418174Y-54543282D01*
X84343506Y-54403589D01*
X84328179Y-54353063D01*
X84297526Y-54252013D01*
X84285891Y-54133877D01*
X84285890Y-52546124D01*
X84297525Y-52427988D01*
X84343505Y-52276413D01*
X84343505Y-52276412D01*
X84418174Y-52136719D01*
X84518658Y-52014278D01*
X84641098Y-51913793D01*
X84780791Y-51839125D01*
X84831317Y-51823798D01*
X84932367Y-51793145D01*
X85090000Y-51777620D01*
X85247632Y-51793145D01*
X85247632Y-51793145D01*
G37*
G36*
X82707632Y-51793145D02*
X82808682Y-51823798D01*
X82859208Y-51839125D01*
X82933876Y-51879037D01*
X82998900Y-51913793D01*
X82998902Y-51913794D01*
X82998901Y-51913794D01*
X83121342Y-52014278D01*
X83221827Y-52136718D01*
X83296495Y-52276411D01*
X83311822Y-52326937D01*
X83342475Y-52427987D01*
X83354110Y-52546123D01*
X83354110Y-54133877D01*
X83342475Y-54252013D01*
X83311822Y-54353063D01*
X83296495Y-54403589D01*
X83221827Y-54543282D01*
X83121342Y-54665722D01*
X82998902Y-54766207D01*
X82859209Y-54840875D01*
X82808683Y-54856202D01*
X82707633Y-54886855D01*
X82550000Y-54902380D01*
X82392368Y-54886855D01*
X82291318Y-54856202D01*
X82240792Y-54840875D01*
X82101099Y-54766207D01*
X81978659Y-54665722D01*
X81878174Y-54543282D01*
X81803506Y-54403589D01*
X81788179Y-54353063D01*
X81757526Y-54252013D01*
X81745891Y-54133877D01*
X81745890Y-52546124D01*
X81757525Y-52427988D01*
X81803505Y-52276413D01*
X81803505Y-52276412D01*
X81878174Y-52136719D01*
X81978658Y-52014278D01*
X82101098Y-51913793D01*
X82240791Y-51839125D01*
X82291317Y-51823798D01*
X82392367Y-51793145D01*
X82550000Y-51777620D01*
X82707632Y-51793145D01*
X82707632Y-51793145D01*
G37*
G36*
X80167632Y-51793145D02*
X80268682Y-51823798D01*
X80319208Y-51839125D01*
X80393876Y-51879037D01*
X80458900Y-51913793D01*
X80458902Y-51913794D01*
X80458901Y-51913794D01*
X80581342Y-52014278D01*
X80681827Y-52136718D01*
X80756495Y-52276411D01*
X80771822Y-52326937D01*
X80802475Y-52427987D01*
X80814110Y-52546123D01*
X80814110Y-54133877D01*
X80802475Y-54252013D01*
X80771822Y-54353063D01*
X80756495Y-54403589D01*
X80681827Y-54543282D01*
X80581342Y-54665722D01*
X80458902Y-54766207D01*
X80319209Y-54840875D01*
X80268683Y-54856202D01*
X80167633Y-54886855D01*
X80010000Y-54902380D01*
X79852368Y-54886855D01*
X79751318Y-54856202D01*
X79700792Y-54840875D01*
X79561099Y-54766207D01*
X79438659Y-54665722D01*
X79338174Y-54543282D01*
X79263506Y-54403589D01*
X79248179Y-54353063D01*
X79217526Y-54252013D01*
X79205891Y-54133877D01*
X79205890Y-52546124D01*
X79217525Y-52427988D01*
X79263505Y-52276413D01*
X79263505Y-52276412D01*
X79338174Y-52136719D01*
X79438658Y-52014278D01*
X79561098Y-51913793D01*
X79700791Y-51839125D01*
X79751317Y-51823798D01*
X79852367Y-51793145D01*
X80010000Y-51777620D01*
X80167632Y-51793145D01*
X80167632Y-51793145D01*
G37*
G36*
X48779953Y-52513731D02*
X48937995Y-52561672D01*
X49083645Y-52639524D01*
X49211306Y-52744294D01*
X49316076Y-52871955D01*
X49393928Y-53017605D01*
X49441869Y-53175647D01*
X49458056Y-53340000D01*
X49441869Y-53504353D01*
X49393928Y-53662395D01*
X49316076Y-53808045D01*
X49211306Y-53935706D01*
X49083645Y-54040476D01*
X48937995Y-54118328D01*
X48779953Y-54166269D01*
X48656784Y-54178400D01*
X47863216Y-54178400D01*
X47740047Y-54166269D01*
X47582005Y-54118328D01*
X47436355Y-54040476D01*
X47308694Y-53935706D01*
X47203924Y-53808045D01*
X47126072Y-53662395D01*
X47078131Y-53504353D01*
X47061944Y-53340000D01*
X47078131Y-53175647D01*
X47126072Y-53017605D01*
X47203924Y-52871955D01*
X47308694Y-52744294D01*
X47436355Y-52639524D01*
X47582005Y-52561672D01*
X47740047Y-52513731D01*
X47863216Y-52501600D01*
X48656784Y-52501600D01*
X48779953Y-52513731D01*
X48779953Y-52513731D01*
G37*
G36*
X56399953Y-52513731D02*
X56557995Y-52561672D01*
X56703645Y-52639524D01*
X56831306Y-52744294D01*
X56936076Y-52871955D01*
X57013928Y-53017605D01*
X57061869Y-53175647D01*
X57078056Y-53340000D01*
X57061869Y-53504353D01*
X57013928Y-53662395D01*
X56936076Y-53808045D01*
X56831306Y-53935706D01*
X56703645Y-54040476D01*
X56557995Y-54118328D01*
X56399953Y-54166269D01*
X56276784Y-54178400D01*
X55483216Y-54178400D01*
X55360047Y-54166269D01*
X55202005Y-54118328D01*
X55056355Y-54040476D01*
X54928694Y-53935706D01*
X54823924Y-53808045D01*
X54746072Y-53662395D01*
X54698131Y-53504353D01*
X54681944Y-53340000D01*
X54698131Y-53175647D01*
X54746072Y-53017605D01*
X54823924Y-52871955D01*
X54928694Y-52744294D01*
X55056355Y-52639524D01*
X55202005Y-52561672D01*
X55360047Y-52513731D01*
X55483216Y-52501600D01*
X56276784Y-52501600D01*
X56399953Y-52513731D01*
X56399953Y-52513731D01*
G37*
G36*
X95988704Y-51032223D02*
X96143961Y-51047514D01*
X96392971Y-51123051D01*
X96392974Y-51123053D01*
X96392975Y-51123053D01*
X96622459Y-51245714D01*
X96823607Y-51410793D01*
X96988686Y-51611941D01*
X97111347Y-51841425D01*
X97111349Y-51841429D01*
X97186886Y-52090439D01*
X97212391Y-52349400D01*
X97186886Y-52608361D01*
X97111349Y-52857371D01*
X97111347Y-52857374D01*
X97111347Y-52857375D01*
X96988686Y-53086859D01*
X96823607Y-53288007D01*
X96622459Y-53453086D01*
X96392975Y-53575747D01*
X96392971Y-53575749D01*
X96143961Y-53651286D01*
X95988704Y-53666577D01*
X95949891Y-53670400D01*
X93280109Y-53670400D01*
X93241296Y-53666577D01*
X93086039Y-53651286D01*
X92837029Y-53575749D01*
X92837025Y-53575747D01*
X92607541Y-53453086D01*
X92406393Y-53288007D01*
X92241314Y-53086859D01*
X92118653Y-52857375D01*
X92118653Y-52857374D01*
X92118651Y-52857371D01*
X92043114Y-52608361D01*
X92017609Y-52349400D01*
X92043114Y-52090439D01*
X92118651Y-51841429D01*
X92118653Y-51841425D01*
X92241314Y-51611941D01*
X92406393Y-51410793D01*
X92607541Y-51245714D01*
X92837025Y-51123053D01*
X92837026Y-51123053D01*
X92837029Y-51123051D01*
X93086039Y-51047514D01*
X93241296Y-51032223D01*
X93280109Y-51028400D01*
X95949891Y-51028400D01*
X95988704Y-51032223D01*
X95988704Y-51032223D01*
G37*
G36*
X44596000Y-53381000D02*
X42994000Y-53381000D01*
X42994000Y-52029000D01*
X44596000Y-52029000D01*
X44596000Y-53381000D01*
X44596000Y-53381000D01*
G37*
G36*
X42096000Y-53381000D02*
X40494000Y-53381000D01*
X40494000Y-52029000D01*
X42096000Y-52029000D01*
X42096000Y-53381000D01*
X42096000Y-53381000D01*
G37*
G36*
X36276821Y-51231313D02*
X36276824Y-51231314D01*
X36276825Y-51231314D01*
X36437239Y-51279975D01*
X36437241Y-51279976D01*
X36437244Y-51279977D01*
X36585078Y-51358995D01*
X36714659Y-51465341D01*
X36821005Y-51594922D01*
X36900023Y-51742756D01*
X36900024Y-51742759D01*
X36900025Y-51742761D01*
X36948686Y-51903175D01*
X36948687Y-51903179D01*
X36965117Y-52070000D01*
X36948687Y-52236821D01*
X36948686Y-52236824D01*
X36948686Y-52236825D01*
X36905495Y-52379208D01*
X36900023Y-52397244D01*
X36821005Y-52545078D01*
X36714659Y-52674659D01*
X36585078Y-52781005D01*
X36437244Y-52860023D01*
X36437241Y-52860024D01*
X36437239Y-52860025D01*
X36276825Y-52908686D01*
X36276824Y-52908686D01*
X36276821Y-52908687D01*
X36151804Y-52921000D01*
X34968196Y-52921000D01*
X34843179Y-52908687D01*
X34843176Y-52908686D01*
X34843175Y-52908686D01*
X34682761Y-52860025D01*
X34682759Y-52860024D01*
X34682756Y-52860023D01*
X34534922Y-52781005D01*
X34405341Y-52674659D01*
X34298995Y-52545078D01*
X34219977Y-52397244D01*
X34214506Y-52379208D01*
X34171314Y-52236825D01*
X34171314Y-52236824D01*
X34171313Y-52236821D01*
X34154883Y-52070000D01*
X34171313Y-51903179D01*
X34171314Y-51903175D01*
X34219975Y-51742761D01*
X34219976Y-51742759D01*
X34219977Y-51742756D01*
X34298995Y-51594922D01*
X34405341Y-51465341D01*
X34534922Y-51358995D01*
X34682756Y-51279977D01*
X34682759Y-51279976D01*
X34682761Y-51279975D01*
X34843175Y-51231314D01*
X34843176Y-51231314D01*
X34843179Y-51231313D01*
X34968196Y-51219000D01*
X36151804Y-51219000D01*
X36276821Y-51231313D01*
X36276821Y-51231313D01*
G37*
G36*
X24830758Y-51268045D02*
X24927013Y-51277525D01*
X25028063Y-51308178D01*
X25078589Y-51323505D01*
X25218282Y-51398173D01*
X25340722Y-51498658D01*
X25441207Y-51621098D01*
X25515875Y-51760791D01*
X25515875Y-51760792D01*
X25561855Y-51912367D01*
X25577380Y-52070000D01*
X25561855Y-52227633D01*
X25531202Y-52328683D01*
X25515875Y-52379209D01*
X25441207Y-52518902D01*
X25340722Y-52641342D01*
X25218282Y-52741827D01*
X25078589Y-52816495D01*
X25028063Y-52831822D01*
X24927013Y-52862475D01*
X24848256Y-52870232D01*
X24808878Y-52874110D01*
X23221122Y-52874110D01*
X23181744Y-52870232D01*
X23102987Y-52862475D01*
X23001937Y-52831822D01*
X22951411Y-52816495D01*
X22811718Y-52741827D01*
X22689278Y-52641342D01*
X22588793Y-52518902D01*
X22514125Y-52379209D01*
X22498798Y-52328683D01*
X22468145Y-52227633D01*
X22452620Y-52070000D01*
X22468145Y-51912367D01*
X22514125Y-51760792D01*
X22514125Y-51760791D01*
X22588793Y-51621098D01*
X22689278Y-51498658D01*
X22811718Y-51398173D01*
X22951411Y-51323505D01*
X23001937Y-51308178D01*
X23102987Y-51277525D01*
X23199242Y-51268045D01*
X23221122Y-51265890D01*
X24808878Y-51265890D01*
X24830758Y-51268045D01*
X24830758Y-51268045D01*
G37*
G36*
X28870758Y-51268045D02*
X28967013Y-51277525D01*
X29068063Y-51308178D01*
X29118589Y-51323505D01*
X29258282Y-51398173D01*
X29380722Y-51498658D01*
X29481207Y-51621098D01*
X29555875Y-51760791D01*
X29555875Y-51760792D01*
X29601855Y-51912367D01*
X29617380Y-52070000D01*
X29601855Y-52227633D01*
X29571202Y-52328683D01*
X29555875Y-52379209D01*
X29481207Y-52518902D01*
X29380722Y-52641342D01*
X29258282Y-52741827D01*
X29118589Y-52816495D01*
X29068063Y-52831822D01*
X28967013Y-52862475D01*
X28888256Y-52870232D01*
X28848878Y-52874110D01*
X27261122Y-52874110D01*
X27221744Y-52870232D01*
X27142987Y-52862475D01*
X27041937Y-52831822D01*
X26991411Y-52816495D01*
X26851718Y-52741827D01*
X26729278Y-52641342D01*
X26628793Y-52518902D01*
X26554125Y-52379209D01*
X26538798Y-52328683D01*
X26508145Y-52227633D01*
X26492620Y-52070000D01*
X26508145Y-51912367D01*
X26554125Y-51760792D01*
X26554125Y-51760791D01*
X26628793Y-51621098D01*
X26729278Y-51498658D01*
X26851718Y-51398173D01*
X26991411Y-51323505D01*
X27041937Y-51308178D01*
X27142987Y-51277525D01*
X27239242Y-51268045D01*
X27261122Y-51265890D01*
X28848878Y-51265890D01*
X28870758Y-51268045D01*
X28870758Y-51268045D01*
G37*
G36*
X56399953Y-49973731D02*
X56557995Y-50021672D01*
X56703645Y-50099524D01*
X56831306Y-50204294D01*
X56936076Y-50331955D01*
X57013928Y-50477605D01*
X57061869Y-50635647D01*
X57078056Y-50800000D01*
X57061869Y-50964353D01*
X57013928Y-51122395D01*
X56936076Y-51268045D01*
X56831306Y-51395706D01*
X56703645Y-51500476D01*
X56557995Y-51578328D01*
X56399953Y-51626269D01*
X56276784Y-51638400D01*
X55483216Y-51638400D01*
X55360047Y-51626269D01*
X55202005Y-51578328D01*
X55056355Y-51500476D01*
X54928694Y-51395706D01*
X54823924Y-51268045D01*
X54746072Y-51122395D01*
X54698131Y-50964353D01*
X54681944Y-50800000D01*
X54698131Y-50635647D01*
X54746072Y-50477605D01*
X54823924Y-50331955D01*
X54928694Y-50204294D01*
X55056355Y-50099524D01*
X55202005Y-50021672D01*
X55360047Y-49973731D01*
X55483216Y-49961600D01*
X56276784Y-49961600D01*
X56399953Y-49973731D01*
X56399953Y-49973731D01*
G37*
G36*
X48779953Y-49973731D02*
X48937995Y-50021672D01*
X49083645Y-50099524D01*
X49211306Y-50204294D01*
X49316076Y-50331955D01*
X49393928Y-50477605D01*
X49441869Y-50635647D01*
X49458056Y-50800000D01*
X49441869Y-50964353D01*
X49393928Y-51122395D01*
X49316076Y-51268045D01*
X49211306Y-51395706D01*
X49083645Y-51500476D01*
X48937995Y-51578328D01*
X48779953Y-51626269D01*
X48656784Y-51638400D01*
X47863216Y-51638400D01*
X47740047Y-51626269D01*
X47582005Y-51578328D01*
X47436355Y-51500476D01*
X47308694Y-51395706D01*
X47203924Y-51268045D01*
X47126072Y-51122395D01*
X47078131Y-50964353D01*
X47061944Y-50800000D01*
X47078131Y-50635647D01*
X47126072Y-50477605D01*
X47203924Y-50331955D01*
X47308694Y-50204294D01*
X47436355Y-50099524D01*
X47582005Y-50021672D01*
X47740047Y-49973731D01*
X47863216Y-49961600D01*
X48656784Y-49961600D01*
X48779953Y-49973731D01*
X48779953Y-49973731D01*
G37*
G36*
X67467632Y-47348145D02*
X67568682Y-47378798D01*
X67619208Y-47394125D01*
X67670609Y-47421600D01*
X67758900Y-47468793D01*
X67758902Y-47468794D01*
X67758901Y-47468794D01*
X67881342Y-47569278D01*
X67981827Y-47691718D01*
X68056495Y-47831411D01*
X68059404Y-47841000D01*
X68102475Y-47982987D01*
X68102475Y-47982989D01*
X68113571Y-48095645D01*
X68114110Y-48101123D01*
X68114110Y-49688877D01*
X68102475Y-49807013D01*
X68071822Y-49908063D01*
X68056495Y-49958589D01*
X67981827Y-50098282D01*
X67881342Y-50220722D01*
X67758902Y-50321207D01*
X67619209Y-50395875D01*
X67568683Y-50411202D01*
X67467633Y-50441855D01*
X67310000Y-50457380D01*
X67152368Y-50441855D01*
X67051318Y-50411202D01*
X67000792Y-50395875D01*
X66861099Y-50321207D01*
X66738659Y-50220722D01*
X66638174Y-50098282D01*
X66563506Y-49958589D01*
X66548179Y-49908063D01*
X66517526Y-49807013D01*
X66505891Y-49688877D01*
X66505890Y-48101124D01*
X66517525Y-47982988D01*
X66563505Y-47831413D01*
X66563505Y-47831412D01*
X66638174Y-47691719D01*
X66662706Y-47661827D01*
X66738658Y-47569278D01*
X66750544Y-47559523D01*
X66861098Y-47468793D01*
X67000791Y-47394125D01*
X67051317Y-47378798D01*
X67152367Y-47348145D01*
X67310000Y-47332620D01*
X67467632Y-47348145D01*
X67467632Y-47348145D01*
G37*
G36*
X70007632Y-47348145D02*
X70108682Y-47378798D01*
X70159208Y-47394125D01*
X70210609Y-47421600D01*
X70298900Y-47468793D01*
X70298902Y-47468794D01*
X70298901Y-47468794D01*
X70421342Y-47569278D01*
X70521827Y-47691718D01*
X70596495Y-47831411D01*
X70599404Y-47841000D01*
X70642475Y-47982987D01*
X70642475Y-47982989D01*
X70653571Y-48095645D01*
X70654110Y-48101123D01*
X70654110Y-49688877D01*
X70642475Y-49807013D01*
X70611822Y-49908063D01*
X70596495Y-49958589D01*
X70521827Y-50098282D01*
X70421342Y-50220722D01*
X70298902Y-50321207D01*
X70159209Y-50395875D01*
X70108683Y-50411202D01*
X70007633Y-50441855D01*
X69850000Y-50457380D01*
X69692368Y-50441855D01*
X69591318Y-50411202D01*
X69540792Y-50395875D01*
X69401099Y-50321207D01*
X69278659Y-50220722D01*
X69178174Y-50098282D01*
X69103506Y-49958589D01*
X69088179Y-49908063D01*
X69057526Y-49807013D01*
X69045891Y-49688877D01*
X69045890Y-48101124D01*
X69057525Y-47982988D01*
X69103505Y-47831413D01*
X69103505Y-47831412D01*
X69178174Y-47691719D01*
X69202706Y-47661827D01*
X69278658Y-47569278D01*
X69290544Y-47559523D01*
X69401098Y-47468793D01*
X69540791Y-47394125D01*
X69591317Y-47378798D01*
X69692367Y-47348145D01*
X69850000Y-47332620D01*
X70007632Y-47348145D01*
X70007632Y-47348145D01*
G37*
G36*
X72547632Y-47348145D02*
X72648682Y-47378798D01*
X72699208Y-47394125D01*
X72750609Y-47421600D01*
X72838900Y-47468793D01*
X72838902Y-47468794D01*
X72838901Y-47468794D01*
X72961342Y-47569278D01*
X73061827Y-47691718D01*
X73136495Y-47831411D01*
X73139404Y-47841000D01*
X73182475Y-47982987D01*
X73182475Y-47982989D01*
X73193571Y-48095645D01*
X73194110Y-48101123D01*
X73194110Y-49688877D01*
X73182475Y-49807013D01*
X73151822Y-49908063D01*
X73136495Y-49958589D01*
X73061827Y-50098282D01*
X72961342Y-50220722D01*
X72838902Y-50321207D01*
X72699209Y-50395875D01*
X72648683Y-50411202D01*
X72547633Y-50441855D01*
X72390000Y-50457380D01*
X72232368Y-50441855D01*
X72131318Y-50411202D01*
X72080792Y-50395875D01*
X71941099Y-50321207D01*
X71818659Y-50220722D01*
X71718174Y-50098282D01*
X71643506Y-49958589D01*
X71628179Y-49908063D01*
X71597526Y-49807013D01*
X71585891Y-49688877D01*
X71585890Y-48101124D01*
X71597525Y-47982988D01*
X71643505Y-47831413D01*
X71643505Y-47831412D01*
X71718174Y-47691719D01*
X71742706Y-47661827D01*
X71818658Y-47569278D01*
X71830544Y-47559523D01*
X71941098Y-47468793D01*
X72080791Y-47394125D01*
X72131317Y-47378798D01*
X72232367Y-47348145D01*
X72390000Y-47332620D01*
X72547632Y-47348145D01*
X72547632Y-47348145D01*
G37*
G36*
X36276821Y-48691313D02*
X36276824Y-48691314D01*
X36276825Y-48691314D01*
X36437239Y-48739975D01*
X36437241Y-48739976D01*
X36437244Y-48739977D01*
X36585078Y-48818995D01*
X36714659Y-48925341D01*
X36821005Y-49054922D01*
X36900023Y-49202756D01*
X36900024Y-49202759D01*
X36900025Y-49202761D01*
X36937290Y-49325607D01*
X36948687Y-49363179D01*
X36965117Y-49530000D01*
X36948687Y-49696821D01*
X36948686Y-49696824D01*
X36948686Y-49696825D01*
X36905495Y-49839208D01*
X36900023Y-49857244D01*
X36821005Y-50005078D01*
X36714659Y-50134659D01*
X36585078Y-50241005D01*
X36437244Y-50320023D01*
X36437241Y-50320024D01*
X36437239Y-50320025D01*
X36276825Y-50368686D01*
X36276824Y-50368686D01*
X36276821Y-50368687D01*
X36151804Y-50381000D01*
X34968196Y-50381000D01*
X34843179Y-50368687D01*
X34843176Y-50368686D01*
X34843175Y-50368686D01*
X34682761Y-50320025D01*
X34682759Y-50320024D01*
X34682756Y-50320023D01*
X34534922Y-50241005D01*
X34405341Y-50134659D01*
X34298995Y-50005078D01*
X34219977Y-49857244D01*
X34214506Y-49839208D01*
X34171314Y-49696825D01*
X34171314Y-49696824D01*
X34171313Y-49696821D01*
X34154883Y-49530000D01*
X34171313Y-49363179D01*
X34182710Y-49325607D01*
X34219975Y-49202761D01*
X34219976Y-49202759D01*
X34219977Y-49202756D01*
X34298995Y-49054922D01*
X34405341Y-48925341D01*
X34534922Y-48818995D01*
X34682756Y-48739977D01*
X34682759Y-48739976D01*
X34682761Y-48739975D01*
X34843175Y-48691314D01*
X34843176Y-48691314D01*
X34843179Y-48691313D01*
X34968196Y-48679000D01*
X36151804Y-48679000D01*
X36276821Y-48691313D01*
X36276821Y-48691313D01*
G37*
G36*
X28870758Y-48728045D02*
X28967013Y-48737525D01*
X29068063Y-48768178D01*
X29118589Y-48783505D01*
X29258282Y-48858173D01*
X29380722Y-48958658D01*
X29481207Y-49081098D01*
X29555875Y-49220791D01*
X29555875Y-49220792D01*
X29601855Y-49372367D01*
X29617380Y-49530000D01*
X29601855Y-49687633D01*
X29571202Y-49788683D01*
X29555875Y-49839209D01*
X29481207Y-49978902D01*
X29380722Y-50101342D01*
X29258282Y-50201827D01*
X29118589Y-50276495D01*
X29068063Y-50291822D01*
X28967013Y-50322475D01*
X28888256Y-50330232D01*
X28848878Y-50334110D01*
X27261122Y-50334110D01*
X27221744Y-50330232D01*
X27142987Y-50322475D01*
X27041937Y-50291822D01*
X26991411Y-50276495D01*
X26851718Y-50201827D01*
X26729278Y-50101342D01*
X26628793Y-49978902D01*
X26554125Y-49839209D01*
X26538798Y-49788683D01*
X26508145Y-49687633D01*
X26492620Y-49530000D01*
X26508145Y-49372367D01*
X26554125Y-49220792D01*
X26554125Y-49220791D01*
X26628793Y-49081098D01*
X26729278Y-48958658D01*
X26851718Y-48858173D01*
X26991411Y-48783505D01*
X27041937Y-48768178D01*
X27142987Y-48737525D01*
X27239242Y-48728045D01*
X27261122Y-48725890D01*
X28848878Y-48725890D01*
X28870758Y-48728045D01*
X28870758Y-48728045D01*
G37*
G36*
X24830758Y-48728045D02*
X24927013Y-48737525D01*
X25028063Y-48768178D01*
X25078589Y-48783505D01*
X25218282Y-48858173D01*
X25340722Y-48958658D01*
X25441207Y-49081098D01*
X25515875Y-49220791D01*
X25515875Y-49220792D01*
X25561855Y-49372367D01*
X25577380Y-49530000D01*
X25561855Y-49687633D01*
X25531202Y-49788683D01*
X25515875Y-49839209D01*
X25441207Y-49978902D01*
X25340722Y-50101342D01*
X25218282Y-50201827D01*
X25078589Y-50276495D01*
X25028063Y-50291822D01*
X24927013Y-50322475D01*
X24848256Y-50330232D01*
X24808878Y-50334110D01*
X23221122Y-50334110D01*
X23181744Y-50330232D01*
X23102987Y-50322475D01*
X23001937Y-50291822D01*
X22951411Y-50276495D01*
X22811718Y-50201827D01*
X22689278Y-50101342D01*
X22588793Y-49978902D01*
X22514125Y-49839209D01*
X22498798Y-49788683D01*
X22468145Y-49687633D01*
X22452620Y-49530000D01*
X22468145Y-49372367D01*
X22514125Y-49220792D01*
X22514125Y-49220791D01*
X22588793Y-49081098D01*
X22689278Y-48958658D01*
X22811718Y-48858173D01*
X22951411Y-48783505D01*
X23001937Y-48768178D01*
X23102987Y-48737525D01*
X23199242Y-48728045D01*
X23221122Y-48725890D01*
X24808878Y-48725890D01*
X24830758Y-48728045D01*
X24830758Y-48728045D01*
G37*
G36*
X44596000Y-50206000D02*
X42994000Y-50206000D01*
X42994000Y-48854000D01*
X44596000Y-48854000D01*
X44596000Y-50206000D01*
X44596000Y-50206000D01*
G37*
G36*
X42096000Y-50206000D02*
X40494000Y-50206000D01*
X40494000Y-48854000D01*
X42096000Y-48854000D01*
X42096000Y-50206000D01*
X42096000Y-50206000D01*
G37*
G36*
X95988704Y-47069823D02*
X96143961Y-47085114D01*
X96392971Y-47160651D01*
X96392974Y-47160653D01*
X96392975Y-47160653D01*
X96622459Y-47283314D01*
X96823607Y-47448393D01*
X96988686Y-47649541D01*
X97059740Y-47782475D01*
X97111349Y-47879029D01*
X97186886Y-48128039D01*
X97212391Y-48387000D01*
X97186886Y-48645961D01*
X97111349Y-48894971D01*
X97111347Y-48894974D01*
X97111347Y-48894975D01*
X96988686Y-49124459D01*
X96823607Y-49325607D01*
X96622459Y-49490686D01*
X96392975Y-49613347D01*
X96392971Y-49613349D01*
X96143961Y-49688886D01*
X95988704Y-49704177D01*
X95949891Y-49708000D01*
X93280109Y-49708000D01*
X93241296Y-49704177D01*
X93086039Y-49688886D01*
X92837029Y-49613349D01*
X92837025Y-49613347D01*
X92607541Y-49490686D01*
X92406393Y-49325607D01*
X92241314Y-49124459D01*
X92118653Y-48894975D01*
X92118653Y-48894974D01*
X92118651Y-48894971D01*
X92043114Y-48645961D01*
X92017609Y-48387000D01*
X92043114Y-48128039D01*
X92118651Y-47879029D01*
X92170260Y-47782475D01*
X92241314Y-47649541D01*
X92406393Y-47448393D01*
X92607541Y-47283314D01*
X92837025Y-47160653D01*
X92837026Y-47160653D01*
X92837029Y-47160651D01*
X93086039Y-47085114D01*
X93241296Y-47069823D01*
X93280109Y-47066000D01*
X95949891Y-47066000D01*
X95988704Y-47069823D01*
X95988704Y-47069823D01*
G37*
G36*
X48779953Y-47433731D02*
X48937995Y-47481672D01*
X49083645Y-47559524D01*
X49211306Y-47664294D01*
X49316076Y-47791955D01*
X49393928Y-47937605D01*
X49441869Y-48095647D01*
X49458056Y-48260000D01*
X49441869Y-48424353D01*
X49393928Y-48582395D01*
X49316076Y-48728045D01*
X49211306Y-48855706D01*
X49083645Y-48960476D01*
X48937995Y-49038328D01*
X48779953Y-49086269D01*
X48656784Y-49098400D01*
X47863216Y-49098400D01*
X47740047Y-49086269D01*
X47582005Y-49038328D01*
X47436355Y-48960476D01*
X47308694Y-48855706D01*
X47203924Y-48728045D01*
X47126072Y-48582395D01*
X47078131Y-48424353D01*
X47061944Y-48260000D01*
X47078131Y-48095647D01*
X47126072Y-47937605D01*
X47203924Y-47791955D01*
X47308694Y-47664294D01*
X47436355Y-47559524D01*
X47582005Y-47481672D01*
X47740047Y-47433731D01*
X47863216Y-47421600D01*
X48656784Y-47421600D01*
X48779953Y-47433731D01*
X48779953Y-47433731D01*
G37*
G36*
X56399953Y-47433731D02*
X56557995Y-47481672D01*
X56703645Y-47559524D01*
X56831306Y-47664294D01*
X56936076Y-47791955D01*
X57013928Y-47937605D01*
X57061869Y-48095647D01*
X57078056Y-48260000D01*
X57061869Y-48424353D01*
X57013928Y-48582395D01*
X56936076Y-48728045D01*
X56831306Y-48855706D01*
X56703645Y-48960476D01*
X56557995Y-49038328D01*
X56399953Y-49086269D01*
X56276784Y-49098400D01*
X55483216Y-49098400D01*
X55360047Y-49086269D01*
X55202005Y-49038328D01*
X55056355Y-48960476D01*
X54928694Y-48855706D01*
X54823924Y-48728045D01*
X54746072Y-48582395D01*
X54698131Y-48424353D01*
X54681944Y-48260000D01*
X54698131Y-48095647D01*
X54746072Y-47937605D01*
X54823924Y-47791955D01*
X54928694Y-47664294D01*
X55056355Y-47559524D01*
X55202005Y-47481672D01*
X55360047Y-47433731D01*
X55483216Y-47421600D01*
X56276784Y-47421600D01*
X56399953Y-47433731D01*
X56399953Y-47433731D01*
G37*
G36*
X36276821Y-46151313D02*
X36276824Y-46151314D01*
X36276825Y-46151314D01*
X36437239Y-46199975D01*
X36437241Y-46199976D01*
X36437244Y-46199977D01*
X36585078Y-46278995D01*
X36714659Y-46385341D01*
X36821005Y-46514922D01*
X36900023Y-46662756D01*
X36900024Y-46662759D01*
X36900025Y-46662761D01*
X36948686Y-46823175D01*
X36948687Y-46823179D01*
X36965117Y-46990000D01*
X36948687Y-47156821D01*
X36948686Y-47156824D01*
X36948686Y-47156825D01*
X36905495Y-47299208D01*
X36900023Y-47317244D01*
X36821005Y-47465078D01*
X36714659Y-47594659D01*
X36585078Y-47701005D01*
X36437244Y-47780023D01*
X36437241Y-47780024D01*
X36437239Y-47780025D01*
X36276825Y-47828686D01*
X36276824Y-47828686D01*
X36276821Y-47828687D01*
X36151804Y-47841000D01*
X34968196Y-47841000D01*
X34843179Y-47828687D01*
X34843176Y-47828686D01*
X34843175Y-47828686D01*
X34682761Y-47780025D01*
X34682759Y-47780024D01*
X34682756Y-47780023D01*
X34534922Y-47701005D01*
X34405341Y-47594659D01*
X34298995Y-47465078D01*
X34219977Y-47317244D01*
X34214506Y-47299208D01*
X34171314Y-47156825D01*
X34171314Y-47156824D01*
X34171313Y-47156821D01*
X34154883Y-46990000D01*
X34171313Y-46823179D01*
X34171314Y-46823175D01*
X34219975Y-46662761D01*
X34219976Y-46662759D01*
X34219977Y-46662756D01*
X34298995Y-46514922D01*
X34405341Y-46385341D01*
X34534922Y-46278995D01*
X34682756Y-46199977D01*
X34682759Y-46199976D01*
X34682761Y-46199975D01*
X34843175Y-46151314D01*
X34843176Y-46151314D01*
X34843179Y-46151313D01*
X34968196Y-46139000D01*
X36151804Y-46139000D01*
X36276821Y-46151313D01*
X36276821Y-46151313D01*
G37*
G36*
X24830758Y-46188045D02*
X24927013Y-46197525D01*
X25028063Y-46228178D01*
X25078589Y-46243505D01*
X25218282Y-46318173D01*
X25340722Y-46418658D01*
X25441207Y-46541098D01*
X25515875Y-46680791D01*
X25515875Y-46680792D01*
X25561855Y-46832367D01*
X25577380Y-46990000D01*
X25561855Y-47147633D01*
X25557905Y-47160653D01*
X25515875Y-47299209D01*
X25441207Y-47438902D01*
X25340722Y-47561342D01*
X25218282Y-47661827D01*
X25078589Y-47736495D01*
X25028063Y-47751822D01*
X24927013Y-47782475D01*
X24848256Y-47790232D01*
X24808878Y-47794110D01*
X23221122Y-47794110D01*
X23181744Y-47790232D01*
X23102987Y-47782475D01*
X23001937Y-47751822D01*
X22951411Y-47736495D01*
X22811718Y-47661827D01*
X22689278Y-47561342D01*
X22588793Y-47438902D01*
X22514125Y-47299209D01*
X22472095Y-47160653D01*
X22468145Y-47147633D01*
X22452620Y-46990000D01*
X22468145Y-46832367D01*
X22514125Y-46680792D01*
X22514125Y-46680791D01*
X22588793Y-46541098D01*
X22689278Y-46418658D01*
X22811718Y-46318173D01*
X22951411Y-46243505D01*
X23001937Y-46228178D01*
X23102987Y-46197525D01*
X23199242Y-46188045D01*
X23221122Y-46185890D01*
X24808878Y-46185890D01*
X24830758Y-46188045D01*
X24830758Y-46188045D01*
G37*
G36*
X28870758Y-46188045D02*
X28967013Y-46197525D01*
X29068063Y-46228178D01*
X29118589Y-46243505D01*
X29258282Y-46318173D01*
X29380722Y-46418658D01*
X29481207Y-46541098D01*
X29555875Y-46680791D01*
X29555875Y-46680792D01*
X29601855Y-46832367D01*
X29617380Y-46990000D01*
X29601855Y-47147633D01*
X29597905Y-47160653D01*
X29555875Y-47299209D01*
X29481207Y-47438902D01*
X29380722Y-47561342D01*
X29258282Y-47661827D01*
X29118589Y-47736495D01*
X29068063Y-47751822D01*
X28967013Y-47782475D01*
X28888256Y-47790232D01*
X28848878Y-47794110D01*
X27261122Y-47794110D01*
X27221744Y-47790232D01*
X27142987Y-47782475D01*
X27041937Y-47751822D01*
X26991411Y-47736495D01*
X26851718Y-47661827D01*
X26729278Y-47561342D01*
X26628793Y-47438902D01*
X26554125Y-47299209D01*
X26512095Y-47160653D01*
X26508145Y-47147633D01*
X26492620Y-46990000D01*
X26508145Y-46832367D01*
X26554125Y-46680792D01*
X26554125Y-46680791D01*
X26628793Y-46541098D01*
X26729278Y-46418658D01*
X26851718Y-46318173D01*
X26991411Y-46243505D01*
X27041937Y-46228178D01*
X27142987Y-46197525D01*
X27239242Y-46188045D01*
X27261122Y-46185890D01*
X28848878Y-46185890D01*
X28870758Y-46188045D01*
X28870758Y-46188045D01*
G37*
G36*
X44596000Y-47031000D02*
X42994000Y-47031000D01*
X42994000Y-45679000D01*
X44596000Y-45679000D01*
X44596000Y-47031000D01*
X44596000Y-47031000D01*
G37*
G36*
X42096000Y-47031000D02*
X40494000Y-47031000D01*
X40494000Y-45679000D01*
X42096000Y-45679000D01*
X42096000Y-47031000D01*
X42096000Y-47031000D01*
G37*
G36*
X82707632Y-43538145D02*
X82808682Y-43568798D01*
X82859208Y-43584125D01*
X82910072Y-43611313D01*
X82998900Y-43658793D01*
X82998902Y-43658794D01*
X82998901Y-43658794D01*
X83121342Y-43759278D01*
X83221827Y-43881718D01*
X83296495Y-44021411D01*
X83311822Y-44071937D01*
X83342475Y-44172987D01*
X83342475Y-44172989D01*
X83354110Y-44291122D01*
X83354110Y-45878878D01*
X83350232Y-45918256D01*
X83342475Y-45997013D01*
X83328708Y-46042395D01*
X83296495Y-46148589D01*
X83221827Y-46288282D01*
X83121342Y-46410722D01*
X82998902Y-46511207D01*
X82859209Y-46585875D01*
X82808683Y-46601202D01*
X82707633Y-46631855D01*
X82550000Y-46647380D01*
X82392368Y-46631855D01*
X82291318Y-46601202D01*
X82240792Y-46585875D01*
X82101099Y-46511207D01*
X81978659Y-46410722D01*
X81878174Y-46288282D01*
X81803506Y-46148589D01*
X81771293Y-46042395D01*
X81757526Y-45997013D01*
X81749769Y-45918256D01*
X81745891Y-45878878D01*
X81745890Y-44291123D01*
X81757525Y-44172990D01*
X81757525Y-44172988D01*
X81803505Y-44021413D01*
X81803505Y-44021412D01*
X81878174Y-43881719D01*
X81978658Y-43759278D01*
X82101098Y-43658793D01*
X82240791Y-43584125D01*
X82291317Y-43568798D01*
X82392367Y-43538145D01*
X82550000Y-43522620D01*
X82707632Y-43538145D01*
X82707632Y-43538145D01*
G37*
G36*
X85247632Y-43538145D02*
X85348682Y-43568798D01*
X85399208Y-43584125D01*
X85450072Y-43611313D01*
X85538900Y-43658793D01*
X85538902Y-43658794D01*
X85538901Y-43658794D01*
X85661342Y-43759278D01*
X85761827Y-43881718D01*
X85836495Y-44021411D01*
X85851822Y-44071937D01*
X85882475Y-44172987D01*
X85882475Y-44172989D01*
X85894110Y-44291122D01*
X85894110Y-45878878D01*
X85890232Y-45918256D01*
X85882475Y-45997013D01*
X85868708Y-46042395D01*
X85836495Y-46148589D01*
X85761827Y-46288282D01*
X85661342Y-46410722D01*
X85538902Y-46511207D01*
X85399209Y-46585875D01*
X85348683Y-46601202D01*
X85247633Y-46631855D01*
X85090000Y-46647380D01*
X84932368Y-46631855D01*
X84831318Y-46601202D01*
X84780792Y-46585875D01*
X84641099Y-46511207D01*
X84518659Y-46410722D01*
X84418174Y-46288282D01*
X84343506Y-46148589D01*
X84311293Y-46042395D01*
X84297526Y-45997013D01*
X84289769Y-45918256D01*
X84285891Y-45878878D01*
X84285890Y-44291123D01*
X84297525Y-44172990D01*
X84297525Y-44172988D01*
X84343505Y-44021413D01*
X84343505Y-44021412D01*
X84418174Y-43881719D01*
X84518658Y-43759278D01*
X84641098Y-43658793D01*
X84780791Y-43584125D01*
X84831317Y-43568798D01*
X84932367Y-43538145D01*
X85090000Y-43522620D01*
X85247632Y-43538145D01*
X85247632Y-43538145D01*
G37*
G36*
X80167632Y-43538145D02*
X80268682Y-43568798D01*
X80319208Y-43584125D01*
X80370072Y-43611313D01*
X80458900Y-43658793D01*
X80458902Y-43658794D01*
X80458901Y-43658794D01*
X80581342Y-43759278D01*
X80681827Y-43881718D01*
X80756495Y-44021411D01*
X80771822Y-44071937D01*
X80802475Y-44172987D01*
X80802475Y-44172989D01*
X80814110Y-44291122D01*
X80814110Y-45878878D01*
X80810232Y-45918256D01*
X80802475Y-45997013D01*
X80788708Y-46042395D01*
X80756495Y-46148589D01*
X80681827Y-46288282D01*
X80581342Y-46410722D01*
X80458902Y-46511207D01*
X80319209Y-46585875D01*
X80268683Y-46601202D01*
X80167633Y-46631855D01*
X80010000Y-46647380D01*
X79852368Y-46631855D01*
X79751318Y-46601202D01*
X79700792Y-46585875D01*
X79561099Y-46511207D01*
X79438659Y-46410722D01*
X79338174Y-46288282D01*
X79263506Y-46148589D01*
X79231293Y-46042395D01*
X79217526Y-45997013D01*
X79209769Y-45918256D01*
X79205891Y-45878878D01*
X79205890Y-44291123D01*
X79217525Y-44172990D01*
X79217525Y-44172988D01*
X79263505Y-44021413D01*
X79263505Y-44021412D01*
X79338174Y-43881719D01*
X79438658Y-43759278D01*
X79561098Y-43658793D01*
X79700791Y-43584125D01*
X79751317Y-43568798D01*
X79852367Y-43538145D01*
X80010000Y-43522620D01*
X80167632Y-43538145D01*
X80167632Y-43538145D01*
G37*
G36*
X48779953Y-44893731D02*
X48937995Y-44941672D01*
X49083645Y-45019524D01*
X49211306Y-45124294D01*
X49316076Y-45251955D01*
X49393928Y-45397605D01*
X49441869Y-45555647D01*
X49458056Y-45720000D01*
X49441869Y-45884353D01*
X49393928Y-46042395D01*
X49316076Y-46188045D01*
X49211306Y-46315706D01*
X49083645Y-46420476D01*
X48937995Y-46498328D01*
X48779953Y-46546269D01*
X48656784Y-46558400D01*
X47863216Y-46558400D01*
X47740047Y-46546269D01*
X47582005Y-46498328D01*
X47436355Y-46420476D01*
X47308694Y-46315706D01*
X47203924Y-46188045D01*
X47126072Y-46042395D01*
X47078131Y-45884353D01*
X47061944Y-45720000D01*
X47078131Y-45555647D01*
X47126072Y-45397605D01*
X47203924Y-45251955D01*
X47308694Y-45124294D01*
X47436355Y-45019524D01*
X47582005Y-44941672D01*
X47740047Y-44893731D01*
X47863216Y-44881600D01*
X48656784Y-44881600D01*
X48779953Y-44893731D01*
X48779953Y-44893731D01*
G37*
G36*
X56399953Y-44893731D02*
X56557995Y-44941672D01*
X56703645Y-45019524D01*
X56831306Y-45124294D01*
X56936076Y-45251955D01*
X57013928Y-45397605D01*
X57061869Y-45555647D01*
X57078056Y-45720000D01*
X57061869Y-45884353D01*
X57013928Y-46042395D01*
X56936076Y-46188045D01*
X56831306Y-46315706D01*
X56703645Y-46420476D01*
X56557995Y-46498328D01*
X56399953Y-46546269D01*
X56276784Y-46558400D01*
X55483216Y-46558400D01*
X55360047Y-46546269D01*
X55202005Y-46498328D01*
X55056355Y-46420476D01*
X54928694Y-46315706D01*
X54823924Y-46188045D01*
X54746072Y-46042395D01*
X54698131Y-45884353D01*
X54681944Y-45720000D01*
X54698131Y-45555647D01*
X54746072Y-45397605D01*
X54823924Y-45251955D01*
X54928694Y-45124294D01*
X55056355Y-45019524D01*
X55202005Y-44941672D01*
X55360047Y-44893731D01*
X55483216Y-44881600D01*
X56276784Y-44881600D01*
X56399953Y-44893731D01*
X56399953Y-44893731D01*
G37*
G36*
X95988704Y-43107423D02*
X96143961Y-43122714D01*
X96392971Y-43198251D01*
X96392974Y-43198253D01*
X96392975Y-43198253D01*
X96622459Y-43320914D01*
X96823607Y-43485993D01*
X96988686Y-43687141D01*
X97092689Y-43881718D01*
X97111349Y-43916629D01*
X97186886Y-44165639D01*
X97212391Y-44424600D01*
X97186886Y-44683561D01*
X97111349Y-44932571D01*
X97111347Y-44932574D01*
X97111347Y-44932575D01*
X96988686Y-45162059D01*
X96823607Y-45363207D01*
X96622459Y-45528286D01*
X96392975Y-45650947D01*
X96392971Y-45650949D01*
X96143961Y-45726486D01*
X95988704Y-45741777D01*
X95949891Y-45745600D01*
X93280109Y-45745600D01*
X93241296Y-45741777D01*
X93086039Y-45726486D01*
X92837029Y-45650949D01*
X92837025Y-45650947D01*
X92607541Y-45528286D01*
X92406393Y-45363207D01*
X92241314Y-45162059D01*
X92118653Y-44932575D01*
X92118653Y-44932574D01*
X92118651Y-44932571D01*
X92043114Y-44683561D01*
X92017609Y-44424600D01*
X92043114Y-44165639D01*
X92118651Y-43916629D01*
X92137311Y-43881718D01*
X92241314Y-43687141D01*
X92406393Y-43485993D01*
X92607541Y-43320914D01*
X92837025Y-43198253D01*
X92837026Y-43198253D01*
X92837029Y-43198251D01*
X93086039Y-43122714D01*
X93241296Y-43107423D01*
X93280109Y-43103600D01*
X95949891Y-43103600D01*
X95988704Y-43107423D01*
X95988704Y-43107423D01*
G37*
G36*
X36276821Y-43611313D02*
X36276824Y-43611314D01*
X36276825Y-43611314D01*
X36437239Y-43659975D01*
X36437241Y-43659976D01*
X36437244Y-43659977D01*
X36585078Y-43738995D01*
X36714659Y-43845341D01*
X36821005Y-43974922D01*
X36900023Y-44122756D01*
X36900024Y-44122759D01*
X36900025Y-44122761D01*
X36948686Y-44283175D01*
X36948687Y-44283179D01*
X36965117Y-44450000D01*
X36948687Y-44616821D01*
X36948686Y-44616824D01*
X36948686Y-44616825D01*
X36905495Y-44759208D01*
X36900023Y-44777244D01*
X36821005Y-44925078D01*
X36714659Y-45054659D01*
X36585078Y-45161005D01*
X36437244Y-45240023D01*
X36437241Y-45240024D01*
X36437239Y-45240025D01*
X36276825Y-45288686D01*
X36276824Y-45288686D01*
X36276821Y-45288687D01*
X36151804Y-45301000D01*
X34968196Y-45301000D01*
X34843179Y-45288687D01*
X34843176Y-45288686D01*
X34843175Y-45288686D01*
X34682761Y-45240025D01*
X34682759Y-45240024D01*
X34682756Y-45240023D01*
X34534922Y-45161005D01*
X34405341Y-45054659D01*
X34298995Y-44925078D01*
X34219977Y-44777244D01*
X34214506Y-44759208D01*
X34171314Y-44616825D01*
X34171314Y-44616824D01*
X34171313Y-44616821D01*
X34154883Y-44450000D01*
X34171313Y-44283179D01*
X34171314Y-44283175D01*
X34219975Y-44122761D01*
X34219976Y-44122759D01*
X34219977Y-44122756D01*
X34298995Y-43974922D01*
X34405341Y-43845341D01*
X34534922Y-43738995D01*
X34682756Y-43659977D01*
X34682759Y-43659976D01*
X34682761Y-43659975D01*
X34843175Y-43611314D01*
X34843176Y-43611314D01*
X34843179Y-43611313D01*
X34968196Y-43599000D01*
X36151804Y-43599000D01*
X36276821Y-43611313D01*
X36276821Y-43611313D01*
G37*
G36*
X28870758Y-43648045D02*
X28967013Y-43657525D01*
X29064643Y-43687141D01*
X29118589Y-43703505D01*
X29258282Y-43778173D01*
X29380722Y-43878658D01*
X29481207Y-44001098D01*
X29555875Y-44140791D01*
X29555875Y-44140792D01*
X29601855Y-44292367D01*
X29617380Y-44450000D01*
X29601855Y-44607633D01*
X29578822Y-44683561D01*
X29555875Y-44759209D01*
X29481207Y-44898902D01*
X29380722Y-45021342D01*
X29258282Y-45121827D01*
X29118589Y-45196495D01*
X29068063Y-45211822D01*
X28967013Y-45242475D01*
X28888256Y-45250232D01*
X28848878Y-45254110D01*
X27261122Y-45254110D01*
X27221744Y-45250232D01*
X27142987Y-45242475D01*
X27041937Y-45211822D01*
X26991411Y-45196495D01*
X26851718Y-45121827D01*
X26729278Y-45021342D01*
X26628793Y-44898902D01*
X26554125Y-44759209D01*
X26531178Y-44683561D01*
X26508145Y-44607633D01*
X26492620Y-44450000D01*
X26508145Y-44292367D01*
X26554125Y-44140792D01*
X26554125Y-44140791D01*
X26628793Y-44001098D01*
X26729278Y-43878658D01*
X26851718Y-43778173D01*
X26991411Y-43703505D01*
X27045357Y-43687141D01*
X27142987Y-43657525D01*
X27239242Y-43648045D01*
X27261122Y-43645890D01*
X28848878Y-43645890D01*
X28870758Y-43648045D01*
X28870758Y-43648045D01*
G37*
G36*
X24830758Y-43648045D02*
X24927013Y-43657525D01*
X25024643Y-43687141D01*
X25078589Y-43703505D01*
X25218282Y-43778173D01*
X25340722Y-43878658D01*
X25441207Y-44001098D01*
X25515875Y-44140791D01*
X25515875Y-44140792D01*
X25561855Y-44292367D01*
X25577380Y-44450000D01*
X25561855Y-44607633D01*
X25538822Y-44683561D01*
X25515875Y-44759209D01*
X25441207Y-44898902D01*
X25340722Y-45021342D01*
X25218282Y-45121827D01*
X25078589Y-45196495D01*
X25028063Y-45211822D01*
X24927013Y-45242475D01*
X24848256Y-45250232D01*
X24808878Y-45254110D01*
X23221122Y-45254110D01*
X23181744Y-45250232D01*
X23102987Y-45242475D01*
X23001937Y-45211822D01*
X22951411Y-45196495D01*
X22811718Y-45121827D01*
X22689278Y-45021342D01*
X22588793Y-44898902D01*
X22514125Y-44759209D01*
X22491178Y-44683561D01*
X22468145Y-44607633D01*
X22452620Y-44450000D01*
X22468145Y-44292367D01*
X22514125Y-44140792D01*
X22514125Y-44140791D01*
X22588793Y-44001098D01*
X22689278Y-43878658D01*
X22811718Y-43778173D01*
X22951411Y-43703505D01*
X23005357Y-43687141D01*
X23102987Y-43657525D01*
X23199242Y-43648045D01*
X23221122Y-43645890D01*
X24808878Y-43645890D01*
X24830758Y-43648045D01*
X24830758Y-43648045D01*
G37*
G36*
X48779953Y-42353731D02*
X48937995Y-42401672D01*
X49083645Y-42479524D01*
X49211306Y-42584294D01*
X49316076Y-42711955D01*
X49393928Y-42857605D01*
X49441869Y-43015647D01*
X49458056Y-43180000D01*
X49441869Y-43344353D01*
X49393928Y-43502395D01*
X49316076Y-43648045D01*
X49211306Y-43775706D01*
X49083645Y-43880476D01*
X48937995Y-43958328D01*
X48779953Y-44006269D01*
X48656784Y-44018400D01*
X47863216Y-44018400D01*
X47740047Y-44006269D01*
X47582005Y-43958328D01*
X47436355Y-43880476D01*
X47308694Y-43775706D01*
X47203924Y-43648045D01*
X47126072Y-43502395D01*
X47078131Y-43344353D01*
X47061944Y-43180000D01*
X47078131Y-43015647D01*
X47126072Y-42857605D01*
X47203924Y-42711955D01*
X47308694Y-42584294D01*
X47436355Y-42479524D01*
X47582005Y-42401672D01*
X47740047Y-42353731D01*
X47863216Y-42341600D01*
X48656784Y-42341600D01*
X48779953Y-42353731D01*
X48779953Y-42353731D01*
G37*
G36*
X56399953Y-42353731D02*
X56557995Y-42401672D01*
X56703645Y-42479524D01*
X56831306Y-42584294D01*
X56936076Y-42711955D01*
X57013928Y-42857605D01*
X57061869Y-43015647D01*
X57078056Y-43180000D01*
X57061869Y-43344353D01*
X57013928Y-43502395D01*
X56936076Y-43648045D01*
X56831306Y-43775706D01*
X56703645Y-43880476D01*
X56557995Y-43958328D01*
X56399953Y-44006269D01*
X56276784Y-44018400D01*
X55483216Y-44018400D01*
X55360047Y-44006269D01*
X55202005Y-43958328D01*
X55056355Y-43880476D01*
X54928694Y-43775706D01*
X54823924Y-43648045D01*
X54746072Y-43502395D01*
X54698131Y-43344353D01*
X54681944Y-43180000D01*
X54698131Y-43015647D01*
X54746072Y-42857605D01*
X54823924Y-42711955D01*
X54928694Y-42584294D01*
X55056355Y-42479524D01*
X55202005Y-42401672D01*
X55360047Y-42353731D01*
X55483216Y-42341600D01*
X56276784Y-42341600D01*
X56399953Y-42353731D01*
X56399953Y-42353731D01*
G37*
G36*
X44596000Y-43856000D02*
X42994000Y-43856000D01*
X42994000Y-42504000D01*
X44596000Y-42504000D01*
X44596000Y-43856000D01*
X44596000Y-43856000D01*
G37*
G36*
X42096000Y-43856000D02*
X40494000Y-43856000D01*
X40494000Y-42504000D01*
X42096000Y-42504000D01*
X42096000Y-43856000D01*
X42096000Y-43856000D01*
G37*
G36*
X36276821Y-41071313D02*
X36276824Y-41071314D01*
X36276825Y-41071314D01*
X36437239Y-41119975D01*
X36437241Y-41119976D01*
X36437244Y-41119977D01*
X36585078Y-41198995D01*
X36714659Y-41305341D01*
X36821005Y-41434922D01*
X36900023Y-41582756D01*
X36900024Y-41582759D01*
X36900025Y-41582761D01*
X36948686Y-41743175D01*
X36948687Y-41743179D01*
X36965117Y-41910000D01*
X36948687Y-42076821D01*
X36948686Y-42076824D01*
X36948686Y-42076825D01*
X36905495Y-42219208D01*
X36900023Y-42237244D01*
X36821005Y-42385078D01*
X36714659Y-42514659D01*
X36585078Y-42621005D01*
X36437244Y-42700023D01*
X36437241Y-42700024D01*
X36437239Y-42700025D01*
X36276825Y-42748686D01*
X36276824Y-42748686D01*
X36276821Y-42748687D01*
X36151804Y-42761000D01*
X34968196Y-42761000D01*
X34843179Y-42748687D01*
X34843176Y-42748686D01*
X34843175Y-42748686D01*
X34682761Y-42700025D01*
X34682759Y-42700024D01*
X34682756Y-42700023D01*
X34534922Y-42621005D01*
X34405341Y-42514659D01*
X34298995Y-42385078D01*
X34219977Y-42237244D01*
X34214506Y-42219208D01*
X34171314Y-42076825D01*
X34171314Y-42076824D01*
X34171313Y-42076821D01*
X34154883Y-41910000D01*
X34171313Y-41743179D01*
X34171314Y-41743175D01*
X34219975Y-41582761D01*
X34219976Y-41582759D01*
X34219977Y-41582756D01*
X34298995Y-41434922D01*
X34405341Y-41305341D01*
X34534922Y-41198995D01*
X34682756Y-41119977D01*
X34682759Y-41119976D01*
X34682761Y-41119975D01*
X34843175Y-41071314D01*
X34843176Y-41071314D01*
X34843179Y-41071313D01*
X34968196Y-41059000D01*
X36151804Y-41059000D01*
X36276821Y-41071313D01*
X36276821Y-41071313D01*
G37*
G36*
X28870758Y-41108045D02*
X28967013Y-41117525D01*
X29068063Y-41148178D01*
X29118589Y-41163505D01*
X29258282Y-41238173D01*
X29380722Y-41338658D01*
X29481207Y-41461098D01*
X29555875Y-41600791D01*
X29555875Y-41600792D01*
X29601855Y-41752367D01*
X29617380Y-41910000D01*
X29601855Y-42067633D01*
X29579637Y-42140875D01*
X29555875Y-42219209D01*
X29481207Y-42358902D01*
X29380722Y-42481342D01*
X29258282Y-42581827D01*
X29118589Y-42656495D01*
X29068063Y-42671822D01*
X28967013Y-42702475D01*
X28888256Y-42710232D01*
X28848878Y-42714110D01*
X27261122Y-42714110D01*
X27221744Y-42710232D01*
X27142987Y-42702475D01*
X27041937Y-42671822D01*
X26991411Y-42656495D01*
X26851718Y-42581827D01*
X26729278Y-42481342D01*
X26628793Y-42358902D01*
X26554125Y-42219209D01*
X26530363Y-42140875D01*
X26508145Y-42067633D01*
X26492620Y-41910000D01*
X26508145Y-41752367D01*
X26554125Y-41600792D01*
X26554125Y-41600791D01*
X26628793Y-41461098D01*
X26729278Y-41338658D01*
X26851718Y-41238173D01*
X26991411Y-41163505D01*
X27041937Y-41148178D01*
X27142987Y-41117525D01*
X27239242Y-41108045D01*
X27261122Y-41105890D01*
X28848878Y-41105890D01*
X28870758Y-41108045D01*
X28870758Y-41108045D01*
G37*
G36*
X24830758Y-41108045D02*
X24927013Y-41117525D01*
X25028063Y-41148178D01*
X25078589Y-41163505D01*
X25218282Y-41238173D01*
X25340722Y-41338658D01*
X25441207Y-41461098D01*
X25515875Y-41600791D01*
X25515875Y-41600792D01*
X25561855Y-41752367D01*
X25577380Y-41910000D01*
X25561855Y-42067633D01*
X25539637Y-42140875D01*
X25515875Y-42219209D01*
X25441207Y-42358902D01*
X25340722Y-42481342D01*
X25218282Y-42581827D01*
X25078589Y-42656495D01*
X25028063Y-42671822D01*
X24927013Y-42702475D01*
X24848256Y-42710232D01*
X24808878Y-42714110D01*
X23221122Y-42714110D01*
X23181744Y-42710232D01*
X23102987Y-42702475D01*
X23001937Y-42671822D01*
X22951411Y-42656495D01*
X22811718Y-42581827D01*
X22689278Y-42481342D01*
X22588793Y-42358902D01*
X22514125Y-42219209D01*
X22490363Y-42140875D01*
X22468145Y-42067633D01*
X22452620Y-41910000D01*
X22468145Y-41752367D01*
X22514125Y-41600792D01*
X22514125Y-41600791D01*
X22588793Y-41461098D01*
X22689278Y-41338658D01*
X22811718Y-41238173D01*
X22951411Y-41163505D01*
X23001937Y-41148178D01*
X23102987Y-41117525D01*
X23199242Y-41108045D01*
X23221122Y-41105890D01*
X24808878Y-41105890D01*
X24830758Y-41108045D01*
X24830758Y-41108045D01*
G37*
G36*
X72547632Y-39093145D02*
X72648682Y-39123798D01*
X72699208Y-39139125D01*
X72738849Y-39160314D01*
X72838900Y-39213793D01*
X72838902Y-39213794D01*
X72838901Y-39213794D01*
X72961342Y-39314278D01*
X73061827Y-39436718D01*
X73136495Y-39576411D01*
X73151822Y-39626937D01*
X73182475Y-39727987D01*
X73194110Y-39846123D01*
X73194110Y-41433877D01*
X73182475Y-41552013D01*
X73167678Y-41600791D01*
X73136495Y-41703589D01*
X73061827Y-41843282D01*
X72961342Y-41965722D01*
X72838902Y-42066207D01*
X72699209Y-42140875D01*
X72648683Y-42156202D01*
X72547633Y-42186855D01*
X72390000Y-42202380D01*
X72232368Y-42186855D01*
X72131318Y-42156202D01*
X72080792Y-42140875D01*
X71941099Y-42066207D01*
X71818659Y-41965722D01*
X71718174Y-41843282D01*
X71643506Y-41703589D01*
X71612323Y-41600791D01*
X71597526Y-41552013D01*
X71585891Y-41433877D01*
X71585890Y-39846124D01*
X71597525Y-39727988D01*
X71643505Y-39576413D01*
X71643505Y-39576412D01*
X71718174Y-39436719D01*
X71818658Y-39314278D01*
X71941098Y-39213793D01*
X72080791Y-39139125D01*
X72131317Y-39123798D01*
X72232367Y-39093145D01*
X72390000Y-39077620D01*
X72547632Y-39093145D01*
X72547632Y-39093145D01*
G37*
G36*
X67467632Y-39093145D02*
X67568682Y-39123798D01*
X67619208Y-39139125D01*
X67658849Y-39160314D01*
X67758900Y-39213793D01*
X67758902Y-39213794D01*
X67758901Y-39213794D01*
X67881342Y-39314278D01*
X67981827Y-39436718D01*
X68056495Y-39576411D01*
X68071822Y-39626937D01*
X68102475Y-39727987D01*
X68114110Y-39846123D01*
X68114110Y-41433877D01*
X68102475Y-41552013D01*
X68087678Y-41600791D01*
X68056495Y-41703589D01*
X67981827Y-41843282D01*
X67881342Y-41965722D01*
X67758902Y-42066207D01*
X67619209Y-42140875D01*
X67568683Y-42156202D01*
X67467633Y-42186855D01*
X67310000Y-42202380D01*
X67152368Y-42186855D01*
X67051318Y-42156202D01*
X67000792Y-42140875D01*
X66861099Y-42066207D01*
X66738659Y-41965722D01*
X66638174Y-41843282D01*
X66563506Y-41703589D01*
X66532323Y-41600791D01*
X66517526Y-41552013D01*
X66505891Y-41433877D01*
X66505890Y-39846124D01*
X66517525Y-39727988D01*
X66563505Y-39576413D01*
X66563505Y-39576412D01*
X66638174Y-39436719D01*
X66738658Y-39314278D01*
X66861098Y-39213793D01*
X67000791Y-39139125D01*
X67051317Y-39123798D01*
X67152367Y-39093145D01*
X67310000Y-39077620D01*
X67467632Y-39093145D01*
X67467632Y-39093145D01*
G37*
G36*
X70007632Y-39093145D02*
X70108682Y-39123798D01*
X70159208Y-39139125D01*
X70198849Y-39160314D01*
X70298900Y-39213793D01*
X70298902Y-39213794D01*
X70298901Y-39213794D01*
X70421342Y-39314278D01*
X70521827Y-39436718D01*
X70596495Y-39576411D01*
X70611822Y-39626937D01*
X70642475Y-39727987D01*
X70654110Y-39846123D01*
X70654110Y-41433877D01*
X70642475Y-41552013D01*
X70627678Y-41600791D01*
X70596495Y-41703589D01*
X70521827Y-41843282D01*
X70421342Y-41965722D01*
X70298902Y-42066207D01*
X70159209Y-42140875D01*
X70108683Y-42156202D01*
X70007633Y-42186855D01*
X69850000Y-42202380D01*
X69692368Y-42186855D01*
X69591318Y-42156202D01*
X69540792Y-42140875D01*
X69401099Y-42066207D01*
X69278659Y-41965722D01*
X69178174Y-41843282D01*
X69103506Y-41703589D01*
X69072323Y-41600791D01*
X69057526Y-41552013D01*
X69045891Y-41433877D01*
X69045890Y-39846124D01*
X69057525Y-39727988D01*
X69103505Y-39576413D01*
X69103505Y-39576412D01*
X69178174Y-39436719D01*
X69278658Y-39314278D01*
X69401098Y-39213793D01*
X69540791Y-39139125D01*
X69591317Y-39123798D01*
X69692367Y-39093145D01*
X69850000Y-39077620D01*
X70007632Y-39093145D01*
X70007632Y-39093145D01*
G37*
G36*
X95988704Y-39145023D02*
X96143961Y-39160314D01*
X96392971Y-39235851D01*
X96392974Y-39235853D01*
X96392975Y-39235853D01*
X96622459Y-39358514D01*
X96823607Y-39523593D01*
X96988686Y-39724741D01*
X97103489Y-39939524D01*
X97111349Y-39954229D01*
X97186886Y-40203239D01*
X97212391Y-40462200D01*
X97186886Y-40721161D01*
X97111349Y-40970171D01*
X97111347Y-40970174D01*
X97111347Y-40970175D01*
X96988686Y-41199659D01*
X96823607Y-41400807D01*
X96622459Y-41565886D01*
X96392975Y-41688547D01*
X96392971Y-41688549D01*
X96143961Y-41764086D01*
X95988704Y-41779377D01*
X95949891Y-41783200D01*
X93280109Y-41783200D01*
X93241296Y-41779377D01*
X93086039Y-41764086D01*
X92837029Y-41688549D01*
X92837025Y-41688547D01*
X92607541Y-41565886D01*
X92406393Y-41400807D01*
X92241314Y-41199659D01*
X92118653Y-40970175D01*
X92118653Y-40970174D01*
X92118651Y-40970171D01*
X92043114Y-40721161D01*
X92017609Y-40462200D01*
X92043114Y-40203239D01*
X92118651Y-39954229D01*
X92126511Y-39939524D01*
X92241314Y-39724741D01*
X92406393Y-39523593D01*
X92607541Y-39358514D01*
X92837025Y-39235853D01*
X92837026Y-39235853D01*
X92837029Y-39235851D01*
X93086039Y-39160314D01*
X93241296Y-39145023D01*
X93280109Y-39141200D01*
X95949891Y-39141200D01*
X95988704Y-39145023D01*
X95988704Y-39145023D01*
G37*
G36*
X48779953Y-39813731D02*
X48937995Y-39861672D01*
X49083645Y-39939524D01*
X49211306Y-40044294D01*
X49316076Y-40171955D01*
X49393928Y-40317605D01*
X49441869Y-40475647D01*
X49458056Y-40640000D01*
X49441869Y-40804353D01*
X49393928Y-40962395D01*
X49316076Y-41108045D01*
X49211306Y-41235706D01*
X49083645Y-41340476D01*
X48937995Y-41418328D01*
X48779953Y-41466269D01*
X48656784Y-41478400D01*
X47863216Y-41478400D01*
X47740047Y-41466269D01*
X47582005Y-41418328D01*
X47436355Y-41340476D01*
X47308694Y-41235706D01*
X47203924Y-41108045D01*
X47126072Y-40962395D01*
X47078131Y-40804353D01*
X47061944Y-40640000D01*
X47078131Y-40475647D01*
X47126072Y-40317605D01*
X47203924Y-40171955D01*
X47308694Y-40044294D01*
X47436355Y-39939524D01*
X47582005Y-39861672D01*
X47740047Y-39813731D01*
X47863216Y-39801600D01*
X48656784Y-39801600D01*
X48779953Y-39813731D01*
X48779953Y-39813731D01*
G37*
G36*
X56399953Y-39813731D02*
X56557995Y-39861672D01*
X56703645Y-39939524D01*
X56831306Y-40044294D01*
X56936076Y-40171955D01*
X57013928Y-40317605D01*
X57061869Y-40475647D01*
X57078056Y-40640000D01*
X57061869Y-40804353D01*
X57013928Y-40962395D01*
X56936076Y-41108045D01*
X56831306Y-41235706D01*
X56703645Y-41340476D01*
X56557995Y-41418328D01*
X56399953Y-41466269D01*
X56276784Y-41478400D01*
X55483216Y-41478400D01*
X55360047Y-41466269D01*
X55202005Y-41418328D01*
X55056355Y-41340476D01*
X54928694Y-41235706D01*
X54823924Y-41108045D01*
X54746072Y-40962395D01*
X54698131Y-40804353D01*
X54681944Y-40640000D01*
X54698131Y-40475647D01*
X54746072Y-40317605D01*
X54823924Y-40171955D01*
X54928694Y-40044294D01*
X55056355Y-39939524D01*
X55202005Y-39861672D01*
X55360047Y-39813731D01*
X55483216Y-39801600D01*
X56276784Y-39801600D01*
X56399953Y-39813731D01*
X56399953Y-39813731D01*
G37*
G36*
X42096000Y-40681000D02*
X40494000Y-40681000D01*
X40494000Y-39329000D01*
X42096000Y-39329000D01*
X42096000Y-40681000D01*
X42096000Y-40681000D01*
G37*
G36*
X44596000Y-40681000D02*
X42994000Y-40681000D01*
X42994000Y-39329000D01*
X44596000Y-39329000D01*
X44596000Y-40681000D01*
X44596000Y-40681000D01*
G37*
G36*
X36276821Y-38531313D02*
X36276824Y-38531314D01*
X36276825Y-38531314D01*
X36437239Y-38579975D01*
X36437241Y-38579976D01*
X36437244Y-38579977D01*
X36585078Y-38658995D01*
X36714659Y-38765341D01*
X36821005Y-38894922D01*
X36900023Y-39042756D01*
X36900024Y-39042759D01*
X36900025Y-39042761D01*
X36929886Y-39141200D01*
X36948687Y-39203179D01*
X36965117Y-39370000D01*
X36948687Y-39536821D01*
X36948686Y-39536824D01*
X36948686Y-39536825D01*
X36905495Y-39679208D01*
X36900023Y-39697244D01*
X36821005Y-39845078D01*
X36714659Y-39974659D01*
X36585078Y-40081005D01*
X36437244Y-40160023D01*
X36437241Y-40160024D01*
X36437239Y-40160025D01*
X36276825Y-40208686D01*
X36276824Y-40208686D01*
X36276821Y-40208687D01*
X36151804Y-40221000D01*
X34968196Y-40221000D01*
X34843179Y-40208687D01*
X34843176Y-40208686D01*
X34843175Y-40208686D01*
X34682761Y-40160025D01*
X34682759Y-40160024D01*
X34682756Y-40160023D01*
X34534922Y-40081005D01*
X34405341Y-39974659D01*
X34298995Y-39845078D01*
X34219977Y-39697244D01*
X34214506Y-39679208D01*
X34171314Y-39536825D01*
X34171314Y-39536824D01*
X34171313Y-39536821D01*
X34154883Y-39370000D01*
X34171313Y-39203179D01*
X34190114Y-39141200D01*
X34219975Y-39042761D01*
X34219976Y-39042759D01*
X34219977Y-39042756D01*
X34298995Y-38894922D01*
X34405341Y-38765341D01*
X34534922Y-38658995D01*
X34682756Y-38579977D01*
X34682759Y-38579976D01*
X34682761Y-38579975D01*
X34843175Y-38531314D01*
X34843176Y-38531314D01*
X34843179Y-38531313D01*
X34968196Y-38519000D01*
X36151804Y-38519000D01*
X36276821Y-38531313D01*
X36276821Y-38531313D01*
G37*
G36*
X24830758Y-38568045D02*
X24927013Y-38577525D01*
X25028063Y-38608178D01*
X25078589Y-38623505D01*
X25218282Y-38698173D01*
X25340722Y-38798658D01*
X25441207Y-38921098D01*
X25515875Y-39060791D01*
X25515875Y-39060792D01*
X25561855Y-39212367D01*
X25577380Y-39370000D01*
X25561855Y-39527633D01*
X25531202Y-39628683D01*
X25515875Y-39679209D01*
X25441207Y-39818902D01*
X25340722Y-39941342D01*
X25218282Y-40041827D01*
X25078589Y-40116495D01*
X25028063Y-40131822D01*
X24927013Y-40162475D01*
X24848256Y-40170232D01*
X24808878Y-40174110D01*
X23221122Y-40174110D01*
X23181744Y-40170232D01*
X23102987Y-40162475D01*
X23001937Y-40131822D01*
X22951411Y-40116495D01*
X22811718Y-40041827D01*
X22689278Y-39941342D01*
X22588793Y-39818902D01*
X22514125Y-39679209D01*
X22498798Y-39628683D01*
X22468145Y-39527633D01*
X22452620Y-39370000D01*
X22468145Y-39212367D01*
X22514125Y-39060792D01*
X22514125Y-39060791D01*
X22588793Y-38921098D01*
X22689278Y-38798658D01*
X22811718Y-38698173D01*
X22951411Y-38623505D01*
X23001937Y-38608178D01*
X23102987Y-38577525D01*
X23199242Y-38568045D01*
X23221122Y-38565890D01*
X24808878Y-38565890D01*
X24830758Y-38568045D01*
X24830758Y-38568045D01*
G37*
G36*
X28870758Y-38568045D02*
X28967013Y-38577525D01*
X29068063Y-38608178D01*
X29118589Y-38623505D01*
X29258282Y-38698173D01*
X29380722Y-38798658D01*
X29481207Y-38921098D01*
X29555875Y-39060791D01*
X29555875Y-39060792D01*
X29601855Y-39212367D01*
X29617380Y-39370000D01*
X29601855Y-39527633D01*
X29571202Y-39628683D01*
X29555875Y-39679209D01*
X29481207Y-39818902D01*
X29380722Y-39941342D01*
X29258282Y-40041827D01*
X29118589Y-40116495D01*
X29068063Y-40131822D01*
X28967013Y-40162475D01*
X28888256Y-40170232D01*
X28848878Y-40174110D01*
X27261122Y-40174110D01*
X27221744Y-40170232D01*
X27142987Y-40162475D01*
X27041937Y-40131822D01*
X26991411Y-40116495D01*
X26851718Y-40041827D01*
X26729278Y-39941342D01*
X26628793Y-39818902D01*
X26554125Y-39679209D01*
X26538798Y-39628683D01*
X26508145Y-39527633D01*
X26492620Y-39370000D01*
X26508145Y-39212367D01*
X26554125Y-39060792D01*
X26554125Y-39060791D01*
X26628793Y-38921098D01*
X26729278Y-38798658D01*
X26851718Y-38698173D01*
X26991411Y-38623505D01*
X27041937Y-38608178D01*
X27142987Y-38577525D01*
X27239242Y-38568045D01*
X27261122Y-38565890D01*
X28848878Y-38565890D01*
X28870758Y-38568045D01*
X28870758Y-38568045D01*
G37*
G36*
X56399953Y-37273731D02*
X56557995Y-37321672D01*
X56703645Y-37399524D01*
X56831306Y-37504294D01*
X56936076Y-37631955D01*
X57013928Y-37777605D01*
X57061869Y-37935647D01*
X57078056Y-38100000D01*
X57061869Y-38264353D01*
X57013928Y-38422395D01*
X56936076Y-38568045D01*
X56831306Y-38695706D01*
X56703645Y-38800476D01*
X56557995Y-38878328D01*
X56399953Y-38926269D01*
X56276784Y-38938400D01*
X55483216Y-38938400D01*
X55360047Y-38926269D01*
X55202005Y-38878328D01*
X55056355Y-38800476D01*
X54928694Y-38695706D01*
X54823924Y-38568045D01*
X54746072Y-38422395D01*
X54698131Y-38264353D01*
X54681944Y-38100000D01*
X54698131Y-37935647D01*
X54746072Y-37777605D01*
X54823924Y-37631955D01*
X54928694Y-37504294D01*
X55056355Y-37399524D01*
X55202005Y-37321672D01*
X55360047Y-37273731D01*
X55483216Y-37261600D01*
X56276784Y-37261600D01*
X56399953Y-37273731D01*
X56399953Y-37273731D01*
G37*
G36*
X48779953Y-37273731D02*
X48937995Y-37321672D01*
X49083645Y-37399524D01*
X49211306Y-37504294D01*
X49316076Y-37631955D01*
X49393928Y-37777605D01*
X49441869Y-37935647D01*
X49458056Y-38100000D01*
X49441869Y-38264353D01*
X49393928Y-38422395D01*
X49316076Y-38568045D01*
X49211306Y-38695706D01*
X49083645Y-38800476D01*
X48937995Y-38878328D01*
X48779953Y-38926269D01*
X48656784Y-38938400D01*
X47863216Y-38938400D01*
X47740047Y-38926269D01*
X47582005Y-38878328D01*
X47436355Y-38800476D01*
X47308694Y-38695706D01*
X47203924Y-38568045D01*
X47126072Y-38422395D01*
X47078131Y-38264353D01*
X47061944Y-38100000D01*
X47078131Y-37935647D01*
X47126072Y-37777605D01*
X47203924Y-37631955D01*
X47308694Y-37504294D01*
X47436355Y-37399524D01*
X47582005Y-37321672D01*
X47740047Y-37273731D01*
X47863216Y-37261600D01*
X48656784Y-37261600D01*
X48779953Y-37273731D01*
X48779953Y-37273731D01*
G37*
G36*
X82707632Y-35283145D02*
X82808682Y-35313798D01*
X82859208Y-35329125D01*
X82933876Y-35369037D01*
X82998900Y-35403793D01*
X82998902Y-35403794D01*
X82998901Y-35403794D01*
X83121342Y-35504278D01*
X83221827Y-35626718D01*
X83296495Y-35766411D01*
X83311822Y-35816937D01*
X83342475Y-35917987D01*
X83354110Y-36036123D01*
X83354110Y-37623877D01*
X83342475Y-37742013D01*
X83331678Y-37777605D01*
X83296495Y-37893589D01*
X83221827Y-38033282D01*
X83121342Y-38155722D01*
X82998902Y-38256207D01*
X82859209Y-38330875D01*
X82808683Y-38346202D01*
X82707633Y-38376855D01*
X82550000Y-38392380D01*
X82392368Y-38376855D01*
X82291318Y-38346202D01*
X82240792Y-38330875D01*
X82101099Y-38256207D01*
X81978659Y-38155722D01*
X81878174Y-38033282D01*
X81803506Y-37893589D01*
X81768323Y-37777605D01*
X81757526Y-37742013D01*
X81745891Y-37623877D01*
X81745890Y-36036124D01*
X81757525Y-35917988D01*
X81803505Y-35766413D01*
X81803505Y-35766412D01*
X81878174Y-35626719D01*
X81978658Y-35504278D01*
X82101098Y-35403793D01*
X82240791Y-35329125D01*
X82291317Y-35313798D01*
X82392367Y-35283145D01*
X82550000Y-35267620D01*
X82707632Y-35283145D01*
X82707632Y-35283145D01*
G37*
G36*
X80167632Y-35283145D02*
X80268682Y-35313798D01*
X80319208Y-35329125D01*
X80393876Y-35369037D01*
X80458900Y-35403793D01*
X80458902Y-35403794D01*
X80458901Y-35403794D01*
X80581342Y-35504278D01*
X80681827Y-35626718D01*
X80756495Y-35766411D01*
X80771822Y-35816937D01*
X80802475Y-35917987D01*
X80814110Y-36036123D01*
X80814110Y-37623877D01*
X80802475Y-37742013D01*
X80791678Y-37777605D01*
X80756495Y-37893589D01*
X80681827Y-38033282D01*
X80581342Y-38155722D01*
X80458902Y-38256207D01*
X80319209Y-38330875D01*
X80268683Y-38346202D01*
X80167633Y-38376855D01*
X80010000Y-38392380D01*
X79852368Y-38376855D01*
X79751318Y-38346202D01*
X79700792Y-38330875D01*
X79561099Y-38256207D01*
X79438659Y-38155722D01*
X79338174Y-38033282D01*
X79263506Y-37893589D01*
X79228323Y-37777605D01*
X79217526Y-37742013D01*
X79205891Y-37623877D01*
X79205890Y-36036124D01*
X79217525Y-35917988D01*
X79263505Y-35766413D01*
X79263505Y-35766412D01*
X79338174Y-35626719D01*
X79438658Y-35504278D01*
X79561098Y-35403793D01*
X79700791Y-35329125D01*
X79751317Y-35313798D01*
X79852367Y-35283145D01*
X80010000Y-35267620D01*
X80167632Y-35283145D01*
X80167632Y-35283145D01*
G37*
G36*
X85247632Y-35283145D02*
X85348682Y-35313798D01*
X85399208Y-35329125D01*
X85473876Y-35369037D01*
X85538900Y-35403793D01*
X85538902Y-35403794D01*
X85538901Y-35403794D01*
X85661342Y-35504278D01*
X85761827Y-35626718D01*
X85836495Y-35766411D01*
X85851822Y-35816937D01*
X85882475Y-35917987D01*
X85894110Y-36036123D01*
X85894110Y-37623877D01*
X85882475Y-37742013D01*
X85871678Y-37777605D01*
X85836495Y-37893589D01*
X85761827Y-38033282D01*
X85661342Y-38155722D01*
X85538902Y-38256207D01*
X85399209Y-38330875D01*
X85348683Y-38346202D01*
X85247633Y-38376855D01*
X85090000Y-38392380D01*
X84932368Y-38376855D01*
X84831318Y-38346202D01*
X84780792Y-38330875D01*
X84641099Y-38256207D01*
X84518659Y-38155722D01*
X84418174Y-38033282D01*
X84343506Y-37893589D01*
X84308323Y-37777605D01*
X84297526Y-37742013D01*
X84285891Y-37623877D01*
X84285890Y-36036124D01*
X84297525Y-35917988D01*
X84343505Y-35766413D01*
X84343505Y-35766412D01*
X84418174Y-35626719D01*
X84518658Y-35504278D01*
X84641098Y-35403793D01*
X84780791Y-35329125D01*
X84831317Y-35313798D01*
X84932367Y-35283145D01*
X85090000Y-35267620D01*
X85247632Y-35283145D01*
X85247632Y-35283145D01*
G37*
G36*
X95988704Y-35182623D02*
X96143961Y-35197914D01*
X96392971Y-35273451D01*
X96392974Y-35273453D01*
X96392975Y-35273453D01*
X96622459Y-35396114D01*
X96823607Y-35561193D01*
X96988686Y-35762341D01*
X97104492Y-35979000D01*
X97111349Y-35991829D01*
X97186886Y-36240839D01*
X97212391Y-36499800D01*
X97186886Y-36758761D01*
X97111349Y-37007771D01*
X97111347Y-37007774D01*
X97111347Y-37007775D01*
X96988686Y-37237259D01*
X96823607Y-37438407D01*
X96622459Y-37603486D01*
X96392975Y-37726147D01*
X96392971Y-37726149D01*
X96143961Y-37801686D01*
X95988704Y-37816977D01*
X95949891Y-37820800D01*
X93280109Y-37820800D01*
X93241296Y-37816977D01*
X93086039Y-37801686D01*
X92837029Y-37726149D01*
X92837025Y-37726147D01*
X92607541Y-37603486D01*
X92406393Y-37438407D01*
X92241314Y-37237259D01*
X92118653Y-37007775D01*
X92118653Y-37007774D01*
X92118651Y-37007771D01*
X92043114Y-36758761D01*
X92017609Y-36499800D01*
X92043114Y-36240839D01*
X92118651Y-35991829D01*
X92125508Y-35979000D01*
X92241314Y-35762341D01*
X92406393Y-35561193D01*
X92607541Y-35396114D01*
X92837025Y-35273453D01*
X92837026Y-35273453D01*
X92837029Y-35273451D01*
X93086039Y-35197914D01*
X93241296Y-35182623D01*
X93280109Y-35178800D01*
X95949891Y-35178800D01*
X95988704Y-35182623D01*
X95988704Y-35182623D01*
G37*
G36*
X36276821Y-35991313D02*
X36276824Y-35991314D01*
X36276825Y-35991314D01*
X36437239Y-36039975D01*
X36437241Y-36039976D01*
X36437244Y-36039977D01*
X36585078Y-36118995D01*
X36714659Y-36225341D01*
X36821005Y-36354922D01*
X36900023Y-36502756D01*
X36900024Y-36502759D01*
X36900025Y-36502761D01*
X36948686Y-36663175D01*
X36948687Y-36663179D01*
X36965117Y-36830000D01*
X36948687Y-36996821D01*
X36948686Y-36996824D01*
X36948686Y-36996825D01*
X36905495Y-37139208D01*
X36900023Y-37157244D01*
X36821005Y-37305078D01*
X36714659Y-37434659D01*
X36585078Y-37541005D01*
X36437244Y-37620023D01*
X36437241Y-37620024D01*
X36437239Y-37620025D01*
X36276825Y-37668686D01*
X36276824Y-37668686D01*
X36276821Y-37668687D01*
X36151804Y-37681000D01*
X34968196Y-37681000D01*
X34843179Y-37668687D01*
X34843176Y-37668686D01*
X34843175Y-37668686D01*
X34682761Y-37620025D01*
X34682759Y-37620024D01*
X34682756Y-37620023D01*
X34534922Y-37541005D01*
X34405341Y-37434659D01*
X34298995Y-37305078D01*
X34219977Y-37157244D01*
X34214506Y-37139208D01*
X34171314Y-36996825D01*
X34171314Y-36996824D01*
X34171313Y-36996821D01*
X34154883Y-36830000D01*
X34171313Y-36663179D01*
X34171314Y-36663175D01*
X34219975Y-36502761D01*
X34219976Y-36502759D01*
X34219977Y-36502756D01*
X34298995Y-36354922D01*
X34405341Y-36225341D01*
X34534922Y-36118995D01*
X34682756Y-36039977D01*
X34682759Y-36039976D01*
X34682761Y-36039975D01*
X34843175Y-35991314D01*
X34843176Y-35991314D01*
X34843179Y-35991313D01*
X34968196Y-35979000D01*
X36151804Y-35979000D01*
X36276821Y-35991313D01*
X36276821Y-35991313D01*
G37*
G36*
X24830758Y-36028045D02*
X24927013Y-36037525D01*
X25028063Y-36068178D01*
X25078589Y-36083505D01*
X25218282Y-36158173D01*
X25340722Y-36258658D01*
X25441207Y-36381098D01*
X25515875Y-36520791D01*
X25515875Y-36520792D01*
X25561855Y-36672367D01*
X25577380Y-36830000D01*
X25561855Y-36987633D01*
X25531202Y-37088683D01*
X25515875Y-37139209D01*
X25441207Y-37278902D01*
X25340722Y-37401342D01*
X25218282Y-37501827D01*
X25078589Y-37576495D01*
X25028063Y-37591822D01*
X24927013Y-37622475D01*
X24848256Y-37630232D01*
X24808878Y-37634110D01*
X23221122Y-37634110D01*
X23181744Y-37630232D01*
X23102987Y-37622475D01*
X23001937Y-37591822D01*
X22951411Y-37576495D01*
X22811718Y-37501827D01*
X22689278Y-37401342D01*
X22588793Y-37278902D01*
X22514125Y-37139209D01*
X22498798Y-37088683D01*
X22468145Y-36987633D01*
X22452620Y-36830000D01*
X22468145Y-36672367D01*
X22514125Y-36520792D01*
X22514125Y-36520791D01*
X22588793Y-36381098D01*
X22689278Y-36258658D01*
X22811718Y-36158173D01*
X22951411Y-36083505D01*
X23001937Y-36068178D01*
X23102987Y-36037525D01*
X23199242Y-36028045D01*
X23221122Y-36025890D01*
X24808878Y-36025890D01*
X24830758Y-36028045D01*
X24830758Y-36028045D01*
G37*
G36*
X28870758Y-36028045D02*
X28967013Y-36037525D01*
X29068063Y-36068178D01*
X29118589Y-36083505D01*
X29258282Y-36158173D01*
X29380722Y-36258658D01*
X29481207Y-36381098D01*
X29555875Y-36520791D01*
X29555875Y-36520792D01*
X29601855Y-36672367D01*
X29617380Y-36830000D01*
X29601855Y-36987633D01*
X29571202Y-37088683D01*
X29555875Y-37139209D01*
X29481207Y-37278902D01*
X29380722Y-37401342D01*
X29258282Y-37501827D01*
X29118589Y-37576495D01*
X29068063Y-37591822D01*
X28967013Y-37622475D01*
X28888256Y-37630232D01*
X28848878Y-37634110D01*
X27261122Y-37634110D01*
X27221744Y-37630232D01*
X27142987Y-37622475D01*
X27041937Y-37591822D01*
X26991411Y-37576495D01*
X26851718Y-37501827D01*
X26729278Y-37401342D01*
X26628793Y-37278902D01*
X26554125Y-37139209D01*
X26538798Y-37088683D01*
X26508145Y-36987633D01*
X26492620Y-36830000D01*
X26508145Y-36672367D01*
X26554125Y-36520792D01*
X26554125Y-36520791D01*
X26628793Y-36381098D01*
X26729278Y-36258658D01*
X26851718Y-36158173D01*
X26991411Y-36083505D01*
X27041937Y-36068178D01*
X27142987Y-36037525D01*
X27239242Y-36028045D01*
X27261122Y-36025890D01*
X28848878Y-36025890D01*
X28870758Y-36028045D01*
X28870758Y-36028045D01*
G37*
G36*
X44596000Y-37506000D02*
X42994000Y-37506000D01*
X42994000Y-36154000D01*
X44596000Y-36154000D01*
X44596000Y-37506000D01*
X44596000Y-37506000D01*
G37*
G36*
X42096000Y-37506000D02*
X40494000Y-37506000D01*
X40494000Y-36154000D01*
X42096000Y-36154000D01*
X42096000Y-37506000D01*
X42096000Y-37506000D01*
G37*
G36*
X56399953Y-34733731D02*
X56557995Y-34781672D01*
X56703645Y-34859524D01*
X56831306Y-34964294D01*
X56936076Y-35091955D01*
X57013928Y-35237605D01*
X57061869Y-35395647D01*
X57078056Y-35560000D01*
X57061869Y-35724353D01*
X57013928Y-35882395D01*
X56936076Y-36028045D01*
X56831306Y-36155706D01*
X56703645Y-36260476D01*
X56557995Y-36338328D01*
X56399953Y-36386269D01*
X56276784Y-36398400D01*
X55483216Y-36398400D01*
X55360047Y-36386269D01*
X55202005Y-36338328D01*
X55056355Y-36260476D01*
X54928694Y-36155706D01*
X54823924Y-36028045D01*
X54746072Y-35882395D01*
X54698131Y-35724353D01*
X54681944Y-35560000D01*
X54698131Y-35395647D01*
X54746072Y-35237605D01*
X54823924Y-35091955D01*
X54928694Y-34964294D01*
X55056355Y-34859524D01*
X55202005Y-34781672D01*
X55360047Y-34733731D01*
X55483216Y-34721600D01*
X56276784Y-34721600D01*
X56399953Y-34733731D01*
X56399953Y-34733731D01*
G37*
G36*
X48779953Y-34733731D02*
X48937995Y-34781672D01*
X49083645Y-34859524D01*
X49211306Y-34964294D01*
X49316076Y-35091955D01*
X49393928Y-35237605D01*
X49441869Y-35395647D01*
X49458056Y-35560000D01*
X49441869Y-35724353D01*
X49393928Y-35882395D01*
X49316076Y-36028045D01*
X49211306Y-36155706D01*
X49083645Y-36260476D01*
X48937995Y-36338328D01*
X48779953Y-36386269D01*
X48656784Y-36398400D01*
X47863216Y-36398400D01*
X47740047Y-36386269D01*
X47582005Y-36338328D01*
X47436355Y-36260476D01*
X47308694Y-36155706D01*
X47203924Y-36028045D01*
X47126072Y-35882395D01*
X47078131Y-35724353D01*
X47061944Y-35560000D01*
X47078131Y-35395647D01*
X47126072Y-35237605D01*
X47203924Y-35091955D01*
X47308694Y-34964294D01*
X47436355Y-34859524D01*
X47582005Y-34781672D01*
X47740047Y-34733731D01*
X47863216Y-34721600D01*
X48656784Y-34721600D01*
X48779953Y-34733731D01*
X48779953Y-34733731D01*
G37*
G36*
X36276821Y-33451313D02*
X36276824Y-33451314D01*
X36276825Y-33451314D01*
X36437239Y-33499975D01*
X36437241Y-33499976D01*
X36437244Y-33499977D01*
X36585078Y-33578995D01*
X36714659Y-33685341D01*
X36821005Y-33814922D01*
X36900023Y-33962756D01*
X36900024Y-33962759D01*
X36900025Y-33962761D01*
X36948686Y-34123175D01*
X36948687Y-34123179D01*
X36965117Y-34290000D01*
X36948687Y-34456821D01*
X36948686Y-34456824D01*
X36948686Y-34456825D01*
X36905495Y-34599208D01*
X36900023Y-34617244D01*
X36821005Y-34765078D01*
X36714659Y-34894659D01*
X36585078Y-35001005D01*
X36437244Y-35080023D01*
X36437241Y-35080024D01*
X36437239Y-35080025D01*
X36276825Y-35128686D01*
X36276824Y-35128686D01*
X36276821Y-35128687D01*
X36151804Y-35141000D01*
X34968196Y-35141000D01*
X34843179Y-35128687D01*
X34843176Y-35128686D01*
X34843175Y-35128686D01*
X34682761Y-35080025D01*
X34682759Y-35080024D01*
X34682756Y-35080023D01*
X34534922Y-35001005D01*
X34405341Y-34894659D01*
X34298995Y-34765078D01*
X34219977Y-34617244D01*
X34214506Y-34599208D01*
X34171314Y-34456825D01*
X34171314Y-34456824D01*
X34171313Y-34456821D01*
X34154883Y-34290000D01*
X34171313Y-34123179D01*
X34171314Y-34123175D01*
X34219975Y-33962761D01*
X34219976Y-33962759D01*
X34219977Y-33962756D01*
X34298995Y-33814922D01*
X34405341Y-33685341D01*
X34534922Y-33578995D01*
X34682756Y-33499977D01*
X34682759Y-33499976D01*
X34682761Y-33499975D01*
X34843175Y-33451314D01*
X34843176Y-33451314D01*
X34843179Y-33451313D01*
X34968196Y-33439000D01*
X36151804Y-33439000D01*
X36276821Y-33451313D01*
X36276821Y-33451313D01*
G37*
G36*
X28870758Y-33488045D02*
X28967013Y-33497525D01*
X29068063Y-33528178D01*
X29118589Y-33543505D01*
X29258282Y-33618173D01*
X29380722Y-33718658D01*
X29481207Y-33841098D01*
X29555875Y-33980791D01*
X29555875Y-33980792D01*
X29601855Y-34132367D01*
X29617380Y-34290000D01*
X29601855Y-34447633D01*
X29579637Y-34520875D01*
X29555875Y-34599209D01*
X29481207Y-34738902D01*
X29380722Y-34861342D01*
X29258282Y-34961827D01*
X29118589Y-35036495D01*
X29068063Y-35051822D01*
X28967013Y-35082475D01*
X28888256Y-35090232D01*
X28848878Y-35094110D01*
X27261122Y-35094110D01*
X27221744Y-35090232D01*
X27142987Y-35082475D01*
X27041937Y-35051822D01*
X26991411Y-35036495D01*
X26851718Y-34961827D01*
X26729278Y-34861342D01*
X26628793Y-34738902D01*
X26554125Y-34599209D01*
X26530363Y-34520875D01*
X26508145Y-34447633D01*
X26492620Y-34290000D01*
X26508145Y-34132367D01*
X26554125Y-33980792D01*
X26554125Y-33980791D01*
X26628793Y-33841098D01*
X26729278Y-33718658D01*
X26851718Y-33618173D01*
X26991411Y-33543505D01*
X27041937Y-33528178D01*
X27142987Y-33497525D01*
X27239242Y-33488045D01*
X27261122Y-33485890D01*
X28848878Y-33485890D01*
X28870758Y-33488045D01*
X28870758Y-33488045D01*
G37*
G36*
X24830758Y-33488045D02*
X24927013Y-33497525D01*
X25028063Y-33528178D01*
X25078589Y-33543505D01*
X25218282Y-33618173D01*
X25340722Y-33718658D01*
X25441207Y-33841098D01*
X25515875Y-33980791D01*
X25515875Y-33980792D01*
X25561855Y-34132367D01*
X25577380Y-34290000D01*
X25561855Y-34447633D01*
X25539637Y-34520875D01*
X25515875Y-34599209D01*
X25441207Y-34738902D01*
X25340722Y-34861342D01*
X25218282Y-34961827D01*
X25078589Y-35036495D01*
X25028063Y-35051822D01*
X24927013Y-35082475D01*
X24848256Y-35090232D01*
X24808878Y-35094110D01*
X23221122Y-35094110D01*
X23181744Y-35090232D01*
X23102987Y-35082475D01*
X23001937Y-35051822D01*
X22951411Y-35036495D01*
X22811718Y-34961827D01*
X22689278Y-34861342D01*
X22588793Y-34738902D01*
X22514125Y-34599209D01*
X22490363Y-34520875D01*
X22468145Y-34447633D01*
X22452620Y-34290000D01*
X22468145Y-34132367D01*
X22514125Y-33980792D01*
X22514125Y-33980791D01*
X22588793Y-33841098D01*
X22689278Y-33718658D01*
X22811718Y-33618173D01*
X22951411Y-33543505D01*
X23001937Y-33528178D01*
X23102987Y-33497525D01*
X23199242Y-33488045D01*
X23221122Y-33485890D01*
X24808878Y-33485890D01*
X24830758Y-33488045D01*
X24830758Y-33488045D01*
G37*
G36*
X67467632Y-31473145D02*
X67568682Y-31503798D01*
X67619208Y-31519125D01*
X67693876Y-31559037D01*
X67758900Y-31593793D01*
X67881342Y-31694278D01*
X67981827Y-31816718D01*
X68056495Y-31956411D01*
X68071822Y-32006937D01*
X68102475Y-32107987D01*
X68114110Y-32226123D01*
X68114110Y-33813877D01*
X68102475Y-33932013D01*
X68087678Y-33980791D01*
X68056495Y-34083589D01*
X67981827Y-34223282D01*
X67881342Y-34345722D01*
X67758902Y-34446207D01*
X67619209Y-34520875D01*
X67568683Y-34536202D01*
X67467633Y-34566855D01*
X67310000Y-34582380D01*
X67152368Y-34566855D01*
X67051318Y-34536202D01*
X67000792Y-34520875D01*
X66861099Y-34446207D01*
X66738659Y-34345722D01*
X66638174Y-34223282D01*
X66563506Y-34083589D01*
X66532323Y-33980791D01*
X66517526Y-33932013D01*
X66505891Y-33813877D01*
X66505890Y-32226124D01*
X66517525Y-32107988D01*
X66563505Y-31956413D01*
X66563505Y-31956412D01*
X66638174Y-31816719D01*
X66738658Y-31694278D01*
X66861098Y-31593793D01*
X67000791Y-31519125D01*
X67051317Y-31503798D01*
X67152367Y-31473145D01*
X67310000Y-31457620D01*
X67467632Y-31473145D01*
X67467632Y-31473145D01*
G37*
G36*
X72547632Y-31473145D02*
X72648682Y-31503798D01*
X72699208Y-31519125D01*
X72773876Y-31559037D01*
X72838900Y-31593793D01*
X72961342Y-31694278D01*
X73061827Y-31816718D01*
X73136495Y-31956411D01*
X73151822Y-32006937D01*
X73182475Y-32107987D01*
X73194110Y-32226123D01*
X73194110Y-33813877D01*
X73182475Y-33932013D01*
X73167678Y-33980791D01*
X73136495Y-34083589D01*
X73061827Y-34223282D01*
X72961342Y-34345722D01*
X72838902Y-34446207D01*
X72699209Y-34520875D01*
X72648683Y-34536202D01*
X72547633Y-34566855D01*
X72390000Y-34582380D01*
X72232368Y-34566855D01*
X72131318Y-34536202D01*
X72080792Y-34520875D01*
X71941099Y-34446207D01*
X71818659Y-34345722D01*
X71718174Y-34223282D01*
X71643506Y-34083589D01*
X71612323Y-33980791D01*
X71597526Y-33932013D01*
X71585891Y-33813877D01*
X71585890Y-32226124D01*
X71597525Y-32107988D01*
X71643505Y-31956413D01*
X71643505Y-31956412D01*
X71718174Y-31816719D01*
X71818658Y-31694278D01*
X71941098Y-31593793D01*
X72080791Y-31519125D01*
X72131317Y-31503798D01*
X72232367Y-31473145D01*
X72390000Y-31457620D01*
X72547632Y-31473145D01*
X72547632Y-31473145D01*
G37*
G36*
X70007632Y-31473145D02*
X70108682Y-31503798D01*
X70159208Y-31519125D01*
X70233876Y-31559037D01*
X70298900Y-31593793D01*
X70421342Y-31694278D01*
X70521827Y-31816718D01*
X70596495Y-31956411D01*
X70611822Y-32006937D01*
X70642475Y-32107987D01*
X70654110Y-32226123D01*
X70654110Y-33813877D01*
X70642475Y-33932013D01*
X70627678Y-33980791D01*
X70596495Y-34083589D01*
X70521827Y-34223282D01*
X70421342Y-34345722D01*
X70298902Y-34446207D01*
X70159209Y-34520875D01*
X70108683Y-34536202D01*
X70007633Y-34566855D01*
X69850000Y-34582380D01*
X69692368Y-34566855D01*
X69591318Y-34536202D01*
X69540792Y-34520875D01*
X69401099Y-34446207D01*
X69278659Y-34345722D01*
X69178174Y-34223282D01*
X69103506Y-34083589D01*
X69072323Y-33980791D01*
X69057526Y-33932013D01*
X69045891Y-33813877D01*
X69045890Y-32226124D01*
X69057525Y-32107988D01*
X69103505Y-31956413D01*
X69103505Y-31956412D01*
X69178174Y-31816719D01*
X69278658Y-31694278D01*
X69401098Y-31593793D01*
X69540791Y-31519125D01*
X69591317Y-31503798D01*
X69692367Y-31473145D01*
X69850000Y-31457620D01*
X70007632Y-31473145D01*
X70007632Y-31473145D01*
G37*
G36*
X44596000Y-34331000D02*
X42994000Y-34331000D01*
X42994000Y-32979000D01*
X44596000Y-32979000D01*
X44596000Y-34331000D01*
X44596000Y-34331000D01*
G37*
G36*
X42096000Y-34331000D02*
X40494000Y-34331000D01*
X40494000Y-32979000D01*
X42096000Y-32979000D01*
X42096000Y-34331000D01*
X42096000Y-34331000D01*
G37*
G36*
X95988704Y-31220223D02*
X96143961Y-31235514D01*
X96392971Y-31311051D01*
X96392974Y-31311053D01*
X96392975Y-31311053D01*
X96622459Y-31433714D01*
X96823607Y-31598793D01*
X96988686Y-31799941D01*
X97111347Y-32029425D01*
X97111349Y-32029429D01*
X97186886Y-32278439D01*
X97212391Y-32537400D01*
X97186886Y-32796361D01*
X97111349Y-33045371D01*
X97111347Y-33045374D01*
X97111347Y-33045375D01*
X96988686Y-33274859D01*
X96823607Y-33476007D01*
X96622459Y-33641086D01*
X96392975Y-33763747D01*
X96392971Y-33763749D01*
X96143961Y-33839286D01*
X95988704Y-33854577D01*
X95949891Y-33858400D01*
X93280109Y-33858400D01*
X93241296Y-33854577D01*
X93086039Y-33839286D01*
X92837029Y-33763749D01*
X92837025Y-33763747D01*
X92607541Y-33641086D01*
X92406393Y-33476007D01*
X92241314Y-33274859D01*
X92118653Y-33045375D01*
X92118653Y-33045374D01*
X92118651Y-33045371D01*
X92043114Y-32796361D01*
X92017609Y-32537400D01*
X92043114Y-32278439D01*
X92118651Y-32029429D01*
X92118653Y-32029425D01*
X92241314Y-31799941D01*
X92406393Y-31598793D01*
X92607541Y-31433714D01*
X92837025Y-31311053D01*
X92837026Y-31311053D01*
X92837029Y-31311051D01*
X93086039Y-31235514D01*
X93241296Y-31220223D01*
X93280109Y-31216400D01*
X95949891Y-31216400D01*
X95988704Y-31220223D01*
X95988704Y-31220223D01*
G37*
G36*
X48779953Y-32193731D02*
X48937995Y-32241672D01*
X49083645Y-32319524D01*
X49211306Y-32424294D01*
X49316076Y-32551955D01*
X49393928Y-32697605D01*
X49441869Y-32855647D01*
X49458056Y-33020000D01*
X49441869Y-33184353D01*
X49393928Y-33342395D01*
X49316076Y-33488045D01*
X49211306Y-33615706D01*
X49083645Y-33720476D01*
X48937995Y-33798328D01*
X48779953Y-33846269D01*
X48656784Y-33858400D01*
X47863216Y-33858400D01*
X47740047Y-33846269D01*
X47582005Y-33798328D01*
X47436355Y-33720476D01*
X47308694Y-33615706D01*
X47203924Y-33488045D01*
X47126072Y-33342395D01*
X47078131Y-33184353D01*
X47061944Y-33020000D01*
X47078131Y-32855647D01*
X47126072Y-32697605D01*
X47203924Y-32551955D01*
X47308694Y-32424294D01*
X47436355Y-32319524D01*
X47582005Y-32241672D01*
X47740047Y-32193731D01*
X47863216Y-32181600D01*
X48656784Y-32181600D01*
X48779953Y-32193731D01*
X48779953Y-32193731D01*
G37*
G36*
X56399953Y-32193731D02*
X56557995Y-32241672D01*
X56703645Y-32319524D01*
X56831306Y-32424294D01*
X56936076Y-32551955D01*
X57013928Y-32697605D01*
X57061869Y-32855647D01*
X57078056Y-33020000D01*
X57061869Y-33184353D01*
X57013928Y-33342395D01*
X56936076Y-33488045D01*
X56831306Y-33615706D01*
X56703645Y-33720476D01*
X56557995Y-33798328D01*
X56399953Y-33846269D01*
X56276784Y-33858400D01*
X55483216Y-33858400D01*
X55360047Y-33846269D01*
X55202005Y-33798328D01*
X55056355Y-33720476D01*
X54928694Y-33615706D01*
X54823924Y-33488045D01*
X54746072Y-33342395D01*
X54698131Y-33184353D01*
X54681944Y-33020000D01*
X54698131Y-32855647D01*
X54746072Y-32697605D01*
X54823924Y-32551955D01*
X54928694Y-32424294D01*
X55056355Y-32319524D01*
X55202005Y-32241672D01*
X55360047Y-32193731D01*
X55483216Y-32181600D01*
X56276784Y-32181600D01*
X56399953Y-32193731D01*
X56399953Y-32193731D01*
G37*
G36*
X36961000Y-32601000D02*
X34159000Y-32601000D01*
X34159000Y-30899000D01*
X36961000Y-30899000D01*
X36961000Y-32601000D01*
X36961000Y-32601000D01*
G37*
G36*
X56399953Y-29653731D02*
X56557995Y-29701672D01*
X56703645Y-29779524D01*
X56831306Y-29884294D01*
X56936076Y-30011955D01*
X57013928Y-30157605D01*
X57061869Y-30315647D01*
X57078056Y-30480000D01*
X57061869Y-30644353D01*
X57013928Y-30802395D01*
X56936076Y-30948045D01*
X56831306Y-31075706D01*
X56703645Y-31180476D01*
X56557995Y-31258328D01*
X56399953Y-31306269D01*
X56276784Y-31318400D01*
X55483216Y-31318400D01*
X55360047Y-31306269D01*
X55202005Y-31258328D01*
X55056355Y-31180476D01*
X54928694Y-31075706D01*
X54823924Y-30948045D01*
X54746072Y-30802395D01*
X54698131Y-30644353D01*
X54681944Y-30480000D01*
X54698131Y-30315647D01*
X54746072Y-30157605D01*
X54823924Y-30011955D01*
X54928694Y-29884294D01*
X55056355Y-29779524D01*
X55202005Y-29701672D01*
X55360047Y-29653731D01*
X55483216Y-29641600D01*
X56276784Y-29641600D01*
X56399953Y-29653731D01*
X56399953Y-29653731D01*
G37*
G36*
X49454000Y-31318400D02*
X47066000Y-31318400D01*
X47066000Y-29641600D01*
X49454000Y-29641600D01*
X49454000Y-31318400D01*
X49454000Y-31318400D01*
G37*
G36*
X42096000Y-31156000D02*
X40494000Y-31156000D01*
X40494000Y-29804000D01*
X42096000Y-29804000D01*
X42096000Y-31156000D01*
X42096000Y-31156000D01*
G37*
G36*
X44596000Y-31156000D02*
X42994000Y-31156000D01*
X42994000Y-29804000D01*
X44596000Y-29804000D01*
X44596000Y-31156000D01*
X44596000Y-31156000D01*
G37*
G36*
X85247632Y-27028145D02*
X85348682Y-27058798D01*
X85399208Y-27074125D01*
X85473876Y-27114037D01*
X85538900Y-27148793D01*
X85538902Y-27148794D01*
X85538901Y-27148794D01*
X85661342Y-27249278D01*
X85761827Y-27371718D01*
X85836495Y-27511411D01*
X85851822Y-27561937D01*
X85882475Y-27662987D01*
X85894110Y-27781123D01*
X85894110Y-29368877D01*
X85882475Y-29487013D01*
X85851822Y-29588063D01*
X85836495Y-29638589D01*
X85761827Y-29778282D01*
X85661342Y-29900722D01*
X85538902Y-30001207D01*
X85399209Y-30075875D01*
X85348683Y-30091202D01*
X85247633Y-30121855D01*
X85090000Y-30137380D01*
X84932368Y-30121855D01*
X84831318Y-30091202D01*
X84780792Y-30075875D01*
X84641099Y-30001207D01*
X84518659Y-29900722D01*
X84418174Y-29778282D01*
X84343506Y-29638589D01*
X84328179Y-29588063D01*
X84297526Y-29487013D01*
X84285891Y-29368877D01*
X84285890Y-27781124D01*
X84297525Y-27662988D01*
X84343505Y-27511413D01*
X84343505Y-27511412D01*
X84418174Y-27371719D01*
X84437104Y-27348653D01*
X84518658Y-27249278D01*
X84641098Y-27148793D01*
X84780791Y-27074125D01*
X84831317Y-27058798D01*
X84932367Y-27028145D01*
X85090000Y-27012620D01*
X85247632Y-27028145D01*
X85247632Y-27028145D01*
G37*
G36*
X82707632Y-27028145D02*
X82808682Y-27058798D01*
X82859208Y-27074125D01*
X82933876Y-27114037D01*
X82998900Y-27148793D01*
X82998902Y-27148794D01*
X82998901Y-27148794D01*
X83121342Y-27249278D01*
X83221827Y-27371718D01*
X83296495Y-27511411D01*
X83311822Y-27561937D01*
X83342475Y-27662987D01*
X83354110Y-27781123D01*
X83354110Y-29368877D01*
X83342475Y-29487013D01*
X83311822Y-29588063D01*
X83296495Y-29638589D01*
X83221827Y-29778282D01*
X83121342Y-29900722D01*
X82998902Y-30001207D01*
X82859209Y-30075875D01*
X82808683Y-30091202D01*
X82707633Y-30121855D01*
X82550000Y-30137380D01*
X82392368Y-30121855D01*
X82291318Y-30091202D01*
X82240792Y-30075875D01*
X82101099Y-30001207D01*
X81978659Y-29900722D01*
X81878174Y-29778282D01*
X81803506Y-29638589D01*
X81788179Y-29588063D01*
X81757526Y-29487013D01*
X81745891Y-29368877D01*
X81745890Y-27781124D01*
X81757525Y-27662988D01*
X81803505Y-27511413D01*
X81803505Y-27511412D01*
X81878174Y-27371719D01*
X81897104Y-27348653D01*
X81978658Y-27249278D01*
X82101098Y-27148793D01*
X82240791Y-27074125D01*
X82291317Y-27058798D01*
X82392367Y-27028145D01*
X82550000Y-27012620D01*
X82707632Y-27028145D01*
X82707632Y-27028145D01*
G37*
G36*
X80167632Y-27028145D02*
X80268682Y-27058798D01*
X80319208Y-27074125D01*
X80393876Y-27114037D01*
X80458900Y-27148793D01*
X80458902Y-27148794D01*
X80458901Y-27148794D01*
X80581342Y-27249278D01*
X80681827Y-27371718D01*
X80756495Y-27511411D01*
X80771822Y-27561937D01*
X80802475Y-27662987D01*
X80814110Y-27781123D01*
X80814110Y-29368877D01*
X80802475Y-29487013D01*
X80771822Y-29588063D01*
X80756495Y-29638589D01*
X80681827Y-29778282D01*
X80581342Y-29900722D01*
X80458902Y-30001207D01*
X80319209Y-30075875D01*
X80268683Y-30091202D01*
X80167633Y-30121855D01*
X80010000Y-30137380D01*
X79852368Y-30121855D01*
X79751318Y-30091202D01*
X79700792Y-30075875D01*
X79561099Y-30001207D01*
X79438659Y-29900722D01*
X79338174Y-29778282D01*
X79263506Y-29638589D01*
X79248179Y-29588063D01*
X79217526Y-29487013D01*
X79205891Y-29368877D01*
X79205890Y-27781124D01*
X79217525Y-27662988D01*
X79263505Y-27511413D01*
X79263505Y-27511412D01*
X79338174Y-27371719D01*
X79357104Y-27348653D01*
X79438658Y-27249278D01*
X79561098Y-27148793D01*
X79700791Y-27074125D01*
X79751317Y-27058798D01*
X79852367Y-27028145D01*
X80010000Y-27012620D01*
X80167632Y-27028145D01*
X80167632Y-27028145D01*
G37*
G36*
X95988704Y-27257823D02*
X96143961Y-27273114D01*
X96392971Y-27348651D01*
X96392974Y-27348653D01*
X96392975Y-27348653D01*
X96622459Y-27471314D01*
X96823607Y-27636393D01*
X96988686Y-27837541D01*
X97111347Y-28067025D01*
X97111349Y-28067029D01*
X97186886Y-28316039D01*
X97212391Y-28575000D01*
X97186886Y-28833961D01*
X97111349Y-29082971D01*
X97111347Y-29082974D01*
X97111347Y-29082975D01*
X96988686Y-29312459D01*
X96823607Y-29513607D01*
X96622459Y-29678686D01*
X96433805Y-29779523D01*
X96392971Y-29801349D01*
X96143961Y-29876886D01*
X95988704Y-29892177D01*
X95949891Y-29896000D01*
X93280109Y-29896000D01*
X93241296Y-29892177D01*
X93086039Y-29876886D01*
X92837029Y-29801349D01*
X92796195Y-29779523D01*
X92607541Y-29678686D01*
X92406393Y-29513607D01*
X92241314Y-29312459D01*
X92118653Y-29082975D01*
X92118653Y-29082974D01*
X92118651Y-29082971D01*
X92043114Y-28833961D01*
X92017609Y-28575000D01*
X92043114Y-28316039D01*
X92118651Y-28067029D01*
X92118653Y-28067025D01*
X92241314Y-27837541D01*
X92406393Y-27636393D01*
X92607541Y-27471314D01*
X92837025Y-27348653D01*
X92837026Y-27348653D01*
X92837029Y-27348651D01*
X93086039Y-27273114D01*
X93241296Y-27257823D01*
X93280109Y-27254000D01*
X95949891Y-27254000D01*
X95988704Y-27257823D01*
X95988704Y-27257823D01*
G37*
G36*
X57191000Y-28721000D02*
X55839000Y-28721000D01*
X55839000Y-27119000D01*
X57191000Y-27119000D01*
X57191000Y-28721000D01*
X57191000Y-28721000D01*
G37*
G36*
X57191000Y-26221000D02*
X55839000Y-26221000D01*
X55839000Y-24619000D01*
X57191000Y-24619000D01*
X57191000Y-26221000D01*
X57191000Y-26221000D01*
G37*
G36*
X72318760Y-20923114D02*
X72567770Y-20998651D01*
X72567773Y-20998653D01*
X72567774Y-20998653D01*
X72797258Y-21121314D01*
X72934838Y-21234224D01*
X72998407Y-21286393D01*
X73116663Y-21430488D01*
X73163488Y-21487544D01*
X73237893Y-21626748D01*
X73286149Y-21717029D01*
X73361686Y-21966039D01*
X73380800Y-22160110D01*
X73380800Y-24829890D01*
X73361686Y-25023961D01*
X73286149Y-25272971D01*
X73286147Y-25272974D01*
X73286147Y-25272975D01*
X73163486Y-25502459D01*
X72998407Y-25703607D01*
X72797259Y-25868686D01*
X72567775Y-25991347D01*
X72567771Y-25991349D01*
X72318761Y-26066886D01*
X72059800Y-26092391D01*
X71800840Y-26066886D01*
X71551830Y-25991349D01*
X71551826Y-25991347D01*
X71322342Y-25868686D01*
X71121194Y-25703607D01*
X70956115Y-25502459D01*
X70833454Y-25272975D01*
X70833454Y-25272974D01*
X70833452Y-25272971D01*
X70757915Y-25023961D01*
X70738801Y-24829890D01*
X70738800Y-22160111D01*
X70757914Y-21966040D01*
X70833451Y-21717030D01*
X70833454Y-21717025D01*
X70956114Y-21487542D01*
X71121191Y-21286396D01*
X71121193Y-21286393D01*
X71265288Y-21168137D01*
X71322344Y-21121312D01*
X71551825Y-20998653D01*
X71551826Y-20998653D01*
X71551829Y-20998651D01*
X71800839Y-20923114D01*
X72059800Y-20897609D01*
X72318760Y-20923114D01*
X72318760Y-20923114D01*
G37*
G36*
X68356360Y-20923114D02*
X68605370Y-20998651D01*
X68605373Y-20998653D01*
X68605374Y-20998653D01*
X68834858Y-21121314D01*
X68972438Y-21234224D01*
X69036007Y-21286393D01*
X69154263Y-21430488D01*
X69201088Y-21487544D01*
X69275493Y-21626748D01*
X69323749Y-21717029D01*
X69399286Y-21966039D01*
X69418400Y-22160110D01*
X69418400Y-24829890D01*
X69399286Y-25023961D01*
X69323749Y-25272971D01*
X69323747Y-25272974D01*
X69323747Y-25272975D01*
X69201086Y-25502459D01*
X69036007Y-25703607D01*
X68834859Y-25868686D01*
X68605375Y-25991347D01*
X68605371Y-25991349D01*
X68356361Y-26066886D01*
X68097400Y-26092391D01*
X67838440Y-26066886D01*
X67589430Y-25991349D01*
X67589426Y-25991347D01*
X67359942Y-25868686D01*
X67158794Y-25703607D01*
X66993715Y-25502459D01*
X66871054Y-25272975D01*
X66871054Y-25272974D01*
X66871052Y-25272971D01*
X66795515Y-25023961D01*
X66776401Y-24829890D01*
X66776400Y-22160111D01*
X66795514Y-21966040D01*
X66871051Y-21717030D01*
X66871054Y-21717025D01*
X66993714Y-21487542D01*
X67158791Y-21286396D01*
X67158793Y-21286393D01*
X67302888Y-21168137D01*
X67359944Y-21121312D01*
X67589425Y-20998653D01*
X67589426Y-20998653D01*
X67589429Y-20998651D01*
X67838439Y-20923114D01*
X68097400Y-20897609D01*
X68356360Y-20923114D01*
X68356360Y-20923114D01*
G37*
G36*
X64393960Y-20923114D02*
X64642970Y-20998651D01*
X64642973Y-20998653D01*
X64642974Y-20998653D01*
X64872458Y-21121314D01*
X65010038Y-21234224D01*
X65073607Y-21286393D01*
X65191863Y-21430488D01*
X65238688Y-21487544D01*
X65313093Y-21626748D01*
X65361349Y-21717029D01*
X65436886Y-21966039D01*
X65456000Y-22160110D01*
X65456000Y-24829890D01*
X65436886Y-25023961D01*
X65361349Y-25272971D01*
X65361347Y-25272974D01*
X65361347Y-25272975D01*
X65238686Y-25502459D01*
X65073607Y-25703607D01*
X64872459Y-25868686D01*
X64642975Y-25991347D01*
X64642971Y-25991349D01*
X64393961Y-26066886D01*
X64135000Y-26092391D01*
X63876040Y-26066886D01*
X63627030Y-25991349D01*
X63627026Y-25991347D01*
X63397542Y-25868686D01*
X63196394Y-25703607D01*
X63031315Y-25502459D01*
X62908654Y-25272975D01*
X62908654Y-25272974D01*
X62908652Y-25272971D01*
X62833115Y-25023961D01*
X62814001Y-24829890D01*
X62814000Y-22160111D01*
X62833114Y-21966040D01*
X62908651Y-21717030D01*
X62908654Y-21717025D01*
X63031314Y-21487542D01*
X63196391Y-21286396D01*
X63196393Y-21286393D01*
X63340488Y-21168137D01*
X63397544Y-21121312D01*
X63627025Y-20998653D01*
X63627026Y-20998653D01*
X63627029Y-20998651D01*
X63876039Y-20923114D01*
X64135000Y-20897609D01*
X64393960Y-20923114D01*
X64393960Y-20923114D01*
G37*
G36*
X22188252Y-20252818D02*
X22188254Y-20252819D01*
X22188255Y-20252819D01*
X22561513Y-20407427D01*
X22561514Y-20407428D01*
X22897439Y-20631886D01*
X23183114Y-20917561D01*
X23183116Y-20917564D01*
X23407573Y-21253487D01*
X23562181Y-21626745D01*
X23641000Y-22022994D01*
X23641000Y-22427006D01*
X23562181Y-22823255D01*
X23407573Y-23196513D01*
X23407572Y-23196514D01*
X23183114Y-23532439D01*
X22897439Y-23818114D01*
X22897436Y-23818116D01*
X22561513Y-24042573D01*
X22188255Y-24197181D01*
X22188254Y-24197181D01*
X22188252Y-24197182D01*
X21792007Y-24276000D01*
X21387993Y-24276000D01*
X20991748Y-24197182D01*
X20991746Y-24197181D01*
X20991745Y-24197181D01*
X20618487Y-24042573D01*
X20282564Y-23818116D01*
X20282561Y-23818114D01*
X19996886Y-23532439D01*
X19772428Y-23196514D01*
X19772427Y-23196513D01*
X19617819Y-22823255D01*
X19539000Y-22427006D01*
X19539000Y-22022994D01*
X19617819Y-21626745D01*
X19772427Y-21253487D01*
X19996884Y-20917564D01*
X19996886Y-20917561D01*
X20282561Y-20631886D01*
X20618486Y-20407428D01*
X20618487Y-20407427D01*
X20991745Y-20252819D01*
X20991746Y-20252819D01*
X20991748Y-20252818D01*
X21387993Y-20174000D01*
X21792007Y-20174000D01*
X22188252Y-20252818D01*
X22188252Y-20252818D01*
G37*
G36*
X97118252Y-20252818D02*
X97118254Y-20252819D01*
X97118255Y-20252819D01*
X97491513Y-20407427D01*
X97491514Y-20407428D01*
X97827439Y-20631886D01*
X98113114Y-20917561D01*
X98113116Y-20917564D01*
X98337573Y-21253487D01*
X98492181Y-21626745D01*
X98571000Y-22022994D01*
X98571000Y-22427006D01*
X98492181Y-22823255D01*
X98337573Y-23196513D01*
X98337572Y-23196514D01*
X98113114Y-23532439D01*
X97827439Y-23818114D01*
X97827436Y-23818116D01*
X97491513Y-24042573D01*
X97118255Y-24197181D01*
X97118254Y-24197181D01*
X97118252Y-24197182D01*
X96722007Y-24276000D01*
X96317993Y-24276000D01*
X95921748Y-24197182D01*
X95921746Y-24197181D01*
X95921745Y-24197181D01*
X95548487Y-24042573D01*
X95212564Y-23818116D01*
X95212561Y-23818114D01*
X94926886Y-23532439D01*
X94702428Y-23196514D01*
X94702427Y-23196513D01*
X94547819Y-22823255D01*
X94469000Y-22427006D01*
X94469000Y-22022994D01*
X94547819Y-21626745D01*
X94702427Y-21253487D01*
X94926884Y-20917564D01*
X94926886Y-20917561D01*
X95212561Y-20631886D01*
X95548486Y-20407428D01*
X95548487Y-20407427D01*
X95921745Y-20252819D01*
X95921746Y-20252819D01*
X95921748Y-20252818D01*
X96317993Y-20174000D01*
X96722007Y-20174000D01*
X97118252Y-20252818D01*
X97118252Y-20252818D01*
G37*
M02*
