G04 #@! TF.GenerationSoftware,KiCad,Pcbnew,5.0.2-bee76a0~70~ubuntu18.04.1*
G04 #@! TF.CreationDate,2020-04-05T13:34:11+02:00*
G04 #@! TF.ProjectId,APC_Solenoid_exp,4150435f-536f-46c6-956e-6f69645f6578,rev?*
G04 #@! TF.SameCoordinates,Original*
G04 #@! TF.FileFunction,Copper,L2,Bot*
G04 #@! TF.FilePolarity,Positive*
%FSLAX46Y46*%
G04 Gerber Fmt 4.6, Leading zero omitted, Abs format (unit mm)*
G04 Created by KiCad (PCBNEW 5.0.2-bee76a0~70~ubuntu18.04.1) date So 05 Apr 2020 13:34:11 CEST*
%MOMM*%
%LPD*%
G01*
G04 APERTURE LIST*
G04 #@! TA.AperFunction,NonConductor*
%ADD10C,0.300000*%
G04 #@! TD*
G04 #@! TA.AperFunction,ComponentPad*
%ADD11R,2.700000X1.600000*%
G04 #@! TD*
G04 #@! TA.AperFunction,ComponentPad*
%ADD12O,2.700000X1.600000*%
G04 #@! TD*
G04 #@! TA.AperFunction,ComponentPad*
%ADD13C,4.000000*%
G04 #@! TD*
G04 #@! TA.AperFunction,SMDPad,CuDef*
%ADD14R,1.500000X1.250000*%
G04 #@! TD*
G04 #@! TA.AperFunction,SMDPad,CuDef*
%ADD15R,1.250000X1.500000*%
G04 #@! TD*
G04 #@! TA.AperFunction,ComponentPad*
%ADD16O,3.014980X1.506220*%
G04 #@! TD*
G04 #@! TA.AperFunction,ComponentPad*
%ADD17O,5.080000X2.540000*%
G04 #@! TD*
G04 #@! TA.AperFunction,ComponentPad*
%ADD18O,2.540000X5.080000*%
G04 #@! TD*
G04 #@! TA.AperFunction,ComponentPad*
%ADD19O,1.506220X3.014980*%
G04 #@! TD*
G04 #@! TA.AperFunction,ComponentPad*
%ADD20R,2.286000X1.574800*%
G04 #@! TD*
G04 #@! TA.AperFunction,ComponentPad*
%ADD21O,2.286000X1.574800*%
G04 #@! TD*
G04 #@! TA.AperFunction,ViaPad*
%ADD22C,1.700000*%
G04 #@! TD*
G04 #@! TA.AperFunction,Conductor*
%ADD23C,0.406400*%
G04 #@! TD*
G04 #@! TA.AperFunction,Conductor*
%ADD24C,1.000000*%
G04 #@! TD*
G04 #@! TA.AperFunction,Conductor*
%ADD25C,1.500000*%
G04 #@! TD*
G04 #@! TA.AperFunction,Conductor*
%ADD26C,0.254000*%
G04 #@! TD*
G04 APERTURE END LIST*
D10*
X23701428Y-30523571D02*
X24558571Y-30523571D01*
X24130000Y-30523571D02*
X24130000Y-29023571D01*
X24272857Y-29237857D01*
X24415714Y-29380714D01*
X24558571Y-29452142D01*
X56759285Y-61210000D02*
X56045000Y-61210000D01*
X56902142Y-61638571D02*
X56402142Y-60138571D01*
X55902142Y-61638571D01*
X55402142Y-61638571D02*
X55402142Y-60138571D01*
X54830714Y-60138571D01*
X54687857Y-60210000D01*
X54616428Y-60281428D01*
X54545000Y-60424285D01*
X54545000Y-60638571D01*
X54616428Y-60781428D01*
X54687857Y-60852857D01*
X54830714Y-60924285D01*
X55402142Y-60924285D01*
X53045000Y-61495714D02*
X53116428Y-61567142D01*
X53330714Y-61638571D01*
X53473571Y-61638571D01*
X53687857Y-61567142D01*
X53830714Y-61424285D01*
X53902142Y-61281428D01*
X53973571Y-60995714D01*
X53973571Y-60781428D01*
X53902142Y-60495714D01*
X53830714Y-60352857D01*
X53687857Y-60210000D01*
X53473571Y-60138571D01*
X53330714Y-60138571D01*
X53116428Y-60210000D01*
X53045000Y-60281428D01*
X52759285Y-61781428D02*
X51616428Y-61781428D01*
X51330714Y-61567142D02*
X51116428Y-61638571D01*
X50759285Y-61638571D01*
X50616428Y-61567142D01*
X50545000Y-61495714D01*
X50473571Y-61352857D01*
X50473571Y-61210000D01*
X50545000Y-61067142D01*
X50616428Y-60995714D01*
X50759285Y-60924285D01*
X51045000Y-60852857D01*
X51187857Y-60781428D01*
X51259285Y-60710000D01*
X51330714Y-60567142D01*
X51330714Y-60424285D01*
X51259285Y-60281428D01*
X51187857Y-60210000D01*
X51045000Y-60138571D01*
X50687857Y-60138571D01*
X50473571Y-60210000D01*
X49616428Y-61638571D02*
X49759285Y-61567142D01*
X49830714Y-61495714D01*
X49902142Y-61352857D01*
X49902142Y-60924285D01*
X49830714Y-60781428D01*
X49759285Y-60710000D01*
X49616428Y-60638571D01*
X49402142Y-60638571D01*
X49259285Y-60710000D01*
X49187857Y-60781428D01*
X49116428Y-60924285D01*
X49116428Y-61352857D01*
X49187857Y-61495714D01*
X49259285Y-61567142D01*
X49402142Y-61638571D01*
X49616428Y-61638571D01*
X48259285Y-61638571D02*
X48402142Y-61567142D01*
X48473571Y-61424285D01*
X48473571Y-60138571D01*
X47116428Y-61567142D02*
X47259285Y-61638571D01*
X47545000Y-61638571D01*
X47687857Y-61567142D01*
X47759285Y-61424285D01*
X47759285Y-60852857D01*
X47687857Y-60710000D01*
X47545000Y-60638571D01*
X47259285Y-60638571D01*
X47116428Y-60710000D01*
X47045000Y-60852857D01*
X47045000Y-60995714D01*
X47759285Y-61138571D01*
X46402142Y-60638571D02*
X46402142Y-61638571D01*
X46402142Y-60781428D02*
X46330714Y-60710000D01*
X46187857Y-60638571D01*
X45973571Y-60638571D01*
X45830714Y-60710000D01*
X45759285Y-60852857D01*
X45759285Y-61638571D01*
X44830714Y-61638571D02*
X44973571Y-61567142D01*
X45045000Y-61495714D01*
X45116428Y-61352857D01*
X45116428Y-60924285D01*
X45045000Y-60781428D01*
X44973571Y-60710000D01*
X44830714Y-60638571D01*
X44616428Y-60638571D01*
X44473571Y-60710000D01*
X44402142Y-60781428D01*
X44330714Y-60924285D01*
X44330714Y-61352857D01*
X44402142Y-61495714D01*
X44473571Y-61567142D01*
X44616428Y-61638571D01*
X44830714Y-61638571D01*
X43687857Y-61638571D02*
X43687857Y-60638571D01*
X43687857Y-60138571D02*
X43759285Y-60210000D01*
X43687857Y-60281428D01*
X43616428Y-60210000D01*
X43687857Y-60138571D01*
X43687857Y-60281428D01*
X42330714Y-61638571D02*
X42330714Y-60138571D01*
X42330714Y-61567142D02*
X42473571Y-61638571D01*
X42759285Y-61638571D01*
X42902142Y-61567142D01*
X42973571Y-61495714D01*
X43045000Y-61352857D01*
X43045000Y-60924285D01*
X42973571Y-60781428D01*
X42902142Y-60710000D01*
X42759285Y-60638571D01*
X42473571Y-60638571D01*
X42330714Y-60710000D01*
X41973571Y-61781428D02*
X40830714Y-61781428D01*
X39902142Y-61567142D02*
X40045000Y-61638571D01*
X40330714Y-61638571D01*
X40473571Y-61567142D01*
X40545000Y-61424285D01*
X40545000Y-60852857D01*
X40473571Y-60710000D01*
X40330714Y-60638571D01*
X40045000Y-60638571D01*
X39902142Y-60710000D01*
X39830714Y-60852857D01*
X39830714Y-60995714D01*
X40545000Y-61138571D01*
X39330714Y-61638571D02*
X38545000Y-60638571D01*
X39330714Y-60638571D02*
X38545000Y-61638571D01*
X37973571Y-60638571D02*
X37973571Y-62138571D01*
X37973571Y-60710000D02*
X37830714Y-60638571D01*
X37545000Y-60638571D01*
X37402142Y-60710000D01*
X37330714Y-60781428D01*
X37259285Y-60924285D01*
X37259285Y-61352857D01*
X37330714Y-61495714D01*
X37402142Y-61567142D01*
X37545000Y-61638571D01*
X37830714Y-61638571D01*
X37973571Y-61567142D01*
X36973571Y-61781428D02*
X35830714Y-61781428D01*
X35473571Y-61638571D02*
X35473571Y-60138571D01*
X35473571Y-60710000D02*
X35330714Y-60638571D01*
X35045000Y-60638571D01*
X34902142Y-60710000D01*
X34830714Y-60781428D01*
X34759285Y-60924285D01*
X34759285Y-61352857D01*
X34830714Y-61495714D01*
X34902142Y-61567142D01*
X35045000Y-61638571D01*
X35330714Y-61638571D01*
X35473571Y-61567142D01*
X33902142Y-61638571D02*
X34045000Y-61567142D01*
X34116428Y-61495714D01*
X34187857Y-61352857D01*
X34187857Y-60924285D01*
X34116428Y-60781428D01*
X34045000Y-60710000D01*
X33902142Y-60638571D01*
X33687857Y-60638571D01*
X33545000Y-60710000D01*
X33473571Y-60781428D01*
X33402142Y-60924285D01*
X33402142Y-61352857D01*
X33473571Y-61495714D01*
X33545000Y-61567142D01*
X33687857Y-61638571D01*
X33902142Y-61638571D01*
X32973571Y-60638571D02*
X32402142Y-60638571D01*
X32759285Y-60138571D02*
X32759285Y-61424285D01*
X32687857Y-61567142D01*
X32545000Y-61638571D01*
X32402142Y-61638571D01*
X32116428Y-60638571D02*
X31545000Y-60638571D01*
X31902142Y-60138571D02*
X31902142Y-61424285D01*
X31830714Y-61567142D01*
X31687857Y-61638571D01*
X31545000Y-61638571D01*
X30830714Y-61638571D02*
X30973571Y-61567142D01*
X31045000Y-61495714D01*
X31116428Y-61352857D01*
X31116428Y-60924285D01*
X31045000Y-60781428D01*
X30973571Y-60710000D01*
X30830714Y-60638571D01*
X30616428Y-60638571D01*
X30473571Y-60710000D01*
X30402142Y-60781428D01*
X30330714Y-60924285D01*
X30330714Y-61352857D01*
X30402142Y-61495714D01*
X30473571Y-61567142D01*
X30616428Y-61638571D01*
X30830714Y-61638571D01*
X29687857Y-61638571D02*
X29687857Y-60638571D01*
X29687857Y-60781428D02*
X29616428Y-60710000D01*
X29473571Y-60638571D01*
X29259285Y-60638571D01*
X29116428Y-60710000D01*
X29045000Y-60852857D01*
X29045000Y-61638571D01*
X29045000Y-60852857D02*
X28973571Y-60710000D01*
X28830714Y-60638571D01*
X28616428Y-60638571D01*
X28473571Y-60710000D01*
X28402142Y-60852857D01*
X28402142Y-61638571D01*
X91646428Y-26713571D02*
X92503571Y-26713571D01*
X92075000Y-26713571D02*
X92075000Y-25213571D01*
X92217857Y-25427857D01*
X92360714Y-25570714D01*
X92503571Y-25642142D01*
D11*
G04 #@! TO.P,RN1,1*
G04 #@! TO.N,+5V*
X35560000Y-31750000D03*
D12*
G04 #@! TO.P,RN1,2*
G04 #@! TO.N,/D0*
X35560000Y-34290000D03*
G04 #@! TO.P,RN1,3*
G04 #@! TO.N,/D1*
X35560000Y-36830000D03*
G04 #@! TO.P,RN1,4*
G04 #@! TO.N,/D2*
X35560000Y-39370000D03*
G04 #@! TO.P,RN1,5*
G04 #@! TO.N,/D3*
X35560000Y-41910000D03*
G04 #@! TO.P,RN1,6*
G04 #@! TO.N,/D4*
X35560000Y-44450000D03*
G04 #@! TO.P,RN1,7*
G04 #@! TO.N,/D5*
X35560000Y-46990000D03*
G04 #@! TO.P,RN1,8*
G04 #@! TO.N,/D6*
X35560000Y-49530000D03*
G04 #@! TO.P,RN1,9*
G04 #@! TO.N,/D7*
X35560000Y-52070000D03*
G04 #@! TO.P,RN1,10*
G04 #@! TO.N,Net-(C9-Pad1)*
X35560000Y-54610000D03*
G04 #@! TD*
D13*
G04 #@! TO.P,REF\002A\002A,1*
G04 #@! TO.N,N/C*
X96520000Y-22225000D03*
G04 #@! TD*
G04 #@! TO.P,REF\002A\002A,1*
G04 #@! TO.N,N/C*
X21590000Y-22225000D03*
G04 #@! TD*
G04 #@! TO.P,REF\002A\002A,1*
G04 #@! TO.N,N/C*
X96520000Y-62230000D03*
G04 #@! TD*
G04 #@! TO.P,REF\002A\002A,1*
G04 #@! TO.N,N/C*
X21590000Y-62230000D03*
G04 #@! TD*
D14*
G04 #@! TO.P,C1,2*
G04 #@! TO.N,GND*
X43795000Y-30480000D03*
G04 #@! TO.P,C1,1*
G04 #@! TO.N,/D0*
X41295000Y-30480000D03*
G04 #@! TD*
G04 #@! TO.P,C2,1*
G04 #@! TO.N,/D1*
X41295000Y-33655000D03*
G04 #@! TO.P,C2,2*
G04 #@! TO.N,GND*
X43795000Y-33655000D03*
G04 #@! TD*
G04 #@! TO.P,C3,2*
G04 #@! TO.N,GND*
X43795000Y-36830000D03*
G04 #@! TO.P,C3,1*
G04 #@! TO.N,/D2*
X41295000Y-36830000D03*
G04 #@! TD*
G04 #@! TO.P,C4,1*
G04 #@! TO.N,/D3*
X41295000Y-40005000D03*
G04 #@! TO.P,C4,2*
G04 #@! TO.N,GND*
X43795000Y-40005000D03*
G04 #@! TD*
G04 #@! TO.P,C5,2*
G04 #@! TO.N,GND*
X43795000Y-43180000D03*
G04 #@! TO.P,C5,1*
G04 #@! TO.N,/D4*
X41295000Y-43180000D03*
G04 #@! TD*
G04 #@! TO.P,C6,1*
G04 #@! TO.N,/D5*
X41295000Y-46355000D03*
G04 #@! TO.P,C6,2*
G04 #@! TO.N,GND*
X43795000Y-46355000D03*
G04 #@! TD*
G04 #@! TO.P,C7,2*
G04 #@! TO.N,GND*
X43795000Y-49530000D03*
G04 #@! TO.P,C7,1*
G04 #@! TO.N,/D6*
X41295000Y-49530000D03*
G04 #@! TD*
G04 #@! TO.P,C8,1*
G04 #@! TO.N,/D7*
X41295000Y-52705000D03*
G04 #@! TO.P,C8,2*
G04 #@! TO.N,GND*
X43795000Y-52705000D03*
G04 #@! TD*
G04 #@! TO.P,C9,2*
G04 #@! TO.N,GND*
X43795000Y-55880000D03*
G04 #@! TO.P,C9,1*
G04 #@! TO.N,Net-(C9-Pad1)*
X41295000Y-55880000D03*
G04 #@! TD*
D15*
G04 #@! TO.P,C10,1*
G04 #@! TO.N,+5V*
X56515000Y-27920000D03*
G04 #@! TO.P,C10,2*
G04 #@! TO.N,GND*
X56515000Y-25420000D03*
G04 #@! TD*
D16*
G04 #@! TO.P,P1,15*
G04 #@! TO.N,+5V*
X24015000Y-52070000D03*
G04 #@! TO.P,P1,16*
G04 #@! TO.N,GND*
X28055000Y-52070000D03*
G04 #@! TO.P,P1,14*
G04 #@! TO.N,Net-(P1-Pad14)*
X28055000Y-49530000D03*
G04 #@! TO.P,P1,13*
G04 #@! TO.N,Net-(C9-Pad1)*
X24015000Y-49530000D03*
G04 #@! TO.P,P1,1*
G04 #@! TO.N,GND*
X24015000Y-34290000D03*
G04 #@! TO.P,P1,2*
G04 #@! TO.N,Net-(P1-Pad2)*
X28055000Y-34290000D03*
G04 #@! TO.P,P1,3*
G04 #@! TO.N,/D0*
X24015000Y-36830000D03*
G04 #@! TO.P,P1,4*
G04 #@! TO.N,/D1*
X28055000Y-36830000D03*
G04 #@! TO.P,P1,5*
G04 #@! TO.N,/D2*
X24015000Y-39370000D03*
G04 #@! TO.P,P1,6*
G04 #@! TO.N,/D3*
X28055000Y-39370000D03*
G04 #@! TO.P,P1,7*
G04 #@! TO.N,/D4*
X24015000Y-41910000D03*
G04 #@! TO.P,P1,8*
G04 #@! TO.N,/D5*
X28055000Y-41910000D03*
G04 #@! TO.P,P1,9*
G04 #@! TO.N,/D6*
X24015000Y-44450000D03*
G04 #@! TO.P,P1,10*
G04 #@! TO.N,/D7*
X28055000Y-44450000D03*
G04 #@! TO.P,P1,11*
G04 #@! TO.N,Net-(P1-Pad11)*
X24015000Y-46990000D03*
G04 #@! TO.P,P1,12*
G04 #@! TO.N,Net-(P1-Pad12)*
X28055000Y-46990000D03*
G04 #@! TO.P,P1,13*
G04 #@! TO.N,Net-(C9-Pad1)*
X24015000Y-49530000D03*
G04 #@! TO.P,P1,14*
G04 #@! TO.N,Net-(P1-Pad14)*
X28055000Y-49530000D03*
G04 #@! TD*
D17*
G04 #@! TO.P,P2,3*
G04 #@! TO.N,Net-(P2-Pad3)*
X94615000Y-36499800D03*
G04 #@! TO.P,P2,2*
G04 #@! TO.N,Net-(P2-Pad2)*
X94615000Y-32537400D03*
G04 #@! TO.P,P2,1*
G04 #@! TO.N,Net-(P2-Pad1)*
X94615000Y-28575000D03*
G04 #@! TO.P,P2,4*
G04 #@! TO.N,Net-(P2-Pad4)*
X94615000Y-40462200D03*
G04 #@! TO.P,P2,5*
G04 #@! TO.N,Net-(P2-Pad5)*
X94615000Y-44424600D03*
G04 #@! TO.P,P2,6*
G04 #@! TO.N,Net-(P2-Pad6)*
X94615000Y-48387000D03*
G04 #@! TO.P,P2,7*
G04 #@! TO.N,Net-(P2-Pad7)*
X94615000Y-52349400D03*
G04 #@! TO.P,P2,8*
G04 #@! TO.N,Net-(P2-Pad8)*
X94615000Y-56311800D03*
G04 #@! TD*
D18*
G04 #@! TO.P,P3,3*
G04 #@! TO.N,GND*
X72059800Y-23495000D03*
G04 #@! TO.P,P3,2*
X68097400Y-23495000D03*
G04 #@! TO.P,P3,1*
X64135000Y-23495000D03*
G04 #@! TD*
D19*
G04 #@! TO.P,Q1,S*
G04 #@! TO.N,GND*
X80010000Y-28575000D03*
G04 #@! TO.P,Q1,D*
G04 #@! TO.N,Net-(P2-Pad1)*
X82550000Y-28575000D03*
G04 #@! TO.P,Q1,G*
G04 #@! TO.N,Net-(Q1-PadG)*
X85090000Y-28575000D03*
G04 #@! TD*
G04 #@! TO.P,Q2,S*
G04 #@! TO.N,GND*
X80010000Y-36830000D03*
G04 #@! TO.P,Q2,D*
G04 #@! TO.N,Net-(P2-Pad3)*
X82550000Y-36830000D03*
G04 #@! TO.P,Q2,G*
G04 #@! TO.N,Net-(Q2-PadG)*
X85090000Y-36830000D03*
G04 #@! TD*
G04 #@! TO.P,Q3,S*
G04 #@! TO.N,GND*
X80010000Y-45085000D03*
G04 #@! TO.P,Q3,D*
G04 #@! TO.N,Net-(P2-Pad5)*
X82550000Y-45085000D03*
G04 #@! TO.P,Q3,G*
G04 #@! TO.N,Net-(Q3-PadG)*
X85090000Y-45085000D03*
G04 #@! TD*
G04 #@! TO.P,Q4,S*
G04 #@! TO.N,GND*
X80010000Y-53340000D03*
G04 #@! TO.P,Q4,D*
G04 #@! TO.N,Net-(P2-Pad7)*
X82550000Y-53340000D03*
G04 #@! TO.P,Q4,G*
G04 #@! TO.N,Net-(Q4-PadG)*
X85090000Y-53340000D03*
G04 #@! TD*
G04 #@! TO.P,Q5,G*
G04 #@! TO.N,Net-(Q5-PadG)*
X72390000Y-33020000D03*
G04 #@! TO.P,Q5,D*
G04 #@! TO.N,Net-(P2-Pad2)*
X69850000Y-33020000D03*
G04 #@! TO.P,Q5,S*
G04 #@! TO.N,GND*
X67310000Y-33020000D03*
G04 #@! TD*
G04 #@! TO.P,Q6,G*
G04 #@! TO.N,Net-(Q6-PadG)*
X72390000Y-40640000D03*
G04 #@! TO.P,Q6,D*
G04 #@! TO.N,Net-(P2-Pad4)*
X69850000Y-40640000D03*
G04 #@! TO.P,Q6,S*
G04 #@! TO.N,GND*
X67310000Y-40640000D03*
G04 #@! TD*
G04 #@! TO.P,Q7,G*
G04 #@! TO.N,Net-(Q7-PadG)*
X72390000Y-48895000D03*
G04 #@! TO.P,Q7,D*
G04 #@! TO.N,Net-(P2-Pad6)*
X69850000Y-48895000D03*
G04 #@! TO.P,Q7,S*
G04 #@! TO.N,GND*
X67310000Y-48895000D03*
G04 #@! TD*
G04 #@! TO.P,Q8,G*
G04 #@! TO.N,Net-(Q8-PadG)*
X72390000Y-57150000D03*
G04 #@! TO.P,Q8,D*
G04 #@! TO.N,Net-(P2-Pad8)*
X69850000Y-57150000D03*
G04 #@! TO.P,Q8,S*
G04 #@! TO.N,GND*
X67310000Y-57150000D03*
G04 #@! TD*
D20*
G04 #@! TO.P,U1,1*
G04 #@! TO.N,Net-(P1-Pad2)*
X48260000Y-30480000D03*
D21*
G04 #@! TO.P,U1,2*
G04 #@! TO.N,/D0*
X48260000Y-33020000D03*
G04 #@! TO.P,U1,3*
G04 #@! TO.N,/D1*
X48260000Y-35560000D03*
G04 #@! TO.P,U1,4*
G04 #@! TO.N,/D2*
X48260000Y-38100000D03*
G04 #@! TO.P,U1,5*
G04 #@! TO.N,/D3*
X48260000Y-40640000D03*
G04 #@! TO.P,U1,6*
G04 #@! TO.N,/D4*
X48260000Y-43180000D03*
G04 #@! TO.P,U1,7*
G04 #@! TO.N,/D5*
X48260000Y-45720000D03*
G04 #@! TO.P,U1,8*
G04 #@! TO.N,/D6*
X48260000Y-48260000D03*
G04 #@! TO.P,U1,9*
G04 #@! TO.N,/D7*
X48260000Y-50800000D03*
G04 #@! TO.P,U1,10*
G04 #@! TO.N,GND*
X48260000Y-53340000D03*
G04 #@! TO.P,U1,11*
G04 #@! TO.N,Net-(C9-Pad1)*
X55880000Y-53340000D03*
G04 #@! TO.P,U1,12*
G04 #@! TO.N,Net-(Q8-PadG)*
X55880000Y-50800000D03*
G04 #@! TO.P,U1,13*
G04 #@! TO.N,Net-(Q4-PadG)*
X55880000Y-48260000D03*
G04 #@! TO.P,U1,14*
G04 #@! TO.N,Net-(Q7-PadG)*
X55880000Y-45720000D03*
G04 #@! TO.P,U1,15*
G04 #@! TO.N,Net-(Q3-PadG)*
X55880000Y-43180000D03*
G04 #@! TO.P,U1,16*
G04 #@! TO.N,Net-(Q6-PadG)*
X55880000Y-40640000D03*
G04 #@! TO.P,U1,17*
G04 #@! TO.N,Net-(Q2-PadG)*
X55880000Y-38100000D03*
G04 #@! TO.P,U1,18*
G04 #@! TO.N,Net-(Q5-PadG)*
X55880000Y-35560000D03*
G04 #@! TO.P,U1,19*
G04 #@! TO.N,Net-(Q1-PadG)*
X55880000Y-33020000D03*
G04 #@! TO.P,U1,20*
G04 #@! TO.N,+5V*
X55880000Y-30480000D03*
G04 #@! TD*
D22*
G04 #@! TO.N,Net-(Q1-PadG)*
X76073000Y-29972000D03*
X61341000Y-29972000D03*
G04 #@! TO.N,Net-(Q2-PadG)*
X61341000Y-38227000D03*
X76454000Y-38100000D03*
G04 #@! TO.N,Net-(Q3-PadG)*
X61468000Y-45974000D03*
X76327000Y-46101000D03*
G04 #@! TO.N,Net-(Q4-PadG)*
X61468000Y-54483000D03*
X76327000Y-54483000D03*
G04 #@! TO.N,Net-(Q5-PadG)*
X61341000Y-36195000D03*
X67818000Y-36195000D03*
G04 #@! TO.N,Net-(Q6-PadG)*
X61468000Y-43688000D03*
X68072000Y-43688000D03*
G04 #@! TO.N,Net-(Q7-PadG)*
X61468000Y-52070000D03*
X67945000Y-52070000D03*
G04 #@! TO.N,Net-(Q8-PadG)*
X61468000Y-60452000D03*
X67818000Y-60452000D03*
G04 #@! TD*
D23*
G04 #@! TO.N,GND*
X27305000Y-52070000D02*
X26543000Y-52070000D01*
X22733000Y-34290000D02*
X24765000Y-34290000D01*
X21717000Y-35306000D02*
X22733000Y-34290000D01*
X21717000Y-50038000D02*
X21717000Y-35306000D01*
X22479000Y-50800000D02*
X21717000Y-50038000D01*
X25273000Y-50800000D02*
X22479000Y-50800000D01*
X26543000Y-52070000D02*
X25273000Y-50800000D01*
X64262000Y-24511000D02*
X64262000Y-27940000D01*
X64262000Y-27940000D02*
X64262000Y-34290000D01*
X64262000Y-34290000D02*
X64262000Y-40005000D01*
X64262000Y-40005000D02*
X64262000Y-46863000D01*
X64262000Y-46863000D02*
X63500000Y-47625000D01*
X63500000Y-47625000D02*
X60960000Y-47625000D01*
X60960000Y-47625000D02*
X57785000Y-44450000D01*
X57785000Y-44450000D02*
X52705000Y-44450000D01*
X52705000Y-44450000D02*
X46355000Y-44450000D01*
X46355000Y-44450000D02*
X44450000Y-46355000D01*
X44450000Y-46355000D02*
X43795000Y-46355000D01*
X52705000Y-44450000D02*
X52705000Y-41910000D01*
X52705000Y-41910000D02*
X52705000Y-39370000D01*
X52705000Y-39370000D02*
X52705000Y-36830000D01*
X52705000Y-36830000D02*
X52705000Y-34290000D01*
X52705000Y-34290000D02*
X52705000Y-31750000D01*
X52705000Y-31750000D02*
X57785000Y-31750000D01*
X57785000Y-31750000D02*
X59690000Y-29845000D01*
X59690000Y-29845000D02*
X59690000Y-29210000D01*
X59690000Y-29210000D02*
X60960000Y-27940000D01*
X60960000Y-27940000D02*
X64262000Y-27940000D01*
X52705000Y-39370000D02*
X59690000Y-39370000D01*
X59690000Y-39370000D02*
X60325000Y-40005000D01*
X60325000Y-40005000D02*
X64262000Y-40005000D01*
X43795000Y-40005000D02*
X45085000Y-40005000D01*
X45085000Y-40005000D02*
X45720000Y-39370000D01*
X45720000Y-39370000D02*
X52705000Y-39370000D01*
X43795000Y-43180000D02*
X45085000Y-43180000D01*
X45085000Y-43180000D02*
X46355000Y-41910000D01*
X46355000Y-41910000D02*
X52705000Y-41910000D01*
X43795000Y-36830000D02*
X52705000Y-36830000D01*
X43795000Y-33655000D02*
X45085000Y-33655000D01*
X45085000Y-33655000D02*
X45720000Y-34290000D01*
X45720000Y-34290000D02*
X52705000Y-34290000D01*
X52705000Y-34290000D02*
X64262000Y-34290000D01*
X64262000Y-34290000D02*
X64135000Y-34290000D01*
X64135000Y-34290000D02*
X64262000Y-34290000D01*
X43795000Y-30480000D02*
X45085000Y-30480000D01*
X45085000Y-30480000D02*
X46355000Y-31750000D01*
X46355000Y-31750000D02*
X52705000Y-31750000D01*
X43795000Y-49530000D02*
X44450000Y-49530000D01*
X44450000Y-49530000D02*
X46990000Y-46990000D01*
X46990000Y-46990000D02*
X52705000Y-46990000D01*
X52705000Y-46990000D02*
X52705000Y-44450000D01*
X43795000Y-52705000D02*
X45085000Y-52705000D01*
X45085000Y-52705000D02*
X46355000Y-51435000D01*
X46355000Y-51435000D02*
X46355000Y-50165000D01*
X46355000Y-50165000D02*
X46990000Y-49530000D01*
X46990000Y-49530000D02*
X52705000Y-49530000D01*
X52705000Y-49530000D02*
X52705000Y-46990000D01*
G04 #@! TO.N,/D0*
X30480000Y-35560000D02*
X31750000Y-34290000D01*
X35560000Y-34290000D02*
X31750000Y-34290000D01*
X26035000Y-35560000D02*
X24765000Y-36830000D01*
X26035000Y-35560000D02*
X30480000Y-35560000D01*
X35560000Y-34290000D02*
X37719000Y-34290000D01*
X39751000Y-32258000D02*
X37719000Y-34290000D01*
X45339000Y-32258000D02*
X41275000Y-32258000D01*
X41275000Y-32258000D02*
X39751000Y-32258000D01*
X46101000Y-33020000D02*
X45339000Y-32258000D01*
X46101000Y-33020000D02*
X48260000Y-33020000D01*
X41295000Y-30480000D02*
X41295000Y-32258000D01*
X41295000Y-32258000D02*
X41275000Y-32258000D01*
G04 #@! TO.N,/D1*
X27305000Y-36830000D02*
X35560000Y-36830000D01*
X35560000Y-36830000D02*
X37973000Y-36830000D01*
X45847000Y-35560000D02*
X48260000Y-35560000D01*
X45593000Y-35306000D02*
X45847000Y-35560000D01*
X39497000Y-35306000D02*
X41275000Y-35306000D01*
X41275000Y-35306000D02*
X45593000Y-35306000D01*
X37973000Y-36830000D02*
X39497000Y-35306000D01*
X41295000Y-33655000D02*
X41295000Y-35306000D01*
X41295000Y-35306000D02*
X41275000Y-35306000D01*
G04 #@! TO.N,/D2*
X24765000Y-39370000D02*
X26035000Y-38100000D01*
X32385000Y-39370000D02*
X36830000Y-39370000D01*
X31115000Y-38100000D02*
X32385000Y-39370000D01*
X26035000Y-38100000D02*
X31115000Y-38100000D01*
X35560000Y-39370000D02*
X38227000Y-39370000D01*
X46355000Y-38100000D02*
X48260000Y-38100000D01*
X46101000Y-38354000D02*
X46355000Y-38100000D01*
X39243000Y-38354000D02*
X41275000Y-38354000D01*
X41275000Y-38354000D02*
X46101000Y-38354000D01*
X38227000Y-39370000D02*
X39243000Y-38354000D01*
X41295000Y-36830000D02*
X41295000Y-38354000D01*
X41295000Y-38354000D02*
X41275000Y-38354000D01*
G04 #@! TO.N,/D3*
X27305000Y-39370000D02*
X31115000Y-39370000D01*
X33655000Y-41910000D02*
X36830000Y-41910000D01*
X31115000Y-39370000D02*
X33655000Y-41910000D01*
X35560000Y-41910000D02*
X38989000Y-41910000D01*
X45974000Y-40640000D02*
X48260000Y-40640000D01*
X44958000Y-41656000D02*
X45974000Y-40640000D01*
X39243000Y-41656000D02*
X41275000Y-41656000D01*
X41275000Y-41656000D02*
X44958000Y-41656000D01*
X38989000Y-41910000D02*
X39243000Y-41656000D01*
X41295000Y-40005000D02*
X41295000Y-41656000D01*
X41295000Y-41656000D02*
X41275000Y-41656000D01*
G04 #@! TO.N,/D4*
X24765000Y-41910000D02*
X26035000Y-40640000D01*
X34925000Y-44450000D02*
X35560000Y-44450000D01*
X31115000Y-40640000D02*
X34925000Y-44450000D01*
X26035000Y-40640000D02*
X31115000Y-40640000D01*
X35560000Y-44450000D02*
X39243000Y-44450000D01*
X46355000Y-43180000D02*
X48260000Y-43180000D01*
X44831000Y-44704000D02*
X46355000Y-43180000D01*
X39497000Y-44704000D02*
X41275000Y-44704000D01*
X41275000Y-44704000D02*
X44831000Y-44704000D01*
X39243000Y-44450000D02*
X39497000Y-44704000D01*
X41295000Y-43180000D02*
X41295000Y-44704000D01*
X41295000Y-44704000D02*
X41275000Y-44704000D01*
G04 #@! TO.N,/D5*
X27305000Y-41910000D02*
X30480000Y-41910000D01*
X30480000Y-41910000D02*
X35560000Y-46990000D01*
X35560000Y-46990000D02*
X38735000Y-46990000D01*
X46863000Y-45720000D02*
X48260000Y-45720000D01*
X44831000Y-47752000D02*
X46863000Y-45720000D01*
X39497000Y-47752000D02*
X41275000Y-47752000D01*
X41275000Y-47752000D02*
X44831000Y-47752000D01*
X38735000Y-46990000D02*
X39497000Y-47752000D01*
X41295000Y-46355000D02*
X41295000Y-47752000D01*
X41295000Y-47752000D02*
X41275000Y-47752000D01*
G04 #@! TO.N,/D6*
X33020000Y-48895000D02*
X33655000Y-49530000D01*
X35560000Y-49530000D02*
X33655000Y-49530000D01*
X26035000Y-43180000D02*
X24765000Y-44450000D01*
X26035000Y-43180000D02*
X29210000Y-43180000D01*
X29210000Y-43180000D02*
X29845000Y-43180000D01*
X29845000Y-43180000D02*
X33020000Y-46355000D01*
X33020000Y-46355000D02*
X33020000Y-48895000D01*
X35560000Y-49530000D02*
X38227000Y-49530000D01*
X47117000Y-48260000D02*
X48260000Y-48260000D01*
X44577000Y-50800000D02*
X47117000Y-48260000D01*
X39497000Y-50800000D02*
X41275000Y-50800000D01*
X41275000Y-50800000D02*
X44577000Y-50800000D01*
X38227000Y-49530000D02*
X39497000Y-50800000D01*
X41295000Y-49530000D02*
X41295000Y-50800000D01*
X41295000Y-50800000D02*
X41275000Y-50800000D01*
G04 #@! TO.N,/D7*
X31750000Y-50165000D02*
X33655000Y-52070000D01*
X35560000Y-52070000D02*
X33655000Y-52070000D01*
X29210000Y-44450000D02*
X27305000Y-44450000D01*
X29210000Y-44450000D02*
X31750000Y-46990000D01*
X31750000Y-46990000D02*
X31750000Y-50165000D01*
X35560000Y-52070000D02*
X37719000Y-52070000D01*
X44958000Y-54102000D02*
X48260000Y-50800000D01*
X39751000Y-54102000D02*
X41275000Y-54102000D01*
X41275000Y-54102000D02*
X44958000Y-54102000D01*
X37719000Y-52070000D02*
X39751000Y-54102000D01*
X41295000Y-52705000D02*
X41295000Y-54102000D01*
X41295000Y-54102000D02*
X41275000Y-54102000D01*
G04 #@! TO.N,Net-(C9-Pad1)*
X24765000Y-49530000D02*
X25019000Y-49530000D01*
X39497000Y-55880000D02*
X41295000Y-55880000D01*
X38227000Y-54610000D02*
X39497000Y-55880000D01*
X33909000Y-54610000D02*
X38227000Y-54610000D01*
X30099000Y-50800000D02*
X33909000Y-54610000D01*
X26797000Y-50800000D02*
X30099000Y-50800000D01*
X25527000Y-49530000D02*
X26797000Y-50800000D01*
X41295000Y-55880000D02*
X41295000Y-56916000D01*
X55880000Y-55245000D02*
X55880000Y-53340000D01*
X53721000Y-57404000D02*
X55880000Y-55245000D01*
X41783000Y-57404000D02*
X53721000Y-57404000D01*
X41295000Y-56916000D02*
X41783000Y-57404000D01*
X25527000Y-49530000D02*
X24765000Y-49530000D01*
D24*
G04 #@! TO.N,+5V*
X24765000Y-52070000D02*
X21590000Y-52070000D01*
X22225000Y-31750000D02*
X35560000Y-31750000D01*
X20320000Y-33655000D02*
X22225000Y-31750000D01*
X20320000Y-50800000D02*
X20320000Y-33655000D01*
X21590000Y-52070000D02*
X20320000Y-50800000D01*
X35560000Y-31750000D02*
X35560000Y-31115000D01*
X38755000Y-27920000D02*
X54610000Y-27920000D01*
X54610000Y-27920000D02*
X56515000Y-27920000D01*
X35560000Y-31115000D02*
X38755000Y-27920000D01*
X55880000Y-30480000D02*
X55245000Y-30480000D01*
X54610000Y-29845000D02*
X54610000Y-27920000D01*
X55245000Y-30480000D02*
X54610000Y-29845000D01*
D23*
G04 #@! TO.N,Net-(P1-Pad2)*
X48260000Y-30480000D02*
X48260000Y-29845000D01*
X30480000Y-34290000D02*
X31750000Y-33020000D01*
X30480000Y-34290000D02*
X27305000Y-34290000D01*
X31750000Y-33020000D02*
X37465000Y-33020000D01*
X37465000Y-33020000D02*
X38100000Y-32385000D01*
X38100000Y-32385000D02*
X38100000Y-31115000D01*
X38100000Y-31115000D02*
X40005000Y-29210000D01*
X40005000Y-29210000D02*
X47625000Y-29210000D01*
X47625000Y-29210000D02*
X48260000Y-29845000D01*
D25*
G04 #@! TO.N,Net-(P2-Pad3)*
X82550000Y-36830000D02*
X82550000Y-35560000D01*
X88773000Y-36703000D02*
X93980000Y-36703000D01*
X86360000Y-34290000D02*
X88773000Y-36703000D01*
X83820000Y-34290000D02*
X86360000Y-34290000D01*
X82550000Y-35560000D02*
X83820000Y-34290000D01*
G04 #@! TO.N,Net-(P2-Pad2)*
X69850000Y-33020000D02*
X69850000Y-31750000D01*
X89890600Y-32740600D02*
X93980000Y-32740600D01*
X89535000Y-32385000D02*
X89890600Y-32740600D01*
X75565000Y-32385000D02*
X89535000Y-32385000D01*
X73660000Y-30480000D02*
X75565000Y-32385000D01*
X71120000Y-30480000D02*
X73660000Y-30480000D01*
X69850000Y-31750000D02*
X71120000Y-30480000D01*
G04 #@! TO.N,Net-(P2-Pad1)*
X82550000Y-28575000D02*
X82550000Y-27305000D01*
X89738200Y-28778200D02*
X93980000Y-28778200D01*
X86995000Y-26035000D02*
X89738200Y-28778200D01*
X83820000Y-26035000D02*
X86995000Y-26035000D01*
X82550000Y-27305000D02*
X83820000Y-26035000D01*
G04 #@! TO.N,Net-(P2-Pad4)*
X69850000Y-40640000D02*
X69850000Y-39370000D01*
X76022200Y-40462200D02*
X94615000Y-40462200D01*
X73660000Y-38100000D02*
X76022200Y-40462200D01*
X71120000Y-38100000D02*
X73660000Y-38100000D01*
X69850000Y-39370000D02*
X71120000Y-38100000D01*
G04 #@! TO.N,Net-(P2-Pad5)*
X82550000Y-45085000D02*
X82550000Y-43815000D01*
X88874600Y-44424600D02*
X94615000Y-44424600D01*
X86995000Y-42545000D02*
X88874600Y-44424600D01*
X83820000Y-42545000D02*
X86995000Y-42545000D01*
X82550000Y-43815000D02*
X83820000Y-42545000D01*
G04 #@! TO.N,Net-(P2-Pad6)*
X69850000Y-48895000D02*
X69850000Y-46990000D01*
X89408000Y-48387000D02*
X94615000Y-48387000D01*
X88900000Y-48895000D02*
X89408000Y-48387000D01*
X76200000Y-48895000D02*
X88900000Y-48895000D01*
X73660000Y-46355000D02*
X76200000Y-48895000D01*
X70485000Y-46355000D02*
X73660000Y-46355000D01*
X69850000Y-46990000D02*
X70485000Y-46355000D01*
G04 #@! TO.N,Net-(P2-Pad7)*
X82550000Y-53340000D02*
X82550000Y-52070000D01*
X87909400Y-52349400D02*
X94615000Y-52349400D01*
X86360000Y-50800000D02*
X87909400Y-52349400D01*
X83820000Y-50800000D02*
X86360000Y-50800000D01*
X82550000Y-52070000D02*
X83820000Y-50800000D01*
G04 #@! TO.N,Net-(P2-Pad8)*
X69850000Y-57150000D02*
X69850000Y-55245000D01*
X89103200Y-56311800D02*
X94615000Y-56311800D01*
X88265000Y-57150000D02*
X89103200Y-56311800D01*
X76200000Y-57150000D02*
X88265000Y-57150000D01*
X73660000Y-54610000D02*
X76200000Y-57150000D01*
X70485000Y-54610000D02*
X73660000Y-54610000D01*
X69850000Y-55245000D02*
X70485000Y-54610000D01*
D23*
G04 #@! TO.N,Net-(Q1-PadG)*
X61341000Y-29972000D02*
X58293000Y-33020000D01*
X55880000Y-33020000D02*
X58293000Y-33020000D01*
X85090000Y-29845000D02*
X85090000Y-28575000D01*
X85090000Y-29845000D02*
X84201000Y-30734000D01*
X84201000Y-30734000D02*
X76835000Y-30734000D01*
X76835000Y-30734000D02*
X76073000Y-29972000D01*
G04 #@! TO.N,Net-(Q2-PadG)*
X85090000Y-36830000D02*
X85090000Y-38354000D01*
X61214000Y-38100000D02*
X55880000Y-38100000D01*
X61341000Y-38227000D02*
X61214000Y-38100000D01*
X77470000Y-39116000D02*
X76454000Y-38100000D01*
X84328000Y-39116000D02*
X77470000Y-39116000D01*
X85090000Y-38354000D02*
X84328000Y-39116000D01*
G04 #@! TO.N,Net-(Q3-PadG)*
X85090000Y-45085000D02*
X85090000Y-46482000D01*
X58674000Y-43180000D02*
X55880000Y-43180000D01*
X61468000Y-45974000D02*
X58674000Y-43180000D01*
X77597000Y-47371000D02*
X76327000Y-46101000D01*
X84201000Y-47371000D02*
X77597000Y-47371000D01*
X85090000Y-46482000D02*
X84201000Y-47371000D01*
G04 #@! TO.N,Net-(Q4-PadG)*
X85090000Y-53340000D02*
X85090000Y-54737000D01*
X58293000Y-48260000D02*
X55880000Y-48260000D01*
X59309000Y-49276000D02*
X58293000Y-48260000D01*
X59309000Y-52324000D02*
X59309000Y-49276000D01*
X61468000Y-54483000D02*
X59309000Y-52324000D01*
X77470000Y-55626000D02*
X76327000Y-54483000D01*
X84201000Y-55626000D02*
X77470000Y-55626000D01*
X85090000Y-54737000D02*
X84201000Y-55626000D01*
G04 #@! TO.N,Net-(Q5-PadG)*
X72390000Y-33020000D02*
X72390000Y-34290000D01*
X60706000Y-35560000D02*
X55880000Y-35560000D01*
X61341000Y-36195000D02*
X60706000Y-35560000D01*
X68834000Y-35179000D02*
X67818000Y-36195000D01*
X71501000Y-35179000D02*
X68834000Y-35179000D01*
X72390000Y-34290000D02*
X71501000Y-35179000D01*
G04 #@! TO.N,Net-(Q6-PadG)*
X72390000Y-40640000D02*
X72390000Y-42291000D01*
X58420000Y-40640000D02*
X55880000Y-40640000D01*
X61468000Y-43688000D02*
X58420000Y-40640000D01*
X68834000Y-42926000D02*
X68072000Y-43688000D01*
X71755000Y-42926000D02*
X68834000Y-42926000D01*
X72390000Y-42291000D02*
X71755000Y-42926000D01*
G04 #@! TO.N,Net-(Q7-PadG)*
X72390000Y-48895000D02*
X72390000Y-50546000D01*
X57912000Y-45720000D02*
X55880000Y-45720000D01*
X61468000Y-49276000D02*
X57912000Y-45720000D01*
X61468000Y-52070000D02*
X61468000Y-49276000D01*
X68961000Y-51054000D02*
X67945000Y-52070000D01*
X71882000Y-51054000D02*
X68961000Y-51054000D01*
X72390000Y-50546000D02*
X71882000Y-51054000D01*
G04 #@! TO.N,Net-(Q8-PadG)*
X72390000Y-57150000D02*
X72390000Y-58420000D01*
X57531000Y-50800000D02*
X55880000Y-50800000D01*
X57912000Y-51181000D02*
X57531000Y-50800000D01*
X57912000Y-56896000D02*
X57912000Y-51181000D01*
X61468000Y-60452000D02*
X57912000Y-56896000D01*
X68961000Y-59309000D02*
X67818000Y-60452000D01*
X71501000Y-59309000D02*
X68961000Y-59309000D01*
X72390000Y-58420000D02*
X71501000Y-59309000D01*
G04 #@! TD*
D26*
G04 #@! TO.N,GND*
G36*
X95027392Y-19991155D02*
X94286155Y-20732392D01*
X93885000Y-21700866D01*
X93885000Y-22749134D01*
X94286155Y-23717608D01*
X95027392Y-24458845D01*
X95995866Y-24860000D01*
X97044134Y-24860000D01*
X98012608Y-24458845D01*
X98753845Y-23717608D01*
X98985000Y-23159550D01*
X98985001Y-61295452D01*
X98753845Y-60737392D01*
X98012608Y-59996155D01*
X97044134Y-59595000D01*
X95995866Y-59595000D01*
X95027392Y-59996155D01*
X94286155Y-60737392D01*
X93885000Y-61705866D01*
X93885000Y-62754134D01*
X94286155Y-63722608D01*
X95027392Y-64463845D01*
X95585450Y-64695000D01*
X22524550Y-64695000D01*
X23082608Y-64463845D01*
X23823845Y-63722608D01*
X24225000Y-62754134D01*
X24225000Y-61705866D01*
X23823845Y-60737392D01*
X23082608Y-59996155D01*
X22114134Y-59595000D01*
X21065866Y-59595000D01*
X20097392Y-59996155D01*
X19356155Y-60737392D01*
X19125000Y-61295450D01*
X19125000Y-59170000D01*
X27260000Y-59170000D01*
X27260000Y-62990000D01*
X57830000Y-62990000D01*
X57830000Y-59170000D01*
X27260000Y-59170000D01*
X19125000Y-59170000D01*
X19125000Y-33655000D01*
X19162765Y-33655000D01*
X19185001Y-33766788D01*
X19185000Y-50688217D01*
X19162765Y-50800000D01*
X19238550Y-51180999D01*
X19250854Y-51242854D01*
X19501711Y-51618289D01*
X19596482Y-51681613D01*
X20708389Y-52793521D01*
X20771711Y-52888289D01*
X21147145Y-53139146D01*
X21589999Y-53227235D01*
X21701782Y-53205000D01*
X22460737Y-53205000D01*
X22719007Y-53377570D01*
X23123907Y-53458110D01*
X24906093Y-53458110D01*
X25310993Y-53377570D01*
X25770151Y-53070771D01*
X26056019Y-52642939D01*
X26229276Y-52961740D01*
X26652081Y-53303846D01*
X27173620Y-53458110D01*
X27928000Y-53458110D01*
X27928000Y-52197000D01*
X27908000Y-52197000D01*
X27908000Y-51943000D01*
X27928000Y-51943000D01*
X27928000Y-51923000D01*
X28182000Y-51923000D01*
X28182000Y-51943000D01*
X28202000Y-51943000D01*
X28202000Y-52197000D01*
X28182000Y-52197000D01*
X28182000Y-53458110D01*
X28936380Y-53458110D01*
X29457919Y-53303846D01*
X29880724Y-52961740D01*
X30140427Y-52483875D01*
X30154783Y-52411674D01*
X30032163Y-52197002D01*
X30197490Y-52197002D01*
X30197490Y-52083883D01*
X33257930Y-55144324D01*
X33304692Y-55214308D01*
X33374676Y-55261070D01*
X33374677Y-55261071D01*
X33469134Y-55324185D01*
X33581951Y-55399567D01*
X33826446Y-55448200D01*
X33826451Y-55448200D01*
X33846930Y-55452274D01*
X33975423Y-55644577D01*
X34450091Y-55961740D01*
X34868667Y-56045000D01*
X36251333Y-56045000D01*
X36669909Y-55961740D01*
X37144577Y-55644577D01*
X37275792Y-55448200D01*
X37879807Y-55448200D01*
X38845930Y-56414324D01*
X38892692Y-56484308D01*
X38962676Y-56531070D01*
X38962677Y-56531071D01*
X39014653Y-56565800D01*
X39169951Y-56669567D01*
X39414446Y-56718200D01*
X39414450Y-56718200D01*
X39496999Y-56734620D01*
X39579548Y-56718200D01*
X39939968Y-56718200D01*
X39946843Y-56752765D01*
X40087191Y-56962809D01*
X40297235Y-57103157D01*
X40485038Y-57140513D01*
X40505434Y-57243049D01*
X40643929Y-57450322D01*
X40643931Y-57450324D01*
X40690693Y-57520308D01*
X40760677Y-57567070D01*
X41131928Y-57938321D01*
X41178692Y-58008308D01*
X41455951Y-58193567D01*
X41700446Y-58242200D01*
X41700450Y-58242200D01*
X41782999Y-58258620D01*
X41865548Y-58242200D01*
X53638451Y-58242200D01*
X53721000Y-58258620D01*
X53803549Y-58242200D01*
X53803554Y-58242200D01*
X54048049Y-58193567D01*
X54325308Y-58008308D01*
X54372072Y-57938321D01*
X56414325Y-55896069D01*
X56484308Y-55849308D01*
X56669567Y-55572049D01*
X56718200Y-55327554D01*
X56718200Y-55327550D01*
X56734620Y-55245001D01*
X56718200Y-55162452D01*
X56718200Y-54694271D01*
X56790593Y-54679871D01*
X57073800Y-54490638D01*
X57073800Y-56813451D01*
X57057380Y-56896000D01*
X57073800Y-56978549D01*
X57073800Y-56978553D01*
X57122433Y-57223048D01*
X57307692Y-57500308D01*
X57377679Y-57547072D01*
X59984236Y-60153630D01*
X59983000Y-60156615D01*
X59983000Y-60747385D01*
X60209078Y-61293185D01*
X60626815Y-61710922D01*
X61172615Y-61937000D01*
X61763385Y-61937000D01*
X62309185Y-61710922D01*
X62726922Y-61293185D01*
X62953000Y-60747385D01*
X62953000Y-60156615D01*
X62726922Y-59610815D01*
X62309185Y-59193078D01*
X61763385Y-58967000D01*
X61172615Y-58967000D01*
X61169630Y-58968236D01*
X58750200Y-56548807D01*
X58750200Y-56268620D01*
X65921890Y-56268620D01*
X65921890Y-57023000D01*
X67183000Y-57023000D01*
X67183000Y-55172838D01*
X66968326Y-55050217D01*
X66896125Y-55064573D01*
X66418260Y-55324276D01*
X66076154Y-55747081D01*
X65921890Y-56268620D01*
X58750200Y-56268620D01*
X58750200Y-52958716D01*
X58774679Y-52975072D01*
X59984236Y-54184630D01*
X59983000Y-54187615D01*
X59983000Y-54778385D01*
X60209078Y-55324185D01*
X60626815Y-55741922D01*
X61172615Y-55968000D01*
X61763385Y-55968000D01*
X62309185Y-55741922D01*
X62726922Y-55324185D01*
X62953000Y-54778385D01*
X62953000Y-54187615D01*
X62726922Y-53641815D01*
X62361607Y-53276500D01*
X62726922Y-52911185D01*
X62953000Y-52365385D01*
X62953000Y-51774615D01*
X62726922Y-51228815D01*
X62309185Y-50811078D01*
X62306200Y-50809842D01*
X62306200Y-49358548D01*
X62322620Y-49275999D01*
X62306200Y-49193450D01*
X62306200Y-49193446D01*
X62257567Y-48948951D01*
X62072308Y-48671692D01*
X62002324Y-48624930D01*
X61391014Y-48013620D01*
X65921890Y-48013620D01*
X65921890Y-48768000D01*
X67183000Y-48768000D01*
X67183000Y-46917838D01*
X66968326Y-46795217D01*
X66896125Y-46809573D01*
X66418260Y-47069276D01*
X66076154Y-47492081D01*
X65921890Y-48013620D01*
X61391014Y-48013620D01*
X58563072Y-45185679D01*
X58516308Y-45115692D01*
X58239049Y-44930433D01*
X57994554Y-44881800D01*
X57994549Y-44881800D01*
X57912000Y-44865380D01*
X57829451Y-44881800D01*
X57386238Y-44881800D01*
X57261093Y-44694507D01*
X56895162Y-44450000D01*
X57261093Y-44205493D01*
X57386238Y-44018200D01*
X58326807Y-44018200D01*
X59984236Y-45675630D01*
X59983000Y-45678615D01*
X59983000Y-46269385D01*
X60209078Y-46815185D01*
X60626815Y-47232922D01*
X61172615Y-47459000D01*
X61763385Y-47459000D01*
X62309185Y-47232922D01*
X62726922Y-46815185D01*
X62953000Y-46269385D01*
X62953000Y-45678615D01*
X62726922Y-45132815D01*
X62425107Y-44831000D01*
X62726922Y-44529185D01*
X62953000Y-43983385D01*
X62953000Y-43392615D01*
X62726922Y-42846815D01*
X62309185Y-42429078D01*
X61763385Y-42203000D01*
X61172615Y-42203000D01*
X61169630Y-42204236D01*
X59071072Y-40105679D01*
X59024308Y-40035692D01*
X58747049Y-39850433D01*
X58502554Y-39801800D01*
X58502549Y-39801800D01*
X58420000Y-39785380D01*
X58337451Y-39801800D01*
X57386238Y-39801800D01*
X57357387Y-39758620D01*
X65921890Y-39758620D01*
X65921890Y-40513000D01*
X67183000Y-40513000D01*
X67183000Y-38662838D01*
X66968326Y-38540217D01*
X66896125Y-38554573D01*
X66418260Y-38814276D01*
X66076154Y-39237081D01*
X65921890Y-39758620D01*
X57357387Y-39758620D01*
X57261093Y-39614507D01*
X56895162Y-39370000D01*
X57261093Y-39125493D01*
X57386238Y-38938200D01*
X60028236Y-38938200D01*
X60082078Y-39068185D01*
X60499815Y-39485922D01*
X61045615Y-39712000D01*
X61636385Y-39712000D01*
X62182185Y-39485922D01*
X62599922Y-39068185D01*
X62826000Y-38522385D01*
X62826000Y-37931615D01*
X62599922Y-37385815D01*
X62425107Y-37211000D01*
X62599922Y-37036185D01*
X62826000Y-36490385D01*
X62826000Y-35899615D01*
X62599922Y-35353815D01*
X62182185Y-34936078D01*
X61636385Y-34710000D01*
X61045615Y-34710000D01*
X60942973Y-34752516D01*
X60788554Y-34721800D01*
X60788549Y-34721800D01*
X60706000Y-34705380D01*
X60623451Y-34721800D01*
X57386238Y-34721800D01*
X57261093Y-34534507D01*
X56895162Y-34290000D01*
X57261093Y-34045493D01*
X57386238Y-33858200D01*
X58210451Y-33858200D01*
X58293000Y-33874620D01*
X58375549Y-33858200D01*
X58375554Y-33858200D01*
X58620049Y-33809567D01*
X58897308Y-33624308D01*
X58944072Y-33554321D01*
X59351393Y-33147000D01*
X65921890Y-33147000D01*
X65921890Y-33901380D01*
X66076154Y-34422919D01*
X66418260Y-34845724D01*
X66838683Y-35074210D01*
X66559078Y-35353815D01*
X66333000Y-35899615D01*
X66333000Y-36490385D01*
X66559078Y-37036185D01*
X66976815Y-37453922D01*
X67522615Y-37680000D01*
X68113385Y-37680000D01*
X68659185Y-37453922D01*
X69076922Y-37036185D01*
X69303000Y-36490385D01*
X69303000Y-36017200D01*
X71418451Y-36017200D01*
X71501000Y-36033620D01*
X71583549Y-36017200D01*
X71583554Y-36017200D01*
X71828049Y-35968567D01*
X71857901Y-35948620D01*
X78621890Y-35948620D01*
X78621890Y-36703000D01*
X79883000Y-36703000D01*
X79883000Y-34852838D01*
X79668326Y-34730217D01*
X79596125Y-34744573D01*
X79118260Y-35004276D01*
X78776154Y-35427081D01*
X78621890Y-35948620D01*
X71857901Y-35948620D01*
X72105308Y-35783308D01*
X72152072Y-35713322D01*
X72746653Y-35118741D01*
X72931613Y-35081950D01*
X73390771Y-34775151D01*
X73697570Y-34315993D01*
X73778110Y-33911093D01*
X73778110Y-32556796D01*
X74489202Y-33267888D01*
X74566471Y-33383529D01*
X74682111Y-33460797D01*
X75024600Y-33689641D01*
X75565000Y-33797133D01*
X75701407Y-33770000D01*
X82381314Y-33770000D01*
X81667112Y-34484203D01*
X81551472Y-34561471D01*
X81245359Y-35019600D01*
X81180001Y-35348176D01*
X80901740Y-35004276D01*
X80423875Y-34744573D01*
X80351674Y-34730217D01*
X80137000Y-34852838D01*
X80137000Y-36703000D01*
X80157000Y-36703000D01*
X80157000Y-36957000D01*
X80137000Y-36957000D01*
X80137000Y-36977000D01*
X79883000Y-36977000D01*
X79883000Y-36957000D01*
X78621890Y-36957000D01*
X78621890Y-37711380D01*
X78776154Y-38232919D01*
X78812469Y-38277800D01*
X77939000Y-38277800D01*
X77939000Y-37804615D01*
X77712922Y-37258815D01*
X77295185Y-36841078D01*
X76749385Y-36615000D01*
X76158615Y-36615000D01*
X75612815Y-36841078D01*
X75195078Y-37258815D01*
X75072772Y-37554087D01*
X74735799Y-37217114D01*
X74658529Y-37101471D01*
X74200400Y-36795359D01*
X73796407Y-36715000D01*
X73660000Y-36687867D01*
X73523593Y-36715000D01*
X71256405Y-36715000D01*
X71119999Y-36687867D01*
X70983593Y-36715000D01*
X70579600Y-36795359D01*
X70121471Y-37101471D01*
X70044202Y-37217112D01*
X68967112Y-38294203D01*
X68851472Y-38371471D01*
X68545359Y-38829600D01*
X68482907Y-39143567D01*
X68480001Y-39158176D01*
X68201740Y-38814276D01*
X67723875Y-38554573D01*
X67651674Y-38540217D01*
X67437000Y-38662838D01*
X67437000Y-40513000D01*
X67457000Y-40513000D01*
X67457000Y-40767000D01*
X67437000Y-40767000D01*
X67437000Y-40787000D01*
X67183000Y-40787000D01*
X67183000Y-40767000D01*
X65921890Y-40767000D01*
X65921890Y-41521380D01*
X66076154Y-42042919D01*
X66418260Y-42465724D01*
X66896125Y-42725427D01*
X66928107Y-42731786D01*
X66813078Y-42846815D01*
X66587000Y-43392615D01*
X66587000Y-43983385D01*
X66813078Y-44529185D01*
X67230815Y-44946922D01*
X67776615Y-45173000D01*
X68367385Y-45173000D01*
X68913185Y-44946922D01*
X69330922Y-44529185D01*
X69465775Y-44203620D01*
X78621890Y-44203620D01*
X78621890Y-44958000D01*
X79883000Y-44958000D01*
X79883000Y-43107838D01*
X79668326Y-42985217D01*
X79596125Y-42999573D01*
X79118260Y-43259276D01*
X78776154Y-43682081D01*
X78621890Y-44203620D01*
X69465775Y-44203620D01*
X69557000Y-43983385D01*
X69557000Y-43764200D01*
X71672451Y-43764200D01*
X71755000Y-43780620D01*
X71837549Y-43764200D01*
X71837554Y-43764200D01*
X72082049Y-43715567D01*
X72359308Y-43530308D01*
X72406071Y-43460322D01*
X72924324Y-42942070D01*
X72994308Y-42895308D01*
X73041071Y-42825323D01*
X73179567Y-42618050D01*
X73198326Y-42523738D01*
X73390771Y-42395151D01*
X73697570Y-41935993D01*
X73778110Y-41531093D01*
X73778110Y-40176795D01*
X74946402Y-41345088D01*
X75023671Y-41460729D01*
X75481800Y-41766841D01*
X75885793Y-41847200D01*
X76022199Y-41874333D01*
X76158605Y-41847200D01*
X82559114Y-41847200D01*
X81667112Y-42739203D01*
X81551472Y-42816471D01*
X81245359Y-43274600D01*
X81191866Y-43543529D01*
X81180001Y-43603176D01*
X80901740Y-43259276D01*
X80423875Y-42999573D01*
X80351674Y-42985217D01*
X80137000Y-43107838D01*
X80137000Y-44958000D01*
X80157000Y-44958000D01*
X80157000Y-45212000D01*
X80137000Y-45212000D01*
X80137000Y-45232000D01*
X79883000Y-45232000D01*
X79883000Y-45212000D01*
X78621890Y-45212000D01*
X78621890Y-45966380D01*
X78776154Y-46487919D01*
X78812469Y-46532800D01*
X77944194Y-46532800D01*
X77810764Y-46399370D01*
X77812000Y-46396385D01*
X77812000Y-45805615D01*
X77585922Y-45259815D01*
X77168185Y-44842078D01*
X76622385Y-44616000D01*
X76031615Y-44616000D01*
X75485815Y-44842078D01*
X75068078Y-45259815D01*
X74908575Y-45644890D01*
X74735800Y-45472115D01*
X74658529Y-45356471D01*
X74200400Y-45050359D01*
X73796407Y-44970000D01*
X73660000Y-44942867D01*
X73523593Y-44970000D01*
X70621407Y-44970000D01*
X70485000Y-44942867D01*
X70147956Y-45009909D01*
X69944600Y-45050359D01*
X69486471Y-45356471D01*
X69409200Y-45472115D01*
X68967113Y-45914202D01*
X68851472Y-45991471D01*
X68774203Y-46107112D01*
X68545359Y-46449601D01*
X68437867Y-46990000D01*
X68465001Y-47126411D01*
X68465001Y-47394637D01*
X68201740Y-47069276D01*
X67723875Y-46809573D01*
X67651674Y-46795217D01*
X67437000Y-46917838D01*
X67437000Y-48768000D01*
X67457000Y-48768000D01*
X67457000Y-49022000D01*
X67437000Y-49022000D01*
X67437000Y-49042000D01*
X67183000Y-49042000D01*
X67183000Y-49022000D01*
X65921890Y-49022000D01*
X65921890Y-49776380D01*
X66076154Y-50297919D01*
X66418260Y-50720724D01*
X66896125Y-50980427D01*
X66928107Y-50986786D01*
X66686078Y-51228815D01*
X66460000Y-51774615D01*
X66460000Y-52365385D01*
X66686078Y-52911185D01*
X67103815Y-53328922D01*
X67649615Y-53555000D01*
X68240385Y-53555000D01*
X68786185Y-53328922D01*
X69203922Y-52911185D01*
X69391380Y-52458620D01*
X78621890Y-52458620D01*
X78621890Y-53213000D01*
X79883000Y-53213000D01*
X79883000Y-51362838D01*
X79668326Y-51240217D01*
X79596125Y-51254573D01*
X79118260Y-51514276D01*
X78776154Y-51937081D01*
X78621890Y-52458620D01*
X69391380Y-52458620D01*
X69430000Y-52365385D01*
X69430000Y-51892200D01*
X71799451Y-51892200D01*
X71882000Y-51908620D01*
X71964549Y-51892200D01*
X71964554Y-51892200D01*
X72209049Y-51843567D01*
X72486308Y-51658308D01*
X72533072Y-51588321D01*
X72924321Y-51197072D01*
X72994308Y-51150308D01*
X73179567Y-50873049D01*
X73198327Y-50778738D01*
X73390771Y-50650151D01*
X73697570Y-50190993D01*
X73778110Y-49786093D01*
X73778110Y-48431795D01*
X75124200Y-49777885D01*
X75201471Y-49893529D01*
X75659600Y-50199641D01*
X76063593Y-50280000D01*
X76063597Y-50280000D01*
X76199999Y-50307132D01*
X76336401Y-50280000D01*
X82381314Y-50280000D01*
X81667112Y-50994203D01*
X81551472Y-51071471D01*
X81245359Y-51529600D01*
X81182907Y-51843567D01*
X81180001Y-51858176D01*
X80901740Y-51514276D01*
X80423875Y-51254573D01*
X80351674Y-51240217D01*
X80137000Y-51362838D01*
X80137000Y-53213000D01*
X80157000Y-53213000D01*
X80157000Y-53467000D01*
X80137000Y-53467000D01*
X80137000Y-53487000D01*
X79883000Y-53487000D01*
X79883000Y-53467000D01*
X78621890Y-53467000D01*
X78621890Y-54221380D01*
X78776154Y-54742919D01*
X78812469Y-54787800D01*
X77817194Y-54787800D01*
X77810764Y-54781370D01*
X77812000Y-54778385D01*
X77812000Y-54187615D01*
X77585922Y-53641815D01*
X77168185Y-53224078D01*
X76622385Y-52998000D01*
X76031615Y-52998000D01*
X75485815Y-53224078D01*
X75068078Y-53641815D01*
X74945772Y-53937087D01*
X74735800Y-53727115D01*
X74658529Y-53611471D01*
X74200400Y-53305359D01*
X73796407Y-53225000D01*
X73660000Y-53197867D01*
X73523593Y-53225000D01*
X70621407Y-53225000D01*
X70485000Y-53197867D01*
X70181383Y-53258260D01*
X69944600Y-53305359D01*
X69486471Y-53611471D01*
X69409200Y-53727115D01*
X68967113Y-54169202D01*
X68851472Y-54246471D01*
X68774203Y-54362112D01*
X68545359Y-54704601D01*
X68437867Y-55245000D01*
X68465001Y-55381411D01*
X68465001Y-55649637D01*
X68201740Y-55324276D01*
X67723875Y-55064573D01*
X67651674Y-55050217D01*
X67437000Y-55172838D01*
X67437000Y-57023000D01*
X67457000Y-57023000D01*
X67457000Y-57277000D01*
X67437000Y-57277000D01*
X67437000Y-57297000D01*
X67183000Y-57297000D01*
X67183000Y-57277000D01*
X65921890Y-57277000D01*
X65921890Y-58031380D01*
X66076154Y-58552919D01*
X66418260Y-58975724D01*
X66896125Y-59235427D01*
X66928107Y-59241786D01*
X66559078Y-59610815D01*
X66333000Y-60156615D01*
X66333000Y-60747385D01*
X66559078Y-61293185D01*
X66976815Y-61710922D01*
X67522615Y-61937000D01*
X68113385Y-61937000D01*
X68659185Y-61710922D01*
X69076922Y-61293185D01*
X69303000Y-60747385D01*
X69303000Y-60156615D01*
X69301764Y-60153630D01*
X69308194Y-60147200D01*
X71418451Y-60147200D01*
X71501000Y-60163620D01*
X71583549Y-60147200D01*
X71583554Y-60147200D01*
X71828049Y-60098567D01*
X72105308Y-59913308D01*
X72152072Y-59843322D01*
X72746653Y-59248741D01*
X72931613Y-59211950D01*
X73390771Y-58905151D01*
X73697570Y-58445993D01*
X73778110Y-58041093D01*
X73778110Y-56686795D01*
X75124200Y-58032885D01*
X75201471Y-58148529D01*
X75659600Y-58454641D01*
X76063593Y-58535000D01*
X76063597Y-58535000D01*
X76199999Y-58562132D01*
X76336401Y-58535000D01*
X88128593Y-58535000D01*
X88265000Y-58562133D01*
X88401407Y-58535000D01*
X88805400Y-58454641D01*
X89263529Y-58148529D01*
X89340800Y-58032885D01*
X89676885Y-57696800D01*
X91988891Y-57696800D01*
X92601706Y-58106271D01*
X93157374Y-58216800D01*
X96072626Y-58216800D01*
X96628294Y-58106271D01*
X97258428Y-57685228D01*
X97679471Y-57055094D01*
X97827321Y-56311800D01*
X97679471Y-55568506D01*
X97258428Y-54938372D01*
X96628294Y-54517329D01*
X96072626Y-54406800D01*
X93157374Y-54406800D01*
X92601706Y-54517329D01*
X91988891Y-54926800D01*
X89239607Y-54926800D01*
X89103200Y-54899667D01*
X88966793Y-54926800D01*
X88562800Y-55007159D01*
X88104671Y-55313271D01*
X88027400Y-55428915D01*
X87691315Y-55765000D01*
X85247394Y-55765000D01*
X85605187Y-55407206D01*
X85631613Y-55401950D01*
X86090771Y-55095151D01*
X86397570Y-54635993D01*
X86478110Y-54231093D01*
X86478110Y-52876795D01*
X86833600Y-53232285D01*
X86910871Y-53347929D01*
X87369000Y-53654041D01*
X87772993Y-53734400D01*
X87772997Y-53734400D01*
X87909399Y-53761532D01*
X88045801Y-53734400D01*
X91988891Y-53734400D01*
X92601706Y-54143871D01*
X93157374Y-54254400D01*
X96072626Y-54254400D01*
X96628294Y-54143871D01*
X97258428Y-53722828D01*
X97679471Y-53092694D01*
X97827321Y-52349400D01*
X97679471Y-51606106D01*
X97258428Y-50975972D01*
X96628294Y-50554929D01*
X96072626Y-50444400D01*
X93157374Y-50444400D01*
X92601706Y-50554929D01*
X91988891Y-50964400D01*
X88483085Y-50964400D01*
X87798685Y-50280000D01*
X88763593Y-50280000D01*
X88900000Y-50307133D01*
X89036407Y-50280000D01*
X89440400Y-50199641D01*
X89898529Y-49893529D01*
X89975800Y-49777885D01*
X89981685Y-49772000D01*
X91988891Y-49772000D01*
X92601706Y-50181471D01*
X93157374Y-50292000D01*
X96072626Y-50292000D01*
X96628294Y-50181471D01*
X97258428Y-49760428D01*
X97679471Y-49130294D01*
X97827321Y-48387000D01*
X97679471Y-47643706D01*
X97258428Y-47013572D01*
X96628294Y-46592529D01*
X96072626Y-46482000D01*
X93157374Y-46482000D01*
X92601706Y-46592529D01*
X91988891Y-47002000D01*
X89544401Y-47002000D01*
X89407999Y-46974868D01*
X89271597Y-47002000D01*
X89271593Y-47002000D01*
X88867600Y-47082359D01*
X88409471Y-47388471D01*
X88332199Y-47504117D01*
X88326316Y-47510000D01*
X85247394Y-47510000D01*
X85605187Y-47152206D01*
X85631613Y-47146950D01*
X86090771Y-46840151D01*
X86397570Y-46380993D01*
X86478110Y-45976093D01*
X86478110Y-44193907D01*
X86426683Y-43935368D01*
X87798802Y-45307488D01*
X87876071Y-45423129D01*
X88178791Y-45625400D01*
X88334200Y-45729241D01*
X88874600Y-45836733D01*
X89011007Y-45809600D01*
X91988891Y-45809600D01*
X92601706Y-46219071D01*
X93157374Y-46329600D01*
X96072626Y-46329600D01*
X96628294Y-46219071D01*
X97258428Y-45798028D01*
X97679471Y-45167894D01*
X97827321Y-44424600D01*
X97679471Y-43681306D01*
X97258428Y-43051172D01*
X96628294Y-42630129D01*
X96072626Y-42519600D01*
X93157374Y-42519600D01*
X92601706Y-42630129D01*
X91988891Y-43039600D01*
X89448286Y-43039600D01*
X88255885Y-41847200D01*
X91988891Y-41847200D01*
X92601706Y-42256671D01*
X93157374Y-42367200D01*
X96072626Y-42367200D01*
X96628294Y-42256671D01*
X97258428Y-41835628D01*
X97679471Y-41205494D01*
X97827321Y-40462200D01*
X97679471Y-39718906D01*
X97258428Y-39088772D01*
X96628294Y-38667729D01*
X96072626Y-38557200D01*
X93157374Y-38557200D01*
X92601706Y-38667729D01*
X91988891Y-39077200D01*
X85552194Y-39077200D01*
X85624324Y-39005070D01*
X85694308Y-38958308D01*
X85743392Y-38884850D01*
X85824977Y-38762749D01*
X86090771Y-38585151D01*
X86397570Y-38125993D01*
X86478110Y-37721093D01*
X86478110Y-36366795D01*
X87697200Y-37585885D01*
X87774471Y-37701529D01*
X88232600Y-38007641D01*
X88636593Y-38088000D01*
X88772999Y-38115133D01*
X88909405Y-38088000D01*
X92293000Y-38088000D01*
X92601706Y-38294271D01*
X93157374Y-38404800D01*
X96072626Y-38404800D01*
X96628294Y-38294271D01*
X97258428Y-37873228D01*
X97679471Y-37243094D01*
X97827321Y-36499800D01*
X97679471Y-35756506D01*
X97258428Y-35126372D01*
X96628294Y-34705329D01*
X96072626Y-34594800D01*
X93157374Y-34594800D01*
X92601706Y-34705329D01*
X91971572Y-35126372D01*
X91843530Y-35318000D01*
X89346685Y-35318000D01*
X87798685Y-33770000D01*
X88938273Y-33770000D01*
X89350200Y-34045241D01*
X89754193Y-34125600D01*
X89890599Y-34152733D01*
X90027005Y-34125600D01*
X92293000Y-34125600D01*
X92601706Y-34331871D01*
X93157374Y-34442400D01*
X96072626Y-34442400D01*
X96628294Y-34331871D01*
X97258428Y-33910828D01*
X97679471Y-33280694D01*
X97827321Y-32537400D01*
X97679471Y-31794106D01*
X97258428Y-31163972D01*
X96628294Y-30742929D01*
X96072626Y-30632400D01*
X93157374Y-30632400D01*
X92601706Y-30742929D01*
X91971572Y-31163972D01*
X91843530Y-31355600D01*
X90487327Y-31355600D01*
X90075400Y-31080359D01*
X89671407Y-31000000D01*
X89535000Y-30972867D01*
X89398593Y-31000000D01*
X85120393Y-31000000D01*
X85446653Y-30673741D01*
X85631613Y-30636950D01*
X86090771Y-30330151D01*
X86397570Y-29870993D01*
X86478110Y-29466093D01*
X86478110Y-27683907D01*
X86426683Y-27425368D01*
X88662402Y-29661088D01*
X88739671Y-29776729D01*
X89009141Y-29956783D01*
X89197800Y-30082841D01*
X89738200Y-30190333D01*
X89874607Y-30163200D01*
X92293000Y-30163200D01*
X92601706Y-30369471D01*
X93157374Y-30480000D01*
X96072626Y-30480000D01*
X96628294Y-30369471D01*
X97258428Y-29948428D01*
X97679471Y-29318294D01*
X97827321Y-28575000D01*
X97679471Y-27831706D01*
X97258428Y-27201572D01*
X96628294Y-26780529D01*
X96072626Y-26670000D01*
X93574286Y-26670000D01*
X93574286Y-24245000D01*
X90575715Y-24245000D01*
X90575715Y-27393200D01*
X90311886Y-27393200D01*
X88070799Y-25152114D01*
X87993529Y-25036471D01*
X87535400Y-24730359D01*
X87131407Y-24650000D01*
X86995000Y-24622867D01*
X86858593Y-24650000D01*
X83956405Y-24650000D01*
X83819999Y-24622867D01*
X83683593Y-24650000D01*
X83279600Y-24730359D01*
X82821471Y-25036471D01*
X82744202Y-25152112D01*
X81667112Y-26229203D01*
X81551472Y-26306471D01*
X81245359Y-26764600D01*
X81245359Y-26764601D01*
X81180001Y-27093176D01*
X80901740Y-26749276D01*
X80423875Y-26489573D01*
X80351674Y-26475217D01*
X80137000Y-26597838D01*
X80137000Y-28448000D01*
X80157000Y-28448000D01*
X80157000Y-28702000D01*
X80137000Y-28702000D01*
X80137000Y-28722000D01*
X79883000Y-28722000D01*
X79883000Y-28702000D01*
X78621890Y-28702000D01*
X78621890Y-29456380D01*
X78751864Y-29895800D01*
X77558000Y-29895800D01*
X77558000Y-29676615D01*
X77331922Y-29130815D01*
X76914185Y-28713078D01*
X76368385Y-28487000D01*
X75777615Y-28487000D01*
X75231815Y-28713078D01*
X74814078Y-29130815D01*
X74664889Y-29490989D01*
X74658529Y-29481471D01*
X74200400Y-29175359D01*
X73796407Y-29095000D01*
X73660000Y-29067867D01*
X73523593Y-29095000D01*
X71256405Y-29095000D01*
X71119999Y-29067867D01*
X70983593Y-29095000D01*
X70579600Y-29175359D01*
X70121471Y-29481471D01*
X70044202Y-29597112D01*
X68967112Y-30674203D01*
X68851472Y-30751471D01*
X68545359Y-31209600D01*
X68482907Y-31523567D01*
X68480001Y-31538176D01*
X68201740Y-31194276D01*
X67723875Y-30934573D01*
X67651674Y-30920217D01*
X67437000Y-31042838D01*
X67437000Y-32893000D01*
X67457000Y-32893000D01*
X67457000Y-33147000D01*
X67437000Y-33147000D01*
X67437000Y-33167000D01*
X67183000Y-33167000D01*
X67183000Y-33147000D01*
X65921890Y-33147000D01*
X59351393Y-33147000D01*
X60359773Y-32138620D01*
X65921890Y-32138620D01*
X65921890Y-32893000D01*
X67183000Y-32893000D01*
X67183000Y-31042838D01*
X66968326Y-30920217D01*
X66896125Y-30934573D01*
X66418260Y-31194276D01*
X66076154Y-31617081D01*
X65921890Y-32138620D01*
X60359773Y-32138620D01*
X61042630Y-31455764D01*
X61045615Y-31457000D01*
X61636385Y-31457000D01*
X62182185Y-31230922D01*
X62599922Y-30813185D01*
X62826000Y-30267385D01*
X62826000Y-29676615D01*
X62599922Y-29130815D01*
X62182185Y-28713078D01*
X61636385Y-28487000D01*
X61045615Y-28487000D01*
X60499815Y-28713078D01*
X60082078Y-29130815D01*
X59856000Y-29676615D01*
X59856000Y-30267385D01*
X59857236Y-30270370D01*
X57945807Y-32181800D01*
X57386238Y-32181800D01*
X57261093Y-31994507D01*
X56895162Y-31750000D01*
X57261093Y-31505493D01*
X57575471Y-31034993D01*
X57685866Y-30480000D01*
X57575471Y-29925007D01*
X57261093Y-29454507D01*
X57055958Y-29317440D01*
X57140000Y-29317440D01*
X57387765Y-29268157D01*
X57597809Y-29127809D01*
X57738157Y-28917765D01*
X57787440Y-28670000D01*
X57787440Y-27693620D01*
X78621890Y-27693620D01*
X78621890Y-28448000D01*
X79883000Y-28448000D01*
X79883000Y-26597838D01*
X79668326Y-26475217D01*
X79596125Y-26489573D01*
X79118260Y-26749276D01*
X78776154Y-27172081D01*
X78621890Y-27693620D01*
X57787440Y-27693620D01*
X57787440Y-27170000D01*
X57738157Y-26922235D01*
X57597809Y-26712191D01*
X57536680Y-26671346D01*
X57678327Y-26529698D01*
X57775000Y-26296309D01*
X57775000Y-25705750D01*
X57616250Y-25547000D01*
X56642000Y-25547000D01*
X56642000Y-25567000D01*
X56388000Y-25567000D01*
X56388000Y-25547000D01*
X55413750Y-25547000D01*
X55255000Y-25705750D01*
X55255000Y-26296309D01*
X55351673Y-26529698D01*
X55493320Y-26671346D01*
X55432191Y-26712191D01*
X55383541Y-26785000D01*
X54721783Y-26785000D01*
X54610000Y-26762765D01*
X54498217Y-26785000D01*
X38866781Y-26785000D01*
X38754999Y-26762765D01*
X38643217Y-26785000D01*
X38312145Y-26850854D01*
X37936711Y-27101711D01*
X37873389Y-27196479D01*
X34836480Y-30233389D01*
X34741712Y-30296711D01*
X34737804Y-30302560D01*
X34210000Y-30302560D01*
X33962235Y-30351843D01*
X33752191Y-30492191D01*
X33670132Y-30615000D01*
X25629286Y-30615000D01*
X25629286Y-28055000D01*
X22630715Y-28055000D01*
X22630715Y-30615000D01*
X22336783Y-30615000D01*
X22225000Y-30592765D01*
X22002866Y-30636950D01*
X21782145Y-30680854D01*
X21406711Y-30931711D01*
X21343389Y-31026479D01*
X19596480Y-32773389D01*
X19501712Y-32836711D01*
X19356096Y-33054641D01*
X19250854Y-33212146D01*
X19162765Y-33655000D01*
X19125000Y-33655000D01*
X19125000Y-23159550D01*
X19356155Y-23717608D01*
X20097392Y-24458845D01*
X21065866Y-24860000D01*
X22114134Y-24860000D01*
X22877771Y-24543691D01*
X55255000Y-24543691D01*
X55255000Y-25134250D01*
X55413750Y-25293000D01*
X56388000Y-25293000D01*
X56388000Y-24193750D01*
X56642000Y-24193750D01*
X56642000Y-25293000D01*
X57616250Y-25293000D01*
X57775000Y-25134250D01*
X57775000Y-24543691D01*
X57678327Y-24310302D01*
X57499699Y-24131673D01*
X57266310Y-24035000D01*
X56800750Y-24035000D01*
X56642000Y-24193750D01*
X56388000Y-24193750D01*
X56229250Y-24035000D01*
X55763690Y-24035000D01*
X55530301Y-24131673D01*
X55351673Y-24310302D01*
X55255000Y-24543691D01*
X22877771Y-24543691D01*
X23082608Y-24458845D01*
X23823845Y-23717608D01*
X23863447Y-23622000D01*
X62230000Y-23622000D01*
X62230000Y-24892000D01*
X62423610Y-25611345D01*
X62877764Y-26201841D01*
X63523321Y-26573591D01*
X63712219Y-26622493D01*
X64008000Y-26506626D01*
X64008000Y-23622000D01*
X64262000Y-23622000D01*
X64262000Y-26506626D01*
X64557781Y-26622493D01*
X64746679Y-26573591D01*
X65392236Y-26201841D01*
X65846390Y-25611345D01*
X66040000Y-24892000D01*
X66040000Y-23622000D01*
X66192400Y-23622000D01*
X66192400Y-24892000D01*
X66386010Y-25611345D01*
X66840164Y-26201841D01*
X67485721Y-26573591D01*
X67674619Y-26622493D01*
X67970400Y-26506626D01*
X67970400Y-23622000D01*
X68224400Y-23622000D01*
X68224400Y-26506626D01*
X68520181Y-26622493D01*
X68709079Y-26573591D01*
X69354636Y-26201841D01*
X69808790Y-25611345D01*
X70002400Y-24892000D01*
X70002400Y-23622000D01*
X70154800Y-23622000D01*
X70154800Y-24892000D01*
X70348410Y-25611345D01*
X70802564Y-26201841D01*
X71448121Y-26573591D01*
X71637019Y-26622493D01*
X71932800Y-26506626D01*
X71932800Y-23622000D01*
X72186800Y-23622000D01*
X72186800Y-26506626D01*
X72482581Y-26622493D01*
X72671479Y-26573591D01*
X73317036Y-26201841D01*
X73771190Y-25611345D01*
X73964800Y-24892000D01*
X73964800Y-23622000D01*
X72186800Y-23622000D01*
X71932800Y-23622000D01*
X70154800Y-23622000D01*
X70002400Y-23622000D01*
X68224400Y-23622000D01*
X67970400Y-23622000D01*
X66192400Y-23622000D01*
X66040000Y-23622000D01*
X64262000Y-23622000D01*
X64008000Y-23622000D01*
X62230000Y-23622000D01*
X23863447Y-23622000D01*
X24225000Y-22749134D01*
X24225000Y-22098000D01*
X62230000Y-22098000D01*
X62230000Y-23368000D01*
X64008000Y-23368000D01*
X64008000Y-20483374D01*
X64262000Y-20483374D01*
X64262000Y-23368000D01*
X66040000Y-23368000D01*
X66040000Y-22098000D01*
X66192400Y-22098000D01*
X66192400Y-23368000D01*
X67970400Y-23368000D01*
X67970400Y-20483374D01*
X68224400Y-20483374D01*
X68224400Y-23368000D01*
X70002400Y-23368000D01*
X70002400Y-22098000D01*
X70154800Y-22098000D01*
X70154800Y-23368000D01*
X71932800Y-23368000D01*
X71932800Y-20483374D01*
X72186800Y-20483374D01*
X72186800Y-23368000D01*
X73964800Y-23368000D01*
X73964800Y-22098000D01*
X73771190Y-21378655D01*
X73317036Y-20788159D01*
X72671479Y-20416409D01*
X72482581Y-20367507D01*
X72186800Y-20483374D01*
X71932800Y-20483374D01*
X71637019Y-20367507D01*
X71448121Y-20416409D01*
X70802564Y-20788159D01*
X70348410Y-21378655D01*
X70154800Y-22098000D01*
X70002400Y-22098000D01*
X69808790Y-21378655D01*
X69354636Y-20788159D01*
X68709079Y-20416409D01*
X68520181Y-20367507D01*
X68224400Y-20483374D01*
X67970400Y-20483374D01*
X67674619Y-20367507D01*
X67485721Y-20416409D01*
X66840164Y-20788159D01*
X66386010Y-21378655D01*
X66192400Y-22098000D01*
X66040000Y-22098000D01*
X65846390Y-21378655D01*
X65392236Y-20788159D01*
X64746679Y-20416409D01*
X64557781Y-20367507D01*
X64262000Y-20483374D01*
X64008000Y-20483374D01*
X63712219Y-20367507D01*
X63523321Y-20416409D01*
X62877764Y-20788159D01*
X62423610Y-21378655D01*
X62230000Y-22098000D01*
X24225000Y-22098000D01*
X24225000Y-21700866D01*
X23823845Y-20732392D01*
X23082608Y-19991155D01*
X22524550Y-19760000D01*
X95585450Y-19760000D01*
X95027392Y-19991155D01*
X95027392Y-19991155D01*
G37*
X95027392Y-19991155D02*
X94286155Y-20732392D01*
X93885000Y-21700866D01*
X93885000Y-22749134D01*
X94286155Y-23717608D01*
X95027392Y-24458845D01*
X95995866Y-24860000D01*
X97044134Y-24860000D01*
X98012608Y-24458845D01*
X98753845Y-23717608D01*
X98985000Y-23159550D01*
X98985001Y-61295452D01*
X98753845Y-60737392D01*
X98012608Y-59996155D01*
X97044134Y-59595000D01*
X95995866Y-59595000D01*
X95027392Y-59996155D01*
X94286155Y-60737392D01*
X93885000Y-61705866D01*
X93885000Y-62754134D01*
X94286155Y-63722608D01*
X95027392Y-64463845D01*
X95585450Y-64695000D01*
X22524550Y-64695000D01*
X23082608Y-64463845D01*
X23823845Y-63722608D01*
X24225000Y-62754134D01*
X24225000Y-61705866D01*
X23823845Y-60737392D01*
X23082608Y-59996155D01*
X22114134Y-59595000D01*
X21065866Y-59595000D01*
X20097392Y-59996155D01*
X19356155Y-60737392D01*
X19125000Y-61295450D01*
X19125000Y-59170000D01*
X27260000Y-59170000D01*
X27260000Y-62990000D01*
X57830000Y-62990000D01*
X57830000Y-59170000D01*
X27260000Y-59170000D01*
X19125000Y-59170000D01*
X19125000Y-33655000D01*
X19162765Y-33655000D01*
X19185001Y-33766788D01*
X19185000Y-50688217D01*
X19162765Y-50800000D01*
X19238550Y-51180999D01*
X19250854Y-51242854D01*
X19501711Y-51618289D01*
X19596482Y-51681613D01*
X20708389Y-52793521D01*
X20771711Y-52888289D01*
X21147145Y-53139146D01*
X21589999Y-53227235D01*
X21701782Y-53205000D01*
X22460737Y-53205000D01*
X22719007Y-53377570D01*
X23123907Y-53458110D01*
X24906093Y-53458110D01*
X25310993Y-53377570D01*
X25770151Y-53070771D01*
X26056019Y-52642939D01*
X26229276Y-52961740D01*
X26652081Y-53303846D01*
X27173620Y-53458110D01*
X27928000Y-53458110D01*
X27928000Y-52197000D01*
X27908000Y-52197000D01*
X27908000Y-51943000D01*
X27928000Y-51943000D01*
X27928000Y-51923000D01*
X28182000Y-51923000D01*
X28182000Y-51943000D01*
X28202000Y-51943000D01*
X28202000Y-52197000D01*
X28182000Y-52197000D01*
X28182000Y-53458110D01*
X28936380Y-53458110D01*
X29457919Y-53303846D01*
X29880724Y-52961740D01*
X30140427Y-52483875D01*
X30154783Y-52411674D01*
X30032163Y-52197002D01*
X30197490Y-52197002D01*
X30197490Y-52083883D01*
X33257930Y-55144324D01*
X33304692Y-55214308D01*
X33374676Y-55261070D01*
X33374677Y-55261071D01*
X33469134Y-55324185D01*
X33581951Y-55399567D01*
X33826446Y-55448200D01*
X33826451Y-55448200D01*
X33846930Y-55452274D01*
X33975423Y-55644577D01*
X34450091Y-55961740D01*
X34868667Y-56045000D01*
X36251333Y-56045000D01*
X36669909Y-55961740D01*
X37144577Y-55644577D01*
X37275792Y-55448200D01*
X37879807Y-55448200D01*
X38845930Y-56414324D01*
X38892692Y-56484308D01*
X38962676Y-56531070D01*
X38962677Y-56531071D01*
X39014653Y-56565800D01*
X39169951Y-56669567D01*
X39414446Y-56718200D01*
X39414450Y-56718200D01*
X39496999Y-56734620D01*
X39579548Y-56718200D01*
X39939968Y-56718200D01*
X39946843Y-56752765D01*
X40087191Y-56962809D01*
X40297235Y-57103157D01*
X40485038Y-57140513D01*
X40505434Y-57243049D01*
X40643929Y-57450322D01*
X40643931Y-57450324D01*
X40690693Y-57520308D01*
X40760677Y-57567070D01*
X41131928Y-57938321D01*
X41178692Y-58008308D01*
X41455951Y-58193567D01*
X41700446Y-58242200D01*
X41700450Y-58242200D01*
X41782999Y-58258620D01*
X41865548Y-58242200D01*
X53638451Y-58242200D01*
X53721000Y-58258620D01*
X53803549Y-58242200D01*
X53803554Y-58242200D01*
X54048049Y-58193567D01*
X54325308Y-58008308D01*
X54372072Y-57938321D01*
X56414325Y-55896069D01*
X56484308Y-55849308D01*
X56669567Y-55572049D01*
X56718200Y-55327554D01*
X56718200Y-55327550D01*
X56734620Y-55245001D01*
X56718200Y-55162452D01*
X56718200Y-54694271D01*
X56790593Y-54679871D01*
X57073800Y-54490638D01*
X57073800Y-56813451D01*
X57057380Y-56896000D01*
X57073800Y-56978549D01*
X57073800Y-56978553D01*
X57122433Y-57223048D01*
X57307692Y-57500308D01*
X57377679Y-57547072D01*
X59984236Y-60153630D01*
X59983000Y-60156615D01*
X59983000Y-60747385D01*
X60209078Y-61293185D01*
X60626815Y-61710922D01*
X61172615Y-61937000D01*
X61763385Y-61937000D01*
X62309185Y-61710922D01*
X62726922Y-61293185D01*
X62953000Y-60747385D01*
X62953000Y-60156615D01*
X62726922Y-59610815D01*
X62309185Y-59193078D01*
X61763385Y-58967000D01*
X61172615Y-58967000D01*
X61169630Y-58968236D01*
X58750200Y-56548807D01*
X58750200Y-56268620D01*
X65921890Y-56268620D01*
X65921890Y-57023000D01*
X67183000Y-57023000D01*
X67183000Y-55172838D01*
X66968326Y-55050217D01*
X66896125Y-55064573D01*
X66418260Y-55324276D01*
X66076154Y-55747081D01*
X65921890Y-56268620D01*
X58750200Y-56268620D01*
X58750200Y-52958716D01*
X58774679Y-52975072D01*
X59984236Y-54184630D01*
X59983000Y-54187615D01*
X59983000Y-54778385D01*
X60209078Y-55324185D01*
X60626815Y-55741922D01*
X61172615Y-55968000D01*
X61763385Y-55968000D01*
X62309185Y-55741922D01*
X62726922Y-55324185D01*
X62953000Y-54778385D01*
X62953000Y-54187615D01*
X62726922Y-53641815D01*
X62361607Y-53276500D01*
X62726922Y-52911185D01*
X62953000Y-52365385D01*
X62953000Y-51774615D01*
X62726922Y-51228815D01*
X62309185Y-50811078D01*
X62306200Y-50809842D01*
X62306200Y-49358548D01*
X62322620Y-49275999D01*
X62306200Y-49193450D01*
X62306200Y-49193446D01*
X62257567Y-48948951D01*
X62072308Y-48671692D01*
X62002324Y-48624930D01*
X61391014Y-48013620D01*
X65921890Y-48013620D01*
X65921890Y-48768000D01*
X67183000Y-48768000D01*
X67183000Y-46917838D01*
X66968326Y-46795217D01*
X66896125Y-46809573D01*
X66418260Y-47069276D01*
X66076154Y-47492081D01*
X65921890Y-48013620D01*
X61391014Y-48013620D01*
X58563072Y-45185679D01*
X58516308Y-45115692D01*
X58239049Y-44930433D01*
X57994554Y-44881800D01*
X57994549Y-44881800D01*
X57912000Y-44865380D01*
X57829451Y-44881800D01*
X57386238Y-44881800D01*
X57261093Y-44694507D01*
X56895162Y-44450000D01*
X57261093Y-44205493D01*
X57386238Y-44018200D01*
X58326807Y-44018200D01*
X59984236Y-45675630D01*
X59983000Y-45678615D01*
X59983000Y-46269385D01*
X60209078Y-46815185D01*
X60626815Y-47232922D01*
X61172615Y-47459000D01*
X61763385Y-47459000D01*
X62309185Y-47232922D01*
X62726922Y-46815185D01*
X62953000Y-46269385D01*
X62953000Y-45678615D01*
X62726922Y-45132815D01*
X62425107Y-44831000D01*
X62726922Y-44529185D01*
X62953000Y-43983385D01*
X62953000Y-43392615D01*
X62726922Y-42846815D01*
X62309185Y-42429078D01*
X61763385Y-42203000D01*
X61172615Y-42203000D01*
X61169630Y-42204236D01*
X59071072Y-40105679D01*
X59024308Y-40035692D01*
X58747049Y-39850433D01*
X58502554Y-39801800D01*
X58502549Y-39801800D01*
X58420000Y-39785380D01*
X58337451Y-39801800D01*
X57386238Y-39801800D01*
X57357387Y-39758620D01*
X65921890Y-39758620D01*
X65921890Y-40513000D01*
X67183000Y-40513000D01*
X67183000Y-38662838D01*
X66968326Y-38540217D01*
X66896125Y-38554573D01*
X66418260Y-38814276D01*
X66076154Y-39237081D01*
X65921890Y-39758620D01*
X57357387Y-39758620D01*
X57261093Y-39614507D01*
X56895162Y-39370000D01*
X57261093Y-39125493D01*
X57386238Y-38938200D01*
X60028236Y-38938200D01*
X60082078Y-39068185D01*
X60499815Y-39485922D01*
X61045615Y-39712000D01*
X61636385Y-39712000D01*
X62182185Y-39485922D01*
X62599922Y-39068185D01*
X62826000Y-38522385D01*
X62826000Y-37931615D01*
X62599922Y-37385815D01*
X62425107Y-37211000D01*
X62599922Y-37036185D01*
X62826000Y-36490385D01*
X62826000Y-35899615D01*
X62599922Y-35353815D01*
X62182185Y-34936078D01*
X61636385Y-34710000D01*
X61045615Y-34710000D01*
X60942973Y-34752516D01*
X60788554Y-34721800D01*
X60788549Y-34721800D01*
X60706000Y-34705380D01*
X60623451Y-34721800D01*
X57386238Y-34721800D01*
X57261093Y-34534507D01*
X56895162Y-34290000D01*
X57261093Y-34045493D01*
X57386238Y-33858200D01*
X58210451Y-33858200D01*
X58293000Y-33874620D01*
X58375549Y-33858200D01*
X58375554Y-33858200D01*
X58620049Y-33809567D01*
X58897308Y-33624308D01*
X58944072Y-33554321D01*
X59351393Y-33147000D01*
X65921890Y-33147000D01*
X65921890Y-33901380D01*
X66076154Y-34422919D01*
X66418260Y-34845724D01*
X66838683Y-35074210D01*
X66559078Y-35353815D01*
X66333000Y-35899615D01*
X66333000Y-36490385D01*
X66559078Y-37036185D01*
X66976815Y-37453922D01*
X67522615Y-37680000D01*
X68113385Y-37680000D01*
X68659185Y-37453922D01*
X69076922Y-37036185D01*
X69303000Y-36490385D01*
X69303000Y-36017200D01*
X71418451Y-36017200D01*
X71501000Y-36033620D01*
X71583549Y-36017200D01*
X71583554Y-36017200D01*
X71828049Y-35968567D01*
X71857901Y-35948620D01*
X78621890Y-35948620D01*
X78621890Y-36703000D01*
X79883000Y-36703000D01*
X79883000Y-34852838D01*
X79668326Y-34730217D01*
X79596125Y-34744573D01*
X79118260Y-35004276D01*
X78776154Y-35427081D01*
X78621890Y-35948620D01*
X71857901Y-35948620D01*
X72105308Y-35783308D01*
X72152072Y-35713322D01*
X72746653Y-35118741D01*
X72931613Y-35081950D01*
X73390771Y-34775151D01*
X73697570Y-34315993D01*
X73778110Y-33911093D01*
X73778110Y-32556796D01*
X74489202Y-33267888D01*
X74566471Y-33383529D01*
X74682111Y-33460797D01*
X75024600Y-33689641D01*
X75565000Y-33797133D01*
X75701407Y-33770000D01*
X82381314Y-33770000D01*
X81667112Y-34484203D01*
X81551472Y-34561471D01*
X81245359Y-35019600D01*
X81180001Y-35348176D01*
X80901740Y-35004276D01*
X80423875Y-34744573D01*
X80351674Y-34730217D01*
X80137000Y-34852838D01*
X80137000Y-36703000D01*
X80157000Y-36703000D01*
X80157000Y-36957000D01*
X80137000Y-36957000D01*
X80137000Y-36977000D01*
X79883000Y-36977000D01*
X79883000Y-36957000D01*
X78621890Y-36957000D01*
X78621890Y-37711380D01*
X78776154Y-38232919D01*
X78812469Y-38277800D01*
X77939000Y-38277800D01*
X77939000Y-37804615D01*
X77712922Y-37258815D01*
X77295185Y-36841078D01*
X76749385Y-36615000D01*
X76158615Y-36615000D01*
X75612815Y-36841078D01*
X75195078Y-37258815D01*
X75072772Y-37554087D01*
X74735799Y-37217114D01*
X74658529Y-37101471D01*
X74200400Y-36795359D01*
X73796407Y-36715000D01*
X73660000Y-36687867D01*
X73523593Y-36715000D01*
X71256405Y-36715000D01*
X71119999Y-36687867D01*
X70983593Y-36715000D01*
X70579600Y-36795359D01*
X70121471Y-37101471D01*
X70044202Y-37217112D01*
X68967112Y-38294203D01*
X68851472Y-38371471D01*
X68545359Y-38829600D01*
X68482907Y-39143567D01*
X68480001Y-39158176D01*
X68201740Y-38814276D01*
X67723875Y-38554573D01*
X67651674Y-38540217D01*
X67437000Y-38662838D01*
X67437000Y-40513000D01*
X67457000Y-40513000D01*
X67457000Y-40767000D01*
X67437000Y-40767000D01*
X67437000Y-40787000D01*
X67183000Y-40787000D01*
X67183000Y-40767000D01*
X65921890Y-40767000D01*
X65921890Y-41521380D01*
X66076154Y-42042919D01*
X66418260Y-42465724D01*
X66896125Y-42725427D01*
X66928107Y-42731786D01*
X66813078Y-42846815D01*
X66587000Y-43392615D01*
X66587000Y-43983385D01*
X66813078Y-44529185D01*
X67230815Y-44946922D01*
X67776615Y-45173000D01*
X68367385Y-45173000D01*
X68913185Y-44946922D01*
X69330922Y-44529185D01*
X69465775Y-44203620D01*
X78621890Y-44203620D01*
X78621890Y-44958000D01*
X79883000Y-44958000D01*
X79883000Y-43107838D01*
X79668326Y-42985217D01*
X79596125Y-42999573D01*
X79118260Y-43259276D01*
X78776154Y-43682081D01*
X78621890Y-44203620D01*
X69465775Y-44203620D01*
X69557000Y-43983385D01*
X69557000Y-43764200D01*
X71672451Y-43764200D01*
X71755000Y-43780620D01*
X71837549Y-43764200D01*
X71837554Y-43764200D01*
X72082049Y-43715567D01*
X72359308Y-43530308D01*
X72406071Y-43460322D01*
X72924324Y-42942070D01*
X72994308Y-42895308D01*
X73041071Y-42825323D01*
X73179567Y-42618050D01*
X73198326Y-42523738D01*
X73390771Y-42395151D01*
X73697570Y-41935993D01*
X73778110Y-41531093D01*
X73778110Y-40176795D01*
X74946402Y-41345088D01*
X75023671Y-41460729D01*
X75481800Y-41766841D01*
X75885793Y-41847200D01*
X76022199Y-41874333D01*
X76158605Y-41847200D01*
X82559114Y-41847200D01*
X81667112Y-42739203D01*
X81551472Y-42816471D01*
X81245359Y-43274600D01*
X81191866Y-43543529D01*
X81180001Y-43603176D01*
X80901740Y-43259276D01*
X80423875Y-42999573D01*
X80351674Y-42985217D01*
X80137000Y-43107838D01*
X80137000Y-44958000D01*
X80157000Y-44958000D01*
X80157000Y-45212000D01*
X80137000Y-45212000D01*
X80137000Y-45232000D01*
X79883000Y-45232000D01*
X79883000Y-45212000D01*
X78621890Y-45212000D01*
X78621890Y-45966380D01*
X78776154Y-46487919D01*
X78812469Y-46532800D01*
X77944194Y-46532800D01*
X77810764Y-46399370D01*
X77812000Y-46396385D01*
X77812000Y-45805615D01*
X77585922Y-45259815D01*
X77168185Y-44842078D01*
X76622385Y-44616000D01*
X76031615Y-44616000D01*
X75485815Y-44842078D01*
X75068078Y-45259815D01*
X74908575Y-45644890D01*
X74735800Y-45472115D01*
X74658529Y-45356471D01*
X74200400Y-45050359D01*
X73796407Y-44970000D01*
X73660000Y-44942867D01*
X73523593Y-44970000D01*
X70621407Y-44970000D01*
X70485000Y-44942867D01*
X70147956Y-45009909D01*
X69944600Y-45050359D01*
X69486471Y-45356471D01*
X69409200Y-45472115D01*
X68967113Y-45914202D01*
X68851472Y-45991471D01*
X68774203Y-46107112D01*
X68545359Y-46449601D01*
X68437867Y-46990000D01*
X68465001Y-47126411D01*
X68465001Y-47394637D01*
X68201740Y-47069276D01*
X67723875Y-46809573D01*
X67651674Y-46795217D01*
X67437000Y-46917838D01*
X67437000Y-48768000D01*
X67457000Y-48768000D01*
X67457000Y-49022000D01*
X67437000Y-49022000D01*
X67437000Y-49042000D01*
X67183000Y-49042000D01*
X67183000Y-49022000D01*
X65921890Y-49022000D01*
X65921890Y-49776380D01*
X66076154Y-50297919D01*
X66418260Y-50720724D01*
X66896125Y-50980427D01*
X66928107Y-50986786D01*
X66686078Y-51228815D01*
X66460000Y-51774615D01*
X66460000Y-52365385D01*
X66686078Y-52911185D01*
X67103815Y-53328922D01*
X67649615Y-53555000D01*
X68240385Y-53555000D01*
X68786185Y-53328922D01*
X69203922Y-52911185D01*
X69391380Y-52458620D01*
X78621890Y-52458620D01*
X78621890Y-53213000D01*
X79883000Y-53213000D01*
X79883000Y-51362838D01*
X79668326Y-51240217D01*
X79596125Y-51254573D01*
X79118260Y-51514276D01*
X78776154Y-51937081D01*
X78621890Y-52458620D01*
X69391380Y-52458620D01*
X69430000Y-52365385D01*
X69430000Y-51892200D01*
X71799451Y-51892200D01*
X71882000Y-51908620D01*
X71964549Y-51892200D01*
X71964554Y-51892200D01*
X72209049Y-51843567D01*
X72486308Y-51658308D01*
X72533072Y-51588321D01*
X72924321Y-51197072D01*
X72994308Y-51150308D01*
X73179567Y-50873049D01*
X73198327Y-50778738D01*
X73390771Y-50650151D01*
X73697570Y-50190993D01*
X73778110Y-49786093D01*
X73778110Y-48431795D01*
X75124200Y-49777885D01*
X75201471Y-49893529D01*
X75659600Y-50199641D01*
X76063593Y-50280000D01*
X76063597Y-50280000D01*
X76199999Y-50307132D01*
X76336401Y-50280000D01*
X82381314Y-50280000D01*
X81667112Y-50994203D01*
X81551472Y-51071471D01*
X81245359Y-51529600D01*
X81182907Y-51843567D01*
X81180001Y-51858176D01*
X80901740Y-51514276D01*
X80423875Y-51254573D01*
X80351674Y-51240217D01*
X80137000Y-51362838D01*
X80137000Y-53213000D01*
X80157000Y-53213000D01*
X80157000Y-53467000D01*
X80137000Y-53467000D01*
X80137000Y-53487000D01*
X79883000Y-53487000D01*
X79883000Y-53467000D01*
X78621890Y-53467000D01*
X78621890Y-54221380D01*
X78776154Y-54742919D01*
X78812469Y-54787800D01*
X77817194Y-54787800D01*
X77810764Y-54781370D01*
X77812000Y-54778385D01*
X77812000Y-54187615D01*
X77585922Y-53641815D01*
X77168185Y-53224078D01*
X76622385Y-52998000D01*
X76031615Y-52998000D01*
X75485815Y-53224078D01*
X75068078Y-53641815D01*
X74945772Y-53937087D01*
X74735800Y-53727115D01*
X74658529Y-53611471D01*
X74200400Y-53305359D01*
X73796407Y-53225000D01*
X73660000Y-53197867D01*
X73523593Y-53225000D01*
X70621407Y-53225000D01*
X70485000Y-53197867D01*
X70181383Y-53258260D01*
X69944600Y-53305359D01*
X69486471Y-53611471D01*
X69409200Y-53727115D01*
X68967113Y-54169202D01*
X68851472Y-54246471D01*
X68774203Y-54362112D01*
X68545359Y-54704601D01*
X68437867Y-55245000D01*
X68465001Y-55381411D01*
X68465001Y-55649637D01*
X68201740Y-55324276D01*
X67723875Y-55064573D01*
X67651674Y-55050217D01*
X67437000Y-55172838D01*
X67437000Y-57023000D01*
X67457000Y-57023000D01*
X67457000Y-57277000D01*
X67437000Y-57277000D01*
X67437000Y-57297000D01*
X67183000Y-57297000D01*
X67183000Y-57277000D01*
X65921890Y-57277000D01*
X65921890Y-58031380D01*
X66076154Y-58552919D01*
X66418260Y-58975724D01*
X66896125Y-59235427D01*
X66928107Y-59241786D01*
X66559078Y-59610815D01*
X66333000Y-60156615D01*
X66333000Y-60747385D01*
X66559078Y-61293185D01*
X66976815Y-61710922D01*
X67522615Y-61937000D01*
X68113385Y-61937000D01*
X68659185Y-61710922D01*
X69076922Y-61293185D01*
X69303000Y-60747385D01*
X69303000Y-60156615D01*
X69301764Y-60153630D01*
X69308194Y-60147200D01*
X71418451Y-60147200D01*
X71501000Y-60163620D01*
X71583549Y-60147200D01*
X71583554Y-60147200D01*
X71828049Y-60098567D01*
X72105308Y-59913308D01*
X72152072Y-59843322D01*
X72746653Y-59248741D01*
X72931613Y-59211950D01*
X73390771Y-58905151D01*
X73697570Y-58445993D01*
X73778110Y-58041093D01*
X73778110Y-56686795D01*
X75124200Y-58032885D01*
X75201471Y-58148529D01*
X75659600Y-58454641D01*
X76063593Y-58535000D01*
X76063597Y-58535000D01*
X76199999Y-58562132D01*
X76336401Y-58535000D01*
X88128593Y-58535000D01*
X88265000Y-58562133D01*
X88401407Y-58535000D01*
X88805400Y-58454641D01*
X89263529Y-58148529D01*
X89340800Y-58032885D01*
X89676885Y-57696800D01*
X91988891Y-57696800D01*
X92601706Y-58106271D01*
X93157374Y-58216800D01*
X96072626Y-58216800D01*
X96628294Y-58106271D01*
X97258428Y-57685228D01*
X97679471Y-57055094D01*
X97827321Y-56311800D01*
X97679471Y-55568506D01*
X97258428Y-54938372D01*
X96628294Y-54517329D01*
X96072626Y-54406800D01*
X93157374Y-54406800D01*
X92601706Y-54517329D01*
X91988891Y-54926800D01*
X89239607Y-54926800D01*
X89103200Y-54899667D01*
X88966793Y-54926800D01*
X88562800Y-55007159D01*
X88104671Y-55313271D01*
X88027400Y-55428915D01*
X87691315Y-55765000D01*
X85247394Y-55765000D01*
X85605187Y-55407206D01*
X85631613Y-55401950D01*
X86090771Y-55095151D01*
X86397570Y-54635993D01*
X86478110Y-54231093D01*
X86478110Y-52876795D01*
X86833600Y-53232285D01*
X86910871Y-53347929D01*
X87369000Y-53654041D01*
X87772993Y-53734400D01*
X87772997Y-53734400D01*
X87909399Y-53761532D01*
X88045801Y-53734400D01*
X91988891Y-53734400D01*
X92601706Y-54143871D01*
X93157374Y-54254400D01*
X96072626Y-54254400D01*
X96628294Y-54143871D01*
X97258428Y-53722828D01*
X97679471Y-53092694D01*
X97827321Y-52349400D01*
X97679471Y-51606106D01*
X97258428Y-50975972D01*
X96628294Y-50554929D01*
X96072626Y-50444400D01*
X93157374Y-50444400D01*
X92601706Y-50554929D01*
X91988891Y-50964400D01*
X88483085Y-50964400D01*
X87798685Y-50280000D01*
X88763593Y-50280000D01*
X88900000Y-50307133D01*
X89036407Y-50280000D01*
X89440400Y-50199641D01*
X89898529Y-49893529D01*
X89975800Y-49777885D01*
X89981685Y-49772000D01*
X91988891Y-49772000D01*
X92601706Y-50181471D01*
X93157374Y-50292000D01*
X96072626Y-50292000D01*
X96628294Y-50181471D01*
X97258428Y-49760428D01*
X97679471Y-49130294D01*
X97827321Y-48387000D01*
X97679471Y-47643706D01*
X97258428Y-47013572D01*
X96628294Y-46592529D01*
X96072626Y-46482000D01*
X93157374Y-46482000D01*
X92601706Y-46592529D01*
X91988891Y-47002000D01*
X89544401Y-47002000D01*
X89407999Y-46974868D01*
X89271597Y-47002000D01*
X89271593Y-47002000D01*
X88867600Y-47082359D01*
X88409471Y-47388471D01*
X88332199Y-47504117D01*
X88326316Y-47510000D01*
X85247394Y-47510000D01*
X85605187Y-47152206D01*
X85631613Y-47146950D01*
X86090771Y-46840151D01*
X86397570Y-46380993D01*
X86478110Y-45976093D01*
X86478110Y-44193907D01*
X86426683Y-43935368D01*
X87798802Y-45307488D01*
X87876071Y-45423129D01*
X88178791Y-45625400D01*
X88334200Y-45729241D01*
X88874600Y-45836733D01*
X89011007Y-45809600D01*
X91988891Y-45809600D01*
X92601706Y-46219071D01*
X93157374Y-46329600D01*
X96072626Y-46329600D01*
X96628294Y-46219071D01*
X97258428Y-45798028D01*
X97679471Y-45167894D01*
X97827321Y-44424600D01*
X97679471Y-43681306D01*
X97258428Y-43051172D01*
X96628294Y-42630129D01*
X96072626Y-42519600D01*
X93157374Y-42519600D01*
X92601706Y-42630129D01*
X91988891Y-43039600D01*
X89448286Y-43039600D01*
X88255885Y-41847200D01*
X91988891Y-41847200D01*
X92601706Y-42256671D01*
X93157374Y-42367200D01*
X96072626Y-42367200D01*
X96628294Y-42256671D01*
X97258428Y-41835628D01*
X97679471Y-41205494D01*
X97827321Y-40462200D01*
X97679471Y-39718906D01*
X97258428Y-39088772D01*
X96628294Y-38667729D01*
X96072626Y-38557200D01*
X93157374Y-38557200D01*
X92601706Y-38667729D01*
X91988891Y-39077200D01*
X85552194Y-39077200D01*
X85624324Y-39005070D01*
X85694308Y-38958308D01*
X85743392Y-38884850D01*
X85824977Y-38762749D01*
X86090771Y-38585151D01*
X86397570Y-38125993D01*
X86478110Y-37721093D01*
X86478110Y-36366795D01*
X87697200Y-37585885D01*
X87774471Y-37701529D01*
X88232600Y-38007641D01*
X88636593Y-38088000D01*
X88772999Y-38115133D01*
X88909405Y-38088000D01*
X92293000Y-38088000D01*
X92601706Y-38294271D01*
X93157374Y-38404800D01*
X96072626Y-38404800D01*
X96628294Y-38294271D01*
X97258428Y-37873228D01*
X97679471Y-37243094D01*
X97827321Y-36499800D01*
X97679471Y-35756506D01*
X97258428Y-35126372D01*
X96628294Y-34705329D01*
X96072626Y-34594800D01*
X93157374Y-34594800D01*
X92601706Y-34705329D01*
X91971572Y-35126372D01*
X91843530Y-35318000D01*
X89346685Y-35318000D01*
X87798685Y-33770000D01*
X88938273Y-33770000D01*
X89350200Y-34045241D01*
X89754193Y-34125600D01*
X89890599Y-34152733D01*
X90027005Y-34125600D01*
X92293000Y-34125600D01*
X92601706Y-34331871D01*
X93157374Y-34442400D01*
X96072626Y-34442400D01*
X96628294Y-34331871D01*
X97258428Y-33910828D01*
X97679471Y-33280694D01*
X97827321Y-32537400D01*
X97679471Y-31794106D01*
X97258428Y-31163972D01*
X96628294Y-30742929D01*
X96072626Y-30632400D01*
X93157374Y-30632400D01*
X92601706Y-30742929D01*
X91971572Y-31163972D01*
X91843530Y-31355600D01*
X90487327Y-31355600D01*
X90075400Y-31080359D01*
X89671407Y-31000000D01*
X89535000Y-30972867D01*
X89398593Y-31000000D01*
X85120393Y-31000000D01*
X85446653Y-30673741D01*
X85631613Y-30636950D01*
X86090771Y-30330151D01*
X86397570Y-29870993D01*
X86478110Y-29466093D01*
X86478110Y-27683907D01*
X86426683Y-27425368D01*
X88662402Y-29661088D01*
X88739671Y-29776729D01*
X89009141Y-29956783D01*
X89197800Y-30082841D01*
X89738200Y-30190333D01*
X89874607Y-30163200D01*
X92293000Y-30163200D01*
X92601706Y-30369471D01*
X93157374Y-30480000D01*
X96072626Y-30480000D01*
X96628294Y-30369471D01*
X97258428Y-29948428D01*
X97679471Y-29318294D01*
X97827321Y-28575000D01*
X97679471Y-27831706D01*
X97258428Y-27201572D01*
X96628294Y-26780529D01*
X96072626Y-26670000D01*
X93574286Y-26670000D01*
X93574286Y-24245000D01*
X90575715Y-24245000D01*
X90575715Y-27393200D01*
X90311886Y-27393200D01*
X88070799Y-25152114D01*
X87993529Y-25036471D01*
X87535400Y-24730359D01*
X87131407Y-24650000D01*
X86995000Y-24622867D01*
X86858593Y-24650000D01*
X83956405Y-24650000D01*
X83819999Y-24622867D01*
X83683593Y-24650000D01*
X83279600Y-24730359D01*
X82821471Y-25036471D01*
X82744202Y-25152112D01*
X81667112Y-26229203D01*
X81551472Y-26306471D01*
X81245359Y-26764600D01*
X81245359Y-26764601D01*
X81180001Y-27093176D01*
X80901740Y-26749276D01*
X80423875Y-26489573D01*
X80351674Y-26475217D01*
X80137000Y-26597838D01*
X80137000Y-28448000D01*
X80157000Y-28448000D01*
X80157000Y-28702000D01*
X80137000Y-28702000D01*
X80137000Y-28722000D01*
X79883000Y-28722000D01*
X79883000Y-28702000D01*
X78621890Y-28702000D01*
X78621890Y-29456380D01*
X78751864Y-29895800D01*
X77558000Y-29895800D01*
X77558000Y-29676615D01*
X77331922Y-29130815D01*
X76914185Y-28713078D01*
X76368385Y-28487000D01*
X75777615Y-28487000D01*
X75231815Y-28713078D01*
X74814078Y-29130815D01*
X74664889Y-29490989D01*
X74658529Y-29481471D01*
X74200400Y-29175359D01*
X73796407Y-29095000D01*
X73660000Y-29067867D01*
X73523593Y-29095000D01*
X71256405Y-29095000D01*
X71119999Y-29067867D01*
X70983593Y-29095000D01*
X70579600Y-29175359D01*
X70121471Y-29481471D01*
X70044202Y-29597112D01*
X68967112Y-30674203D01*
X68851472Y-30751471D01*
X68545359Y-31209600D01*
X68482907Y-31523567D01*
X68480001Y-31538176D01*
X68201740Y-31194276D01*
X67723875Y-30934573D01*
X67651674Y-30920217D01*
X67437000Y-31042838D01*
X67437000Y-32893000D01*
X67457000Y-32893000D01*
X67457000Y-33147000D01*
X67437000Y-33147000D01*
X67437000Y-33167000D01*
X67183000Y-33167000D01*
X67183000Y-33147000D01*
X65921890Y-33147000D01*
X59351393Y-33147000D01*
X60359773Y-32138620D01*
X65921890Y-32138620D01*
X65921890Y-32893000D01*
X67183000Y-32893000D01*
X67183000Y-31042838D01*
X66968326Y-30920217D01*
X66896125Y-30934573D01*
X66418260Y-31194276D01*
X66076154Y-31617081D01*
X65921890Y-32138620D01*
X60359773Y-32138620D01*
X61042630Y-31455764D01*
X61045615Y-31457000D01*
X61636385Y-31457000D01*
X62182185Y-31230922D01*
X62599922Y-30813185D01*
X62826000Y-30267385D01*
X62826000Y-29676615D01*
X62599922Y-29130815D01*
X62182185Y-28713078D01*
X61636385Y-28487000D01*
X61045615Y-28487000D01*
X60499815Y-28713078D01*
X60082078Y-29130815D01*
X59856000Y-29676615D01*
X59856000Y-30267385D01*
X59857236Y-30270370D01*
X57945807Y-32181800D01*
X57386238Y-32181800D01*
X57261093Y-31994507D01*
X56895162Y-31750000D01*
X57261093Y-31505493D01*
X57575471Y-31034993D01*
X57685866Y-30480000D01*
X57575471Y-29925007D01*
X57261093Y-29454507D01*
X57055958Y-29317440D01*
X57140000Y-29317440D01*
X57387765Y-29268157D01*
X57597809Y-29127809D01*
X57738157Y-28917765D01*
X57787440Y-28670000D01*
X57787440Y-27693620D01*
X78621890Y-27693620D01*
X78621890Y-28448000D01*
X79883000Y-28448000D01*
X79883000Y-26597838D01*
X79668326Y-26475217D01*
X79596125Y-26489573D01*
X79118260Y-26749276D01*
X78776154Y-27172081D01*
X78621890Y-27693620D01*
X57787440Y-27693620D01*
X57787440Y-27170000D01*
X57738157Y-26922235D01*
X57597809Y-26712191D01*
X57536680Y-26671346D01*
X57678327Y-26529698D01*
X57775000Y-26296309D01*
X57775000Y-25705750D01*
X57616250Y-25547000D01*
X56642000Y-25547000D01*
X56642000Y-25567000D01*
X56388000Y-25567000D01*
X56388000Y-25547000D01*
X55413750Y-25547000D01*
X55255000Y-25705750D01*
X55255000Y-26296309D01*
X55351673Y-26529698D01*
X55493320Y-26671346D01*
X55432191Y-26712191D01*
X55383541Y-26785000D01*
X54721783Y-26785000D01*
X54610000Y-26762765D01*
X54498217Y-26785000D01*
X38866781Y-26785000D01*
X38754999Y-26762765D01*
X38643217Y-26785000D01*
X38312145Y-26850854D01*
X37936711Y-27101711D01*
X37873389Y-27196479D01*
X34836480Y-30233389D01*
X34741712Y-30296711D01*
X34737804Y-30302560D01*
X34210000Y-30302560D01*
X33962235Y-30351843D01*
X33752191Y-30492191D01*
X33670132Y-30615000D01*
X25629286Y-30615000D01*
X25629286Y-28055000D01*
X22630715Y-28055000D01*
X22630715Y-30615000D01*
X22336783Y-30615000D01*
X22225000Y-30592765D01*
X22002866Y-30636950D01*
X21782145Y-30680854D01*
X21406711Y-30931711D01*
X21343389Y-31026479D01*
X19596480Y-32773389D01*
X19501712Y-32836711D01*
X19356096Y-33054641D01*
X19250854Y-33212146D01*
X19162765Y-33655000D01*
X19125000Y-33655000D01*
X19125000Y-23159550D01*
X19356155Y-23717608D01*
X20097392Y-24458845D01*
X21065866Y-24860000D01*
X22114134Y-24860000D01*
X22877771Y-24543691D01*
X55255000Y-24543691D01*
X55255000Y-25134250D01*
X55413750Y-25293000D01*
X56388000Y-25293000D01*
X56388000Y-24193750D01*
X56642000Y-24193750D01*
X56642000Y-25293000D01*
X57616250Y-25293000D01*
X57775000Y-25134250D01*
X57775000Y-24543691D01*
X57678327Y-24310302D01*
X57499699Y-24131673D01*
X57266310Y-24035000D01*
X56800750Y-24035000D01*
X56642000Y-24193750D01*
X56388000Y-24193750D01*
X56229250Y-24035000D01*
X55763690Y-24035000D01*
X55530301Y-24131673D01*
X55351673Y-24310302D01*
X55255000Y-24543691D01*
X22877771Y-24543691D01*
X23082608Y-24458845D01*
X23823845Y-23717608D01*
X23863447Y-23622000D01*
X62230000Y-23622000D01*
X62230000Y-24892000D01*
X62423610Y-25611345D01*
X62877764Y-26201841D01*
X63523321Y-26573591D01*
X63712219Y-26622493D01*
X64008000Y-26506626D01*
X64008000Y-23622000D01*
X64262000Y-23622000D01*
X64262000Y-26506626D01*
X64557781Y-26622493D01*
X64746679Y-26573591D01*
X65392236Y-26201841D01*
X65846390Y-25611345D01*
X66040000Y-24892000D01*
X66040000Y-23622000D01*
X66192400Y-23622000D01*
X66192400Y-24892000D01*
X66386010Y-25611345D01*
X66840164Y-26201841D01*
X67485721Y-26573591D01*
X67674619Y-26622493D01*
X67970400Y-26506626D01*
X67970400Y-23622000D01*
X68224400Y-23622000D01*
X68224400Y-26506626D01*
X68520181Y-26622493D01*
X68709079Y-26573591D01*
X69354636Y-26201841D01*
X69808790Y-25611345D01*
X70002400Y-24892000D01*
X70002400Y-23622000D01*
X70154800Y-23622000D01*
X70154800Y-24892000D01*
X70348410Y-25611345D01*
X70802564Y-26201841D01*
X71448121Y-26573591D01*
X71637019Y-26622493D01*
X71932800Y-26506626D01*
X71932800Y-23622000D01*
X72186800Y-23622000D01*
X72186800Y-26506626D01*
X72482581Y-26622493D01*
X72671479Y-26573591D01*
X73317036Y-26201841D01*
X73771190Y-25611345D01*
X73964800Y-24892000D01*
X73964800Y-23622000D01*
X72186800Y-23622000D01*
X71932800Y-23622000D01*
X70154800Y-23622000D01*
X70002400Y-23622000D01*
X68224400Y-23622000D01*
X67970400Y-23622000D01*
X66192400Y-23622000D01*
X66040000Y-23622000D01*
X64262000Y-23622000D01*
X64008000Y-23622000D01*
X62230000Y-23622000D01*
X23863447Y-23622000D01*
X24225000Y-22749134D01*
X24225000Y-22098000D01*
X62230000Y-22098000D01*
X62230000Y-23368000D01*
X64008000Y-23368000D01*
X64008000Y-20483374D01*
X64262000Y-20483374D01*
X64262000Y-23368000D01*
X66040000Y-23368000D01*
X66040000Y-22098000D01*
X66192400Y-22098000D01*
X66192400Y-23368000D01*
X67970400Y-23368000D01*
X67970400Y-20483374D01*
X68224400Y-20483374D01*
X68224400Y-23368000D01*
X70002400Y-23368000D01*
X70002400Y-22098000D01*
X70154800Y-22098000D01*
X70154800Y-23368000D01*
X71932800Y-23368000D01*
X71932800Y-20483374D01*
X72186800Y-20483374D01*
X72186800Y-23368000D01*
X73964800Y-23368000D01*
X73964800Y-22098000D01*
X73771190Y-21378655D01*
X73317036Y-20788159D01*
X72671479Y-20416409D01*
X72482581Y-20367507D01*
X72186800Y-20483374D01*
X71932800Y-20483374D01*
X71637019Y-20367507D01*
X71448121Y-20416409D01*
X70802564Y-20788159D01*
X70348410Y-21378655D01*
X70154800Y-22098000D01*
X70002400Y-22098000D01*
X69808790Y-21378655D01*
X69354636Y-20788159D01*
X68709079Y-20416409D01*
X68520181Y-20367507D01*
X68224400Y-20483374D01*
X67970400Y-20483374D01*
X67674619Y-20367507D01*
X67485721Y-20416409D01*
X66840164Y-20788159D01*
X66386010Y-21378655D01*
X66192400Y-22098000D01*
X66040000Y-22098000D01*
X65846390Y-21378655D01*
X65392236Y-20788159D01*
X64746679Y-20416409D01*
X64557781Y-20367507D01*
X64262000Y-20483374D01*
X64008000Y-20483374D01*
X63712219Y-20367507D01*
X63523321Y-20416409D01*
X62877764Y-20788159D01*
X62423610Y-21378655D01*
X62230000Y-22098000D01*
X24225000Y-22098000D01*
X24225000Y-21700866D01*
X23823845Y-20732392D01*
X23082608Y-19991155D01*
X22524550Y-19760000D01*
X95585450Y-19760000D01*
X95027392Y-19991155D01*
G36*
X53475000Y-29733216D02*
X53452765Y-29845000D01*
X53509394Y-30129692D01*
X53540854Y-30287854D01*
X53791711Y-30663289D01*
X53886482Y-30726613D01*
X54181963Y-31022094D01*
X54184529Y-31034993D01*
X54498907Y-31505493D01*
X54864838Y-31750000D01*
X54498907Y-31994507D01*
X54184529Y-32465007D01*
X54074134Y-33020000D01*
X54184529Y-33574993D01*
X54498907Y-34045493D01*
X54864838Y-34290000D01*
X54498907Y-34534507D01*
X54184529Y-35005007D01*
X54074134Y-35560000D01*
X54184529Y-36114993D01*
X54498907Y-36585493D01*
X54864838Y-36830000D01*
X54498907Y-37074507D01*
X54184529Y-37545007D01*
X54074134Y-38100000D01*
X54184529Y-38654993D01*
X54498907Y-39125493D01*
X54864838Y-39370000D01*
X54498907Y-39614507D01*
X54184529Y-40085007D01*
X54074134Y-40640000D01*
X54184529Y-41194993D01*
X54498907Y-41665493D01*
X54864838Y-41910000D01*
X54498907Y-42154507D01*
X54184529Y-42625007D01*
X54074134Y-43180000D01*
X54184529Y-43734993D01*
X54498907Y-44205493D01*
X54864838Y-44450000D01*
X54498907Y-44694507D01*
X54184529Y-45165007D01*
X54074134Y-45720000D01*
X54184529Y-46274993D01*
X54498907Y-46745493D01*
X54864838Y-46990000D01*
X54498907Y-47234507D01*
X54184529Y-47705007D01*
X54074134Y-48260000D01*
X54184529Y-48814993D01*
X54498907Y-49285493D01*
X54864838Y-49530000D01*
X54498907Y-49774507D01*
X54184529Y-50245007D01*
X54074134Y-50800000D01*
X54184529Y-51354993D01*
X54498907Y-51825493D01*
X54864838Y-52070000D01*
X54498907Y-52314507D01*
X54184529Y-52785007D01*
X54074134Y-53340000D01*
X54184529Y-53894993D01*
X54498907Y-54365493D01*
X54969407Y-54679871D01*
X55041800Y-54694271D01*
X55041800Y-54897806D01*
X53373807Y-56565800D01*
X45180000Y-56565800D01*
X45180000Y-56165750D01*
X45021250Y-56007000D01*
X43922000Y-56007000D01*
X43922000Y-56027000D01*
X43668000Y-56027000D01*
X43668000Y-56007000D01*
X43648000Y-56007000D01*
X43648000Y-55753000D01*
X43668000Y-55753000D01*
X43668000Y-55733000D01*
X43922000Y-55733000D01*
X43922000Y-55753000D01*
X45021250Y-55753000D01*
X45180000Y-55594250D01*
X45180000Y-55128690D01*
X45097253Y-54928922D01*
X45285049Y-54891567D01*
X45562308Y-54706308D01*
X45609072Y-54636321D01*
X46530747Y-53714646D01*
X46541673Y-53766996D01*
X46808809Y-54255986D01*
X47242738Y-54605525D01*
X47777400Y-54762400D01*
X48133000Y-54762400D01*
X48133000Y-53467000D01*
X48387000Y-53467000D01*
X48387000Y-54762400D01*
X48742600Y-54762400D01*
X49277262Y-54605525D01*
X49711191Y-54255986D01*
X49978327Y-53766996D01*
X49995010Y-53687060D01*
X49872852Y-53467000D01*
X48387000Y-53467000D01*
X48133000Y-53467000D01*
X48113000Y-53467000D01*
X48113000Y-53213000D01*
X48133000Y-53213000D01*
X48133000Y-53193000D01*
X48387000Y-53193000D01*
X48387000Y-53213000D01*
X49872852Y-53213000D01*
X49995010Y-52992940D01*
X49978327Y-52913004D01*
X49711191Y-52424014D01*
X49277262Y-52074475D01*
X49271149Y-52072681D01*
X49641093Y-51825493D01*
X49955471Y-51354993D01*
X50065866Y-50800000D01*
X49955471Y-50245007D01*
X49641093Y-49774507D01*
X49275162Y-49530000D01*
X49641093Y-49285493D01*
X49955471Y-48814993D01*
X50065866Y-48260000D01*
X49955471Y-47705007D01*
X49641093Y-47234507D01*
X49275162Y-46990000D01*
X49641093Y-46745493D01*
X49955471Y-46274993D01*
X50065866Y-45720000D01*
X49955471Y-45165007D01*
X49641093Y-44694507D01*
X49275162Y-44450000D01*
X49641093Y-44205493D01*
X49955471Y-43734993D01*
X50065866Y-43180000D01*
X49955471Y-42625007D01*
X49641093Y-42154507D01*
X49275162Y-41910000D01*
X49641093Y-41665493D01*
X49955471Y-41194993D01*
X50065866Y-40640000D01*
X49955471Y-40085007D01*
X49641093Y-39614507D01*
X49275162Y-39370000D01*
X49641093Y-39125493D01*
X49955471Y-38654993D01*
X50065866Y-38100000D01*
X49955471Y-37545007D01*
X49641093Y-37074507D01*
X49275162Y-36830000D01*
X49641093Y-36585493D01*
X49955471Y-36114993D01*
X50065866Y-35560000D01*
X49955471Y-35005007D01*
X49641093Y-34534507D01*
X49275162Y-34290000D01*
X49641093Y-34045493D01*
X49955471Y-33574993D01*
X50065866Y-33020000D01*
X49955471Y-32465007D01*
X49641093Y-31994507D01*
X49494596Y-31896621D01*
X49650765Y-31865557D01*
X49860809Y-31725209D01*
X50001157Y-31515165D01*
X50050440Y-31267400D01*
X50050440Y-29692600D01*
X50001157Y-29444835D01*
X49860809Y-29234791D01*
X49650765Y-29094443D01*
X49452470Y-29055000D01*
X53475000Y-29055000D01*
X53475000Y-29733216D01*
X53475000Y-29733216D01*
G37*
X53475000Y-29733216D02*
X53452765Y-29845000D01*
X53509394Y-30129692D01*
X53540854Y-30287854D01*
X53791711Y-30663289D01*
X53886482Y-30726613D01*
X54181963Y-31022094D01*
X54184529Y-31034993D01*
X54498907Y-31505493D01*
X54864838Y-31750000D01*
X54498907Y-31994507D01*
X54184529Y-32465007D01*
X54074134Y-33020000D01*
X54184529Y-33574993D01*
X54498907Y-34045493D01*
X54864838Y-34290000D01*
X54498907Y-34534507D01*
X54184529Y-35005007D01*
X54074134Y-35560000D01*
X54184529Y-36114993D01*
X54498907Y-36585493D01*
X54864838Y-36830000D01*
X54498907Y-37074507D01*
X54184529Y-37545007D01*
X54074134Y-38100000D01*
X54184529Y-38654993D01*
X54498907Y-39125493D01*
X54864838Y-39370000D01*
X54498907Y-39614507D01*
X54184529Y-40085007D01*
X54074134Y-40640000D01*
X54184529Y-41194993D01*
X54498907Y-41665493D01*
X54864838Y-41910000D01*
X54498907Y-42154507D01*
X54184529Y-42625007D01*
X54074134Y-43180000D01*
X54184529Y-43734993D01*
X54498907Y-44205493D01*
X54864838Y-44450000D01*
X54498907Y-44694507D01*
X54184529Y-45165007D01*
X54074134Y-45720000D01*
X54184529Y-46274993D01*
X54498907Y-46745493D01*
X54864838Y-46990000D01*
X54498907Y-47234507D01*
X54184529Y-47705007D01*
X54074134Y-48260000D01*
X54184529Y-48814993D01*
X54498907Y-49285493D01*
X54864838Y-49530000D01*
X54498907Y-49774507D01*
X54184529Y-50245007D01*
X54074134Y-50800000D01*
X54184529Y-51354993D01*
X54498907Y-51825493D01*
X54864838Y-52070000D01*
X54498907Y-52314507D01*
X54184529Y-52785007D01*
X54074134Y-53340000D01*
X54184529Y-53894993D01*
X54498907Y-54365493D01*
X54969407Y-54679871D01*
X55041800Y-54694271D01*
X55041800Y-54897806D01*
X53373807Y-56565800D01*
X45180000Y-56565800D01*
X45180000Y-56165750D01*
X45021250Y-56007000D01*
X43922000Y-56007000D01*
X43922000Y-56027000D01*
X43668000Y-56027000D01*
X43668000Y-56007000D01*
X43648000Y-56007000D01*
X43648000Y-55753000D01*
X43668000Y-55753000D01*
X43668000Y-55733000D01*
X43922000Y-55733000D01*
X43922000Y-55753000D01*
X45021250Y-55753000D01*
X45180000Y-55594250D01*
X45180000Y-55128690D01*
X45097253Y-54928922D01*
X45285049Y-54891567D01*
X45562308Y-54706308D01*
X45609072Y-54636321D01*
X46530747Y-53714646D01*
X46541673Y-53766996D01*
X46808809Y-54255986D01*
X47242738Y-54605525D01*
X47777400Y-54762400D01*
X48133000Y-54762400D01*
X48133000Y-53467000D01*
X48387000Y-53467000D01*
X48387000Y-54762400D01*
X48742600Y-54762400D01*
X49277262Y-54605525D01*
X49711191Y-54255986D01*
X49978327Y-53766996D01*
X49995010Y-53687060D01*
X49872852Y-53467000D01*
X48387000Y-53467000D01*
X48133000Y-53467000D01*
X48113000Y-53467000D01*
X48113000Y-53213000D01*
X48133000Y-53213000D01*
X48133000Y-53193000D01*
X48387000Y-53193000D01*
X48387000Y-53213000D01*
X49872852Y-53213000D01*
X49995010Y-52992940D01*
X49978327Y-52913004D01*
X49711191Y-52424014D01*
X49277262Y-52074475D01*
X49271149Y-52072681D01*
X49641093Y-51825493D01*
X49955471Y-51354993D01*
X50065866Y-50800000D01*
X49955471Y-50245007D01*
X49641093Y-49774507D01*
X49275162Y-49530000D01*
X49641093Y-49285493D01*
X49955471Y-48814993D01*
X50065866Y-48260000D01*
X49955471Y-47705007D01*
X49641093Y-47234507D01*
X49275162Y-46990000D01*
X49641093Y-46745493D01*
X49955471Y-46274993D01*
X50065866Y-45720000D01*
X49955471Y-45165007D01*
X49641093Y-44694507D01*
X49275162Y-44450000D01*
X49641093Y-44205493D01*
X49955471Y-43734993D01*
X50065866Y-43180000D01*
X49955471Y-42625007D01*
X49641093Y-42154507D01*
X49275162Y-41910000D01*
X49641093Y-41665493D01*
X49955471Y-41194993D01*
X50065866Y-40640000D01*
X49955471Y-40085007D01*
X49641093Y-39614507D01*
X49275162Y-39370000D01*
X49641093Y-39125493D01*
X49955471Y-38654993D01*
X50065866Y-38100000D01*
X49955471Y-37545007D01*
X49641093Y-37074507D01*
X49275162Y-36830000D01*
X49641093Y-36585493D01*
X49955471Y-36114993D01*
X50065866Y-35560000D01*
X49955471Y-35005007D01*
X49641093Y-34534507D01*
X49275162Y-34290000D01*
X49641093Y-34045493D01*
X49955471Y-33574993D01*
X50065866Y-33020000D01*
X49955471Y-32465007D01*
X49641093Y-31994507D01*
X49494596Y-31896621D01*
X49650765Y-31865557D01*
X49860809Y-31725209D01*
X50001157Y-31515165D01*
X50050440Y-31267400D01*
X50050440Y-29692600D01*
X50001157Y-29444835D01*
X49860809Y-29234791D01*
X49650765Y-29094443D01*
X49452470Y-29055000D01*
X53475000Y-29055000D01*
X53475000Y-29733216D01*
G36*
X43922000Y-52578000D02*
X43942000Y-52578000D01*
X43942000Y-52832000D01*
X43922000Y-52832000D01*
X43922000Y-52852000D01*
X43668000Y-52852000D01*
X43668000Y-52832000D01*
X43648000Y-52832000D01*
X43648000Y-52578000D01*
X43668000Y-52578000D01*
X43668000Y-52558000D01*
X43922000Y-52558000D01*
X43922000Y-52578000D01*
X43922000Y-52578000D01*
G37*
X43922000Y-52578000D02*
X43942000Y-52578000D01*
X43942000Y-52832000D01*
X43922000Y-52832000D01*
X43922000Y-52852000D01*
X43668000Y-52852000D01*
X43668000Y-52832000D01*
X43648000Y-52832000D01*
X43648000Y-52578000D01*
X43668000Y-52578000D01*
X43668000Y-52558000D01*
X43922000Y-52558000D01*
X43922000Y-52578000D01*
G36*
X45031928Y-52842678D02*
X45021252Y-52832002D01*
X45042604Y-52832002D01*
X45031928Y-52842678D01*
X45031928Y-52842678D01*
G37*
X45031928Y-52842678D02*
X45021252Y-52832002D01*
X45042604Y-52832002D01*
X45031928Y-52842678D01*
G36*
X47244838Y-49530000D02*
X46878907Y-49774507D01*
X46564529Y-50245007D01*
X46454134Y-50800000D01*
X46557077Y-51317529D01*
X45180000Y-52694606D01*
X45180000Y-52577998D01*
X45021252Y-52577998D01*
X45180000Y-52419250D01*
X45180000Y-51953690D01*
X45083327Y-51720301D01*
X44933148Y-51570123D01*
X45181308Y-51404308D01*
X45228072Y-51334321D01*
X47117487Y-49444907D01*
X47244838Y-49530000D01*
X47244838Y-49530000D01*
G37*
X47244838Y-49530000D02*
X46878907Y-49774507D01*
X46564529Y-50245007D01*
X46454134Y-50800000D01*
X46557077Y-51317529D01*
X45180000Y-52694606D01*
X45180000Y-52577998D01*
X45021252Y-52577998D01*
X45180000Y-52419250D01*
X45180000Y-51953690D01*
X45083327Y-51720301D01*
X44933148Y-51570123D01*
X45181308Y-51404308D01*
X45228072Y-51334321D01*
X47117487Y-49444907D01*
X47244838Y-49530000D01*
G36*
X26144978Y-51333372D02*
X26056019Y-51497061D01*
X25770151Y-51069229D01*
X25367221Y-50800000D01*
X25513719Y-50702113D01*
X26144978Y-51333372D01*
X26144978Y-51333372D01*
G37*
X26144978Y-51333372D02*
X26056019Y-51497061D01*
X25770151Y-51069229D01*
X25367221Y-50800000D01*
X25513719Y-50702113D01*
X26144978Y-51333372D01*
G36*
X30132807Y-33451800D02*
X29918777Y-33451800D01*
X29810151Y-33289229D01*
X29350993Y-32982430D01*
X28946093Y-32901890D01*
X27163907Y-32901890D01*
X26759007Y-32982430D01*
X26299849Y-33289229D01*
X26013981Y-33717061D01*
X25840724Y-33398260D01*
X25417919Y-33056154D01*
X24896380Y-32901890D01*
X24142000Y-32901890D01*
X24142000Y-34163000D01*
X24162000Y-34163000D01*
X24162000Y-34417000D01*
X24142000Y-34417000D01*
X24142000Y-34437000D01*
X23888000Y-34437000D01*
X23888000Y-34417000D01*
X22037838Y-34417000D01*
X21915217Y-34631674D01*
X21929573Y-34703875D01*
X22189276Y-35181740D01*
X22612081Y-35523846D01*
X22684728Y-35545334D01*
X22259849Y-35829229D01*
X21953050Y-36288387D01*
X21845316Y-36830000D01*
X21953050Y-37371613D01*
X22259849Y-37830771D01*
X22662779Y-38100000D01*
X22259849Y-38369229D01*
X21953050Y-38828387D01*
X21845316Y-39370000D01*
X21953050Y-39911613D01*
X22259849Y-40370771D01*
X22662779Y-40640000D01*
X22259849Y-40909229D01*
X21953050Y-41368387D01*
X21845316Y-41910000D01*
X21953050Y-42451613D01*
X22259849Y-42910771D01*
X22662779Y-43180000D01*
X22259849Y-43449229D01*
X21953050Y-43908387D01*
X21845316Y-44450000D01*
X21953050Y-44991613D01*
X22259849Y-45450771D01*
X22662779Y-45720000D01*
X22259849Y-45989229D01*
X21953050Y-46448387D01*
X21845316Y-46990000D01*
X21953050Y-47531613D01*
X22259849Y-47990771D01*
X22662779Y-48260000D01*
X22259849Y-48529229D01*
X21953050Y-48988387D01*
X21845316Y-49530000D01*
X21953050Y-50071613D01*
X22259849Y-50530771D01*
X22662779Y-50800000D01*
X22460737Y-50935000D01*
X22060132Y-50935000D01*
X21455000Y-50329869D01*
X21455000Y-34125131D01*
X21631805Y-33948326D01*
X21915217Y-33948326D01*
X22037838Y-34163000D01*
X23888000Y-34163000D01*
X23888000Y-32901890D01*
X23133620Y-32901890D01*
X22612081Y-33056154D01*
X22189276Y-33398260D01*
X21929573Y-33876125D01*
X21915217Y-33948326D01*
X21631805Y-33948326D01*
X22695132Y-32885000D01*
X30699606Y-32885000D01*
X30132807Y-33451800D01*
X30132807Y-33451800D01*
G37*
X30132807Y-33451800D02*
X29918777Y-33451800D01*
X29810151Y-33289229D01*
X29350993Y-32982430D01*
X28946093Y-32901890D01*
X27163907Y-32901890D01*
X26759007Y-32982430D01*
X26299849Y-33289229D01*
X26013981Y-33717061D01*
X25840724Y-33398260D01*
X25417919Y-33056154D01*
X24896380Y-32901890D01*
X24142000Y-32901890D01*
X24142000Y-34163000D01*
X24162000Y-34163000D01*
X24162000Y-34417000D01*
X24142000Y-34417000D01*
X24142000Y-34437000D01*
X23888000Y-34437000D01*
X23888000Y-34417000D01*
X22037838Y-34417000D01*
X21915217Y-34631674D01*
X21929573Y-34703875D01*
X22189276Y-35181740D01*
X22612081Y-35523846D01*
X22684728Y-35545334D01*
X22259849Y-35829229D01*
X21953050Y-36288387D01*
X21845316Y-36830000D01*
X21953050Y-37371613D01*
X22259849Y-37830771D01*
X22662779Y-38100000D01*
X22259849Y-38369229D01*
X21953050Y-38828387D01*
X21845316Y-39370000D01*
X21953050Y-39911613D01*
X22259849Y-40370771D01*
X22662779Y-40640000D01*
X22259849Y-40909229D01*
X21953050Y-41368387D01*
X21845316Y-41910000D01*
X21953050Y-42451613D01*
X22259849Y-42910771D01*
X22662779Y-43180000D01*
X22259849Y-43449229D01*
X21953050Y-43908387D01*
X21845316Y-44450000D01*
X21953050Y-44991613D01*
X22259849Y-45450771D01*
X22662779Y-45720000D01*
X22259849Y-45989229D01*
X21953050Y-46448387D01*
X21845316Y-46990000D01*
X21953050Y-47531613D01*
X22259849Y-47990771D01*
X22662779Y-48260000D01*
X22259849Y-48529229D01*
X21953050Y-48988387D01*
X21845316Y-49530000D01*
X21953050Y-50071613D01*
X22259849Y-50530771D01*
X22662779Y-50800000D01*
X22460737Y-50935000D01*
X22060132Y-50935000D01*
X21455000Y-50329869D01*
X21455000Y-34125131D01*
X21631805Y-33948326D01*
X21915217Y-33948326D01*
X22037838Y-34163000D01*
X23888000Y-34163000D01*
X23888000Y-32901890D01*
X23133620Y-32901890D01*
X22612081Y-33056154D01*
X22189276Y-33398260D01*
X21929573Y-33876125D01*
X21915217Y-33948326D01*
X21631805Y-33948326D01*
X22695132Y-32885000D01*
X30699606Y-32885000D01*
X30132807Y-33451800D01*
G36*
X43922000Y-49403000D02*
X43942000Y-49403000D01*
X43942000Y-49657000D01*
X43922000Y-49657000D01*
X43922000Y-49677000D01*
X43668000Y-49677000D01*
X43668000Y-49657000D01*
X43648000Y-49657000D01*
X43648000Y-49403000D01*
X43668000Y-49403000D01*
X43668000Y-49383000D01*
X43922000Y-49383000D01*
X43922000Y-49403000D01*
X43922000Y-49403000D01*
G37*
X43922000Y-49403000D02*
X43942000Y-49403000D01*
X43942000Y-49657000D01*
X43922000Y-49657000D01*
X43922000Y-49677000D01*
X43668000Y-49677000D01*
X43668000Y-49657000D01*
X43648000Y-49657000D01*
X43648000Y-49403000D01*
X43668000Y-49403000D01*
X43668000Y-49383000D01*
X43922000Y-49383000D01*
X43922000Y-49403000D01*
G36*
X47244838Y-46990000D02*
X46878907Y-47234507D01*
X46665868Y-47553343D01*
X46582677Y-47608929D01*
X46582676Y-47608930D01*
X46512692Y-47655692D01*
X46465930Y-47725676D01*
X45180000Y-49011607D01*
X45180000Y-48778690D01*
X45087586Y-48555583D01*
X45158049Y-48541567D01*
X45435308Y-48356308D01*
X45482072Y-48286321D01*
X46965225Y-46803169D01*
X47244838Y-46990000D01*
X47244838Y-46990000D01*
G37*
X47244838Y-46990000D02*
X46878907Y-47234507D01*
X46665868Y-47553343D01*
X46582677Y-47608929D01*
X46582676Y-47608930D01*
X46512692Y-47655692D01*
X46465930Y-47725676D01*
X45180000Y-49011607D01*
X45180000Y-48778690D01*
X45087586Y-48555583D01*
X45158049Y-48541567D01*
X45435308Y-48356308D01*
X45482072Y-48286321D01*
X46965225Y-46803169D01*
X47244838Y-46990000D01*
G36*
X43922000Y-46228000D02*
X43942000Y-46228000D01*
X43942000Y-46482000D01*
X43922000Y-46482000D01*
X43922000Y-46502000D01*
X43668000Y-46502000D01*
X43668000Y-46482000D01*
X43648000Y-46482000D01*
X43648000Y-46228000D01*
X43668000Y-46228000D01*
X43668000Y-46208000D01*
X43922000Y-46208000D01*
X43922000Y-46228000D01*
X43922000Y-46228000D01*
G37*
X43922000Y-46228000D02*
X43942000Y-46228000D01*
X43942000Y-46482000D01*
X43922000Y-46482000D01*
X43922000Y-46502000D01*
X43668000Y-46502000D01*
X43668000Y-46482000D01*
X43648000Y-46482000D01*
X43648000Y-46228000D01*
X43668000Y-46228000D01*
X43668000Y-46208000D01*
X43922000Y-46208000D01*
X43922000Y-46228000D01*
G36*
X46878907Y-44205493D02*
X47244838Y-44450000D01*
X46878907Y-44694507D01*
X46749672Y-44887921D01*
X46535951Y-44930433D01*
X46511274Y-44946922D01*
X46328677Y-45068929D01*
X46328676Y-45068930D01*
X46258692Y-45115692D01*
X46211930Y-45185676D01*
X45169609Y-46227998D01*
X45021252Y-46227998D01*
X45180000Y-46069250D01*
X45180000Y-45603690D01*
X45136187Y-45497916D01*
X45158049Y-45493567D01*
X45435308Y-45308308D01*
X45482072Y-45238321D01*
X46702194Y-44018200D01*
X46753762Y-44018200D01*
X46878907Y-44205493D01*
X46878907Y-44205493D01*
G37*
X46878907Y-44205493D02*
X47244838Y-44450000D01*
X46878907Y-44694507D01*
X46749672Y-44887921D01*
X46535951Y-44930433D01*
X46511274Y-44946922D01*
X46328677Y-45068929D01*
X46328676Y-45068930D01*
X46258692Y-45115692D01*
X46211930Y-45185676D01*
X45169609Y-46227998D01*
X45021252Y-46227998D01*
X45180000Y-46069250D01*
X45180000Y-45603690D01*
X45136187Y-45497916D01*
X45158049Y-45493567D01*
X45435308Y-45308308D01*
X45482072Y-45238321D01*
X46702194Y-44018200D01*
X46753762Y-44018200D01*
X46878907Y-44205493D01*
G36*
X43922000Y-43053000D02*
X43942000Y-43053000D01*
X43942000Y-43307000D01*
X43922000Y-43307000D01*
X43922000Y-43327000D01*
X43668000Y-43327000D01*
X43668000Y-43307000D01*
X43648000Y-43307000D01*
X43648000Y-43053000D01*
X43668000Y-43053000D01*
X43668000Y-43033000D01*
X43922000Y-43033000D01*
X43922000Y-43053000D01*
X43922000Y-43053000D01*
G37*
X43922000Y-43053000D02*
X43942000Y-43053000D01*
X43942000Y-43307000D01*
X43922000Y-43307000D01*
X43922000Y-43327000D01*
X43668000Y-43327000D01*
X43668000Y-43307000D01*
X43648000Y-43307000D01*
X43648000Y-43053000D01*
X43668000Y-43053000D01*
X43668000Y-43033000D01*
X43922000Y-43033000D01*
X43922000Y-43053000D01*
G36*
X45031928Y-43317678D02*
X45021252Y-43307002D01*
X45042604Y-43307002D01*
X45031928Y-43317678D01*
X45031928Y-43317678D01*
G37*
X45031928Y-43317678D02*
X45021252Y-43307002D01*
X45042604Y-43307002D01*
X45031928Y-43317678D01*
G36*
X46878907Y-41665493D02*
X47244838Y-41910000D01*
X46878907Y-42154507D01*
X46753762Y-42341800D01*
X46437548Y-42341800D01*
X46354999Y-42325380D01*
X46272450Y-42341800D01*
X46272446Y-42341800D01*
X46027951Y-42390433D01*
X45970115Y-42429078D01*
X45820677Y-42528929D01*
X45820676Y-42528930D01*
X45750692Y-42575692D01*
X45703930Y-42645676D01*
X45180000Y-43169606D01*
X45180000Y-43052998D01*
X45021252Y-43052998D01*
X45180000Y-42894250D01*
X45180000Y-42466463D01*
X45285049Y-42445567D01*
X45562308Y-42260308D01*
X45609072Y-42190322D01*
X46321194Y-41478200D01*
X46753762Y-41478200D01*
X46878907Y-41665493D01*
X46878907Y-41665493D01*
G37*
X46878907Y-41665493D02*
X47244838Y-41910000D01*
X46878907Y-42154507D01*
X46753762Y-42341800D01*
X46437548Y-42341800D01*
X46354999Y-42325380D01*
X46272450Y-42341800D01*
X46272446Y-42341800D01*
X46027951Y-42390433D01*
X45970115Y-42429078D01*
X45820677Y-42528929D01*
X45820676Y-42528930D01*
X45750692Y-42575692D01*
X45703930Y-42645676D01*
X45180000Y-43169606D01*
X45180000Y-43052998D01*
X45021252Y-43052998D01*
X45180000Y-42894250D01*
X45180000Y-42466463D01*
X45285049Y-42445567D01*
X45562308Y-42260308D01*
X45609072Y-42190322D01*
X46321194Y-41478200D01*
X46753762Y-41478200D01*
X46878907Y-41665493D01*
G36*
X46878907Y-39125493D02*
X47244838Y-39370000D01*
X46878907Y-39614507D01*
X46753762Y-39801800D01*
X46056549Y-39801800D01*
X45974000Y-39785380D01*
X45891451Y-39801800D01*
X45891446Y-39801800D01*
X45646951Y-39850433D01*
X45646949Y-39850434D01*
X45646950Y-39850434D01*
X45439677Y-39988929D01*
X45439676Y-39988930D01*
X45369692Y-40035692D01*
X45322930Y-40105676D01*
X45158928Y-40269678D01*
X45021250Y-40132000D01*
X43922000Y-40132000D01*
X43922000Y-40152000D01*
X43668000Y-40152000D01*
X43668000Y-40132000D01*
X43648000Y-40132000D01*
X43648000Y-39878000D01*
X43668000Y-39878000D01*
X43668000Y-39858000D01*
X43922000Y-39858000D01*
X43922000Y-39878000D01*
X45021250Y-39878000D01*
X45180000Y-39719250D01*
X45180000Y-39253690D01*
X45154530Y-39192200D01*
X46018451Y-39192200D01*
X46101000Y-39208620D01*
X46183549Y-39192200D01*
X46183554Y-39192200D01*
X46428049Y-39143567D01*
X46705308Y-38958308D01*
X46718744Y-38938200D01*
X46753762Y-38938200D01*
X46878907Y-39125493D01*
X46878907Y-39125493D01*
G37*
X46878907Y-39125493D02*
X47244838Y-39370000D01*
X46878907Y-39614507D01*
X46753762Y-39801800D01*
X46056549Y-39801800D01*
X45974000Y-39785380D01*
X45891451Y-39801800D01*
X45891446Y-39801800D01*
X45646951Y-39850433D01*
X45646949Y-39850434D01*
X45646950Y-39850434D01*
X45439677Y-39988929D01*
X45439676Y-39988930D01*
X45369692Y-40035692D01*
X45322930Y-40105676D01*
X45158928Y-40269678D01*
X45021250Y-40132000D01*
X43922000Y-40132000D01*
X43922000Y-40152000D01*
X43668000Y-40152000D01*
X43668000Y-40132000D01*
X43648000Y-40132000D01*
X43648000Y-39878000D01*
X43668000Y-39878000D01*
X43668000Y-39858000D01*
X43922000Y-39858000D01*
X43922000Y-39878000D01*
X45021250Y-39878000D01*
X45180000Y-39719250D01*
X45180000Y-39253690D01*
X45154530Y-39192200D01*
X46018451Y-39192200D01*
X46101000Y-39208620D01*
X46183549Y-39192200D01*
X46183554Y-39192200D01*
X46428049Y-39143567D01*
X46705308Y-38958308D01*
X46718744Y-38938200D01*
X46753762Y-38938200D01*
X46878907Y-39125493D01*
G36*
X45242692Y-36164308D02*
X45519951Y-36349567D01*
X45764446Y-36398200D01*
X45764450Y-36398200D01*
X45846999Y-36414620D01*
X45929548Y-36398200D01*
X46753762Y-36398200D01*
X46878907Y-36585493D01*
X47244838Y-36830000D01*
X46878907Y-37074507D01*
X46753762Y-37261800D01*
X46437548Y-37261800D01*
X46354999Y-37245380D01*
X46272450Y-37261800D01*
X46272446Y-37261800D01*
X46027951Y-37310433D01*
X45750692Y-37495692D01*
X45737256Y-37515800D01*
X45180000Y-37515800D01*
X45180000Y-37115750D01*
X45021250Y-36957000D01*
X43922000Y-36957000D01*
X43922000Y-36977000D01*
X43668000Y-36977000D01*
X43668000Y-36957000D01*
X43648000Y-36957000D01*
X43648000Y-36703000D01*
X43668000Y-36703000D01*
X43668000Y-36683000D01*
X43922000Y-36683000D01*
X43922000Y-36703000D01*
X45021250Y-36703000D01*
X45180000Y-36544250D01*
X45180000Y-36144200D01*
X45229256Y-36144200D01*
X45242692Y-36164308D01*
X45242692Y-36164308D01*
G37*
X45242692Y-36164308D02*
X45519951Y-36349567D01*
X45764446Y-36398200D01*
X45764450Y-36398200D01*
X45846999Y-36414620D01*
X45929548Y-36398200D01*
X46753762Y-36398200D01*
X46878907Y-36585493D01*
X47244838Y-36830000D01*
X46878907Y-37074507D01*
X46753762Y-37261800D01*
X46437548Y-37261800D01*
X46354999Y-37245380D01*
X46272450Y-37261800D01*
X46272446Y-37261800D01*
X46027951Y-37310433D01*
X45750692Y-37495692D01*
X45737256Y-37515800D01*
X45180000Y-37515800D01*
X45180000Y-37115750D01*
X45021250Y-36957000D01*
X43922000Y-36957000D01*
X43922000Y-36977000D01*
X43668000Y-36977000D01*
X43668000Y-36957000D01*
X43648000Y-36957000D01*
X43648000Y-36703000D01*
X43668000Y-36703000D01*
X43668000Y-36683000D01*
X43922000Y-36683000D01*
X43922000Y-36703000D01*
X45021250Y-36703000D01*
X45180000Y-36544250D01*
X45180000Y-36144200D01*
X45229256Y-36144200D01*
X45242692Y-36164308D01*
G36*
X45449929Y-33554323D02*
X45496692Y-33624308D01*
X45566676Y-33671070D01*
X45566677Y-33671071D01*
X45655007Y-33730091D01*
X45773951Y-33809567D01*
X46018446Y-33858200D01*
X46018451Y-33858200D01*
X46101000Y-33874620D01*
X46183549Y-33858200D01*
X46753762Y-33858200D01*
X46878907Y-34045493D01*
X47244838Y-34290000D01*
X46878907Y-34534507D01*
X46753762Y-34721800D01*
X46210744Y-34721800D01*
X46197308Y-34701692D01*
X45920049Y-34516433D01*
X45675554Y-34467800D01*
X45675549Y-34467800D01*
X45593000Y-34451380D01*
X45510451Y-34467800D01*
X45154530Y-34467800D01*
X45180000Y-34406310D01*
X45180000Y-33940750D01*
X45021250Y-33782000D01*
X43922000Y-33782000D01*
X43922000Y-33802000D01*
X43668000Y-33802000D01*
X43668000Y-33782000D01*
X43648000Y-33782000D01*
X43648000Y-33528000D01*
X43668000Y-33528000D01*
X43668000Y-33508000D01*
X43922000Y-33508000D01*
X43922000Y-33528000D01*
X45021250Y-33528000D01*
X45180000Y-33369250D01*
X45180000Y-33284394D01*
X45449929Y-33554323D01*
X45449929Y-33554323D01*
G37*
X45449929Y-33554323D02*
X45496692Y-33624308D01*
X45566676Y-33671070D01*
X45566677Y-33671071D01*
X45655007Y-33730091D01*
X45773951Y-33809567D01*
X46018446Y-33858200D01*
X46018451Y-33858200D01*
X46101000Y-33874620D01*
X46183549Y-33858200D01*
X46753762Y-33858200D01*
X46878907Y-34045493D01*
X47244838Y-34290000D01*
X46878907Y-34534507D01*
X46753762Y-34721800D01*
X46210744Y-34721800D01*
X46197308Y-34701692D01*
X45920049Y-34516433D01*
X45675554Y-34467800D01*
X45675549Y-34467800D01*
X45593000Y-34451380D01*
X45510451Y-34467800D01*
X45154530Y-34467800D01*
X45180000Y-34406310D01*
X45180000Y-33940750D01*
X45021250Y-33782000D01*
X43922000Y-33782000D01*
X43922000Y-33802000D01*
X43668000Y-33802000D01*
X43668000Y-33782000D01*
X43648000Y-33782000D01*
X43648000Y-33528000D01*
X43668000Y-33528000D01*
X43668000Y-33508000D01*
X43922000Y-33508000D01*
X43922000Y-33528000D01*
X45021250Y-33528000D01*
X45180000Y-33369250D01*
X45180000Y-33284394D01*
X45449929Y-33554323D01*
G36*
X46469560Y-31267400D02*
X46518843Y-31515165D01*
X46659191Y-31725209D01*
X46869235Y-31865557D01*
X47025404Y-31896621D01*
X46878907Y-31994507D01*
X46753762Y-32181800D01*
X46448194Y-32181800D01*
X45990072Y-31723678D01*
X45943308Y-31653692D01*
X45666049Y-31468433D01*
X45421554Y-31419800D01*
X45421549Y-31419800D01*
X45339000Y-31403380D01*
X45256451Y-31419800D01*
X45101925Y-31419800D01*
X45180000Y-31231310D01*
X45180000Y-30765750D01*
X45021250Y-30607000D01*
X43922000Y-30607000D01*
X43922000Y-30627000D01*
X43668000Y-30627000D01*
X43668000Y-30607000D01*
X43648000Y-30607000D01*
X43648000Y-30353000D01*
X43668000Y-30353000D01*
X43668000Y-30333000D01*
X43922000Y-30333000D01*
X43922000Y-30353000D01*
X45021250Y-30353000D01*
X45180000Y-30194250D01*
X45180000Y-30048200D01*
X46469560Y-30048200D01*
X46469560Y-31267400D01*
X46469560Y-31267400D01*
G37*
X46469560Y-31267400D02*
X46518843Y-31515165D01*
X46659191Y-31725209D01*
X46869235Y-31865557D01*
X47025404Y-31896621D01*
X46878907Y-31994507D01*
X46753762Y-32181800D01*
X46448194Y-32181800D01*
X45990072Y-31723678D01*
X45943308Y-31653692D01*
X45666049Y-31468433D01*
X45421554Y-31419800D01*
X45421549Y-31419800D01*
X45339000Y-31403380D01*
X45256451Y-31419800D01*
X45101925Y-31419800D01*
X45180000Y-31231310D01*
X45180000Y-30765750D01*
X45021250Y-30607000D01*
X43922000Y-30607000D01*
X43922000Y-30627000D01*
X43668000Y-30627000D01*
X43668000Y-30607000D01*
X43648000Y-30607000D01*
X43648000Y-30353000D01*
X43668000Y-30353000D01*
X43668000Y-30333000D01*
X43922000Y-30333000D01*
X43922000Y-30353000D01*
X45021250Y-30353000D01*
X45180000Y-30194250D01*
X45180000Y-30048200D01*
X46469560Y-30048200D01*
X46469560Y-31267400D01*
G04 #@! TD*
M02*
