M48
;DRILL file {KiCad 5.0.2-bee76a0~70~ubuntu18.04.1} date So 20 Jan 2019 13:29:12 CET
;FORMAT={-:-/ absolute / metric / decimal}
FMAT,2
METRIC,TZ
T1C0.600
T2C0.800
T3C0.813
T4C0.998
T5C1.000
T6C1.700
T7C3.048
%
G90
G05
T1
X41.275Y-180.34
X46.355Y-107.95
X48.26Y-109.22
X50.165Y-110.49
X50.8Y-190.5
X51.435Y-175.26
X52.07Y-111.76
X76.2Y-195.58
X77.47Y-193.675
X87.63Y-85.725
X90.805Y-121.92
X97.79Y-75.565
X100.965Y-75.565
X127.635Y-180.34
X175.895Y-168.91
X175.895Y-173.355
X179.07Y-171.45
X180.975Y-170.18
T2
X200.035Y-229.87
X203.835Y-229.87
X99.695Y-123.19
X99.695Y-128.19
X140.335Y-175.895
X140.335Y-180.895
X191.85Y-221.615
X196.85Y-221.615
X43.18Y-213.995
X43.18Y-218.995
X63.58Y-111.125
X68.58Y-111.125
X194.32Y-237.49
X198.12Y-237.49
X191.85Y-224.79
X196.85Y-224.79
X193.675Y-228.6
X193.675Y-231.1
X171.45Y-225.465
X171.45Y-227.965
T3
X49.53Y-198.12
X49.53Y-205.74
X52.07Y-198.12
X52.07Y-205.74
X54.61Y-198.12
X54.61Y-205.74
X57.15Y-198.12
X57.15Y-205.74
X59.69Y-198.12
X59.69Y-205.74
X62.23Y-198.12
X62.23Y-205.74
X64.77Y-198.12
X64.77Y-205.74
X67.31Y-198.12
X67.31Y-205.74
X69.85Y-198.12
X69.85Y-205.74
X72.39Y-198.12
X72.39Y-205.74
X71.755Y-95.885
X71.755Y-103.505
X74.295Y-95.885
X74.295Y-103.505
X76.835Y-95.885
X76.835Y-103.505
X79.375Y-95.885
X79.375Y-103.505
X81.915Y-95.885
X81.915Y-103.505
X84.455Y-95.885
X84.455Y-103.505
X86.995Y-95.885
X86.995Y-103.505
X89.535Y-95.885
X89.535Y-103.505
X92.075Y-95.885
X92.075Y-103.505
X94.615Y-95.885
X94.615Y-103.505
X49.53Y-156.845
X49.53Y-164.465
X52.07Y-156.845
X52.07Y-164.465
X54.61Y-156.845
X54.61Y-164.465
X57.15Y-156.845
X57.15Y-164.465
X59.69Y-156.845
X59.69Y-164.465
X62.23Y-156.845
X62.23Y-164.465
X64.77Y-156.845
X64.77Y-164.465
X67.31Y-156.845
X67.31Y-164.465
X69.85Y-156.845
X69.85Y-164.465
X72.39Y-156.845
X72.39Y-164.465
X71.755Y-111.125
X71.755Y-118.745
X74.295Y-111.125
X74.295Y-118.745
X76.835Y-111.125
X76.835Y-118.745
X79.375Y-111.125
X79.375Y-118.745
X81.915Y-111.125
X81.915Y-118.745
X84.455Y-111.125
X84.455Y-118.745
X86.995Y-111.125
X86.995Y-118.745
X89.535Y-111.125
X89.535Y-118.745
X92.075Y-111.125
X92.075Y-118.745
X94.615Y-111.125
X94.615Y-118.745
X81.28Y-156.21
X81.28Y-163.83
X83.82Y-156.21
X83.82Y-163.83
X86.36Y-156.21
X86.36Y-163.83
X88.9Y-156.21
X88.9Y-163.83
X91.44Y-156.21
X91.44Y-163.83
X93.98Y-156.21
X93.98Y-163.83
X96.52Y-156.21
X96.52Y-163.83
X99.06Y-156.21
X99.06Y-163.83
X101.6Y-156.21
X101.6Y-163.83
X104.14Y-156.21
X104.14Y-163.83
X74.295Y-47.625
X74.295Y-55.245
X76.835Y-47.625
X76.835Y-55.245
X79.375Y-47.625
X79.375Y-55.245
X81.915Y-47.625
X81.915Y-55.245
X84.455Y-47.625
X84.455Y-55.245
X86.995Y-47.625
X86.995Y-55.245
X89.535Y-47.625
X89.535Y-55.245
X92.075Y-47.625
X92.075Y-55.245
X94.615Y-47.625
X94.615Y-55.245
X97.155Y-47.625
X97.155Y-55.245
X60.325Y-76.2
X60.325Y-83.82
X62.865Y-76.2
X62.865Y-83.82
X65.405Y-76.2
X65.405Y-83.82
X67.945Y-76.2
X67.945Y-83.82
X70.485Y-76.2
X70.485Y-83.82
X73.025Y-76.2
X73.025Y-83.82
X75.565Y-76.2
X75.565Y-83.82
X78.105Y-76.2
X78.105Y-83.82
X80.645Y-76.2
X80.645Y-83.82
X83.185Y-76.2
X83.185Y-83.82
X146.05Y-114.3
X146.05Y-116.84
X146.05Y-119.38
X146.05Y-121.92
X146.05Y-124.46
X146.05Y-127.
X146.05Y-129.54
X146.05Y-132.08
X146.05Y-134.62
X153.67Y-114.3
X153.67Y-116.84
X153.67Y-119.38
X153.67Y-121.92
X153.67Y-124.46
X153.67Y-127.
X153.67Y-129.54
X153.67Y-132.08
X153.67Y-134.62
X49.53Y-217.805
X49.53Y-225.425
X52.07Y-217.805
X52.07Y-225.425
X54.61Y-217.805
X54.61Y-225.425
X57.15Y-217.805
X57.15Y-225.425
X59.69Y-217.805
X59.69Y-225.425
X62.23Y-217.805
X62.23Y-225.425
X64.77Y-217.805
X64.77Y-225.425
X67.31Y-217.805
X67.31Y-225.425
X69.85Y-217.805
X69.85Y-225.425
X72.39Y-217.805
X72.39Y-225.425
X36.83Y-61.595
X36.83Y-69.215
X39.37Y-61.595
X39.37Y-69.215
X41.91Y-61.595
X41.91Y-69.215
X44.45Y-61.595
X44.45Y-69.215
X46.99Y-61.595
X46.99Y-69.215
X49.53Y-61.595
X49.53Y-69.215
X52.07Y-61.595
X52.07Y-69.215
X54.61Y-61.595
X54.61Y-69.215
X57.15Y-61.595
X57.15Y-69.215
X171.45Y-219.075
X171.45Y-221.615
X83.82Y-179.705
X83.82Y-187.325
X86.36Y-179.705
X86.36Y-187.325
X88.9Y-179.705
X88.9Y-187.325
X91.44Y-179.705
X91.44Y-187.325
X93.98Y-179.705
X93.98Y-187.325
X96.52Y-179.705
X96.52Y-187.325
X99.06Y-179.705
X99.06Y-187.325
X101.6Y-179.705
X101.6Y-187.325
X104.14Y-179.705
X104.14Y-187.325
X106.68Y-179.705
X106.68Y-187.325
X160.655Y-38.735
X160.655Y-41.275
X160.655Y-43.815
X160.655Y-46.355
X160.655Y-48.895
X160.655Y-51.435
X160.655Y-53.975
X160.655Y-56.515
X160.655Y-59.055
X168.275Y-38.735
X168.275Y-41.275
X168.275Y-43.815
X168.275Y-46.355
X168.275Y-48.895
X168.275Y-51.435
X168.275Y-53.975
X168.275Y-56.515
X168.275Y-59.055
X49.53Y-179.705
X49.53Y-187.325
X52.07Y-179.705
X52.07Y-187.325
X54.61Y-179.705
X54.61Y-187.325
X57.15Y-179.705
X57.15Y-187.325
X59.69Y-179.705
X59.69Y-187.325
X62.23Y-179.705
X62.23Y-187.325
X64.77Y-179.705
X64.77Y-187.325
X67.31Y-179.705
X67.31Y-187.325
X69.85Y-179.705
X69.85Y-187.325
X72.39Y-179.705
X72.39Y-187.325
X145.415Y-76.835
X145.415Y-79.375
X145.415Y-81.915
X145.415Y-84.455
X145.415Y-86.995
X145.415Y-89.535
X145.415Y-92.075
X145.415Y-94.615
X145.415Y-97.155
X153.035Y-76.835
X153.035Y-79.375
X153.035Y-81.915
X153.035Y-84.455
X153.035Y-86.995
X153.035Y-89.535
X153.035Y-92.075
X153.035Y-94.615
X153.035Y-97.155
X49.53Y-137.795
X49.53Y-145.415
X52.07Y-137.795
X52.07Y-145.415
X54.61Y-137.795
X54.61Y-145.415
X57.15Y-137.795
X57.15Y-145.415
X59.69Y-137.795
X59.69Y-145.415
X62.23Y-137.795
X62.23Y-145.415
X64.77Y-137.795
X64.77Y-145.415
X67.31Y-137.795
X67.31Y-145.415
X69.85Y-137.795
X69.85Y-145.415
X72.39Y-137.795
X72.39Y-145.415
X78.105Y-61.595
X78.105Y-69.215
X80.645Y-61.595
X80.645Y-69.215
X83.185Y-61.595
X83.185Y-69.215
X85.725Y-61.595
X85.725Y-69.215
X88.265Y-61.595
X88.265Y-69.215
X90.805Y-61.595
X90.805Y-69.215
X93.345Y-61.595
X93.345Y-69.215
X95.885Y-61.595
X95.885Y-69.215
X98.425Y-61.595
X98.425Y-69.215
X100.965Y-61.595
X100.965Y-69.215
X113.03Y-218.44
X113.03Y-226.06
X115.57Y-218.44
X115.57Y-226.06
X118.11Y-218.44
X118.11Y-226.06
X120.65Y-218.44
X120.65Y-226.06
X123.19Y-218.44
X123.19Y-226.06
X125.73Y-218.44
X125.73Y-226.06
X128.27Y-218.44
X128.27Y-226.06
X130.81Y-218.44
X130.81Y-226.06
X133.35Y-218.44
X133.35Y-226.06
X135.89Y-218.44
X135.89Y-226.06
T4
X170.815Y-202.565
X173.355Y-202.565
X175.895Y-202.565
X178.435Y-202.565
X188.595Y-78.867
X191.135Y-78.867
X193.675Y-78.867
X172.339Y-154.305
X174.879Y-154.305
X177.419Y-154.305
X179.959Y-154.305
X182.499Y-154.305
X185.039Y-154.305
X187.579Y-154.305
X188.595Y-109.982
X191.135Y-109.982
X193.675Y-109.982
X173.99Y-141.986
X176.53Y-141.986
X179.07Y-141.986
X145.415Y-202.565
X147.955Y-202.565
X150.495Y-202.565
X153.035Y-202.565
X155.575Y-202.565
X158.115Y-202.565
X160.655Y-202.565
X163.195Y-202.565
X147.955Y-174.625
X147.955Y-177.165
X147.955Y-179.705
X150.495Y-174.625
X150.495Y-177.165
X150.495Y-179.705
X188.595Y-96.52
X191.135Y-96.52
X193.675Y-96.52
X173.99Y-101.6
X176.53Y-101.6
X179.07Y-101.6
X188.595Y-129.413
X191.135Y-129.413
X193.675Y-129.413
X173.99Y-125.984
X176.53Y-125.984
X179.07Y-125.984
X173.99Y-84.455
X176.53Y-84.455
X179.07Y-84.455
X188.595Y-119.38
X191.135Y-119.38
X193.675Y-119.38
X198.755Y-27.051
X201.295Y-27.051
X203.835Y-27.051
X184.785Y-59.055
X187.325Y-59.055
X189.865Y-59.055
X173.99Y-134.112
X176.53Y-134.112
X179.07Y-134.112
X21.59Y-151.13
X21.59Y-153.67
X21.59Y-156.21
X21.59Y-158.75
X21.59Y-161.29
X21.59Y-163.83
X21.59Y-166.37
X21.59Y-168.91
X21.59Y-171.45
X21.59Y-173.99
X21.59Y-176.53
X21.59Y-179.07
X21.59Y-181.61
X24.13Y-151.13
X24.13Y-153.67
X24.13Y-156.21
X24.13Y-158.75
X24.13Y-161.29
X24.13Y-163.83
X24.13Y-166.37
X24.13Y-168.91
X24.13Y-171.45
X24.13Y-173.99
X24.13Y-176.53
X24.13Y-179.07
X24.13Y-181.61
X117.475Y-154.305
X117.475Y-156.845
X117.475Y-159.385
X117.475Y-161.925
X117.475Y-164.465
X117.475Y-167.005
X117.475Y-169.545
X117.475Y-172.085
X117.475Y-174.625
X117.475Y-177.165
X117.475Y-179.705
X117.475Y-182.245
X117.475Y-184.785
X117.475Y-187.325
X117.475Y-189.865
X117.475Y-192.405
X117.475Y-194.945
X117.475Y-197.485
X120.015Y-154.305
X120.015Y-156.845
X120.015Y-159.385
X120.015Y-161.925
X120.015Y-164.465
X120.015Y-167.005
X120.015Y-169.545
X120.015Y-172.085
X120.015Y-174.625
X120.015Y-177.165
X120.015Y-179.705
X120.015Y-182.245
X120.015Y-184.785
X120.015Y-187.325
X120.015Y-189.865
X120.015Y-192.405
X120.015Y-194.945
X120.015Y-197.485
X184.785Y-40.005
X187.325Y-40.005
X189.865Y-40.005
X188.595Y-87.503
X191.135Y-87.503
X193.675Y-87.503
X188.595Y-141.986
X191.135Y-141.986
X193.675Y-141.986
X127.635Y-202.565
X130.175Y-202.565
X188.595Y-67.818
X191.135Y-67.818
X193.675Y-67.818
X37.465Y-179.07
X37.465Y-181.61
X37.465Y-184.15
X37.465Y-186.69
X37.465Y-189.23
X37.465Y-191.77
X37.465Y-194.31
X37.465Y-196.85
X37.465Y-199.39
X173.99Y-75.565
X176.53Y-75.565
X179.07Y-75.565
X155.575Y-154.305
X158.115Y-154.305
X160.655Y-154.305
X163.195Y-154.305
X165.735Y-154.305
X168.275Y-154.305
X184.785Y-31.877
X187.325Y-31.877
X189.865Y-31.877
X82.55Y-145.415
X82.55Y-147.955
X85.09Y-145.415
X85.09Y-145.415
X85.09Y-147.955
X85.09Y-147.955
X87.63Y-145.415
X87.63Y-147.955
X90.17Y-145.415
X90.17Y-147.955
X92.71Y-145.415
X92.71Y-147.955
X95.25Y-145.415
X95.25Y-147.955
X97.79Y-145.415
X97.79Y-147.955
X100.33Y-145.415
X100.33Y-147.955
X198.755Y-55.245
X201.295Y-55.245
X203.835Y-55.245
X29.845Y-207.01
X29.845Y-209.55
X29.845Y-212.09
X29.845Y-214.63
X29.845Y-217.17
X29.845Y-219.71
X29.845Y-222.25
X29.845Y-224.79
X29.845Y-227.33
X198.755Y-46.609
X201.295Y-46.609
X203.835Y-46.609
X184.785Y-51.435
X187.325Y-51.435
X189.865Y-51.435
X173.99Y-116.84
X176.53Y-116.84
X179.07Y-116.84
X110.49Y-144.78
X113.03Y-144.78
X115.57Y-144.78
X118.11Y-144.78
X120.65Y-144.78
X123.19Y-144.78
X198.755Y-35.687
X201.295Y-35.687
X203.835Y-35.687
X37.465Y-155.575
X37.465Y-158.115
X37.465Y-160.655
X37.465Y-163.195
X37.465Y-165.735
X37.465Y-168.275
X37.465Y-170.815
X37.465Y-173.355
X37.465Y-175.895
X142.875Y-210.185
X145.415Y-210.185
X147.955Y-210.185
X150.495Y-210.185
X153.035Y-210.185
X155.575Y-210.185
X158.115Y-210.185
X160.655Y-210.185
X163.195Y-210.185
X37.465Y-132.08
X37.465Y-134.62
X37.465Y-137.16
X37.465Y-139.7
X37.465Y-142.24
X37.465Y-144.78
X37.465Y-147.32
X37.465Y-149.86
X37.465Y-152.4
X173.99Y-93.98
X176.53Y-93.98
X179.07Y-93.98
T5
X100.965Y-236.855
X103.505Y-236.855
X106.045Y-236.855
X108.585Y-236.855
X111.125Y-236.855
X113.665Y-236.855
X116.205Y-236.855
X118.745Y-236.855
X121.285Y-236.855
X146.685Y-227.33
X149.225Y-227.33
X151.765Y-227.33
X154.305Y-227.33
X156.845Y-227.33
X159.385Y-227.33
X161.925Y-227.33
X164.465Y-227.33
X167.005Y-227.33
X208.28Y-221.615
X208.28Y-224.155
X208.28Y-226.695
X208.28Y-229.235
X208.28Y-231.775
X208.28Y-234.315
X208.28Y-236.855
X208.28Y-239.395
X213.36Y-222.885
X213.36Y-225.425
X213.36Y-227.965
X213.36Y-230.505
X213.36Y-233.045
X213.36Y-235.585
X213.36Y-238.125
T6
X21.59Y-29.261
X21.59Y-33.223
X21.59Y-37.186
X21.59Y-41.148
X21.59Y-45.11
X21.59Y-49.073
X21.59Y-53.035
X21.59Y-56.998
X21.59Y-60.96
X29.896Y-19.685
X33.858Y-19.685
X37.821Y-19.685
X41.783Y-19.685
X45.745Y-19.685
X49.708Y-19.685
X53.67Y-19.685
X57.633Y-19.685
X61.595Y-19.685
X133.985Y-247.015
X137.947Y-247.015
X141.91Y-247.015
X145.872Y-247.015
X149.835Y-247.015
X153.797Y-247.015
X157.759Y-247.015
X161.722Y-247.015
X165.684Y-247.015
X212.725Y-113.03
X212.725Y-116.992
X212.725Y-120.955
X212.725Y-124.917
X212.725Y-128.88
X212.725Y-132.842
X212.725Y-136.804
X212.725Y-140.767
X212.725Y-144.729
X31.75Y-236.855
X35.712Y-236.855
X39.675Y-236.855
X43.637Y-236.855
X47.6Y-236.855
X51.562Y-236.855
X55.524Y-236.855
X59.487Y-236.855
X63.449Y-236.855
X177.165Y-211.455
X181.127Y-211.455
X185.09Y-211.455
X189.052Y-211.455
X193.015Y-211.455
X196.977Y-211.455
X200.939Y-211.455
X204.902Y-211.455
X208.864Y-211.455
X151.816Y-19.685
X155.778Y-19.685
X159.741Y-19.685
X163.703Y-19.685
X167.665Y-19.685
X171.628Y-19.685
X175.59Y-19.685
X179.553Y-19.685
X183.515Y-19.685
X21.59Y-110.541
X21.59Y-114.503
X21.59Y-118.466
X21.59Y-122.428
X21.59Y-126.39
X21.59Y-130.353
X21.59Y-134.315
X21.59Y-138.278
X21.59Y-142.24
X195.58Y-247.015
X199.542Y-247.015
X203.505Y-247.015
X207.467Y-247.015
X70.536Y-19.685
X74.498Y-19.685
X78.461Y-19.685
X82.423Y-19.685
X86.385Y-19.685
X90.348Y-19.685
X94.31Y-19.685
X98.273Y-19.685
X102.235Y-19.685
X133.985Y-236.855
X137.947Y-236.855
X141.91Y-236.855
X145.872Y-236.855
X149.835Y-236.855
X153.797Y-236.855
X157.759Y-236.855
X161.722Y-236.855
X165.684Y-236.855
X212.725Y-27.94
X212.725Y-31.902
X212.725Y-35.865
X212.725Y-39.827
X212.725Y-43.79
X212.725Y-47.752
X212.725Y-51.714
X212.725Y-55.677
X212.725Y-59.639
X201.93Y-113.03
X201.93Y-116.992
X201.93Y-120.955
X201.93Y-124.917
X201.93Y-128.88
X201.93Y-132.842
X201.93Y-136.804
X201.93Y-140.767
X201.93Y-144.729
X174.625Y-247.015
X178.587Y-247.015
X182.55Y-247.015
X186.512Y-247.015
X21.59Y-69.901
X21.59Y-73.863
X21.59Y-77.826
X21.59Y-81.788
X21.59Y-85.75
X21.59Y-89.713
X21.59Y-93.675
X21.59Y-97.638
X21.59Y-101.6
X31.75Y-247.015
X35.712Y-247.015
X39.675Y-247.015
X43.637Y-247.015
X47.6Y-247.015
X51.562Y-247.015
X55.524Y-247.015
X59.487Y-247.015
X63.449Y-247.015
X29.896Y-29.845
X33.858Y-29.845
X37.821Y-29.845
X41.783Y-29.845
X45.745Y-29.845
X49.708Y-29.845
X53.67Y-29.845
X57.633Y-29.845
X61.595Y-29.845
X93.345Y-247.015
X97.307Y-247.015
X101.27Y-247.015
X105.232Y-247.015
X109.195Y-247.015
X113.157Y-247.015
X117.119Y-247.015
X121.082Y-247.015
X125.044Y-247.015
X21.59Y-201.981
X21.59Y-205.943
X21.59Y-209.906
X21.59Y-213.868
X21.59Y-217.83
X21.59Y-221.793
X21.59Y-225.755
X21.59Y-229.718
X21.59Y-233.68
X111.176Y-19.685
X115.138Y-19.685
X119.101Y-19.685
X123.063Y-19.685
X127.025Y-19.685
X130.988Y-19.685
X134.95Y-19.685
X138.913Y-19.685
X142.875Y-19.685
X212.725Y-70.485
X212.725Y-74.447
X212.725Y-78.41
X212.725Y-82.372
X212.725Y-86.335
X212.725Y-90.297
X212.725Y-94.259
X212.725Y-98.222
X212.725Y-102.184
X201.93Y-70.485
X201.93Y-74.447
X201.93Y-78.41
X201.93Y-82.372
X201.93Y-86.335
X201.93Y-90.297
X201.93Y-94.259
X201.93Y-98.222
X201.93Y-102.184
X72.39Y-247.015
X76.2Y-247.015
X80.01Y-247.015
X83.82Y-247.015
X70.536Y-29.845
X74.498Y-29.845
X78.461Y-29.845
X82.423Y-29.845
X86.385Y-29.845
X90.348Y-29.845
X94.31Y-29.845
X98.273Y-29.845
X102.235Y-29.845
T7
X213.995Y-247.65
X213.995Y-19.05
X20.32Y-19.05
X20.32Y-247.65
T0
M30
