<?xml version="1.0" standalone="no"?>
 <!DOCTYPE svg PUBLIC "-//W3C//DTD SVG 1.1//EN" 
 "http://www.w3.org/Graphics/SVG/1.1/DTD/svg11.dtd"> 
<svg xmlns="http://www.w3.org/2000/svg" version="1.1" 
    width="29.7002cm" height="21.0007cm" viewBox="0 0 116930 82680 ">
<title>SVG Picture created as APC_LED_exp-B.Cu.svg date 2019/03/09 18:29:39 </title>
  <desc>Picture generated by PCBNEW </desc>
<g style="fill:#000000; fill-opacity:1;stroke:#000000; stroke-opacity:1;
stroke-linecap:round; stroke-linejoin:round; "
 transform="translate(0 0) scale(1 1)">
</g>
<g style="fill:#000000; fill-opacity:0.0; 
stroke:#000000; stroke-width:-0.000393701; stroke-opacity:1; 
stroke-linecap:round; stroke-linejoin:round;">
</g>
<g style="fill:#000000; fill-opacity:0.0; 
stroke:#000000; stroke-width:118.11; stroke-opacity:1; 
stroke-linecap:round; stroke-linejoin:round;">
<path d="M41331 36517
L41668 36517
" />
<path d="M41500 36517
L41500 35926
L41556 36010
L41612 36067
L41668 36095
" />
<path d="M63168 28348
L62886 28348
" />
<path d="M63224 28517
L63027 27926
L62830 28517
" />
<path d="M62633 28517
L62633 27926
L62408 27926
L62352 27954
L62324 27982
L62296 28039
L62296 28123
L62324 28179
L62352 28207
L62408 28235
L62633 28235
" />
<path d="M61705 28460
L61733 28489
L61818 28517
L61874 28517
L61958 28489
L62015 28432
L62043 28376
L62071 28264
L62071 28179
L62043 28067
L62015 28010
L61958 27954
L61874 27926
L61818 27926
L61733 27954
L61705 27982
" />
<path d="M61593 28573
L61143 28573
" />
<path d="M60721 28517
L61002 28517
L61002 27926
" />
<path d="M60524 28207
L60327 28207
" />
<path d="M60243 28517
L60524 28517
L60524 27926
L60243 27926
" />
<path d="M59990 28517
L59990 27926
L59849 27926
L59765 27954
L59709 28010
L59681 28067
L59652 28179
L59652 28264
L59681 28376
L59709 28432
L59765 28489
L59849 28517
L59990 28517
" />
<path d="M59540 28573
L59090 28573
" />
<path d="M58724 28489
L58781 28517
L58893 28517
L58949 28489
L58978 28432
L58978 28207
L58949 28151
L58893 28123
L58781 28123
L58724 28151
L58696 28207
L58696 28264
L58978 28320
" />
<path d="M58500 28517
L58190 28123
" />
<path d="M58500 28123
L58190 28517
" />
<path d="M57965 28123
L57965 28714
" />
<path d="M57965 28151
L57909 28123
L57796 28123
L57740 28151
L57712 28179
L57684 28235
L57684 28404
L57712 28460
L57740 28489
L57796 28517
L57909 28517
L57965 28489
" />
<path d="M56643 28517
L56840 28235
" />
<path d="M56981 28517
L56981 27926
L56756 27926
L56700 27954
L56672 27982
L56643 28039
L56643 28123
L56672 28179
L56700 28207
L56756 28235
L56981 28235
" />
<path d="M56165 28489
L56222 28517
L56334 28517
L56390 28489
L56419 28432
L56419 28207
L56390 28151
L56334 28123
L56222 28123
L56165 28151
L56137 28207
L56137 28264
L56419 28320
" />
<path d="M55940 28123
L55800 28517
L55659 28123
" />
<path d="M54675 28517
L55012 28517
" />
<path d="M54844 28517
L54844 27926
L54900 28010
L54956 28067
L55012 28095
" />
<path d="M54422 28460
L54394 28489
L54422 28517
L54450 28489
L54422 28460
L54422 28517
" />
<path d="M54169 27982
L54141 27954
L54084 27926
L53944 27926
L53888 27954
L53859 27982
L53831 28039
L53831 28095
L53859 28179
L54197 28517
L53831 28517
" />
</g>
<g style="fill:#000000; fill-opacity:0.0; 
stroke:#000000; stroke-width:1000; stroke-opacity:1; 
stroke-linecap:round; stroke-linejoin:round;">
<path d="M62500 35680
L61500 35680
" />
<path d="M62500 37240
L61500 37240
" />
<path d="M62500 38800
L61500 38800
" />
<path d="M57250 34120
L58250 34120
" />
<path d="M57250 32560
L58250 32560
" />
<path d="M57250 31000
L58250 31000
" />
<path d="M57250 35680
L58250 35680
" />
<path d="M57250 37240
L58250 37240
" />
<path d="M57250 38800
L58250 38800
" />
<path d="M57250 40360
L58250 40360
" />
<path d="M57250 41920
L58250 41920
" />
<path d="M57250 43480
L58250 43480
" />
</g>
<g style="fill:#000000; fill-opacity:0.0; 
stroke:#000000; stroke-width:593; stroke-opacity:1; 
stroke-linecap:round; stroke-linejoin:round;">
<path d="M43251 44250
L42657 44250
" />
<path d="M44248 44250
L44842 44250
" />
<path d="M44248 43250
L44842 43250
" />
<path d="M43251 43250
L42657 43250
" />
<path d="M43251 37250
L42657 37250
" />
<path d="M44248 37250
L44842 37250
" />
<path d="M43251 38250
L42657 38250
" />
<path d="M44248 38250
L44842 38250
" />
<path d="M43251 39250
L42657 39250
" />
<path d="M44248 39250
L44842 39250
" />
<path d="M43251 40250
L42657 40250
" />
<path d="M44248 40250
L44842 40250
" />
<path d="M43251 41250
L42657 41250
" />
<path d="M44248 41250
L44842 41250
" />
<path d="M43251 42250
L42657 42250
" />
<path d="M44248 42250
L44842 42250
" />
<path d="M43251 43250
L42657 43250
" />
<path d="M44248 43250
L44842 43250
" />
</g>
<g style="fill:#000000; fill-opacity:0.0; 
stroke:#000000; stroke-width:0; stroke-opacity:1; 
stroke-linecap:round; stroke-linejoin:round;">
</g>
<g style="fill:#000000; fill-opacity:1.0; 
stroke:#000000; stroke-width:0; stroke-opacity:1; 
stroke-linecap:round; stroke-linejoin:round;">
<polyline style="fill-rule:evenodd;"
points="60084,38248
59415,38248
59415,37893
60084,37893
60084,38248
" /> 
<polyline style="fill-rule:evenodd;"
points="60084,37106
59415,37106
59415,36751
60084,36751
60084,37106
" /> 
<polyline style="fill-rule:evenodd;"
points="41800,28440
42700,28440
42700,29060
41800,29060
41800,28440
" /> 
</g>
<g style="fill:#000000; fill-opacity:1.0; 
stroke:#000000; stroke-width:620; stroke-opacity:1; 
stroke-linecap:round; stroke-linejoin:round;">
</g>
<g style="fill:#000000; fill-opacity:0.0; 
stroke:#000000; stroke-width:620; stroke-opacity:1; 
stroke-linecap:round; stroke-linejoin:round;">
<path d="M42390 29750
L42110 29750
" />
<path d="M42390 30750
L42110 30750
" />
<path d="M42390 31750
L42110 31750
" />
<path d="M42390 32750
L42110 32750
" />
<path d="M42390 33750
L42110 33750
" />
<path d="M42390 34750
L42110 34750
" />
<path d="M45390 34750
L45110 34750
" />
<path d="M45390 33750
L45110 33750
" />
<path d="M45390 32750
L45110 32750
" />
<path d="M45390 31750
L45110 31750
" />
<path d="M45390 30750
L45110 30750
" />
<path d="M45390 29750
L45110 29750
" />
<path d="M45390 28750
L45110 28750
" />
</g>
<g style="fill:#000000; fill-opacity:0.0; 
stroke:#000000; stroke-width:0; stroke-opacity:1; 
stroke-linecap:round; stroke-linejoin:round;">
</g>
<g style="fill:#000000; fill-opacity:1.0; 
stroke:#000000; stroke-width:0; stroke-opacity:1; 
stroke-linecap:round; stroke-linejoin:round;">
<polyline style="fill-rule:evenodd;"
points="46712,28996
46712,28503
47303,28503
47303,28996
46712,28996
" /> 
<polyline style="fill-rule:evenodd;"
points="47696,28996
47696,28503
48287,28503
48287,28996
47696,28996
" /> 
<polyline style="fill-rule:evenodd;"
points="48050,31690
48950,31690
48950,32310
48050,32310
48050,31690
" /> 
</g>
<g style="fill:#000000; fill-opacity:1.0; 
stroke:#000000; stroke-width:620; stroke-opacity:1; 
stroke-linecap:round; stroke-linejoin:round;">
</g>
<g style="fill:#000000; fill-opacity:0.0; 
stroke:#000000; stroke-width:620; stroke-opacity:1; 
stroke-linecap:round; stroke-linejoin:round;">
<path d="M48640 33000
L48360 33000
" />
<path d="M48640 34000
L48360 34000
" />
<path d="M48640 35000
L48360 35000
" />
<path d="M48640 36000
L48360 36000
" />
<path d="M48640 37000
L48360 37000
" />
<path d="M48640 38000
L48360 38000
" />
<path d="M48640 39000
L48360 39000
" />
<path d="M48640 40000
L48360 40000
" />
<path d="M48640 41000
L48360 41000
" />
<path d="M48640 42000
L48360 42000
" />
<path d="M48640 43000
L48360 43000
" />
<path d="M54640 43000
L54360 43000
" />
<path d="M54640 42000
L54360 42000
" />
<path d="M54640 41000
L54360 41000
" />
<path d="M54640 40000
L54360 40000
" />
<path d="M54640 39000
L54360 39000
" />
<path d="M54640 38000
L54360 38000
" />
<path d="M54640 37000
L54360 37000
" />
<path d="M54640 36000
L54360 36000
" />
<path d="M54640 35000
L54360 35000
" />
<path d="M54640 34000
L54360 34000
" />
<path d="M54640 33000
L54360 33000
" />
<path d="M54640 32000
L54360 32000
" />
</g>
<g style="fill:#000000; fill-opacity:0.0; 
stroke:#000000; stroke-width:0; stroke-opacity:1; 
stroke-linecap:round; stroke-linejoin:round;">
</g>
<g style="fill:#000000; fill-opacity:1.0; 
stroke:#000000; stroke-width:0; stroke-opacity:1; 
stroke-linecap:round; stroke-linejoin:round;">
<polyline style="fill-rule:evenodd;"
points="43253,33962
43746,33962
43746,34553
43253,34553
43253,33962
" /> 
<polyline style="fill-rule:evenodd;"
points="43253,34946
43746,34946
43746,35537
43253,35537
43253,34946
" /> 
<polyline style="fill-rule:evenodd;"
points="43415,28501
44084,28501
44084,28856
43415,28856
43415,28501
" /> 
<polyline style="fill-rule:evenodd;"
points="43415,29643
44084,29643
44084,29998
43415,29998
43415,29643
" /> 
<polyline style="fill-rule:evenodd;"
points="44537,30503
44537,30996
43946,30996
43946,30503
44537,30503
" /> 
<polyline style="fill-rule:evenodd;"
points="43553,30503
43553,30996
42962,30996
42962,30503
43553,30503
" /> 
</g>
<g style="fill:#000000; fill-opacity:1.0; 
stroke:#000000; stroke-width:160; stroke-opacity:1; 
stroke-linecap:round; stroke-linejoin:round;">
</g>
<g style="fill:#000000; fill-opacity:0.0; 
stroke:#000000; stroke-width:160; stroke-opacity:1; 
stroke-linecap:round; stroke-linejoin:round;">
<path d="M44250 44250
L46500 44250
" />
<path d="M48000 41500
L49500 41500
" />
<path d="M47250 42250
L48000 41500
" />
<path d="M47250 43500
L47250 42250
" />
<path d="M46500 44250
L47250 43500
" />
<path d="M62000 37240
L61510 37240
" />
<path d="M61510 37240
L60679 38070
" />
<path d="M60679 38070
L59750 38070
" />
<path d="M59679 38000
L59750 38070
" />
</g>
<g style="fill:#000000; fill-opacity:0.0; 
stroke:#000000; stroke-width:393.701; stroke-opacity:1; 
stroke-linecap:round; stroke-linejoin:round;">
<path d="M57750 43480
L55520 43480
" />
<path d="M53500 43500
L53500 35000
" />
<path d="M53750 43750
L53500 43500
" />
<path d="M55250 43750
L53750 43750
" />
<path d="M55520 43480
L55250 43750
" />
<path d="M51500 31000
L51500 33500
" />
<path d="M53500 35000
L53000 35000
" />
<path d="M51500 33500
L53000 35000
" />
<path d="M46250 28750
L46250 29750
" />
<path d="M50250 29750
L46250 29750
" />
<path d="M51500 31000
L50250 29750
" />
<path d="M54500 35000
L53500 35000
" />
<path d="M47007 28750
L46250 28750
" />
<path d="M46250 28750
L45250 28750
" />
</g>
<g style="fill:#000000; fill-opacity:0.0; 
stroke:#000000; stroke-width:1181.1; stroke-opacity:1; 
stroke-linecap:round; stroke-linejoin:round;">
<path d="M57750 40360
L57750 39250
" />
<path d="M57750 39250
L61000 39250
" />
<path d="M61000 39250
L61550 39250
" />
<path d="M61550 39250
L62000 38800
" />
<path d="M57750 41920
L57750 43480
" />
<path d="M57750 40360
L57750 41920
" />
</g>
<g style="fill:#000000; fill-opacity:0.0; 
stroke:#000000; stroke-width:98.4252; stroke-opacity:1; 
stroke-linecap:round; stroke-linejoin:round;">
<path d="M43750 28679
L45179 28679
" />
<path d="M45179 28679
L45250 28750
" />
</g>
<g style="fill:#000000; fill-opacity:0.0; 
stroke:#000000; stroke-width:160; stroke-opacity:1; 
stroke-linecap:round; stroke-linejoin:round;">
<path d="M45250 37750
L45500 37500
" />
<path d="M48500 33000
L46500 33000
" />
<path d="M46000 33500
L46500 33000
" />
<path d="M44000 37750
L45250 37750
" />
<path d="M44000 37750
L43500 38250
" />
<path d="M46000 35250
L46000 33500
" />
<path d="M45750 35500
L46000 35250
" />
<path d="M45750 36000
L45750 35500
" />
<path d="M45500 36250
L45750 36000
" />
<path d="M45500 37500
L45500 36250
" />
<path d="M43250 38250
L43500 38250
" />
<path d="M44250 38250
L45500 38250
" />
<path d="M46500 33750
L46750 33500
" />
<path d="M46750 33500
L49000 33500
" />
<path d="M49000 33500
L49250 33250
" />
<path d="M49250 33250
L49250 32250
" />
<path d="M49250 32250
L49000 32000
" />
<path d="M49000 32000
L48500 32000
" />
<path d="M46500 35500
L46500 33750
" />
<path d="M46250 35750
L46500 35500
" />
<path d="M46250 36250
L46250 35750
" />
<path d="M46000 36500
L46250 36250
" />
<path d="M46000 37750
L46000 36500
" />
<path d="M45500 38250
L46000 37750
" />
<path d="M44250 38250
L45000 38250
" />
<path d="M43250 39250
L43750 38750
" />
<path d="M45750 38750
L48500 36000
" />
<path d="M43750 38750
L45750 38750
" />
<path d="M44250 39250
L46250 39250
" />
<path d="M46250 39250
L48500 37000
" />
<path d="M43250 40250
L43750 39750
" />
<path d="M46750 39750
L48500 38000
" />
<path d="M43750 39750
L46750 39750
" />
<path d="M44250 40250
L47000 40250
" />
<path d="M47000 40250
L48250 39000
" />
<path d="M48250 39000
L48500 39000
" />
<path d="M43250 41250
L43750 40750
" />
<path d="M48000 40000
L48500 40000
" />
<path d="M47250 40750
L48000 40000
" />
<path d="M43750 40750
L47250 40750
" />
<path d="M44250 41250
L47500 41250
" />
<path d="M47750 41000
L48500 41000
" />
<path d="M47500 41250
L47750 41000
" />
<path d="M59750 36929
L59179 36929
" />
<path d="M55500 41000
L54500 41000
" />
<path d="M55750 40750
L55500 41000
" />
<path d="M55750 37000
L55750 40750
" />
<path d="M56250 36500
L55750 37000
" />
<path d="M58750 36500
L56250 36500
" />
<path d="M59179 36929
L58750 36500
" />
<path d="M49250 30750
L46750 30750
" />
<path d="M46750 30750
L46500 30750
" />
<path d="M46500 30750
L45500 29750
" />
<path d="M48500 42000
L49750 42000
" />
<path d="M50250 41500
L49750 42000
" />
<path d="M50250 31750
L50250 41500
" />
<path d="M49250 30750
L50250 31750
" />
</g>
<g style="fill:#000000; fill-opacity:0.0; 
stroke:#000000; stroke-width:98.4252; stroke-opacity:1; 
stroke-linecap:round; stroke-linejoin:round;">
<path d="M45500 29750
L45250 29750
" />
</g>
<g style="fill:#000000; fill-opacity:0.0; 
stroke:#000000; stroke-width:160; stroke-opacity:1; 
stroke-linecap:round; stroke-linejoin:round;">
<path d="M48500 34000
L49250 34000
" />
<path d="M49250 34000
L49750 33500
" />
<path d="M49750 33500
L49750 32000
" />
<path d="M49750 32000
L49000 31250
" />
<path d="M49000 31250
L47500 31250
" />
<path d="M47500 31250
L46000 32750
" />
<path d="M46000 32750
L45250 32750
" />
<path d="M42250 31750
L45250 31750
" />
<path d="M43750 37500
L43750 36500
" />
<path d="M43500 37750
L43750 37500
" />
<path d="M42250 37750
L43500 37750
" />
<path d="M42000 38000
L42250 37750
" />
<path d="M42000 42000
L42000 38000
" />
<path d="M42250 42250
L42000 42000
" />
<path d="M43250 42250
L42250 42250
" />
<path d="M43750 32750
L42250 32750
" />
<path d="M44000 33000
L43750 32750
" />
<path d="M44000 33750
L44000 33000
" />
<path d="M44500 34250
L44000 33750
" />
<path d="M44500 35750
L44500 34250
" />
<path d="M43750 36500
L44500 35750
" />
<path d="M42250 33750
L42250 32750
" />
<path d="M43500 34257
L43500 34250
" />
<path d="M43500 34250
L44000 33750
" />
<path d="M44250 37250
L44250 36750
" />
<path d="M44250 36750
L45250 35750
" />
<path d="M45250 35750
L45250 34750
" />
<path d="M45250 33750
L44750 33750
" />
<path d="M44750 33750
L44500 33500
" />
<path d="M44500 33500
L44500 32500
" />
<path d="M44500 32500
L44750 32250
" />
<path d="M44750 32250
L45750 32250
" />
<path d="M45750 32250
L46000 32000
" />
<path d="M46000 32000
L46000 31000
" />
<path d="M46000 31000
L45750 30750
" />
<path d="M45750 30750
L45250 30750
" />
<path d="M45250 34750
L45250 33750
" />
</g>
<g style="fill:#000000; fill-opacity:0.0; 
stroke:#000000; stroke-width:98.4252; stroke-opacity:1; 
stroke-linecap:round; stroke-linejoin:round;">
<path d="M45250 30750
L44242 30750
" />
<path d="M44242 30750
L44242 30312
" />
<path d="M44242 30312
L43750 29820
" />
</g>
<g style="fill:#000000; fill-opacity:1.0; 
stroke:#000000; stroke-width:100; stroke-opacity:1; 
stroke-linecap:round; stroke-linejoin:round;">
<polyline style="fill-rule:evenodd;"
points="53410,29049
63589,29049
63589,27550
63950,27550
63950,45450
40550,45450
40550,37115
42128,37115
42176,37200
42904,37200
42904,36703
42607,36703
42402,36764
42235,36898
42133,37087
42128,37115
40550,37115
40550,35545
40909,35545
40909,37049
42090,37049
42090,35545
40909,35545
40550,35545
40550,35354
43003,35354
43003,35587
43041,35679
43112,35749
43204,35787
43387,35787
43450,35724
43450,35292
43550,35292
43550,35724
43612,35787
43795,35787
43887,35749
43958,35679
43996,35587
43996,35354
43933,35292
43550,35292
43450,35292
43066,35292
43003,35354
40550,35354
40550,34886
41566,34886
41573,34918
41678,35110
41849,35248
42060,35310
42200,35310
42200,34800
42300,34800
42300,35310
42440,35310
42650,35248
42821,35110
42926,34918
42933,34886
42884,34800
42300,34800
42200,34800
41615,34800
41566,34886
40550,34886
40550,31750
41539,31750
41582,31968
41706,32153
41850,32250
41706,32346
41582,32531
41539,32750
41582,32968
41706,33153
41850,33250
41706,33346
41582,33531
41539,33750
41582,33968
41706,34153
41851,34251
41849,34251
41678,34389
41573,34581
41566,34613
41615,34700
42200,34700
42200,34692
42300,34692
42300,34700
42884,34700
42933,34613
42926,34581
42821,34389
42650,34251
42648,34251
42793,34153
42917,33968
42960,33750
42917,33531
42793,33346
42649,33250
42793,33153
42843,33080
43613,33080
43670,33136
43670,33613
43575,33707
43253,33707
43156,33727
43073,33782
43018,33865
42999,33962
42999,34553
43018,34650
43073,34733
43097,34749
43041,34805
43003,34897
43003,35129
43066,35192
43450,35192
43450,35184
43550,35184
43550,35192
43933,35192
43996,35129
43996,34897
43958,34805
43902,34749
43926,34733
43981,34650
44000,34553
44000,34217
44170,34386
44170,35613
43539,36243
43512,36262
43493,36289
43493,36289
43439,36371
43413,36500
43420,36532
43420,36738
43301,36703
43004,36703
43004,37200
43012,37200
43012,37300
43004,37300
43004,37307
42904,37307
42904,37300
42176,37300
42128,37384
42133,37412
42145,37434
42142,37434
42121,37439
42039,37493
42039,37493
42012,37512
41993,37539
41789,37743
41762,37762
41743,37789
41743,37789
41689,37871
41663,38000
41670,38032
41670,41967
41663,42000
41670,42032
41670,42032
41689,42128
41762,42237
41789,42256
41993,42460
42012,42487
42039,42506
42039,42506
42121,42560
42142,42565
42217,42580
42217,42580
42221,42580
42263,42644
42422,42750
42263,42855
42142,43036
42100,43250
42142,43463
42263,43644
42422,43750
42263,43855
42142,44036
42100,44250
42142,44463
42263,44644
42444,44764
42603,44796
43305,44796
43464,44764
43645,44644
43758,44475
43826,44601
43992,44735
44198,44796
44495,44796
44495,44300
44595,44300
44595,44796
44892,44796
45097,44735
45264,44601
45366,44412
45371,44384
45323,44300
44595,44300
44495,44300
44487,44300
44487,44200
44495,44200
44495,44192
44595,44192
44595,44200
45323,44200
45371,44115
45366,44087
45264,43898
45097,43764
45069,43755
45236,43644
45357,43463
45399,43250
45357,43036
45236,42855
45077,42750
45236,42644
45357,42463
45399,42250
45357,42036
45236,41855
45077,41750
45236,41644
45279,41580
47467,41580
47500,41586
47532,41580
47532,41580
47628,41560
47737,41487
47756,41460
47886,41330
47906,41330
47956,41403
48100,41500
47956,41596
47832,41781
47789,42000
47832,42218
47956,42403
48100,42500
47956,42596
47832,42781
47789,43000
47832,43218
47956,43403
48141,43527
48304,43560
48695,43560
48858,43527
49043,43403
49167,43218
49210,43000
49167,42781
49043,42596
48899,42500
49043,42403
49093,42330
49717,42330
49750,42336
49782,42330
49782,42330
49878,42310
49987,42237
50006,42210
50460,41756
50487,41737
50560,41628
50580,41532
50580,41532
50586,41500
50580,41467
50580,31782
50586,31749
50580,31717
50580,31717
50560,31621
50487,31512
50460,31493
49506,30539
49487,30512
49378,30439
49282,30420
49282,30420
49250,30413
49217,30420
46636,30420
46413,30196
50064,30196
51053,31185
51053,33455
51044,33500
51079,33674
51079,33674
51177,33822
51215,33847
52652,35284
52677,35322
52762,35378
52825,35420
53000,35455
53044,35446
53053,35446
53053,43455
53044,43500
53053,43544
53079,43674
53177,43822
53215,43847
53402,44034
53427,44072
53575,44170
53750,44205
53794,44196
55205,44196
55250,44205
55294,44196
55424,44170
55572,44072
55597,44034
55705,43926
56646,43926
56709,44020
56957,44186
57176,44230
57359,44230
57422,44271
57750,44337
58077,44271
58140,44230
58323,44230
58542,44186
58790,44020
58956,43772
59014,43480
58956,43187
58790,42939
58590,42805
58590,42594
58790,42460
58956,42212
59014,41920
58956,41627
58790,41379
58590,41245
58590,41034
58790,40900
58956,40652
59014,40360
58961,40090
61467,40090
61550,40107
61632,40090
61632,40090
61877,40041
62156,39856
62202,39785
62438,39550
62573,39550
62792,39506
63040,39340
63206,39092
63264,38800
63206,38507
63040,38259
62792,38093
62573,38050
62390,38050
62327,38008
62236,37990
62573,37990
62792,37946
63040,37780
63206,37532
63264,37240
63206,36947
63040,36699
62792,36533
62573,36490
61426,36490
61207,36533
60959,36699
60793,36947
60735,37240
60786,37496
60542,37740
60283,37740
60264,37713
60182,37658
60084,37638
59415,37638
59317,37658
59235,37713
59179,37796
59160,37893
59160,38248
59179,38345
59222,38409
58891,38409
58790,38259
58542,38093
58323,38050
57176,38050
56957,38093
56709,38259
56543,38507
56485,38800
56543,39092
56709,39340
56909,39474
56909,39685
56709,39819
56543,40067
56485,40360
56543,40652
56709,40900
56909,41034
56909,41245
56709,41379
56543,41627
56485,41920
56543,42212
56709,42460
56909,42594
56909,42805
56709,42939
56646,43033
55564,43033
55520,43024
55419,43044
55345,43059
55197,43157
55172,43195
55171,43196
55210,43000
55167,42781
55043,42596
54899,42500
55043,42403
55167,42218
55210,42000
55167,41781
55043,41596
54899,41500
55043,41403
55093,41330
55467,41330
55500,41336
55532,41330
55532,41330
55628,41310
55737,41237
55756,41210
55960,41006
55987,40987
56020,40939
56060,40878
56077,40796
56080,40782
56080,40782
56086,40750
56080,40717
56080,37136
56386,36830
56621,36830
56543,36947
56485,37240
56543,37532
56709,37780
56957,37946
57176,37990
58323,37990
58542,37946
58790,37780
58956,37532
59014,37240
59009,37212
59050,37239
59146,37259
59146,37259
59179,37265
59211,37259
59216,37259
59235,37286
59317,37341
59415,37361
60084,37361
60182,37341
60264,37286
60320,37203
60339,37106
60339,36751
60320,36654
60264,36571
60182,36516
60084,36497
59415,36497
59317,36516
59267,36550
59006,36289
58987,36262
58878,36189
58814,36176
58815,36174
58962,35920
58981,35846
60768,35846
60787,35920
60934,36174
61166,36353
61450,36430
61950,36430
61950,35730
62050,35730
62050,36430
62550,36430
62833,36353
63065,36174
63212,35920
63231,35846
63185,35730
62050,35730
61950,35730
60814,35730
60768,35846
58981,35846
58935,35730
57800,35730
57800,35737
57700,35737
57700,35730
56564,35730
56518,35846
56537,35920
56681,36170
56282,36170
56249,36163
56217,36170
56217,36170
56121,36189
56121,36189
56121,36189
56039,36243
56039,36243
56012,36262
55993,36289
55539,36743
55512,36762
55439,36871
55420,36967
55420,36967
55413,37000
55420,37032
55420,40613
55363,40670
55093,40670
55043,40596
54899,40500
55043,40403
55167,40218
55210,40000
55167,39781
55043,39596
54899,39500
55043,39403
55167,39218
55210,39000
55167,38781
55043,38596
54899,38500
55043,38403
55167,38218
55210,38000
55167,37781
55043,37596
54899,37500
55043,37403
55167,37218
55210,37000
55167,36781
55043,36596
54899,36500
55043,36403
55167,36218
55210,36000
55167,35781
55043,35596
54919,35513
56518,35513
56564,35630
57700,35630
57700,34930
57800,34930
57800,35630
58935,35630
58981,35513
60768,35513
60814,35630
61950,35630
61950,34930
62050,34930
62050,35630
63185,35630
63231,35513
63212,35439
63065,35185
62833,35006
62550,34930
62050,34930
61950,34930
61450,34930
61166,35006
60934,35185
60787,35439
60768,35513
58981,35513
58962,35439
58815,35185
58583,35006
58300,34930
57800,34930
57700,34930
57200,34930
56916,35006
56684,35185
56537,35439
56518,35513
54919,35513
54899,35500
55043,35403
55167,35218
55210,35000
55167,34781
55043,34596
54899,34500
55043,34403
55122,34286
56518,34286
56537,34360
56684,34614
56916,34793
57200,34870
57700,34870
57700,34170
57800,34170
57800,34870
58300,34870
58583,34793
58815,34614
58962,34360
58981,34286
58935,34170
57800,34170
57700,34170
56564,34170
56518,34286
55122,34286
55167,34218
55210,34000
55201,33953
56518,33953
56564,34070
57700,34070
57700,33370
57800,33370
57800,34070
58935,34070
58981,33953
58962,33879
58815,33625
58583,33446
58300,33370
57800,33370
57700,33370
57200,33370
56916,33446
56684,33625
56537,33879
56518,33953
55201,33953
55167,33781
55043,33596
54898,33498
54900,33498
55071,33360
55176,33168
55183,33136
55134,33050
54550,33050
54550,33057
54450,33057
54450,33050
53865,33050
53816,33136
53823,33168
53928,33360
54099,33498
54101,33498
53956,33596
53832,33781
53789,34000
53832,34218
53956,34403
54100,34500
54020,34553
53544,34553
53500,34544
53455,34553
53185,34553
51946,33314
51946,32000
53789,32000
53832,32218
53956,32403
54101,32501
54099,32501
53928,32639
53823,32831
53816,32863
53865,32950
54450,32950
54450,32942
54550,32942
54550,32950
55134,32950
55183,32863
55176,32831
55118,32726
56518,32726
56537,32800
56684,33054
56916,33233
57200,33310
57700,33310
57700,32610
57800,32610
57800,33310
58300,33310
58583,33233
58815,33054
58962,32800
58981,32726
58935,32610
57800,32610
57700,32610
56564,32610
56518,32726
55118,32726
55071,32639
54900,32501
54898,32501
55043,32403
55050,32393
56518,32393
56564,32510
57700,32510
57700,31810
57800,31810
57800,32510
58935,32510
58981,32393
58962,32319
58815,32065
58583,31886
58300,31810
57800,31810
57700,31810
57200,31810
56916,31886
56684,32065
56537,32319
56518,32393
55050,32393
55167,32218
55210,32000
55167,31781
55043,31596
54858,31472
54695,31440
54304,31440
54141,31472
53956,31596
53832,31781
53789,32000
51946,32000
51946,31166
56518,31166
56537,31240
56684,31494
56916,31673
57200,31750
57700,31750
57700,31050
57800,31050
57800,31750
58300,31750
58583,31673
58815,31494
58962,31240
58981,31166
58935,31050
57800,31050
57700,31050
56564,31050
56518,31166
51946,31166
51946,31044
51955,30999
51922,30833
56518,30833
56564,30950
57700,30950
57700,30250
57800,30250
57800,30950
58935,30950
58981,30833
58962,30759
58815,30505
58583,30326
58300,30250
57800,30250
57700,30250
57200,30250
56916,30326
56684,30505
56537,30759
56518,30833
51922,30833
51920,30825
51890,30779
51822,30677
51784,30652
50597,29465
50572,29427
50424,29329
50294,29303
50250,29294
50205,29303
46696,29303
46696,29247
46712,29250
47303,29250
47400,29231
47483,29176
47499,29152
47555,29208
47647,29246
47879,29246
47942,29183
47942,28800
48042,28800
48042,29183
48104,29246
48337,29246
48429,29208
48499,29137
48537,29045
48537,28862
48474,28800
48042,28800
47942,28800
47934,28800
47934,28700
47942,28700
47942,28316
48042,28316
48042,28700
48474,28700
48537,28637
48537,28454
48499,28362
48429,28291
48337,28253
48104,28253
48042,28316
47942,28316
47879,28253
47647,28253
47555,28291
47499,28347
47483,28323
47400,28268
47303,28249
46712,28249
46615,28268
46563,28303
46294,28303
46250,28294
46205,28303
45729,28303
45608,28222
45445,28190
45054,28190
44891,28222
44706,28346
44683,28379
44303,28379
44264,28321
44182,28266
44084,28247
43415,28247
43317,28266
43235,28321
43179,28404
43160,28501
43160,28856
43179,28953
43235,29036
43317,29091
43415,29111
44084,29111
44182,29091
44264,29036
44303,28978
44589,28978
44706,29153
44850,29250
44706,29346
44582,29531
44539,29750
44582,29968
44706,30153
44850,30250
44724,30334
44717,30323
44634,30268
44537,30249
44534,30249
44523,30196
44457,30097
44432,30080
44339,29987
44339,29643
44320,29546
44264,29463
44182,29408
44084,29388
43415,29388
43317,29408
43235,29463
43179,29546
43160,29643
43160,29998
43179,30095
43235,30178
43317,30233
43415,30252
43758,30252
43804,30298
43766,30323
43750,30347
43694,30291
43602,30253
43370,30253
43307,30316
43307,30700
43315,30700
43315,30800
43307,30800
43307,31183
43370,31246
43602,31246
43694,31208
43750,31152
43766,31176
43849,31231
43946,31250
44537,31250
44634,31231
44717,31176
44724,31165
44850,31250
44706,31346
44656,31420
42843,31420
42793,31346
42648,31248
42650,31248
42767,31154
42820,31208
42912,31246
43145,31246
43207,31183
43207,30800
42300,30800
42300,30807
42200,30807
42200,30800
41615,30800
41566,30886
41573,30918
41678,31110
41849,31248
41851,31248
41706,31346
41582,31531
41539,31750
40550,31750
40550,29886
41566,29886
41573,29918
41678,30110
41849,30248
41855,30250
41849,30251
41678,30389
41573,30581
41566,30613
41615,30700
42200,30700
42200,29800
42300,29800
42300,30700
43207,30700
43207,30316
43145,30253
42912,30253
42820,30291
42767,30345
42650,30251
42644,30250
42650,30248
42821,30110
42926,29918
42933,29886
42884,29800
42300,29800
42200,29800
41615,29800
41566,29886
40550,29886
40550,28440
41545,28440
41545,29060
41564,29157
41619,29240
41702,29295
41776,29310
41678,29389
41573,29581
41566,29613
41615,29700
42200,29700
42200,29692
42300,29692
42300,29700
42884,29700
42933,29613
42926,29581
42821,29389
42723,29310
42797,29295
42880,29240
42935,29157
42954,29060
42954,28440
42935,28342
42880,28259
42797,28204
42700,28185
41800,28185
41702,28204
41619,28259
41564,28342
41545,28440
40550,28440
40550,27550
53410,27550
53410,29049
" /> 
<polyline style="fill-rule:evenodd;"
points="49920,41363
49613,41670
49093,41670
49043,41596
48899,41500
49043,41403
49167,41218
49210,41000
49167,40781
49043,40596
48899,40500
49043,40403
49167,40218
49210,40000
49167,39781
49043,39596
48899,39500
49043,39403
49167,39218
49210,39000
49167,38781
49043,38596
48899,38500
49043,38403
49167,38218
49210,38000
49167,37781
49043,37596
48899,37500
49043,37403
49167,37218
49210,37000
49167,36781
49043,36596
48899,36500
49043,36403
49167,36218
49210,36000
49167,35781
49043,35596
48898,35498
48900,35498
49071,35360
49176,35168
49183,35136
49134,35050
48550,35050
48550,35057
48450,35057
48450,35050
47865,35050
47816,35136
47823,35168
47928,35360
48099,35498
48101,35498
47956,35596
47832,35781
47789,36000
47829,36203
46330,37703
46330,36636
46460,36506
46487,36487
46537,36413
46560,36378
46569,36336
46580,36282
46580,36282
46586,36250
46580,36217
46580,35886
46710,35756
46737,35737
46756,35710
46810,35628
46815,35607
46830,35532
46830,35532
46836,35500
46830,35467
46830,33886
46886,33830
47822,33830
47789,34000
47832,34218
47956,34403
48101,34501
48099,34501
47928,34639
47823,34831
47816,34863
47865,34950
48450,34950
48450,34942
48550,34942
48550,34950
49134,34950
49183,34863
49176,34831
49071,34639
48900,34501
48898,34501
49043,34403
49093,34330
49217,34330
49250,34336
49282,34330
49282,34330
49378,34310
49487,34237
49506,34210
49920,33796
49920,41363
" /> 
</g> 
</svg>
