<?xml version="1.0" standalone="no"?>
 <!DOCTYPE svg PUBLIC "-//W3C//DTD SVG 1.1//EN" 
 "http://www.w3.org/Graphics/SVG/1.1/DTD/svg11.dtd"> 
<svg xmlns="http://www.w3.org/2000/svg" version="1.1" 
    width="21.9989cm" height="11.0007cm" viewBox="0 0 86610 43310 ">
<title>SVG Picture created as Sys11Alpha_v11_-Bottom.svg date 2016/03/20 09:12:59 </title>
  <desc>Picture generated by PCBNEW </desc>
<g style="fill:#000000; fill-opacity:1;stroke:#000000; stroke-opacity:1;
stroke-linecap:round; stroke-linejoin:round; "
 transform="translate(0 0) scale(1 1)">
</g>
<g style="fill:#000000; fill-opacity:0.0; 
stroke:#000000; stroke-width:56; stroke-opacity:1; 
stroke-linecap:round; stroke-linejoin:round;">
<path d="M62123 26655
L62028 26686
L61870 26686
L61806 26655
L61775 26623
L61743 26560
L61743 26496
L61775 26433
L61806 26401
L61870 26370
L61996 26338
L62060 26306
L62091 26275
L62123 26211
L62123 26148
L62091 26085
L62060 26053
L61996 26021
L61838 26021
L61743 26053
" />
<path d="M61521 26243
L61363 26686
" />
<path d="M61205 26243
L61363 26686
L61426 26845
L61458 26876
L61521 26908
" />
<path d="M60983 26655
L60920 26686
L60793 26686
L60730 26655
L60698 26591
L60698 26560
L60730 26496
L60793 26465
L60888 26465
L60951 26433
L60983 26370
L60983 26338
L60951 26275
L60888 26243
L60793 26243
L60730 26275
" />
<path d="M60065 26686
L60445 26686
" />
<path d="M60255 26686
L60255 26021
L60318 26116
L60381 26180
L60445 26211
" />
<path d="M59431 26686
L59811 26686
" />
<path d="M59621 26686
L59621 26021
L59684 26116
L59748 26180
L59811 26211
" />
<path d="M59304 26750
L58798 26750
" />
<path d="M58671 26496
L58354 26496
" />
<path d="M58734 26686
L58513 26021
L58291 26686
" />
<path d="M57974 26686
L58038 26655
L58069 26591
L58069 26021
" />
<path d="M57721 26243
L57721 26908
" />
<path d="M57721 26275
L57658 26243
L57531 26243
L57468 26275
L57436 26306
L57404 26370
L57404 26560
L57436 26623
L57468 26655
L57531 26686
L57658 26686
L57721 26655
" />
<path d="M57119 26686
L57119 26021
" />
<path d="M56834 26686
L56834 26338
L56866 26275
L56929 26243
L57024 26243
L57088 26275
L57119 26306
" />
<path d="M56233 26686
L56233 26338
L56265 26275
L56328 26243
L56455 26243
L56518 26275
" />
<path d="M56233 26655
L56296 26686
L56455 26686
L56518 26655
L56550 26591
L56550 26528
L56518 26465
L56455 26433
L56296 26433
L56233 26401
" />
<path d="M56075 26750
L55568 26750
" />
<path d="M55473 26243
L55315 26686
L55156 26243
" />
<path d="M54555 26686
L54935 26686
" />
<path d="M54745 26686
L54745 26021
L54808 26116
L54871 26180
L54935 26211
" />
<path d="M53921 26686
L54301 26686
" />
<path d="M54111 26686
L54111 26021
L54175 26116
L54238 26180
L54301 26211
" />
</g>
<g style="fill:#000000; fill-opacity:0.0; 
stroke:#000000; stroke-width:19.685; stroke-opacity:1; 
stroke-linecap:round; stroke-linejoin:round;">
</g>
<g style="fill:#000000; fill-opacity:1.0; 
stroke:#000000; stroke-width:19.685; stroke-opacity:1; 
stroke-linecap:round; stroke-linejoin:round;">
<circle cx="9750" cy="12000" r="290.157" /> 
<circle cx="10750" cy="12000" r="290.157" /> 
<circle cx="9750" cy="13000" r="290.157" /> 
<circle cx="10750" cy="13000" r="290.157" /> 
<circle cx="9750" cy="14000" r="290.157" /> 
<circle cx="10750" cy="14000" r="290.157" /> 
<circle cx="9750" cy="15000" r="290.157" /> 
<circle cx="10750" cy="15000" r="290.157" /> 
<circle cx="9750" cy="16000" r="290.157" /> 
<circle cx="10750" cy="16000" r="290.157" /> 
<circle cx="9750" cy="17000" r="290.157" /> 
<circle cx="10750" cy="17000" r="290.157" /> 
<circle cx="9750" cy="18000" r="290.157" /> 
<circle cx="10750" cy="18000" r="290.157" /> 
<circle cx="9750" cy="19000" r="290.157" /> 
<circle cx="10750" cy="19000" r="290.157" /> 
<circle cx="9750" cy="20000" r="290.157" /> 
<circle cx="10750" cy="20000" r="290.157" /> 
<circle cx="9750" cy="21000" r="290.157" /> 
<circle cx="10750" cy="21000" r="290.157" /> 
<circle cx="9750" cy="22000" r="290.157" /> 
<circle cx="10750" cy="22000" r="290.157" /> 
<circle cx="9750" cy="23000" r="290.157" /> 
<circle cx="10750" cy="23000" r="290.157" /> 
</g>
<g style="fill:#000000; fill-opacity:1.0; 
stroke:#000000; stroke-width:660; stroke-opacity:1; 
stroke-linecap:round; stroke-linejoin:round;">
<path d="M15670 12750
L16330 12750
" />
<path d="M15670 13750
L16330 13750
" />
<path d="M15670 14750
L16330 14750
" />
<path d="M21170 12750
L21830 12750
" />
<path d="M21170 13750
L21830 13750
" />
<path d="M21170 14750
L21830 14750
" />
<path d="M21170 16750
L21830 16750
" />
<path d="M21170 15750
L21830 15750
" />
<path d="M15670 11750
L16330 11750
" />
<path d="M15670 10750
L16330 10750
" />
<path d="M15670 9750
L16330 9750
" />
<path d="M21170 11750
L21830 11750
" />
<path d="M21170 9750
L21830 9750
" />
<path d="M15670 15750
L16330 15750
" />
<path d="M15670 16750
L16330 16750
" />
<path d="M15670 8750
L16330 8750
" />
<path d="M21170 8750
L21830 8750
" />
<path d="M21170 10750
L21830 10750
" />
<path d="M23045 12750
L23705 12750
" />
<path d="M23045 13750
L23705 13750
" />
<path d="M23045 14750
L23705 14750
" />
<path d="M28545 12750
L29205 12750
" />
<path d="M28545 13750
L29205 13750
" />
<path d="M28545 14750
L29205 14750
" />
<path d="M28545 16750
L29205 16750
" />
<path d="M28545 15750
L29205 15750
" />
<path d="M23045 11750
L23705 11750
" />
<path d="M23045 10750
L23705 10750
" />
<path d="M23045 9750
L23705 9750
" />
<path d="M28545 11750
L29205 11750
" />
<path d="M28545 9750
L29205 9750
" />
<path d="M23045 15750
L23705 15750
" />
<path d="M23045 16750
L23705 16750
" />
<path d="M23045 8750
L23705 8750
" />
<path d="M28545 8750
L29205 8750
" />
<path d="M28545 10750
L29205 10750
" />
<path d="M30420 12750
L31080 12750
" />
<path d="M30420 13750
L31080 13750
" />
<path d="M30420 14750
L31080 14750
" />
<path d="M35920 12750
L36580 12750
" />
<path d="M35920 13750
L36580 13750
" />
<path d="M35920 14750
L36580 14750
" />
<path d="M35920 16750
L36580 16750
" />
<path d="M35920 15750
L36580 15750
" />
<path d="M30420 11750
L31080 11750
" />
<path d="M30420 10750
L31080 10750
" />
<path d="M30420 9750
L31080 9750
" />
<path d="M35920 11750
L36580 11750
" />
<path d="M35920 9750
L36580 9750
" />
<path d="M30420 15750
L31080 15750
" />
<path d="M30420 16750
L31080 16750
" />
<path d="M30420 8750
L31080 8750
" />
<path d="M35920 8750
L36580 8750
" />
<path d="M35920 10750
L36580 10750
" />
<path d="M37795 12750
L38455 12750
" />
<path d="M37795 13750
L38455 13750
" />
<path d="M37795 14750
L38455 14750
" />
<path d="M43295 12750
L43955 12750
" />
<path d="M43295 13750
L43955 13750
" />
<path d="M43295 14750
L43955 14750
" />
<path d="M43295 16750
L43955 16750
" />
<path d="M43295 15750
L43955 15750
" />
<path d="M37795 11750
L38455 11750
" />
<path d="M37795 10750
L38455 10750
" />
<path d="M37795 9750
L38455 9750
" />
<path d="M43295 11750
L43955 11750
" />
<path d="M43295 9750
L43955 9750
" />
<path d="M37795 15750
L38455 15750
" />
<path d="M37795 16750
L38455 16750
" />
<path d="M37795 8750
L38455 8750
" />
<path d="M43295 8750
L43955 8750
" />
<path d="M43295 10750
L43955 10750
" />
<path d="M45170 12750
L45830 12750
" />
<path d="M45170 13750
L45830 13750
" />
<path d="M45170 14750
L45830 14750
" />
<path d="M50670 12750
L51330 12750
" />
<path d="M50670 13750
L51330 13750
" />
<path d="M50670 14750
L51330 14750
" />
<path d="M50670 16750
L51330 16750
" />
<path d="M50670 15750
L51330 15750
" />
<path d="M45170 11750
L45830 11750
" />
<path d="M45170 10750
L45830 10750
" />
<path d="M45170 9750
L45830 9750
" />
<path d="M50670 11750
L51330 11750
" />
<path d="M50670 9750
L51330 9750
" />
<path d="M45170 15750
L45830 15750
" />
<path d="M45170 16750
L45830 16750
" />
<path d="M45170 8750
L45830 8750
" />
<path d="M50670 8750
L51330 8750
" />
<path d="M50670 10750
L51330 10750
" />
<path d="M52545 12750
L53205 12750
" />
<path d="M52545 13750
L53205 13750
" />
<path d="M52545 14750
L53205 14750
" />
<path d="M58045 12750
L58705 12750
" />
<path d="M58045 13750
L58705 13750
" />
<path d="M58045 14750
L58705 14750
" />
<path d="M58045 16750
L58705 16750
" />
<path d="M58045 15750
L58705 15750
" />
<path d="M52545 11750
L53205 11750
" />
<path d="M52545 10750
L53205 10750
" />
<path d="M52545 9750
L53205 9750
" />
<path d="M58045 11750
L58705 11750
" />
<path d="M58045 9750
L58705 9750
" />
<path d="M52545 15750
L53205 15750
" />
<path d="M52545 16750
L53205 16750
" />
<path d="M52545 8750
L53205 8750
" />
<path d="M58045 8750
L58705 8750
" />
<path d="M58045 10750
L58705 10750
" />
<path d="M59920 12750
L60580 12750
" />
<path d="M59920 13750
L60580 13750
" />
<path d="M59920 14750
L60580 14750
" />
<path d="M65420 12750
L66080 12750
" />
<path d="M65420 13750
L66080 13750
" />
<path d="M65420 14750
L66080 14750
" />
<path d="M65420 16750
L66080 16750
" />
<path d="M65420 15750
L66080 15750
" />
<path d="M59920 11750
L60580 11750
" />
<path d="M59920 10750
L60580 10750
" />
<path d="M59920 9750
L60580 9750
" />
<path d="M65420 11750
L66080 11750
" />
<path d="M65420 9750
L66080 9750
" />
<path d="M59920 15750
L60580 15750
" />
<path d="M59920 16750
L60580 16750
" />
<path d="M59920 8750
L60580 8750
" />
<path d="M65420 8750
L66080 8750
" />
<path d="M65420 10750
L66080 10750
" />
</g>
<g style="fill:#000000; fill-opacity:1.0; 
stroke:#000000; stroke-width:19.685; stroke-opacity:1; 
stroke-linecap:round; stroke-linejoin:round;">
<circle cx="26250" cy="18250" r="340.157" /> 
<circle cx="26250" cy="20750" r="340.157" /> 
<circle cx="33500" cy="18250" r="340.157" /> 
<circle cx="33500" cy="22000" r="340.157" /> 
<circle cx="40750" cy="18250" r="340.157" /> 
<circle cx="40750" cy="22250" r="340.157" /> 
<circle cx="48250" cy="18250" r="340.157" /> 
<circle cx="48250" cy="22250" r="340.157" /> 
</g>
<g style="fill:#000000; fill-opacity:1.0; 
stroke:#000000; stroke-width:160; stroke-opacity:1; 
stroke-linecap:round; stroke-linejoin:round;">
<path d="M13000 8750
L16000 8750
" />
<path d="M9750 12000
L13000 8750
" />
<path d="M16000 8750
L18500 8750
" />
<path d="M18500 8750
L19000 8250
" />
<path d="M22750 8750
L23375 8750
" />
<path d="M19000 8250
L22250 8250
" />
<path d="M22250 8250
L22750 8750
" />
<path d="M23375 8750
L26000 8750
" />
<path d="M26000 8750
L26500 8250
" />
<path d="M26500 8250
L29500 8250
" />
<path d="M29500 8250
L30000 8750
" />
<path d="M30000 8750
L30750 8750
" />
<path d="M30750 8750
L33250 8750
" />
<path d="M33250 8750
L33750 8250
" />
<path d="M33750 8250
L37000 8250
" />
<path d="M37000 8250
L37500 8750
" />
<path d="M37500 8750
L38125 8750
" />
<path d="M38125 8750
L40500 8750
" />
<path d="M40500 8750
L41000 8250
" />
<path d="M41000 8250
L44250 8250
" />
<path d="M44250 8250
L44750 8750
" />
<path d="M44750 8750
L45500 8750
" />
<path d="M45500 8750
L48000 8750
" />
<path d="M48000 8750
L48500 8250
" />
<path d="M48500 8250
L51750 8250
" />
<path d="M51750 8250
L52250 8750
" />
<path d="M52250 8750
L52875 8750
" />
<path d="M52875 8750
L55500 8750
" />
<path d="M55500 8750
L56000 8250
" />
<path d="M56000 8250
L59000 8250
" />
<path d="M59000 8250
L59500 8750
" />
<path d="M59500 8750
L60250 8750
" />
<path d="M19000 8750
L21500 8750
" />
<path d="M18500 9250
L19000 8750
" />
<path d="M13500 9250
L18500 9250
" />
<path d="M10750 12000
L13500 9250
" />
<path d="M21500 8750
L22250 8750
" />
<path d="M22250 8750
L22750 9250
" />
<path d="M22750 9250
L26000 9250
" />
<path d="M26000 9250
L26500 8750
" />
<path d="M26500 8750
L28875 8750
" />
<path d="M28875 8750
L29500 8750
" />
<path d="M29500 8750
L30000 9250
" />
<path d="M30000 9250
L33250 9250
" />
<path d="M33250 9250
L33750 8750
" />
<path d="M33750 8750
L36250 8750
" />
<path d="M36250 8750
L37000 8750
" />
<path d="M37000 8750
L37500 9250
" />
<path d="M37500 9250
L40500 9250
" />
<path d="M40500 9250
L41000 8750
" />
<path d="M41000 8750
L43625 8750
" />
<path d="M43625 8750
L44250 8750
" />
<path d="M44250 8750
L44750 9250
" />
<path d="M44750 9250
L48000 9250
" />
<path d="M48000 9250
L48500 8750
" />
<path d="M48500 8750
L51000 8750
" />
<path d="M51000 8750
L51750 8750
" />
<path d="M51750 8750
L52250 9250
" />
<path d="M52250 9250
L55500 9250
" />
<path d="M55500 9250
L56000 8750
" />
<path d="M56000 8750
L58375 8750
" />
<path d="M58375 8750
L59000 8750
" />
<path d="M59000 8750
L59500 9250
" />
<path d="M59500 9250
L62750 9250
" />
<path d="M62750 9250
L63250 8750
" />
<path d="M63250 8750
L65750 8750
" />
<path d="M19000 10750
L21500 10750
" />
<path d="M18500 11250
L19000 10750
" />
<path d="M13750 11250
L18500 11250
" />
<path d="M11000 14000
L13750 11250
" />
<path d="M10750 14000
L11000 14000
" />
<path d="M21500 10750
L22250 10750
" />
<path d="M22250 10750
L22750 11250
" />
<path d="M22750 11250
L26000 11250
" />
<path d="M26000 11250
L26500 10750
" />
<path d="M26500 10750
L28875 10750
" />
<path d="M28875 10750
L29500 10750
" />
<path d="M29500 10750
L30000 11250
" />
<path d="M30000 11250
L33250 11250
" />
<path d="M33250 11250
L33750 10750
" />
<path d="M33750 10750
L36250 10750
" />
<path d="M36250 10750
L37000 10750
" />
<path d="M37000 10750
L37500 11250
" />
<path d="M37500 11250
L40500 11250
" />
<path d="M40500 11250
L41000 10750
" />
<path d="M41000 10750
L43625 10750
" />
<path d="M43625 10750
L44250 10750
" />
<path d="M44250 10750
L44750 11250
" />
<path d="M44750 11250
L48000 11250
" />
<path d="M48000 11250
L48500 10750
" />
<path d="M48500 10750
L51000 10750
" />
<path d="M51000 10750
L51750 10750
" />
<path d="M51750 10750
L52250 11250
" />
<path d="M52250 11250
L55500 11250
" />
<path d="M55500 11250
L56000 10750
" />
<path d="M56000 10750
L58375 10750
" />
<path d="M58375 10750
L59000 10750
" />
<path d="M59000 10750
L59500 11250
" />
<path d="M59500 11250
L62750 11250
" />
<path d="M62750 11250
L63250 10750
" />
<path d="M63250 10750
L65750 10750
" />
<path d="M19000 13750
L21500 13750
" />
<path d="M18500 14250
L19000 13750
" />
<path d="M14250 14250
L18500 14250
" />
<path d="M11500 17000
L14250 14250
" />
<path d="M10750 17000
L11500 17000
" />
<path d="M21500 13750
L22250 13750
" />
<path d="M22250 13750
L22750 14250
" />
<path d="M22750 14250
L26000 14250
" />
<path d="M26000 14250
L26500 13750
" />
<path d="M26500 13750
L28875 13750
" />
<path d="M28875 13750
L29500 13750
" />
<path d="M29500 13750
L30000 14250
" />
<path d="M30000 14250
L33250 14250
" />
<path d="M33250 14250
L33750 13750
" />
<path d="M33750 13750
L36250 13750
" />
<path d="M36250 13750
L37000 13750
" />
<path d="M37000 13750
L37500 14250
" />
<path d="M37500 14250
L40500 14250
" />
<path d="M40500 14250
L41000 13750
" />
<path d="M41000 13750
L43625 13750
" />
<path d="M43625 13750
L44250 13750
" />
<path d="M44250 13750
L44750 14250
" />
<path d="M44750 14250
L48000 14250
" />
<path d="M48000 14250
L48500 13750
" />
<path d="M48500 13750
L51000 13750
" />
<path d="M51000 13750
L51750 13750
" />
<path d="M51750 13750
L52250 14250
" />
<path d="M52250 14250
L55500 14250
" />
<path d="M55500 14250
L56000 13750
" />
<path d="M56000 13750
L58375 13750
" />
<path d="M58375 13750
L59000 13750
" />
<path d="M59000 13750
L59500 14250
" />
<path d="M59500 14250
L62750 14250
" />
<path d="M62750 14250
L63250 13750
" />
<path d="M63250 13750
L65750 13750
" />
<path d="M19000 14750
L21500 14750
" />
<path d="M18500 15250
L19000 14750
" />
<path d="M14750 15250
L18500 15250
" />
<path d="M12000 18000
L14750 15250
" />
<path d="M10750 18000
L12000 18000
" />
<path d="M21500 14750
L22250 14750
" />
<path d="M22250 14750
L22750 15250
" />
<path d="M22750 15250
L26000 15250
" />
<path d="M26000 15250
L26500 14750
" />
<path d="M26500 14750
L28875 14750
" />
<path d="M28875 14750
L29500 14750
" />
<path d="M29500 14750
L30000 15250
" />
<path d="M30000 15250
L33250 15250
" />
<path d="M33250 15250
L33750 14750
" />
<path d="M33750 14750
L36250 14750
" />
<path d="M36250 14750
L37000 14750
" />
<path d="M37000 14750
L37500 15250
" />
<path d="M37500 15250
L40500 15250
" />
<path d="M40500 15250
L41000 14750
" />
<path d="M41000 14750
L43625 14750
" />
<path d="M43625 14750
L44250 14750
" />
<path d="M44250 14750
L44750 15250
" />
<path d="M44750 15250
L48000 15250
" />
<path d="M48000 15250
L48500 14750
" />
<path d="M48500 14750
L51000 14750
" />
<path d="M51000 14750
L51750 14750
" />
<path d="M51750 14750
L52250 15250
" />
<path d="M52250 15250
L55500 15250
" />
<path d="M55500 15250
L56000 14750
" />
<path d="M56000 14750
L58375 14750
" />
<path d="M58375 14750
L59000 14750
" />
<path d="M59000 14750
L59500 15250
" />
<path d="M59500 15250
L62750 15250
" />
<path d="M62750 15250
L63250 14750
" />
<path d="M63250 14750
L65750 14750
" />
<path d="M58375 16750
L58500 16750
" />
<path d="M10750 20000
L16000 20000
" />
<path d="M16000 20000
L19250 16750
" />
<path d="M19250 16750
L21500 16750
" />
<path d="M21500 16750
L21750 16750
" />
<path d="M21750 16750
L22500 17500
" />
<path d="M22500 17500
L22500 19500
" />
<path d="M22500 19500
L23000 20000
" />
<path d="M23000 20000
L29000 20000
" />
<path d="M29000 20000
L36250 20000
" />
<path d="M36250 20000
L43750 20000
" />
<path d="M43750 20000
L51000 20000
" />
<path d="M51000 20000
L58500 20000
" />
<path d="M58500 20000
L65250 20000
" />
<path d="M65250 20000
L65750 19500
" />
<path d="M65750 19500
L65750 16750
" />
<path d="M28875 19875
L28875 16750
" />
<path d="M29000 20000
L28875 19875
" />
<path d="M36250 20000
L36250 16750
" />
<path d="M43625 19875
L43625 16750
" />
<path d="M43750 20000
L43625 19875
" />
<path d="M51000 20000
L51000 16750
" />
<path d="M58375 19875
L58375 16750
" />
<path d="M58500 20000
L58375 19875
" />
<path d="M9750 20000
L10250 19500
" />
<path d="M13250 19500
L16000 16750
" />
<path d="M10250 19500
L13250 19500
" />
<path d="M29500 16250
L30000 16750
" />
<path d="M30000 16750
L30750 16750
" />
<path d="M37000 16250
L37500 16750
" />
<path d="M37500 16750
L38125 16750
" />
<path d="M59500 16750
L60250 16750
" />
<path d="M59000 16250
L59500 16750
" />
<path d="M56000 16250
L59000 16250
" />
<path d="M55500 16750
L56000 16250
" />
<path d="M52875 16750
L55500 16750
" />
<path d="M16000 16750
L18500 16750
" />
<path d="M18500 16750
L19000 16250
" />
<path d="M19000 16250
L22250 16250
" />
<path d="M22250 16250
L22750 16750
" />
<path d="M22750 16750
L23375 16750
" />
<path d="M23375 16750
L24000 16750
" />
<path d="M24000 16750
L24500 17250
" />
<path d="M24500 17250
L24500 18750
" />
<path d="M24500 18750
L25000 19250
" />
<path d="M25000 19250
L26750 19250
" />
<path d="M26750 19250
L27250 18750
" />
<path d="M27250 18750
L27250 16750
" />
<path d="M27250 16750
L27750 16250
" />
<path d="M27750 16250
L29500 16250
" />
<path d="M30750 16750
L31500 16750
" />
<path d="M31500 16750
L32000 17250
" />
<path d="M32000 17250
L32000 18750
" />
<path d="M32000 18750
L32500 19250
" />
<path d="M32500 19250
L34500 19250
" />
<path d="M34500 19250
L35000 18750
" />
<path d="M35000 18750
L35000 16500
" />
<path d="M35000 16500
L35250 16250
" />
<path d="M35250 16250
L37000 16250
" />
<path d="M38125 16750
L38750 16750
" />
<path d="M38750 16750
L39250 17250
" />
<path d="M39250 17250
L39250 18750
" />
<path d="M39250 18750
L39750 19250
" />
<path d="M39750 19250
L41500 19250
" />
<path d="M41500 19250
L42000 18750
" />
<path d="M42000 18750
L42000 16750
" />
<path d="M42000 16750
L42500 16250
" />
<path d="M42500 16250
L44250 16250
" />
<path d="M44250 16250
L44750 16750
" />
<path d="M44750 16750
L45500 16750
" />
<path d="M45500 16750
L46250 16750
" />
<path d="M46250 16750
L46750 17250
" />
<path d="M46750 17250
L46750 18750
" />
<path d="M46750 18750
L47250 19250
" />
<path d="M47250 19250
L49000 19250
" />
<path d="M49000 19250
L49500 18750
" />
<path d="M49500 18750
L49500 16750
" />
<path d="M49500 16750
L50000 16250
" />
<path d="M50000 16250
L51750 16250
" />
<path d="M51750 16250
L52250 16750
" />
<path d="M52250 16750
L52875 16750
" />
<path d="M9750 19000
L10250 18500
" />
<path d="M15000 15750
L16000 15750
" />
<path d="M12250 18500
L15000 15750
" />
<path d="M10250 18500
L12250 18500
" />
<path d="M16000 15750
L18500 15750
" />
<path d="M18500 15750
L19000 15250
" />
<path d="M19000 15250
L22250 15250
" />
<path d="M22250 15250
L22750 15750
" />
<path d="M22750 15750
L23375 15750
" />
<path d="M23375 15750
L26000 15750
" />
<path d="M26000 15750
L26500 15250
" />
<path d="M26500 15250
L29500 15250
" />
<path d="M29500 15250
L30000 15750
" />
<path d="M30000 15750
L30750 15750
" />
<path d="M30750 15750
L33250 15750
" />
<path d="M33250 15750
L33750 15250
" />
<path d="M33750 15250
L37000 15250
" />
<path d="M37000 15250
L37500 15750
" />
<path d="M37500 15750
L38125 15750
" />
<path d="M38125 15750
L40500 15750
" />
<path d="M40500 15750
L41000 15250
" />
<path d="M41000 15250
L44250 15250
" />
<path d="M44250 15250
L44750 15750
" />
<path d="M44750 15750
L45500 15750
" />
<path d="M45500 15750
L48000 15750
" />
<path d="M48000 15750
L48500 15250
" />
<path d="M48500 15250
L51750 15250
" />
<path d="M51750 15250
L52250 15750
" />
<path d="M52250 15750
L52875 15750
" />
<path d="M52875 15750
L55500 15750
" />
<path d="M55500 15750
L56000 15250
" />
<path d="M56000 15250
L59000 15250
" />
<path d="M59000 15250
L59500 15750
" />
<path d="M59500 15750
L60250 15750
" />
<path d="M9750 15000
L10250 14500
" />
<path d="M13750 11750
L16000 11750
" />
<path d="M11000 14500
L13750 11750
" />
<path d="M10250 14500
L11000 14500
" />
<path d="M16000 11750
L18500 11750
" />
<path d="M18500 11750
L19000 11250
" />
<path d="M19000 11250
L22250 11250
" />
<path d="M22250 11250
L22750 11750
" />
<path d="M22750 11750
L23375 11750
" />
<path d="M23375 11750
L26000 11750
" />
<path d="M26000 11750
L26500 11250
" />
<path d="M26500 11250
L29500 11250
" />
<path d="M29500 11250
L30000 11750
" />
<path d="M30000 11750
L30750 11750
" />
<path d="M30750 11750
L33250 11750
" />
<path d="M33250 11750
L33750 11250
" />
<path d="M33750 11250
L37000 11250
" />
<path d="M37000 11250
L37500 11750
" />
<path d="M37500 11750
L38125 11750
" />
<path d="M38125 11750
L40500 11750
" />
<path d="M40500 11750
L41000 11250
" />
<path d="M41000 11250
L44250 11250
" />
<path d="M44250 11250
L44750 11750
" />
<path d="M44750 11750
L45500 11750
" />
<path d="M45500 11750
L48000 11750
" />
<path d="M48000 11750
L48500 11250
" />
<path d="M48500 11250
L51750 11250
" />
<path d="M51750 11250
L52250 11750
" />
<path d="M52250 11750
L52875 11750
" />
<path d="M52875 11750
L55500 11750
" />
<path d="M55500 11750
L56000 11250
" />
<path d="M56000 11250
L59000 11250
" />
<path d="M59000 11250
L59500 11750
" />
<path d="M59500 11750
L60250 11750
" />
<path d="M9750 14000
L10250 13500
" />
<path d="M13750 10750
L16000 10750
" />
<path d="M11000 13500
L13750 10750
" />
<path d="M10250 13500
L11000 13500
" />
<path d="M16000 10750
L18500 10750
" />
<path d="M18500 10750
L19000 10250
" />
<path d="M19000 10250
L22250 10250
" />
<path d="M22250 10250
L22750 10750
" />
<path d="M22750 10750
L23375 10750
" />
<path d="M23375 10750
L26000 10750
" />
<path d="M26000 10750
L26500 10250
" />
<path d="M26500 10250
L29500 10250
" />
<path d="M29500 10250
L30000 10750
" />
<path d="M30000 10750
L30750 10750
" />
<path d="M30750 10750
L33250 10750
" />
<path d="M33250 10750
L33750 10250
" />
<path d="M33750 10250
L37000 10250
" />
<path d="M37000 10250
L37500 10750
" />
<path d="M37500 10750
L38125 10750
" />
<path d="M38125 10750
L40500 10750
" />
<path d="M40500 10750
L41000 10250
" />
<path d="M41000 10250
L44250 10250
" />
<path d="M44250 10250
L44750 10750
" />
<path d="M44750 10750
L45500 10750
" />
<path d="M45500 10750
L48000 10750
" />
<path d="M48000 10750
L48500 10250
" />
<path d="M48500 10250
L51750 10250
" />
<path d="M51750 10250
L52250 10750
" />
<path d="M52250 10750
L52875 10750
" />
<path d="M52875 10750
L55500 10750
" />
<path d="M55500 10750
L56000 10250
" />
<path d="M56000 10250
L59000 10250
" />
<path d="M59000 10250
L59500 10750
" />
<path d="M59500 10750
L60250 10750
" />
<path d="M9750 13000
L10250 12500
" />
<path d="M13750 9750
L16000 9750
" />
<path d="M11000 12500
L13750 9750
" />
<path d="M10250 12500
L11000 12500
" />
<path d="M16000 9750
L18500 9750
" />
<path d="M18500 9750
L19000 9250
" />
<path d="M22750 9750
L23375 9750
" />
<path d="M19000 9250
L22250 9250
" />
<path d="M22250 9250
L22750 9750
" />
<path d="M23375 9750
L26000 9750
" />
<path d="M26000 9750
L26500 9250
" />
<path d="M26500 9250
L29500 9250
" />
<path d="M29500 9250
L30000 9750
" />
<path d="M30000 9750
L30750 9750
" />
<path d="M30750 9750
L33250 9750
" />
<path d="M33250 9750
L33750 9250
" />
<path d="M33750 9250
L37000 9250
" />
<path d="M37000 9250
L37500 9750
" />
<path d="M37500 9750
L38125 9750
" />
<path d="M38125 9750
L40500 9750
" />
<path d="M40500 9750
L41000 9250
" />
<path d="M41000 9250
L44250 9250
" />
<path d="M44250 9250
L44750 9750
" />
<path d="M44750 9750
L45500 9750
" />
<path d="M45500 9750
L48000 9750
" />
<path d="M48000 9750
L48500 9250
" />
<path d="M48500 9250
L51750 9250
" />
<path d="M51750 9250
L52250 9750
" />
<path d="M52250 9750
L52875 9750
" />
<path d="M52875 9750
L55500 9750
" />
<path d="M55500 9750
L56000 9250
" />
<path d="M56000 9250
L59000 9250
" />
<path d="M59000 9250
L59500 9750
" />
<path d="M59500 9750
L60250 9750
" />
<path d="M19000 9750
L21500 9750
" />
<path d="M18500 10250
L19000 9750
" />
<path d="M13750 10250
L18500 10250
" />
<path d="M11000 13000
L13750 10250
" />
<path d="M10750 13000
L11000 13000
" />
<path d="M21500 9750
L22250 9750
" />
<path d="M22250 9750
L22750 10250
" />
<path d="M22750 10250
L26000 10250
" />
<path d="M26000 10250
L26500 9750
" />
<path d="M26500 9750
L28875 9750
" />
<path d="M28875 9750
L29500 9750
" />
<path d="M29500 9750
L30000 10250
" />
<path d="M30000 10250
L33250 10250
" />
<path d="M33250 10250
L33750 9750
" />
<path d="M33750 9750
L36250 9750
" />
<path d="M36250 9750
L37000 9750
" />
<path d="M37000 9750
L37500 10250
" />
<path d="M37500 10250
L40500 10250
" />
<path d="M40500 10250
L41000 9750
" />
<path d="M41000 9750
L43625 9750
" />
<path d="M43625 9750
L44250 9750
" />
<path d="M44250 9750
L44750 10250
" />
<path d="M44750 10250
L48000 10250
" />
<path d="M48000 10250
L48500 9750
" />
<path d="M48500 9750
L51000 9750
" />
<path d="M51000 9750
L51750 9750
" />
<path d="M51750 9750
L52250 10250
" />
<path d="M52250 10250
L55500 10250
" />
<path d="M55500 10250
L56000 9750
" />
<path d="M56000 9750
L58375 9750
" />
<path d="M58375 9750
L59000 9750
" />
<path d="M59000 9750
L59500 10250
" />
<path d="M59500 10250
L62750 10250
" />
<path d="M62750 10250
L63250 9750
" />
<path d="M63250 9750
L65750 9750
" />
<path d="M19000 11750
L21500 11750
" />
<path d="M18500 12250
L19000 11750
" />
<path d="M13750 12250
L18500 12250
" />
<path d="M11000 15000
L13750 12250
" />
<path d="M10750 15000
L11000 15000
" />
<path d="M21500 11750
L22250 11750
" />
<path d="M22250 11750
L22750 12250
" />
<path d="M22750 12250
L26000 12250
" />
<path d="M26000 12250
L26500 11750
" />
<path d="M26500 11750
L28875 11750
" />
<path d="M28875 11750
L29500 11750
" />
<path d="M29500 11750
L30000 12250
" />
<path d="M30000 12250
L33250 12250
" />
<path d="M33250 12250
L33750 11750
" />
<path d="M33750 11750
L36250 11750
" />
<path d="M36250 11750
L37000 11750
" />
<path d="M37000 11750
L37500 12250
" />
<path d="M37500 12250
L40500 12250
" />
<path d="M40500 12250
L41000 11750
" />
<path d="M41000 11750
L43625 11750
" />
<path d="M43625 11750
L44250 11750
" />
<path d="M44250 11750
L44750 12250
" />
<path d="M44750 12250
L48000 12250
" />
<path d="M48000 12250
L48500 11750
" />
<path d="M48500 11750
L51000 11750
" />
<path d="M51000 11750
L51750 11750
" />
<path d="M51750 11750
L52250 12250
" />
<path d="M52250 12250
L55500 12250
" />
<path d="M55500 12250
L56000 11750
" />
<path d="M56000 11750
L58375 11750
" />
<path d="M58375 11750
L59000 11750
" />
<path d="M59000 11750
L59500 12250
" />
<path d="M59500 12250
L62750 12250
" />
<path d="M62750 12250
L63250 11750
" />
<path d="M63250 11750
L65750 11750
" />
<path d="M19000 12750
L21500 12750
" />
<path d="M18500 13250
L19000 12750
" />
<path d="M13750 13250
L18500 13250
" />
<path d="M11000 16000
L13750 13250
" />
<path d="M10750 16000
L11000 16000
" />
<path d="M21500 12750
L22250 12750
" />
<path d="M22250 12750
L22750 13250
" />
<path d="M22750 13250
L26000 13250
" />
<path d="M26000 13250
L26500 12750
" />
<path d="M26500 12750
L28875 12750
" />
<path d="M28875 12750
L29500 12750
" />
<path d="M29500 12750
L30000 13250
" />
<path d="M30000 13250
L33250 13250
" />
<path d="M33250 13250
L33750 12750
" />
<path d="M33750 12750
L36250 12750
" />
<path d="M36250 12750
L37000 12750
" />
<path d="M37000 12750
L37500 13250
" />
<path d="M37500 13250
L40500 13250
" />
<path d="M40500 13250
L41000 12750
" />
<path d="M41000 12750
L43625 12750
" />
<path d="M43625 12750
L44250 12750
" />
<path d="M44250 12750
L44750 13250
" />
<path d="M44750 13250
L48000 13250
" />
<path d="M48000 13250
L48500 12750
" />
<path d="M48500 12750
L51000 12750
" />
<path d="M51000 12750
L51750 12750
" />
<path d="M51750 12750
L52250 13250
" />
<path d="M52250 13250
L55500 13250
" />
<path d="M55500 13250
L56000 12750
" />
<path d="M56000 12750
L58375 12750
" />
<path d="M58375 12750
L59000 12750
" />
<path d="M59000 12750
L59500 13250
" />
<path d="M59500 13250
L62750 13250
" />
<path d="M62750 13250
L63250 12750
" />
<path d="M63250 12750
L65750 12750
" />
<path d="M9750 17000
L10250 16500
" />
<path d="M14000 13750
L16000 13750
" />
<path d="M11250 16500
L14000 13750
" />
<path d="M10250 16500
L11250 16500
" />
<path d="M16000 13750
L18500 13750
" />
<path d="M18500 13750
L19000 13250
" />
<path d="M19000 13250
L22250 13250
" />
<path d="M22250 13250
L22750 13750
" />
<path d="M22750 13750
L23375 13750
" />
<path d="M23375 13750
L26000 13750
" />
<path d="M26000 13750
L26500 13250
" />
<path d="M26500 13250
L29500 13250
" />
<path d="M29500 13250
L30000 13750
" />
<path d="M30000 13750
L30750 13750
" />
<path d="M30750 13750
L33250 13750
" />
<path d="M33250 13750
L33750 13250
" />
<path d="M33750 13250
L37000 13250
" />
<path d="M37000 13250
L37500 13750
" />
<path d="M37500 13750
L38125 13750
" />
<path d="M38125 13750
L40500 13750
" />
<path d="M40500 13750
L41000 13250
" />
<path d="M41000 13250
L44250 13250
" />
<path d="M44250 13250
L44750 13750
" />
<path d="M44750 13750
L45500 13750
" />
<path d="M45500 13750
L48000 13750
" />
<path d="M48000 13750
L48500 13250
" />
<path d="M48500 13250
L51750 13250
" />
<path d="M51750 13250
L52250 13750
" />
<path d="M52250 13750
L52875 13750
" />
<path d="M52875 13750
L55500 13750
" />
<path d="M55500 13750
L56000 13250
" />
<path d="M56000 13250
L59000 13250
" />
<path d="M59000 13250
L59500 13750
" />
<path d="M59500 13750
L60250 13750
" />
<path d="M19000 15750
L21500 15750
" />
<path d="M18500 16250
L19000 15750
" />
<path d="M15250 16250
L18500 16250
" />
<path d="M12500 19000
L15250 16250
" />
<path d="M10750 19000
L12500 19000
" />
<path d="M26750 15750
L28875 15750
" />
<path d="M26250 16250
L26750 15750
" />
<path d="M26250 18250
L26250 16250
" />
<path d="M26000 21000
L26250 20750
" />
<path d="M10750 21000
L26000 21000
" />
<path d="M34000 15750
L36250 15750
" />
<path d="M33500 16250
L34000 15750
" />
<path d="M33500 18250
L33500 16250
" />
<path d="M10750 22000
L33500 22000
" />
<path d="M10750 23000
L40250 23000
" />
<path d="M41250 15750
L43625 15750
" />
<path d="M40750 16250
L41250 15750
" />
<path d="M40750 18250
L40750 16250
" />
<path d="M40750 22500
L40750 22250
" />
<path d="M40250 23000
L40750 22500
" />
<path d="M9750 23000
L10250 23500
" />
<path d="M10250 23500
L47750 23500
" />
<path d="M48750 15750
L51000 15750
" />
<path d="M48250 16250
L48750 15750
" />
<path d="M48250 18250
L48250 16250
" />
<path d="M48250 23000
L48250 22250
" />
<path d="M47750 23500
L48250 23000
" />
<path d="M9250 22000
L9750 22000
" />
<path d="M8750 22500
L9250 22000
" />
<path d="M8750 23500
L8750 22500
" />
<path d="M8750 23500
L9250 24000
" />
<path d="M9250 24000
L67750 24000
" />
<path d="M59000 15750
L58375 15750
" />
<path d="M59500 16250
L59000 15750
" />
<path d="M67750 24000
L68500 23250
" />
<path d="M68500 23250
L68500 15750
" />
<path d="M68500 15750
L68000 15250
" />
<path d="M68000 15250
L63250 15250
" />
<path d="M63250 15250
L62250 16250
" />
<path d="M62250 16250
L59500 16250
" />
<path d="M9750 21000
L10250 21500
" />
<path d="M10250 21500
L51750 21500
" />
<path d="M51750 21500
L52750 20500
" />
<path d="M52750 20500
L66500 20500
" />
<path d="M66500 20500
L67250 19750
" />
<path d="M67250 19750
L67250 16250
" />
<path d="M67250 16250
L66750 15750
" />
<path d="M66750 15750
L65750 15750
" />
<path d="M9750 18000
L10250 17500
" />
<path d="M14500 14750
L16000 14750
" />
<path d="M11750 17500
L14500 14750
" />
<path d="M10250 17500
L11750 17500
" />
<path d="M16000 14750
L18500 14750
" />
<path d="M18500 14750
L19000 14250
" />
<path d="M19000 14250
L22250 14250
" />
<path d="M22250 14250
L22750 14750
" />
<path d="M22750 14750
L23375 14750
" />
<path d="M23375 14750
L26000 14750
" />
<path d="M26000 14750
L26500 14250
" />
<path d="M26500 14250
L29500 14250
" />
<path d="M29500 14250
L30000 14750
" />
<path d="M30000 14750
L30750 14750
" />
<path d="M30750 14750
L33250 14750
" />
<path d="M33250 14750
L33750 14250
" />
<path d="M33750 14250
L37000 14250
" />
<path d="M37000 14250
L37500 14750
" />
<path d="M37500 14750
L38125 14750
" />
<path d="M38125 14750
L40500 14750
" />
<path d="M40500 14750
L41000 14250
" />
<path d="M41000 14250
L44250 14250
" />
<path d="M44250 14250
L44750 14750
" />
<path d="M44750 14750
L45500 14750
" />
<path d="M45500 14750
L48000 14750
" />
<path d="M48000 14750
L48500 14250
" />
<path d="M48500 14250
L51750 14250
" />
<path d="M51750 14250
L52250 14750
" />
<path d="M52250 14750
L52875 14750
" />
<path d="M52875 14750
L55500 14750
" />
<path d="M55500 14750
L56000 14250
" />
<path d="M56000 14250
L59000 14250
" />
<path d="M59000 14250
L59500 14750
" />
<path d="M59500 14750
L60250 14750
" />
<path d="M9750 16000
L10250 15500
" />
<path d="M13750 12750
L16000 12750
" />
<path d="M11000 15500
L13750 12750
" />
<path d="M10250 15500
L11000 15500
" />
<path d="M16000 12750
L18500 12750
" />
<path d="M18500 12750
L19000 12250
" />
<path d="M19000 12250
L22250 12250
" />
<path d="M22250 12250
L22750 12750
" />
<path d="M22750 12750
L23375 12750
" />
<path d="M23375 12750
L26000 12750
" />
<path d="M26000 12750
L26500 12250
" />
<path d="M26500 12250
L29500 12250
" />
<path d="M29500 12250
L30000 12750
" />
<path d="M30000 12750
L30750 12750
" />
<path d="M30750 12750
L33250 12750
" />
<path d="M33250 12750
L33750 12250
" />
<path d="M33750 12250
L37000 12250
" />
<path d="M37000 12250
L37500 12750
" />
<path d="M37500 12750
L38125 12750
" />
<path d="M38125 12750
L40500 12750
" />
<path d="M40500 12750
L41000 12250
" />
<path d="M41000 12250
L44250 12250
" />
<path d="M44250 12250
L44750 12750
" />
<path d="M44750 12750
L45500 12750
" />
<path d="M45500 12750
L48000 12750
" />
<path d="M48000 12750
L48500 12250
" />
<path d="M48500 12250
L51750 12250
" />
<path d="M51750 12250
L52250 12750
" />
<path d="M52250 12750
L52875 12750
" />
<path d="M52875 12750
L55500 12750
" />
<path d="M55500 12750
L56000 12250
" />
<path d="M56000 12250
L59000 12250
" />
<path d="M59000 12250
L59500 12750
" />
<path d="M59500 12750
L60250 12750
" />
</g>
<g style="fill:#000000; fill-opacity:1.0; 
stroke:#000000; stroke-width:19.685; stroke-opacity:1; 
stroke-linecap:round; stroke-linejoin:round;">
<polyline style="fill-rule:evenodd;"
points="58402,15770
58395,15770
58395,15777
58355,15777
58355,15770
57505,15770
57445,15865
57452,15890
56000,15890
55966,15893
55933,15896
55931,15896
55930,15896
55898,15906
55866,15915
55864,15916
55862,15917
55833,15932
55818,15940
56149,15610
57452,15610
57445,15634
57505,15730
58355,15730
58355,15722
58395,15722
58395,15730
58402,15730
58402,15770
" /> 
</g>
<g style="fill:#000000; fill-opacity:0.0; 
stroke:#000000; stroke-width:160; stroke-opacity:1; 
stroke-linecap:round; stroke-linejoin:round;">
<polyline fill="none;"
points="58402,15770
58395,15770
58395,15777
58355,15777
58355,15770
57505,15770
57445,15865
57452,15890
56000,15890
55966,15893
55933,15896
55931,15896
55930,15896
55898,15906
55866,15915
55864,15916
55862,15917
55833,15932
55818,15940
56149,15610
57452,15610
57445,15634
57505,15730
58355,15730
58355,15722
58395,15722
58395,15730
58402,15730
58402,15770
" /> 
</g>
<g style="fill:#000000; fill-opacity:1.0; 
stroke:#000000; stroke-width:19.685; stroke-opacity:1; 
stroke-linecap:round; stroke-linejoin:round;">
<polyline style="fill-rule:evenodd;"
points="65390,19350
65100,19640
58735,19640
58735,17357
58828,17348
58942,17313
59047,17258
59139,17182
59215,17091
59256,17014
59271,17025
59296,17047
59298,17047
59299,17049
59329,17064
59358,17080
59359,17081
59361,17082
59393,17092
59417,17099
59479,17176
59570,17253
59675,17310
59788,17346
59906,17359
59915,17360
60584,17360
60703,17348
60817,17313
60922,17258
61014,17182
61090,17091
61146,16986
61182,16872
61194,16754
61183,16635
61150,16521
61094,16415
61020,16323
60932,16249
61014,16182
61090,16091
61146,15986
61182,15872
61194,15754
61183,15635
61176,15610
62750,15610
62783,15606
62816,15603
62818,15603
62819,15603
62851,15593
62883,15584
62885,15583
62887,15582
62916,15567
62946,15551
62947,15550
62949,15549
62974,15528
63000,15508
63003,15505
63003,15505
63003,15505
63004,15504
63399,15110
64925,15110
64979,15176
65067,15250
64985,15317
64909,15408
64853,15513
64817,15627
64805,15745
64816,15864
64849,15978
64905,16084
64979,16176
65067,16250
64985,16317
64909,16408
64853,16513
64817,16627
64805,16745
64816,16864
64849,16978
64905,17084
64979,17176
65070,17253
65175,17310
65288,17346
65390,17358
65390,19350
" /> 
</g>
<g style="fill:#000000; fill-opacity:0.0; 
stroke:#000000; stroke-width:160; stroke-opacity:1; 
stroke-linecap:round; stroke-linejoin:round;">
<polyline fill="none;"
points="65390,19350
65100,19640
58735,19640
58735,17357
58828,17348
58942,17313
59047,17258
59139,17182
59215,17091
59256,17014
59271,17025
59296,17047
59298,17047
59299,17049
59329,17064
59358,17080
59359,17081
59361,17082
59393,17092
59417,17099
59479,17176
59570,17253
59675,17310
59788,17346
59906,17359
59915,17360
60584,17360
60703,17348
60817,17313
60922,17258
61014,17182
61090,17091
61146,16986
61182,16872
61194,16754
61183,16635
61150,16521
61094,16415
61020,16323
60932,16249
61014,16182
61090,16091
61146,15986
61182,15872
61194,15754
61183,15635
61176,15610
62750,15610
62783,15606
62816,15603
62818,15603
62819,15603
62851,15593
62883,15584
62885,15583
62887,15582
62916,15567
62946,15551
62947,15550
62949,15549
62974,15528
63000,15508
63003,15505
63003,15505
63003,15505
63004,15504
63399,15110
64925,15110
64979,15176
65067,15250
64985,15317
64909,15408
64853,15513
64817,15627
64805,15745
64816,15864
64849,15978
64905,16084
64979,16176
65067,16250
64985,16317
64909,16408
64853,16513
64817,16627
64805,16745
64816,16864
64849,16978
64905,17084
64979,17176
65070,17253
65175,17310
65288,17346
65390,17358
65390,19350
" /> 
</g>
<g style="fill:#000000; fill-opacity:1.0; 
stroke:#000000; stroke-width:19.685; stroke-opacity:1; 
stroke-linecap:round; stroke-linejoin:round;">
<polyline style="fill-rule:evenodd;"
points="74839,28967
74030,28967
74030,27024
74030,9399
73990,9200
73913,9014
73802,8845
73659,8702
73492,8589
73306,8511
73108,8470
72906,8469
72707,8507
72520,8582
72351,8693
72207,8834
72093,9001
72013,9187
71971,9384
71968,9586
72005,9785
72079,9973
72188,10142
72329,10288
72495,10403
72680,10484
72877,10527
73079,10531
73278,10496
73466,10423
73637,10315
73783,10176
73899,10011
73982,9826
74026,9629
74030,9399
74030,27024
73990,26825
73913,26639
73802,26470
73659,26327
73492,26214
73306,26136
73108,26095
72906,26094
72707,26132
72520,26207
72351,26318
72207,26459
72093,26626
72013,26812
71971,27009
71968,27211
72005,27410
72079,27598
72188,27767
72329,27913
72495,28028
72680,28109
72877,28152
73079,28156
73278,28121
73466,28048
73637,27940
73783,27801
73899,27636
73982,27451
74026,27254
74030,27024
74030,28967
67610,28967
67610,19750
67610,16250
67606,16216
67603,16183
67603,16181
67603,16180
67593,16148
67584,16116
67583,16114
67582,16112
67567,16083
67551,16053
67550,16052
67549,16050
67528,16025
67508,15999
67505,15996
67505,15996
67505,15996
67504,15995
67004,15495
66978,15474
66953,15452
66951,15452
66950,15450
66920,15435
66891,15419
66890,15418
66888,15417
66856,15407
66824,15397
66822,15397
66821,15397
66788,15393
66755,15390
66751,15390
66751,15390
66751,15390
66750,15390
66574,15390
66520,15323
66432,15249
66514,15182
66590,15091
66646,14986
66682,14872
66694,14754
66683,14635
66650,14521
66594,14415
66520,14323
66432,14249
66514,14182
66590,14091
66646,13986
66682,13872
66694,13754
66683,13635
66650,13521
66594,13415
66520,13323
66432,13249
66514,13182
66590,13091
66646,12986
66682,12872
66694,12754
66683,12635
66650,12521
66594,12415
66520,12323
66432,12249
66514,12182
66590,12091
66646,11986
66682,11872
66694,11754
66683,11635
66650,11521
66594,11415
66520,11323
66432,11249
66514,11182
66590,11091
66646,10986
66682,10872
66694,10754
66683,10635
66650,10521
66594,10415
66520,10323
66432,10249
66514,10182
66590,10091
66646,9986
66682,9872
66694,9754
66683,9635
66650,9521
66594,9415
66520,9323
66432,9249
66514,9182
66590,9091
66646,8986
66682,8872
66694,8754
66683,8635
66650,8521
66594,8415
66520,8323
66429,8246
66324,8189
66211,8153
66093,8140
66084,8140
65415,8140
65296,8151
65182,8186
65077,8241
64985,8317
64925,8390
63250,8390
63216,8393
63183,8396
63181,8396
63180,8396
63148,8406
63116,8415
63114,8416
63112,8417
63083,8432
63053,8448
63052,8449
63050,8450
63025,8471
62999,8491
62996,8494
62996,8494
62996,8494
62995,8495
62600,8890
61176,8890
61182,8872
61194,8754
61183,8635
61150,8521
61094,8415
61020,8323
60929,8246
60824,8189
60711,8153
60593,8140
60584,8140
59915,8140
59796,8151
59682,8186
59577,8241
59535,8276
59254,7995
59228,7974
59203,7952
59201,7952
59200,7950
59170,7935
59141,7919
59140,7918
59138,7917
59106,7907
59074,7897
59072,7897
59071,7897
59038,7893
59005,7890
59001,7890
59001,7890
59001,7890
59000,7890
56000,7890
55966,7893
55933,7896
55931,7896
55930,7896
55898,7906
55866,7915
55864,7916
55862,7917
55833,7932
55803,7948
55802,7949
55800,7950
55775,7971
55749,7991
55746,7994
55746,7994
55746,7994
55745,7995
55350,8390
53699,8390
53645,8323
53554,8246
53449,8189
53336,8153
53218,8140
53209,8140
52540,8140
52421,8151
52307,8186
52234,8225
52004,7995
51978,7974
51953,7952
51951,7952
51950,7950
51920,7935
51891,7919
51890,7918
51888,7917
51856,7907
51824,7897
51822,7897
51821,7897
51788,7893
51755,7890
51751,7890
51751,7890
51751,7890
51750,7890
48500,7890
48466,7893
48433,7896
48431,7896
48430,7896
48398,7906
48366,7915
48364,7916
48362,7917
48333,7932
48303,7948
48302,7949
48300,7950
48275,7971
48249,7991
48246,7994
48246,7994
48246,7994
48245,7995
47850,8390
46324,8390
46270,8323
46179,8246
46074,8189
45961,8153
45843,8140
45834,8140
45165,8140
45046,8151
44932,8186
44827,8241
44785,8276
44504,7995
44478,7974
44453,7952
44451,7952
44450,7950
44420,7935
44391,7919
44390,7918
44388,7917
44356,7907
44324,7897
44322,7897
44321,7897
44288,7893
44255,7890
44251,7890
44251,7890
44251,7890
44250,7890
41000,7890
40966,7893
40933,7896
40931,7896
40930,7896
40898,7906
40866,7915
40864,7916
40862,7917
40833,7932
40803,7948
40802,7949
40800,7950
40775,7971
40749,7991
40746,7994
40746,7994
40746,7994
40745,7995
40350,8390
38949,8390
38895,8323
38804,8246
38699,8189
38586,8153
38468,8140
38459,8140
37790,8140
37671,8151
37557,8186
37484,8225
37254,7995
37228,7974
37203,7952
37201,7952
37200,7950
37170,7935
37141,7919
37140,7918
37138,7917
37106,7907
37074,7897
37072,7897
37071,7897
37038,7893
37005,7890
37001,7890
37001,7890
37001,7890
37000,7890
33750,7890
33716,7893
33683,7896
33681,7896
33680,7896
33648,7906
33616,7915
33614,7916
33612,7917
33583,7932
33553,7948
33552,7949
33550,7950
33525,7971
33499,7991
33496,7994
33496,7994
33496,7994
33495,7995
33100,8390
31574,8390
31520,8323
31429,8246
31324,8189
31211,8153
31093,8140
31084,8140
30415,8140
30296,8151
30182,8186
30077,8241
30035,8276
29754,7995
29728,7974
29703,7952
29701,7952
29700,7950
29670,7935
29641,7919
29640,7918
29638,7917
29606,7907
29574,7897
29572,7897
29571,7897
29538,7893
29505,7890
29501,7890
29501,7890
29501,7890
29500,7890
26500,7890
26466,7893
26433,7896
26431,7896
26430,7896
26398,7906
26366,7915
26364,7916
26362,7917
26333,7932
26303,7948
26302,7949
26300,7950
26275,7971
26249,7991
26246,7994
26246,7994
26246,7994
26245,7995
25850,8390
24199,8390
24145,8323
24054,8246
23949,8189
23836,8153
23718,8140
23709,8140
23040,8140
22921,8151
22807,8186
22734,8225
22504,7995
22478,7974
22453,7952
22451,7952
22450,7950
22420,7935
22391,7919
22390,7918
22388,7917
22356,7907
22324,7897
22322,7897
22321,7897
22288,7893
22255,7890
22251,7890
22251,7890
22251,7890
22250,7890
19000,7890
18966,7893
18933,7896
18931,7896
18930,7896
18898,7906
18866,7915
18864,7916
18862,7917
18833,7932
18803,7948
18802,7949
18800,7950
18775,7971
18749,7991
18746,7994
18746,7994
18746,7994
18745,7995
18350,8390
16824,8390
16770,8323
16679,8246
16574,8189
16461,8153
16343,8140
16334,8140
15665,8140
15546,8151
15432,8186
15327,8241
15235,8317
15175,8390
13000,8390
12966,8393
12933,8396
12931,8396
12930,8396
12898,8406
12866,8415
12864,8416
12862,8417
12833,8432
12803,8448
12802,8449
12800,8450
12775,8471
12749,8491
12746,8494
12746,8494
12746,8494
12745,8495
10280,10960
10280,9399
10240,9200
10163,9014
10052,8845
9909,8702
9742,8589
9556,8511
9358,8470
9156,8469
8957,8507
8770,8582
8601,8693
8457,8834
8343,9001
8263,9187
8221,9384
8218,9586
8255,9785
8329,9973
8438,10142
8579,10288
8745,10403
8930,10484
9127,10527
9329,10531
9528,10496
9716,10423
9887,10315
10033,10176
10149,10011
10232,9826
10276,9629
10280,9399
10280,10960
9818,11422
9810,11420
9697,11419
9585,11440
9479,11483
9384,11545
9303,11625
9239,11719
9194,11823
9170,11935
9169,12048
9189,12160
9231,12266
9293,12362
9372,12443
9453,12500
9384,12545
9303,12625
9239,12719
9194,12823
9170,12935
9169,13048
9189,13160
9231,13266
9293,13362
9372,13443
9453,13500
9384,13545
9303,13625
9239,13719
9194,13823
9170,13935
9169,14048
9189,14160
9231,14266
9293,14362
9372,14443
9453,14500
9384,14545
9303,14625
9239,14719
9194,14823
9170,14935
9169,15048
9189,15160
9231,15266
9293,15362
9372,15443
9453,15500
9384,15545
9303,15625
9239,15719
9194,15823
9170,15935
9169,16048
9189,16160
9231,16266
9293,16362
9372,16443
9453,16500
9384,16545
9303,16625
9239,16719
9194,16823
9170,16935
9169,17048
9189,17160
9231,17266
9293,17362
9372,17443
9453,17500
9384,17545
9303,17625
9239,17719
9194,17823
9170,17935
9169,18048
9189,18160
9231,18266
9293,18362
9372,18443
9453,18500
9384,18545
9303,18625
9239,18719
9194,18823
9170,18935
9169,19048
9189,19160
9231,19266
9293,19362
9372,19443
9453,19500
9384,19545
9303,19625
9239,19719
9194,19823
9170,19935
9169,20048
9189,20160
9231,20266
9293,20362
9372,20443
9453,20500
9384,20545
9303,20625
9239,20719
9194,20823
9170,20935
9169,21048
9189,21160
9231,21266
9293,21362
9372,21443
9453,21500
9431,21512
9423,21517
9401,21623
9750,21971
9755,21966
9783,21994
9778,22000
10126,22348
10232,22326
10249,22294
10293,22362
10372,22443
10453,22500
10384,22545
10303,22625
10249,22703
10201,22631
10121,22550
10045,22499
10068,22487
10076,22482
10098,22376
9750,22028
9721,22056
9721,22000
9373,21651
9267,21673
9212,21773
9179,21882
9167,21995
9177,22108
9209,22218
9262,22318
9267,22326
9373,22348
9721,22000
9721,22056
9401,22376
9423,22482
9455,22499
9384,22545
9303,22625
9239,22719
9194,22823
9170,22935
9169,23048
9189,23160
9231,23266
9293,23362
9372,23443
9465,23508
9569,23554
9680,23578
9794,23581
9817,23577
9995,23754
10021,23775
10046,23797
10048,23797
10049,23799
10079,23814
10108,23830
10109,23831
10111,23832
10143,23842
10175,23852
10177,23852
10178,23852
10211,23856
10244,23859
10248,23859
10248,23859
10248,23859
10250,23860
47750,23860
47783,23856
47816,23853
47818,23853
47819,23853
47851,23843
47883,23834
47885,23833
47887,23832
47916,23817
47946,23801
47947,23800
47949,23799
47974,23778
48000,23758
48003,23755
48003,23755
48003,23755
48004,23754
48504,23254
48525,23228
48547,23203
48547,23201
48549,23200
48564,23170
48580,23141
48581,23140
48582,23138
48592,23106
48602,23074
48602,23072
48602,23071
48606,23038
48609,23005
48609,23001
48609,23001
48609,23001
48610,23000
48610,22767
48639,22748
48729,22663
48800,22562
48850,22449
48878,22329
48880,22188
48856,22067
48808,21952
48747,21860
51750,21860
51783,21856
51816,21853
51818,21853
51819,21853
51851,21843
51883,21834
51885,21833
51887,21832
51916,21817
51946,21801
51947,21800
51949,21799
51974,21778
52000,21758
52003,21755
52003,21755
52003,21755
52004,21754
52899,20860
66500,20860
66533,20856
66566,20853
66568,20853
66569,20853
66601,20843
66633,20834
66635,20833
66637,20832
66666,20817
66696,20801
66697,20800
66699,20799
66724,20778
66750,20758
66753,20755
66753,20755
66753,20755
66754,20754
67504,20004
67525,19978
67547,19953
67547,19951
67549,19950
67564,19920
67580,19891
67581,19890
67582,19888
67592,19856
67602,19824
67602,19822
67602,19821
67606,19788
67609,19755
67609,19751
67609,19751
67609,19751
67610,19750
67610,28967
62558,28967
62558,27163
62558,25560
53487,25560
53487,27163
62558,27163
62558,28967
10280,28967
10280,27024
10240,26825
10163,26639
10052,26470
9909,26327
9742,26214
9556,26136
9358,26095
9156,26094
8957,26132
8770,26207
8601,26318
8457,26459
8343,26626
8263,26812
8221,27009
8218,27211
8255,27410
8329,27598
8438,27767
8579,27913
8745,28028
8930,28109
9127,28152
9329,28156
9528,28121
9716,28048
9887,27940
10033,27801
10149,27636
10232,27451
10276,27254
10280,27024
10280,28967
7406,28967
7406,7657
74839,7657
74839,28967
" /> 
</g>
<g style="fill:#000000; fill-opacity:0.0; 
stroke:#000000; stroke-width:160; stroke-opacity:1; 
stroke-linecap:round; stroke-linejoin:round;">
<polyline fill="none;"
points="74839,28967
74030,28967
74030,27024
74030,9399
73990,9200
73913,9014
73802,8845
73659,8702
73492,8589
73306,8511
73108,8470
72906,8469
72707,8507
72520,8582
72351,8693
72207,8834
72093,9001
72013,9187
71971,9384
71968,9586
72005,9785
72079,9973
72188,10142
72329,10288
72495,10403
72680,10484
72877,10527
73079,10531
73278,10496
73466,10423
73637,10315
73783,10176
73899,10011
73982,9826
74026,9629
74030,9399
74030,27024
73990,26825
73913,26639
73802,26470
73659,26327
73492,26214
73306,26136
73108,26095
72906,26094
72707,26132
72520,26207
72351,26318
72207,26459
72093,26626
72013,26812
71971,27009
71968,27211
72005,27410
72079,27598
72188,27767
72329,27913
72495,28028
72680,28109
72877,28152
73079,28156
73278,28121
73466,28048
73637,27940
73783,27801
73899,27636
73982,27451
74026,27254
74030,27024
74030,28967
67610,28967
67610,19750
67610,16250
67606,16216
67603,16183
67603,16181
67603,16180
67593,16148
67584,16116
67583,16114
67582,16112
67567,16083
67551,16053
67550,16052
67549,16050
67528,16025
67508,15999
67505,15996
67505,15996
67505,15996
67504,15995
67004,15495
66978,15474
66953,15452
66951,15452
66950,15450
66920,15435
66891,15419
66890,15418
66888,15417
66856,15407
66824,15397
66822,15397
66821,15397
66788,15393
66755,15390
66751,15390
66751,15390
66751,15390
66750,15390
66574,15390
66520,15323
66432,15249
66514,15182
66590,15091
66646,14986
66682,14872
66694,14754
66683,14635
66650,14521
66594,14415
66520,14323
66432,14249
66514,14182
66590,14091
66646,13986
66682,13872
66694,13754
66683,13635
66650,13521
66594,13415
66520,13323
66432,13249
66514,13182
66590,13091
66646,12986
66682,12872
66694,12754
66683,12635
66650,12521
66594,12415
66520,12323
66432,12249
66514,12182
66590,12091
66646,11986
66682,11872
66694,11754
66683,11635
66650,11521
66594,11415
66520,11323
66432,11249
66514,11182
66590,11091
66646,10986
66682,10872
66694,10754
66683,10635
66650,10521
66594,10415
66520,10323
66432,10249
66514,10182
66590,10091
66646,9986
66682,9872
66694,9754
66683,9635
66650,9521
66594,9415
66520,9323
66432,9249
66514,9182
66590,9091
66646,8986
66682,8872
66694,8754
66683,8635
66650,8521
66594,8415
66520,8323
66429,8246
66324,8189
66211,8153
66093,8140
66084,8140
65415,8140
65296,8151
65182,8186
65077,8241
64985,8317
64925,8390
63250,8390
63216,8393
63183,8396
63181,8396
63180,8396
63148,8406
63116,8415
63114,8416
63112,8417
63083,8432
63053,8448
63052,8449
63050,8450
63025,8471
62999,8491
62996,8494
62996,8494
62996,8494
62995,8495
62600,8890
61176,8890
61182,8872
61194,8754
61183,8635
61150,8521
61094,8415
61020,8323
60929,8246
60824,8189
60711,8153
60593,8140
60584,8140
59915,8140
59796,8151
59682,8186
59577,8241
59535,8276
59254,7995
59228,7974
59203,7952
59201,7952
59200,7950
59170,7935
59141,7919
59140,7918
59138,7917
59106,7907
59074,7897
59072,7897
59071,7897
59038,7893
59005,7890
59001,7890
59001,7890
59001,7890
59000,7890
56000,7890
55966,7893
55933,7896
55931,7896
55930,7896
55898,7906
55866,7915
55864,7916
55862,7917
55833,7932
55803,7948
55802,7949
55800,7950
55775,7971
55749,7991
55746,7994
55746,7994
55746,7994
55745,7995
55350,8390
53699,8390
53645,8323
53554,8246
53449,8189
53336,8153
53218,8140
53209,8140
52540,8140
52421,8151
52307,8186
52234,8225
52004,7995
51978,7974
51953,7952
51951,7952
51950,7950
51920,7935
51891,7919
51890,7918
51888,7917
51856,7907
51824,7897
51822,7897
51821,7897
51788,7893
51755,7890
51751,7890
51751,7890
51751,7890
51750,7890
48500,7890
48466,7893
48433,7896
48431,7896
48430,7896
48398,7906
48366,7915
48364,7916
48362,7917
48333,7932
48303,7948
48302,7949
48300,7950
48275,7971
48249,7991
48246,7994
48246,7994
48246,7994
48245,7995
47850,8390
46324,8390
46270,8323
46179,8246
46074,8189
45961,8153
45843,8140
45834,8140
45165,8140
45046,8151
44932,8186
44827,8241
44785,8276
44504,7995
44478,7974
44453,7952
44451,7952
44450,7950
44420,7935
44391,7919
44390,7918
44388,7917
44356,7907
44324,7897
44322,7897
44321,7897
44288,7893
44255,7890
44251,7890
44251,7890
44251,7890
44250,7890
41000,7890
40966,7893
40933,7896
40931,7896
40930,7896
40898,7906
40866,7915
40864,7916
40862,7917
40833,7932
40803,7948
40802,7949
40800,7950
40775,7971
40749,7991
40746,7994
40746,7994
40746,7994
40745,7995
40350,8390
38949,8390
38895,8323
38804,8246
38699,8189
38586,8153
38468,8140
38459,8140
37790,8140
37671,8151
37557,8186
37484,8225
37254,7995
37228,7974
37203,7952
37201,7952
37200,7950
37170,7935
37141,7919
37140,7918
37138,7917
37106,7907
37074,7897
37072,7897
37071,7897
37038,7893
37005,7890
37001,7890
37001,7890
37001,7890
37000,7890
33750,7890
33716,7893
33683,7896
33681,7896
33680,7896
33648,7906
33616,7915
33614,7916
33612,7917
33583,7932
33553,7948
33552,7949
33550,7950
33525,7971
33499,7991
33496,7994
33496,7994
33496,7994
33495,7995
33100,8390
31574,8390
31520,8323
31429,8246
31324,8189
31211,8153
31093,8140
31084,8140
30415,8140
30296,8151
30182,8186
30077,8241
30035,8276
29754,7995
29728,7974
29703,7952
29701,7952
29700,7950
29670,7935
29641,7919
29640,7918
29638,7917
29606,7907
29574,7897
29572,7897
29571,7897
29538,7893
29505,7890
29501,7890
29501,7890
29501,7890
29500,7890
26500,7890
26466,7893
26433,7896
26431,7896
26430,7896
26398,7906
26366,7915
26364,7916
26362,7917
26333,7932
26303,7948
26302,7949
26300,7950
26275,7971
26249,7991
26246,7994
26246,7994
26246,7994
26245,7995
25850,8390
24199,8390
24145,8323
24054,8246
23949,8189
23836,8153
23718,8140
23709,8140
23040,8140
22921,8151
22807,8186
22734,8225
22504,7995
22478,7974
22453,7952
22451,7952
22450,7950
22420,7935
22391,7919
22390,7918
22388,7917
22356,7907
22324,7897
22322,7897
22321,7897
22288,7893
22255,7890
22251,7890
22251,7890
22251,7890
22250,7890
19000,7890
18966,7893
18933,7896
18931,7896
18930,7896
18898,7906
18866,7915
18864,7916
18862,7917
18833,7932
18803,7948
18802,7949
18800,7950
18775,7971
18749,7991
18746,7994
18746,7994
18746,7994
18745,7995
18350,8390
16824,8390
16770,8323
16679,8246
16574,8189
16461,8153
16343,8140
16334,8140
15665,8140
15546,8151
15432,8186
15327,8241
15235,8317
15175,8390
13000,8390
12966,8393
12933,8396
12931,8396
12930,8396
12898,8406
12866,8415
12864,8416
12862,8417
12833,8432
12803,8448
12802,8449
12800,8450
12775,8471
12749,8491
12746,8494
12746,8494
12746,8494
12745,8495
10280,10960
10280,9399
10240,9200
10163,9014
10052,8845
9909,8702
9742,8589
9556,8511
9358,8470
9156,8469
8957,8507
8770,8582
8601,8693
8457,8834
8343,9001
8263,9187
8221,9384
8218,9586
8255,9785
8329,9973
8438,10142
8579,10288
8745,10403
8930,10484
9127,10527
9329,10531
9528,10496
9716,10423
9887,10315
10033,10176
10149,10011
10232,9826
10276,9629
10280,9399
10280,10960
9818,11422
9810,11420
9697,11419
9585,11440
9479,11483
9384,11545
9303,11625
9239,11719
9194,11823
9170,11935
9169,12048
9189,12160
9231,12266
9293,12362
9372,12443
9453,12500
9384,12545
9303,12625
9239,12719
9194,12823
9170,12935
9169,13048
9189,13160
9231,13266
9293,13362
9372,13443
9453,13500
9384,13545
9303,13625
9239,13719
9194,13823
9170,13935
9169,14048
9189,14160
9231,14266
9293,14362
9372,14443
9453,14500
9384,14545
9303,14625
9239,14719
9194,14823
9170,14935
9169,15048
9189,15160
9231,15266
9293,15362
9372,15443
9453,15500
9384,15545
9303,15625
9239,15719
9194,15823
9170,15935
9169,16048
9189,16160
9231,16266
9293,16362
9372,16443
9453,16500
9384,16545
9303,16625
9239,16719
9194,16823
9170,16935
9169,17048
9189,17160
9231,17266
9293,17362
9372,17443
9453,17500
9384,17545
9303,17625
9239,17719
9194,17823
9170,17935
9169,18048
9189,18160
9231,18266
9293,18362
9372,18443
9453,18500
9384,18545
9303,18625
9239,18719
9194,18823
9170,18935
9169,19048
9189,19160
9231,19266
9293,19362
9372,19443
9453,19500
9384,19545
9303,19625
9239,19719
9194,19823
9170,19935
9169,20048
9189,20160
9231,20266
9293,20362
9372,20443
9453,20500
9384,20545
9303,20625
9239,20719
9194,20823
9170,20935
9169,21048
9189,21160
9231,21266
9293,21362
9372,21443
9453,21500
9431,21512
9423,21517
9401,21623
9750,21971
9755,21966
9783,21994
9778,22000
10126,22348
10232,22326
10249,22294
10293,22362
10372,22443
10453,22500
10384,22545
10303,22625
10249,22703
10201,22631
10121,22550
10045,22499
10068,22487
10076,22482
10098,22376
9750,22028
9721,22056
9721,22000
9373,21651
9267,21673
9212,21773
9179,21882
9167,21995
9177,22108
9209,22218
9262,22318
9267,22326
9373,22348
9721,22000
9721,22056
9401,22376
9423,22482
9455,22499
9384,22545
9303,22625
9239,22719
9194,22823
9170,22935
9169,23048
9189,23160
9231,23266
9293,23362
9372,23443
9465,23508
9569,23554
9680,23578
9794,23581
9817,23577
9995,23754
10021,23775
10046,23797
10048,23797
10049,23799
10079,23814
10108,23830
10109,23831
10111,23832
10143,23842
10175,23852
10177,23852
10178,23852
10211,23856
10244,23859
10248,23859
10248,23859
10248,23859
10250,23860
47750,23860
47783,23856
47816,23853
47818,23853
47819,23853
47851,23843
47883,23834
47885,23833
47887,23832
47916,23817
47946,23801
47947,23800
47949,23799
47974,23778
48000,23758
48003,23755
48003,23755
48003,23755
48004,23754
48504,23254
48525,23228
48547,23203
48547,23201
48549,23200
48564,23170
48580,23141
48581,23140
48582,23138
48592,23106
48602,23074
48602,23072
48602,23071
48606,23038
48609,23005
48609,23001
48609,23001
48609,23001
48610,23000
48610,22767
48639,22748
48729,22663
48800,22562
48850,22449
48878,22329
48880,22188
48856,22067
48808,21952
48747,21860
51750,21860
51783,21856
51816,21853
51818,21853
51819,21853
51851,21843
51883,21834
51885,21833
51887,21832
51916,21817
51946,21801
51947,21800
51949,21799
51974,21778
52000,21758
52003,21755
52003,21755
52003,21755
52004,21754
52899,20860
66500,20860
66533,20856
66566,20853
66568,20853
66569,20853
66601,20843
66633,20834
66635,20833
66637,20832
66666,20817
66696,20801
66697,20800
66699,20799
66724,20778
66750,20758
66753,20755
66753,20755
66753,20755
66754,20754
67504,20004
67525,19978
67547,19953
67547,19951
67549,19950
67564,19920
67580,19891
67581,19890
67582,19888
67592,19856
67602,19824
67602,19822
67602,19821
67606,19788
67609,19755
67609,19751
67609,19751
67609,19751
67610,19750
67610,28967
62558,28967
62558,27163
62558,25560
53487,25560
53487,27163
62558,27163
62558,28967
10280,28967
10280,27024
10240,26825
10163,26639
10052,26470
9909,26327
9742,26214
9556,26136
9358,26095
9156,26094
8957,26132
8770,26207
8601,26318
8457,26459
8343,26626
8263,26812
8221,27009
8218,27211
8255,27410
8329,27598
8438,27767
8579,27913
8745,28028
8930,28109
9127,28152
9329,28156
9528,28121
9716,28048
9887,27940
10033,27801
10149,27636
10232,27451
10276,27254
10280,27024
10280,28967
7406,28967
7406,7657
74839,7657
74839,28967
" /> 
</g>
<g style="fill:#FFFFFF; fill-opacity:0.0; 
stroke:#FFFFFF; stroke-width:19.685; stroke-opacity:1; 
stroke-linecap:round; stroke-linejoin:round;">
</g>
<g style="fill:#FFFFFF; fill-opacity:1.0; 
stroke:#FFFFFF; stroke-width:19.685; stroke-opacity:1; 
stroke-linecap:round; stroke-linejoin:round;">
<circle cx="26250" cy="18250" r="59.0551" /> 
<circle cx="26250" cy="20750" r="59.0551" /> 
<circle cx="33500" cy="18250" r="59.0551" /> 
<circle cx="33500" cy="22000" r="59.0551" /> 
<circle cx="40750" cy="18250" r="59.0551" /> 
<circle cx="40750" cy="22250" r="59.0551" /> 
<circle cx="48250" cy="18250" r="59.0551" /> 
<circle cx="48250" cy="22250" r="59.0551" /> 
<circle cx="9250" cy="9500" r="59.0551" /> 
<circle cx="73000" cy="9500" r="59.0551" /> 
<circle cx="9250" cy="27125" r="59.0551" /> 
<circle cx="73000" cy="27125" r="59.0551" /> 
<circle cx="9750" cy="12000" r="59.0551" /> 
<circle cx="10750" cy="12000" r="59.0551" /> 
<circle cx="9750" cy="13000" r="59.0551" /> 
<circle cx="10750" cy="13000" r="59.0551" /> 
<circle cx="9750" cy="14000" r="59.0551" /> 
<circle cx="10750" cy="14000" r="59.0551" /> 
<circle cx="9750" cy="15000" r="59.0551" /> 
<circle cx="10750" cy="15000" r="59.0551" /> 
<circle cx="9750" cy="16000" r="59.0551" /> 
<circle cx="10750" cy="16000" r="59.0551" /> 
<circle cx="9750" cy="17000" r="59.0551" /> 
<circle cx="10750" cy="17000" r="59.0551" /> 
<circle cx="9750" cy="18000" r="59.0551" /> 
<circle cx="10750" cy="18000" r="59.0551" /> 
<circle cx="9750" cy="19000" r="59.0551" /> 
<circle cx="10750" cy="19000" r="59.0551" /> 
<circle cx="9750" cy="20000" r="59.0551" /> 
<circle cx="10750" cy="20000" r="59.0551" /> 
<circle cx="9750" cy="21000" r="59.0551" /> 
<circle cx="10750" cy="21000" r="59.0551" /> 
<circle cx="9750" cy="22000" r="59.0551" /> 
<circle cx="10750" cy="22000" r="59.0551" /> 
<circle cx="9750" cy="23000" r="59.0551" /> 
<circle cx="10750" cy="23000" r="59.0551" /> 
<circle cx="16000" cy="12750" r="59.0551" /> 
<circle cx="16000" cy="13750" r="59.0551" /> 
<circle cx="16000" cy="14750" r="59.0551" /> 
<circle cx="21500" cy="12750" r="59.0551" /> 
<circle cx="21500" cy="13750" r="59.0551" /> 
<circle cx="21500" cy="14750" r="59.0551" /> 
<circle cx="21500" cy="16750" r="59.0551" /> 
<circle cx="21500" cy="15750" r="59.0551" /> 
<circle cx="16000" cy="11750" r="59.0551" /> 
<circle cx="16000" cy="10750" r="59.0551" /> 
<circle cx="16000" cy="9750" r="59.0551" /> 
<circle cx="21500" cy="11750" r="59.0551" /> 
<circle cx="21500" cy="9750" r="59.0551" /> 
<circle cx="16000" cy="15750" r="59.0551" /> 
<circle cx="16000" cy="16750" r="59.0551" /> 
<circle cx="16000" cy="8750" r="59.0551" /> 
<circle cx="21500" cy="8750" r="59.0551" /> 
<circle cx="21500" cy="10750" r="59.0551" /> 
<circle cx="23375" cy="12750" r="59.0551" /> 
<circle cx="23375" cy="13750" r="59.0551" /> 
<circle cx="23375" cy="14750" r="59.0551" /> 
<circle cx="28875" cy="12750" r="59.0551" /> 
<circle cx="28875" cy="13750" r="59.0551" /> 
<circle cx="28875" cy="14750" r="59.0551" /> 
<circle cx="28875" cy="16750" r="59.0551" /> 
<circle cx="28875" cy="15750" r="59.0551" /> 
<circle cx="23375" cy="11750" r="59.0551" /> 
<circle cx="23375" cy="10750" r="59.0551" /> 
<circle cx="23375" cy="9750" r="59.0551" /> 
<circle cx="28875" cy="11750" r="59.0551" /> 
<circle cx="28875" cy="9750" r="59.0551" /> 
<circle cx="23375" cy="15750" r="59.0551" /> 
<circle cx="23375" cy="16750" r="59.0551" /> 
<circle cx="23375" cy="8750" r="59.0551" /> 
<circle cx="28875" cy="8750" r="59.0551" /> 
<circle cx="28875" cy="10750" r="59.0551" /> 
<circle cx="30750" cy="12750" r="59.0551" /> 
<circle cx="30750" cy="13750" r="59.0551" /> 
<circle cx="30750" cy="14750" r="59.0551" /> 
<circle cx="36250" cy="12750" r="59.0551" /> 
<circle cx="36250" cy="13750" r="59.0551" /> 
<circle cx="36250" cy="14750" r="59.0551" /> 
<circle cx="36250" cy="16750" r="59.0551" /> 
<circle cx="36250" cy="15750" r="59.0551" /> 
<circle cx="30750" cy="11750" r="59.0551" /> 
<circle cx="30750" cy="10750" r="59.0551" /> 
<circle cx="30750" cy="9750" r="59.0551" /> 
<circle cx="36250" cy="11750" r="59.0551" /> 
<circle cx="36250" cy="9750" r="59.0551" /> 
<circle cx="30750" cy="15750" r="59.0551" /> 
<circle cx="30750" cy="16750" r="59.0551" /> 
<circle cx="30750" cy="8750" r="59.0551" /> 
<circle cx="36250" cy="8750" r="59.0551" /> 
<circle cx="36250" cy="10750" r="59.0551" /> 
<circle cx="38125" cy="12750" r="59.0551" /> 
<circle cx="38125" cy="13750" r="59.0551" /> 
<circle cx="38125" cy="14750" r="59.0551" /> 
<circle cx="43625" cy="12750" r="59.0551" /> 
<circle cx="43625" cy="13750" r="59.0551" /> 
<circle cx="43625" cy="14750" r="59.0551" /> 
<circle cx="43625" cy="16750" r="59.0551" /> 
<circle cx="43625" cy="15750" r="59.0551" /> 
<circle cx="38125" cy="11750" r="59.0551" /> 
<circle cx="38125" cy="10750" r="59.0551" /> 
<circle cx="38125" cy="9750" r="59.0551" /> 
<circle cx="43625" cy="11750" r="59.0551" /> 
<circle cx="43625" cy="9750" r="59.0551" /> 
<circle cx="38125" cy="15750" r="59.0551" /> 
<circle cx="38125" cy="16750" r="59.0551" /> 
<circle cx="38125" cy="8750" r="59.0551" /> 
<circle cx="43625" cy="8750" r="59.0551" /> 
<circle cx="43625" cy="10750" r="59.0551" /> 
<circle cx="45500" cy="12750" r="59.0551" /> 
<circle cx="45500" cy="13750" r="59.0551" /> 
<circle cx="45500" cy="14750" r="59.0551" /> 
<circle cx="51000" cy="12750" r="59.0551" /> 
<circle cx="51000" cy="13750" r="59.0551" /> 
<circle cx="51000" cy="14750" r="59.0551" /> 
<circle cx="51000" cy="16750" r="59.0551" /> 
<circle cx="51000" cy="15750" r="59.0551" /> 
<circle cx="45500" cy="11750" r="59.0551" /> 
<circle cx="45500" cy="10750" r="59.0551" /> 
<circle cx="45500" cy="9750" r="59.0551" /> 
<circle cx="51000" cy="11750" r="59.0551" /> 
<circle cx="51000" cy="9750" r="59.0551" /> 
<circle cx="45500" cy="15750" r="59.0551" /> 
<circle cx="45500" cy="16750" r="59.0551" /> 
<circle cx="45500" cy="8750" r="59.0551" /> 
<circle cx="51000" cy="8750" r="59.0551" /> 
<circle cx="51000" cy="10750" r="59.0551" /> 
<circle cx="52875" cy="12750" r="59.0551" /> 
<circle cx="52875" cy="13750" r="59.0551" /> 
<circle cx="52875" cy="14750" r="59.0551" /> 
<circle cx="58375" cy="12750" r="59.0551" /> 
<circle cx="58375" cy="13750" r="59.0551" /> 
<circle cx="58375" cy="14750" r="59.0551" /> 
<circle cx="58375" cy="16750" r="59.0551" /> 
<circle cx="58375" cy="15750" r="59.0551" /> 
<circle cx="52875" cy="11750" r="59.0551" /> 
<circle cx="52875" cy="10750" r="59.0551" /> 
<circle cx="52875" cy="9750" r="59.0551" /> 
<circle cx="58375" cy="11750" r="59.0551" /> 
<circle cx="58375" cy="9750" r="59.0551" /> 
<circle cx="52875" cy="15750" r="59.0551" /> 
<circle cx="52875" cy="16750" r="59.0551" /> 
<circle cx="52875" cy="8750" r="59.0551" /> 
<circle cx="58375" cy="8750" r="59.0551" /> 
<circle cx="58375" cy="10750" r="59.0551" /> 
<circle cx="60250" cy="12750" r="59.0551" /> 
<circle cx="60250" cy="13750" r="59.0551" /> 
<circle cx="60250" cy="14750" r="59.0551" /> 
<circle cx="65750" cy="12750" r="59.0551" /> 
<circle cx="65750" cy="13750" r="59.0551" /> 
<circle cx="65750" cy="14750" r="59.0551" /> 
<circle cx="65750" cy="16750" r="59.0551" /> 
<circle cx="65750" cy="15750" r="59.0551" /> 
<circle cx="60250" cy="11750" r="59.0551" /> 
<circle cx="60250" cy="10750" r="59.0551" /> 
<circle cx="60250" cy="9750" r="59.0551" /> 
<circle cx="65750" cy="11750" r="59.0551" /> 
<circle cx="65750" cy="9750" r="59.0551" /> 
<circle cx="60250" cy="15750" r="59.0551" /> 
<circle cx="60250" cy="16750" r="59.0551" /> 
<circle cx="60250" cy="8750" r="59.0551" /> 
<circle cx="65750" cy="8750" r="59.0551" /> 
<circle cx="65750" cy="10750" r="59.0551" /> 
</g> 
</svg>
